<svg xmlns="http://www.w3.org/2000/svg" width="16" height="16" fill="none" viewBox="0 0 16 16">
  <path fill="#141414" fill-rule="evenodd" d="M5.5 2A1.5 1.5 0 0 0 4 3.5v10.261l1.57-.628a1 1 0 0 1 .926.097l1.004.67.981-.655a1 1 0 0 1 1.002-.062l1.481.74 1.036-.69V3.5A1.5 1.5 0 0 0 10.5 2h-5ZM3 3.5A2.5 2.5 0 0 1 5.5 1h5A2.5 2.5 0 0 1 13 3.5v9.732a1 1 0 0 1-.445.833l-1.036.69a1 1 0 0 1-1.002.062l-1.481-.74-.981.654a1 1 0 0 1-1.11 0l-1.004-.67-1.57.629A1 1 0 0 1 3 13.762V3.5Z" clip-rule="evenodd"/>
  <path fill="#141414" fill-rule="evenodd" d="M5 8a.5.5 0 0 1 .5-.5h5a.5.5 0 0 1 0 1h-5A.5.5 0 0 1 5 8Zm0 3a.5.5 0 0 1 .5-.5h5a.5.5 0 0 1 0 1h-5A.5.5 0 0 1 5 11Zm0-6a.5.5 0 0 1 .5-.5h5a.5.5 0 0 1 0 1h-5A.5.5 0 0 1 5 5Z" clip-rule="evenodd"/>
</svg>
