<svg xmlns="http://www.w3.org/2000/svg" width="32" height="32" fill="none" viewBox="0 0 32 32">
  <path fill="#141414" fill-rule="evenodd" d="M8 3a3.667 3.667 0 0 0-3.667 3.667v22.666a1 1 0 0 0 1.6.8l4.64-3.48 3.387 3.387a1 1 0 0 0 1.358.053l4.016-3.443 4.015 3.443a1 1 0 0 0 1.483-.205l2.667-4a1 1 0 0 0 .168-.555V6.667A3.667 3.667 0 0 0 24 3H8ZM6.333 6.667C6.333 5.747 7.08 5 8 5h16c.92 0 1.667.746 1.667 1.667V25.03l-1.873 2.809-3.81-3.266a1 1 0 0 0-1.301 0l-3.964 3.397-3.345-3.345a1 1 0 0 0-1.307-.093l-3.734 2.8V6.667ZM10 8.333a1 1 0 1 0 0 2h12a1 1 0 0 0 0-2H10Zm-1 6.334a1 1 0 0 1 1-1h12a1 1 0 0 1 0 2H10a1 1 0 0 1-1-1ZM10 19a1 1 0 1 0 0 2h12a1 1 0 0 0 0-2H10Z" clip-rule="evenodd"/>
</svg>
