<svg xmlns="http://www.w3.org/2000/svg" width="24" height="24" fill="none" viewBox="0 0 24 24">
  <path fill="#141414" fill-rule="evenodd" d="M6 2.25A2.75 2.75 0 0 0 3.25 5v17a.75.75 0 0 0 1.2.6l3.48-2.61 2.54 2.54a.75.75 0 0 0 1.018.04l3.012-2.582 3.012 2.581a.75.75 0 0 0 1.112-.153l2-3A.75.75 0 0 0 20.75 19V5A2.75 2.75 0 0 0 18 2.25H6ZM4.75 5c0-.69.56-1.25 1.25-1.25h12c.69 0 1.25.56 1.25 1.25v13.773l-1.404 2.107-2.858-2.45a.75.75 0 0 0-.976 0l-2.973 2.549-2.509-2.51a.75.75 0 0 0-.98-.069l-2.8 2.1V5ZM7.5 6.25a.75.75 0 0 0 0 1.5h9a.75.75 0 0 0 0-1.5h-9ZM6.75 11a.75.75 0 0 1 .75-.75h9a.75.75 0 0 1 0 1.5h-9a.75.75 0 0 1-.75-.75Zm.75 3.25a.75.75 0 0 0 0 1.5h9a.75.75 0 0 0 0-1.5h-9Z" clip-rule="evenodd"/>
</svg>
