<svg xmlns="http://www.w3.org/2000/svg" width="32" height="32" fill="none" viewBox="0 0 32 32">
  <path fill="#141414" fill-rule="evenodd" d="M4 5.333C4 4.597 4.597 4 5.333 4H8c.736 0 1.333.597 1.333 1.333V8c0 .736-.597 1.333-1.333 1.333H5.333A1.333 1.333 0 0 1 4 8V5.333Zm0 9.334c0-.737.597-1.334 1.333-1.334H8c.736 0 1.333.597 1.333 1.334v2.666c0 .737-.597 1.334-1.333 1.334H5.333A1.333 1.333 0 0 1 4 17.333v-2.666Zm1.333 8C4.597 22.667 4 23.264 4 24v2.667C4 27.403 4.597 28 5.333 28H8c.736 0 1.333-.597 1.333-1.333V24c0-.736-.597-1.333-1.333-1.333H5.333Zm8-17.334c0-.736.597-1.333 1.334-1.333h2.666c.737 0 1.334.597 1.334 1.333V8c0 .736-.597 1.333-1.334 1.333h-2.666A1.333 1.333 0 0 1 13.333 8V5.333Zm1.334 8c-.737 0-1.334.597-1.334 1.334v2.666c0 .737.597 1.334 1.334 1.334h2.666c.737 0 1.334-.597 1.334-1.334v-2.666c0-.737-.597-1.334-1.334-1.334h-2.666ZM13.333 24c0-.736.597-1.333 1.334-1.333h2.666c.737 0 1.334.597 1.334 1.333v2.667c0 .736-.597 1.333-1.334 1.333h-2.666a1.333 1.333 0 0 1-1.334-1.333V24ZM24 4c-.736 0-1.333.597-1.333 1.333V8c0 .736.597 1.333 1.333 1.333h2.667C27.403 9.333 28 8.736 28 8V5.333C28 4.597 27.403 4 26.667 4H24Zm-1.333 10.667c0-.737.597-1.334 1.333-1.334h2.667c.736 0 1.333.597 1.333 1.334v2.666c0 .737-.597 1.334-1.333 1.334H24a1.333 1.333 0 0 1-1.333-1.334v-2.666Zm1.333 8c-.736 0-1.333.597-1.333 1.333v2.667c0 .736.597 1.333 1.333 1.333h2.667c.736 0 1.333-.597 1.333-1.333V24c0-.736-.597-1.333-1.333-1.333H24Z" clip-rule="evenodd"/>
</svg>
