<svg xmlns="http://www.w3.org/2000/svg" width="24" height="24" fill="none" viewBox="0 0 24 24">
  <path fill="#141414" fill-rule="evenodd" d="M5 2.25A2.75 2.75 0 0 0 2.25 5v5c0 .414.336.75.75.75h3.25V19A2.75 2.75 0 0 0 9 21.75h10A2.75 2.75 0 0 0 21.75 19v-3a.75.75 0 0 0-.75-.75h-1.25V5A2.75 2.75 0 0 0 17 2.25H5Zm6.45 18H19c.69 0 1.25-.56 1.25-1.25v-2.25h-8.5V19c0 .45-.108.875-.3 1.25Zm4.05-5h2.75V5c0-.69-.56-1.25-1.25-1.25H7.45c.192.375.3.8.3 1.25v14a1.25 1.25 0 1 0 2.5 0v-3a.75.75 0 0 1 .75-.75h4.5ZM5 3.75c-.69 0-1.25.56-1.25 1.25v4.25h2.5V5c0-.69-.56-1.25-1.25-1.25ZM9.25 7.5a.75.75 0 0 1 .75-.75h6a.75.75 0 0 1 0 1.5h-6a.75.75 0 0 1-.75-.75Zm.75 3.25a.75.75 0 0 0 0 1.5h6a.75.75 0 0 0 0-1.5h-6Z" clip-rule="evenodd"/>
</svg>
