<svg xmlns="http://www.w3.org/2000/svg" width="32" height="32" fill="none" viewBox="0 0 32 32">
  <path fill="#141414" fill-rule="evenodd" d="M6.667 3A3.667 3.667 0 0 0 3 6.667v6.666a1 1 0 0 0 1 1h4.333v11A3.667 3.667 0 0 0 12 29h13.333A3.667 3.667 0 0 0 29 25.333v-4a1 1 0 0 0-1-1h-1.667V6.667A3.667 3.667 0 0 0 22.667 3h-16Zm8.6 24h10.066c.92 0 1.667-.746 1.667-1.667v-3H15.667v3c0 .6-.144 1.167-.4 1.667Zm5.4-6.667h3.666V6.667c0-.92-.746-1.667-1.666-1.667H9.934c.255.5.4 1.067.4 1.667v18.666a1.667 1.667 0 1 0 3.333 0v-4a1 1 0 0 1 1-1h6ZM6.667 5C5.747 5 5 5.746 5 6.667v5.666h3.333V6.667C8.333 5.747 7.587 5 6.667 5Zm5.666 5a1 1 0 0 1 1-1h8a1 1 0 1 1 0 2h-8a1 1 0 0 1-1-1Zm1 4.333a1 1 0 1 0 0 2h8a1 1 0 1 0 0-2h-8Z" clip-rule="evenodd"/>
</svg>
