<svg xmlns="http://www.w3.org/2000/svg" width="16" height="16" fill="none" viewBox="0 0 16 16">
  <path fill="#141414" fill-rule="evenodd" d="M4.5 4a.5.5 0 0 1 .5.5V13a1 1 0 1 0 2 0v-2.5a.5.5 0 0 1 1 0V13a2 2 0 1 1-4 0V4.5a.5.5 0 0 1 .5-.5Zm-2-2.5A.5.5 0 0 1 3 1h8a2 2 0 0 1 2 2v7.5a.5.5 0 0 1-1 0V3a1 1 0 0 0-1-1H3a.5.5 0 0 1-.5-.5Z" clip-rule="evenodd"/>
  <path fill="#141414" fill-rule="evenodd" d="M3 2a1 1 0 0 0-1 1v4h2V3a1 1 0 0 0-1-1Zm1 6v5a2 2 0 0 0 2 2h6a3 3 0 0 0 3-3v-1a1 1 0 0 0-1-1H7.5a.5.5 0 0 0 0 1H14v1a2 2 0 0 1-2 2H6a1 1 0 0 1-1-1V3a2 2 0 1 0-4 0v4a1 1 0 0 0 1 1h2Z" clip-rule="evenodd"/>
  <path fill="#141414" fill-rule="evenodd" d="M6 4.5a.5.5 0 0 1 .5-.5h4a.5.5 0 0 1 0 1h-4a.5.5 0 0 1-.5-.5Zm0 3a.5.5 0 0 1 .5-.5h4a.5.5 0 0 1 0 1h-4a.5.5 0 0 1-.5-.5Z" clip-rule="evenodd"/>
</svg>
