<svg xmlns="http://www.w3.org/2000/svg" width="24" height="24" fill="none" viewBox="0 0 24 24">
  <path fill="#141414" d="M12 13a1 1 0 1 0 0-2 1 1 0 0 0 0 2Z"/>
  <path fill="#141414" fill-rule="evenodd" d="M12 22c1.51 0 2.863-1.338 3.78-3.453 2.29.263 4.126-.24 4.88-1.547.755-1.307.273-3.149-1.1-5 1.373-1.852 1.855-3.693 1.1-5-.754-1.307-2.59-1.81-4.88-1.547C14.863 3.338 13.51 2 12 2c-1.51 0-2.863 1.338-3.78 3.453C5.93 5.19 4.096 5.693 3.34 7c-.755 1.307-.273 3.148 1.1 5-1.373 1.852-1.855 3.693-1.1 5 .755 1.307 2.59 1.81 4.88 1.547C9.138 20.662 10.49 22 12 22Zm3.044-5.995c-.072.296-.151.582-.237.856-.28-.063-.568-.137-.86-.223a20.337 20.337 0 0 0 1.097-.633ZM12 17.548c.77.308 1.527.55 2.256.725l-.062.127c-.825 1.65-1.687 2.1-2.194 2.1-.506 0-1.369-.45-2.194-2.1a8.18 8.18 0 0 1-.062-.127c.73-.175 1.487-.417 2.256-.725Zm-2.806-.687c.28-.063.567-.137.86-.223a20.402 20.402 0 0 1-1.097-.633c.071.296.15.582.237.856Zm-1.498.23a16.42 16.42 0 0 1-.5-2.317 16.429 16.429 0 0 1-1.757-1.591l-.079.117c-1.016 1.54-.974 2.511-.721 2.95.253.439 1.074.96 2.915.85l.142-.01Zm2.554-2.06a18.256 18.256 0 0 1-1.646-1.07A18.28 18.28 0 0 1 8.5 12c0-.678.037-1.334.104-1.96A18.274 18.274 0 0 1 12 8.08a18.274 18.274 0 0 1 3.396 1.96c.068.626.104 1.282.104 1.96 0 .678-.036 1.334-.104 1.96a18.25 18.25 0 0 1-1.646 1.071c-.587.339-1.173.635-1.75.89a18.278 18.278 0 0 1-1.75-.89ZM14.5 7.67c-.184-.107-.368-.21-.553-.308.292-.086.58-.16.86-.223.086.274.165.56.237.856-.178-.11-.36-.219-.544-.325ZM17 12c0-.213-.003-.424-.01-.634.221.21.429.422.623.634-.194.211-.402.423-.623.633.007-.21.01-.42.01-.633Zm-.195-2.774a16.42 16.42 0 0 1 1.756 1.591l.079-.117c1.016-1.54.974-2.511.721-2.95-.253-.439-1.073-.96-2.915-.85a8.544 8.544 0 0 0-.141.01c.213.719.382 1.495.5 2.316Zm0 5.548a16.42 16.42 0 0 0 1.756-1.591l.079.117c1.017 1.54.975 2.511.721 2.95-.253.439-1.073.96-2.915.85a8.987 8.987 0 0 1-.141-.01c.213-.719.382-1.496.5-2.316Zm-7.06-9.047c.728.175 1.486.417 2.255.725.77-.308 1.527-.55 2.256-.725a9.42 9.42 0 0 0-.062-.127C13.37 3.95 12.507 3.5 12 3.5c-.506 0-1.369.45-2.194 2.1l-.062.127Zm.309 1.635c-.293-.086-.58-.16-.86-.223-.086.274-.166.56-.237.856a20.272 20.272 0 0 1 1.097-.633Zm-2.5-.462.142.01a16.418 16.418 0 0 0-.5 2.316 16.413 16.413 0 0 0-1.757 1.591 8.779 8.779 0 0 1-.078-.117c-1.017-1.54-.975-2.511-.722-2.95.253-.439 1.074-.96 2.915-.85Zm-.544 4.466c-.22.211-.428.423-.623.634.195.211.402.423.623.633a20.29 20.29 0 0 1 0-1.266Z" clip-rule="evenodd"/>
</svg>
