<svg xmlns="http://www.w3.org/2000/svg" width="32" height="32" fill="none" viewBox="0 0 32 32">
  <path fill="#141414" d="M16 17.333a1.333 1.333 0 1 0 0-2.666 1.333 1.333 0 0 0 0 2.666Z"/>
  <path fill="#141414" fill-rule="evenodd" d="M16 29.333c2.013 0 3.817-1.784 5.04-4.604 3.053.351 5.5-.32 6.507-2.063 1.006-1.743.363-4.197-1.468-6.666 1.831-2.47 2.474-4.924 1.468-6.667-1.007-1.743-3.454-2.414-6.508-2.062-1.222-2.82-3.026-4.604-5.04-4.604-2.012 0-3.816 1.783-5.039 4.604-3.054-.352-5.5.319-6.507 2.062C3.447 11.076 4.089 13.531 5.92 16c-1.832 2.469-2.475 4.923-1.468 6.667 1.006 1.743 3.453 2.413 6.507 2.062 1.223 2.82 3.027 4.604 5.04 4.604Zm4.058-7.993c-.096.395-.202.776-.316 1.14a17.932 17.932 0 0 1-1.147-.296 27.115 27.115 0 0 0 1.463-.844ZM16 23.398c1.026.41 2.036.733 3.008.966l-.083.17c-1.1 2.2-2.25 2.8-2.925 2.8-.675 0-1.825-.6-2.925-2.8a11.151 11.151 0 0 1-.083-.17A21.881 21.881 0 0 0 16 23.398Zm-3.742-.917c.374-.083.756-.182 1.147-.297a27.28 27.28 0 0 1-1.463-.845c.095.396.201.777.316 1.142Zm-1.998.306a21.888 21.888 0 0 1-.667-3.088 21.89 21.89 0 0 1-2.34-2.122 11.87 11.87 0 0 0-.106.156c-1.356 2.053-1.3 3.349-.962 3.934.337.584 1.431 1.28 3.887 1.133l.188-.013Zm3.407-2.746a24.358 24.358 0 0 1-2.195-1.427A24.37 24.37 0 0 1 11.333 16c0-.904.049-1.778.139-2.614a24.388 24.388 0 0 1 2.194-1.428A24.393 24.393 0 0 1 16 10.771c.769.34 1.55.735 2.333 1.187.783.452 1.516.931 2.195 1.428.09.835.138 1.71.138 2.614 0 .904-.048 1.778-.138 2.614A24.57 24.57 0 0 1 16 21.228c-.77-.34-1.55-.735-2.333-1.187Zm5.666-9.815a26.777 26.777 0 0 0-.738-.41c.39-.115.773-.214 1.147-.297.114.365.22.746.316 1.14-.238-.146-.48-.29-.725-.433ZM22.666 16c0-.284-.004-.566-.013-.845.295.28.572.563.83.845-.258.282-.535.564-.83.844.009-.279.013-.56.013-.844Zm-.26-3.7a21.887 21.887 0 0 1 2.341 2.123l.106-.157c1.355-2.053 1.3-3.348.962-3.933-.338-.585-1.432-1.28-3.888-1.133l-.188.013c.284.958.51 1.994.668 3.088Zm0 7.399a21.887 21.887 0 0 0 2.341-2.122c.036.052.072.104.106.156 1.355 2.053 1.3 3.349.962 3.933-.338.585-1.432 1.281-3.887 1.134a10.404 10.404 0 0 1-.189-.013c.284-.959.51-1.995.668-3.088ZM12.993 7.636A21.89 21.89 0 0 1 16 8.602a21.891 21.891 0 0 1 3.008-.966 11.487 11.487 0 0 0-.083-.17c-1.1-2.2-2.25-2.8-2.925-2.8-.675 0-1.825.6-2.925 2.8-.028.056-.056.112-.083.17Zm.413 2.18c-.39-.115-.773-.214-1.147-.297-.115.365-.22.746-.316 1.141a27.039 27.039 0 0 1 1.463-.845ZM10.072 9.2c.062.003.125.008.188.013a21.78 21.78 0 0 0-.667 3.088 21.892 21.892 0 0 0-2.34 2.122 6.208 6.208 0 0 1-.106-.157c-1.355-2.053-1.3-3.348-.962-3.933.338-.585 1.432-1.28 3.887-1.133Zm-.726 5.955c-.294.28-.571.563-.83.845.259.282.536.564.83.844a27.019 27.019 0 0 1 0-1.689Z" clip-rule="evenodd"/>
</svg>
