<svg xmlns="http://www.w3.org/2000/svg" width="16" height="16" fill="none" viewBox="0 0 16 16">
  <path fill="#141414" d="M8 9a1 1 0 1 0 0-2 1 1 0 0 0 0 2Z"/>
  <path fill="#141414" fill-rule="evenodd" d="M8 15c.987 0 1.862-1.112 2.409-2.827 1.76.384 3.16.182 3.653-.673.493-.854-.031-2.168-1.244-3.5 1.213-1.331 1.738-2.645 1.244-3.5-.493-.855-1.894-1.057-3.653-.673C9.862 2.112 8.987 1 8 1c-.987 0-1.862 1.112-2.41 2.828-1.758-.385-3.159-.182-3.652.672-.494.855.031 2.169 1.244 3.5-1.213 1.331-1.738 2.645-1.244 3.5.493.854 1.894 1.057 3.653.672C6.138 13.888 7.013 15 8 15Zm1.803-4.581c-.031.18-.065.356-.102.527a12.023 12.023 0 0 1-.508-.175 16.337 16.337 0 0 0 .61-.352ZM8 11.363c.491.219.975.402 1.442.55a7.565 7.565 0 0 1-.24.643c-.24.56-.5.948-.737 1.182-.233.23-.389.262-.465.262-.076 0-.232-.032-.465-.262-.238-.234-.498-.623-.737-1.182a7.54 7.54 0 0 1-.24-.643c.467-.148.95-.331 1.442-.55Zm-1.7-.417c.165-.053.335-.112.506-.175a16.341 16.341 0 0 1-.609-.352c.031.18.065.356.102.527Zm-.968.26a13.786 13.786 0 0 1-.245-1.524 13.785 13.785 0 0 1-1.197-.974 7.553 7.553 0 0 0-.437.529c-.364.487-.57.906-.655 1.229-.083.317-.032.468.006.534s.143.185.46.272c.321.088.787.119 1.392.047.215-.026.44-.064.676-.114ZM7 9.731a15.264 15.264 0 0 1-.959-.601 15.267 15.267 0 0 1 0-2.262A15.267 15.267 0 0 1 8 5.74a15.269 15.269 0 0 1 1.958 1.13 15.266 15.266 0 0 1 0 2.262A15.264 15.264 0 0 1 8 10.26c-.33-.159-.664-.335-1-.529Zm2.5-4.33a16.611 16.611 0 0 0-.307-.173 12 12 0 0 1 .508-.175c.037.17.07.347.102.527-.1-.06-.201-.12-.303-.179ZM11 8c0-.118-.001-.235-.004-.352.141.117.276.235.405.352-.129.117-.264.235-.405.352C11 8.235 11 8.118 11 8Zm-.087-1.682c.435.317.835.644 1.197.974.16-.178.307-.355.437-.529.364-.487.57-.906.655-1.23.083-.316.032-.467-.006-.533s-.143-.185-.46-.272c-.32-.089-.787-.12-1.392-.047a7.554 7.554 0 0 0-.676.114c.106.478.188.989.245 1.523Zm0 3.364c.435-.317.835-.644 1.197-.974.16.179.307.355.436.529.365.487.572.906.656 1.23.083.316.032.467-.006.533s-.143.185-.46.272c-.321.089-.788.12-1.392.047a7.521 7.521 0 0 1-.676-.114c.105-.478.188-.989.245-1.523ZM6.558 4.087c.467.148.95.331 1.442.55.491-.219.975-.402 1.442-.55a7.553 7.553 0 0 0-.24-.643c-.24-.56-.5-.948-.737-1.182C8.232 2.032 8.076 2 8 2c-.076 0-.232.032-.465.262-.238.234-.498.623-.737 1.182-.086.2-.166.414-.24.643Zm.248 1.142a11.77 11.77 0 0 0-.507-.175c-.037.17-.07.347-.102.527a16.541 16.541 0 0 1 .61-.352Zm-2.15-.548c.215.026.44.064.676.114-.106.478-.188.989-.245 1.523-.435.317-.835.644-1.197.974a7.553 7.553 0 0 1-.437-.529c-.364-.487-.57-.906-.655-1.229-.083-.317-.032-.468.006-.534s.143-.185.46-.272c.32-.088.787-.119 1.392-.047Zm.348 2.967c-.141.117-.276.235-.406.352.13.117.265.235.406.352a16.603 16.603 0 0 1 0-.704Z" clip-rule="evenodd"/>
</svg>
