<svg width="24" height="24" viewBox="0 0 24 24" fill="none" xmlns="http://www.w3.org/2000/svg">
<path d="M17 5C17 5.82843 16.3284 6.5 15.5 6.5C14.6716 6.5 14 5.82843 14 5C14 4.17157 14.6716 3.5 15.5 3.5C16.3284 3.5 17 4.17157 17 5Z" fill="#141414"/>
<path d="M10 5C10 5.82843 9.32843 6.5 8.5 6.5C7.67157 6.5 7 5.82843 7 5C7 4.17157 7.67157 3.5 8.5 3.5C9.32843 3.5 10 4.17157 10 5Z" fill="#141414"/>
<path d="M17 12C17 12.8284 16.3284 13.5 15.5 13.5C14.6716 13.5 14 12.8284 14 12C14 11.1716 14.6716 10.5 15.5 10.5C16.3284 10.5 17 11.1716 17 12Z" fill="#141414"/>
<path d="M10 12C10 12.8284 9.32843 13.5 8.5 13.5C7.67157 13.5 7 12.8284 7 12C7 11.1716 7.67157 10.5 8.5 10.5C9.32843 10.5 10 11.1716 10 12Z" fill="#141414"/>
<path d="M17 19C17 19.8284 16.3284 20.5 15.5 20.5C14.6716 20.5 14 19.8284 14 19C14 18.1716 14.6716 17.5 15.5 17.5C16.3284 17.5 17 18.1716 17 19Z" fill="#141414"/>
<path d="M10 19C10 19.8284 9.32843 20.5 8.5 20.5C7.67157 20.5 7 19.8284 7 19C7 18.1716 7.67157 17.5 8.5 17.5C9.32843 17.5 10 18.1716 10 19Z" fill="#141414"/>
</svg>
