<svg width="12" height="12" viewBox="0 0 12 12" fill="none" xmlns="http://www.w3.org/2000/svg">
<path d="M8.88235 1.88235C8.88235 2.36966 8.48731 2.76471 8 2.76471C7.51269 2.76471 7.11765 2.36966 7.11765 1.88235C7.11765 1.39504 7.51269 1 8 1C8.48731 1 8.88235 1.39504 8.88235 1.88235Z" fill="#141414"/>
<path d="M4.76471 1.88235C4.76471 2.36966 4.36966 2.76471 3.88235 2.76471C3.39504 2.76471 3 2.36966 3 1.88235C3 1.39504 3.39504 1 3.88235 1C4.36966 1 4.76471 1.39504 4.76471 1.88235Z" fill="#141414"/>
<path d="M8.88235 6C8.88235 6.48731 8.48731 6.88235 8 6.88235C7.51269 6.88235 7.11765 6.48731 7.11765 6C7.11765 5.51269 7.51269 5.11765 8 5.11765C8.48731 5.11765 8.88235 5.51269 8.88235 6Z" fill="#141414"/>
<path d="M4.76471 6C4.76471 6.48731 4.36966 6.88235 3.88235 6.88235C3.39504 6.88235 3 6.48731 3 6C3 5.51269 3.39504 5.11765 3.88235 5.11765C4.36966 5.11765 4.76471 5.51269 4.76471 6Z" fill="#141414"/>
<path d="M8.88235 10.1176C8.88235 10.605 8.48731 11 8 11C7.51269 11 7.11765 10.605 7.11765 10.1176C7.11765 9.63034 7.51269 9.23529 8 9.23529C8.48731 9.23529 8.88235 9.63034 8.88235 10.1176Z" fill="#141414"/>
<path d="M4.76471 10.1176C4.76471 10.605 4.36966 11 3.88235 11C3.39504 11 3 10.605 3 10.1176C3 9.63034 3.39504 9.23529 3.88235 9.23529C4.36966 9.23529 4.76471 9.63034 4.76471 10.1176Z" fill="#141414"/>
</svg>
