<svg width="32" height="32" viewBox="0 0 32 32" fill="none" xmlns="http://www.w3.org/2000/svg">
<path d="M23 7C23 8.10457 22.1046 9 21 9C19.8954 9 19 8.10457 19 7C19 5.89543 19.8954 5 21 5C22.1046 5 23 5.89543 23 7Z" fill="#141414"/>
<path d="M14 7C14 8.10457 13.1046 9 12 9C10.8954 9 10 8.10457 10 7C10 5.89543 10.8954 5 12 5C13.1046 5 14 5.89543 14 7Z" fill="#141414"/>
<path d="M23 16C23 17.1046 22.1046 18 21 18C19.8954 18 19 17.1046 19 16C19 14.8954 19.8954 14 21 14C22.1046 14 23 14.8954 23 16Z" fill="#141414"/>
<path d="M14 16C14 17.1046 13.1046 18 12 18C10.8954 18 10 17.1046 10 16C10 14.8954 10.8954 14 12 14C13.1046 14 14 14.8954 14 16Z" fill="#141414"/>
<path d="M23 25C23 26.1046 22.1046 27 21 27C19.8954 27 19 26.1046 19 25C19 23.8954 19.8954 23 21 23C22.1046 23 23 23.8954 23 25Z" fill="#141414"/>
<path d="M14 25C14 26.1046 13.1046 27 12 27C10.8954 27 10 26.1046 10 25C10 23.8954 10.8954 23 12 23C13.1046 23 14 23.8954 14 25Z" fill="#141414"/>
</svg>
