<svg width="16" height="16" viewBox="0 0 16 16" fill="none" xmlns="http://www.w3.org/2000/svg">
<path d="M11.0588 3.05882C11.0588 3.6436 10.5848 4.11765 10 4.11765C9.41523 4.11765 8.94118 3.6436 8.94118 3.05882C8.94118 2.47405 9.41523 2 10 2C10.5848 2 11.0588 2.47405 11.0588 3.05882Z" fill="#141414"/>
<path d="M6.11765 3.05882C6.11765 3.6436 5.6436 4.11765 5.05882 4.11765C4.47405 4.11765 4 3.6436 4 3.05882C4 2.47405 4.47405 2 5.05882 2C5.6436 2 6.11765 2.47405 6.11765 3.05882Z" fill="#141414"/>
<path d="M11.0588 8C11.0588 8.58477 10.5848 9.05882 10 9.05882C9.41523 9.05882 8.94118 8.58477 8.94118 8C8.94118 7.41523 9.41523 6.94118 10 6.94118C10.5848 6.94118 11.0588 7.41523 11.0588 8Z" fill="#141414"/>
<path d="M6.11765 8C6.11765 8.58477 5.6436 9.05882 5.05882 9.05882C4.47405 9.05882 4 8.58477 4 8C4 7.41523 4.47405 6.94118 5.05882 6.94118C5.6436 6.94118 6.11765 7.41523 6.11765 8Z" fill="#141414"/>
<path d="M11.0588 12.9412C11.0588 13.5259 10.5848 14 10 14C9.41523 14 8.94118 13.5259 8.94118 12.9412C8.94118 12.3564 9.41523 11.8824 10 11.8824C10.5848 11.8824 11.0588 12.3564 11.0588 12.9412Z" fill="#141414"/>
<path d="M6.11765 12.9412C6.11765 13.5259 5.6436 14 5.05882 14C4.47405 14 4 13.5259 4 12.9412C4 12.3564 4.47405 11.8824 5.05882 11.8824C5.6436 11.8824 6.11765 12.3564 6.11765 12.9412Z" fill="#141414"/>
</svg>
