<svg xmlns="http://www.w3.org/2000/svg" width="24" height="24" fill="none" viewBox="0 0 24 24">
  <path fill="#141414" fill-rule="evenodd" d="M5.094 3.97a1.75 1.75 0 0 1 1.416-.72h10.98c.56 0 1.086.268 1.416.72l3.232 4.445c.48.66.44 1.563-.095 2.178L13.32 20.624a1.75 1.75 0 0 1-2.641 0L1.957 10.593a1.75 1.75 0 0 1-.095-2.178l3.232-4.444Zm-1.62 4.78 2.303-3.168L6.93 8.75H3.473Zm.173 1.5h3.828l2.752 7.567-6.58-7.567Zm5.424 0 2.93 8.055 2.929-8.055H9.07Zm-.872-2.4 2.067-3.1H7.07l1.128 3.1Zm5.536-3.1 2.067 3.1 1.128-3.1h-3.195Zm.864 4-2.39-3.586a.25.25 0 0 0-.416 0L9.402 8.75h5.197Zm3.624-3.169L17.071 8.75h3.457l-2.305-3.169Zm-4.45 12.237 2.753-7.568h3.828l-6.58 7.568Z" clip-rule="evenodd"/>
</svg>
