<svg xmlns="http://www.w3.org/2000/svg" width="32" height="32" fill="none" viewBox="0 0 32 32">
  <path fill="#141414" fill-rule="evenodd" d="M6.793 5.294a2.333 2.333 0 0 1 1.887-.961h14.642c.747 0 1.448.357 1.887.96l4.31 5.927c.64.879.587 2.083-.126 2.903L17.762 27.5a2.333 2.333 0 0 1-3.521 0L2.61 14.123a2.333 2.333 0 0 1-.127-2.903l4.31-5.926Zm-2.161 6.372 3.071-4.223 1.536 4.223H4.632Zm.23 2h5.105l3.668 10.088-8.772-10.088Zm7.233 0L16 24.406l3.906-10.74h-7.811Zm-1.163-3.197 2.757-4.136h-4.26l1.503 4.136Zm7.383-4.136 2.755 4.132 1.503-4.132h-4.258Zm1.152 5.333-3.188-4.78a.333.333 0 0 0-.554 0l-3.188 4.78h6.93Zm4.83-4.225-1.536 4.225h4.61l-3.073-4.225Zm-5.933 16.317 3.67-10.092h5.106l-8.776 10.092Z" clip-rule="evenodd"/>
</svg>
