<svg xmlns="http://www.w3.org/2000/svg" width="16" height="16" fill="none" viewBox="0 0 16 16">
  <path fill="#141414" fill-rule="evenodd" d="M3.095 2.473A1.5 1.5 0 0 1 4.31 1.85h7.377a1.5 1.5 0 0 1 1.216.623l2.04 2.827a1.5 1.5 0 0 1-.081 1.857l-5.727 6.641a1.5 1.5 0 0 1-2.272 0L1.136 7.157a1.5 1.5 0 0 1-.08-1.857l2.039-2.827ZM2 5.7l1.653-2.292.833 2.292H2Zm.063 1H4.85l2.032 5.588L2.063 6.7Zm3.85 0L8 12.437 10.086 6.7H5.914Zm-.581-1.6 1.42-2.13c.028-.042.058-.082.089-.12H4.514l.818 2.25Zm3.827-2.25c.03.038.06.078.089.12l1.42 2.13.818-2.25H9.159Zm.706 2.85-1.45-2.175a.5.5 0 0 0-.831 0L6.134 5.7h3.731Zm2.482-2.291L11.514 5.7h2.485l-1.652-2.291Zm-3.229 8.878L11.15 6.7h2.786l-4.818 5.587Z" clip-rule="evenodd"/>
</svg>
