<svg xmlns="http://www.w3.org/2000/svg" width="32" height="32" fill="none" viewBox="0 0 32 32">
  <path fill="#141414" fill-rule="evenodd" d="M21.971 6.93a4.442 4.442 0 0 0-6.068 1.625l-2.737 4.74a1 1 0 0 1-1.366.366l-1.225-.707a1.939 1.939 0 1 0-1.939 3.358l11.877 6.857a1.939 1.939 0 1 0 1.94-3.358l-1.226-.707a1 1 0 0 1-.366-1.366l2.736-4.74a4.442 4.442 0 0 0-1.626-6.069Zm-7.8.625a6.442 6.442 0 0 1 11.158 6.442l-2.236 3.875.36.207a3.939 3.939 0 1 1-3.94 6.822l-5.072-2.928-2.999 5.194a1 1 0 1 1-1.732-1l2.999-5.194-5.073-2.929a3.939 3.939 0 0 1 3.939-6.822l.36.207 2.236-3.874Z" clip-rule="evenodd"/>
</svg>
