<svg xmlns="http://www.w3.org/2000/svg" width="24" height="24" fill="none" viewBox="0 0 24 24">
  <path fill="#141414" fill-rule="evenodd" d="M16.479 5.197a3.332 3.332 0 0 0-4.551 1.22L9.875 9.972a.75.75 0 0 1-1.024.274l-.92-.53a1.454 1.454 0 1 0-1.453 2.518l8.908 5.143a1.454 1.454 0 1 0 1.454-2.518l-.92-.531a.75.75 0 0 1-.274-1.024l2.052-3.556a3.332 3.332 0 0 0-1.219-4.55Zm-5.85.47a4.832 4.832 0 1 1 8.369 4.831l-1.678 2.906.27.156a2.954 2.954 0 0 1-2.954 5.116L10.83 16.48l-2.249 3.895a.75.75 0 1 1-1.299-.75l2.249-3.895-3.804-2.197a2.954 2.954 0 1 1 2.954-5.116l.27.155 1.677-2.905Z" clip-rule="evenodd"/>
</svg>
