<svg xmlns="http://www.w3.org/2000/svg" width="16" height="16" fill="none" viewBox="0 0 16 16">
  <path fill="#141414" fill-rule="evenodd" d="M10.986 3.465a2.221 2.221 0 0 0-3.034.813l-1.369 2.37a.5.5 0 0 1-.683.183l-.613-.354a.97.97 0 0 0-.969 1.679l5.939 3.429a.97.97 0 0 0 .97-1.68l-.614-.353a.5.5 0 0 1-.183-.683l1.369-2.37a2.221 2.221 0 0 0-.813-3.034Zm-3.9.313a3.221 3.221 0 1 1 5.579 3.22l-1.119 1.938.18.104a1.97 1.97 0 0 1-1.97 3.41L7.22 10.987l-1.499 2.597a.5.5 0 0 1-.866-.5l1.5-2.597-2.537-1.464a1.97 1.97 0 1 1 1.97-3.411l.18.104 1.118-1.937Z" clip-rule="evenodd"/>
</svg>
