<svg xmlns="http://www.w3.org/2000/svg" width="32" height="32" fill="none" viewBox="0 0 32 32">
  <path fill="#141414" fill-rule="evenodd" d="M17 11.334h2v6a1 1 0 0 0 2 0v-6h2v3.333a1 1 0 0 0 2 0v-3.333h1.666c.368 0 .667.298.667.666v8a.667.667 0 0 1-.667.667H5.333A.667.667 0 0 1 4.666 20v-8c0-.368.298-.666.667-.666h1.666v3.333a1 1 0 1 0 2 0v-3.333h2v6a1 1 0 0 0 2 0v-6h2v3.333a1 1 0 0 0 2 0v-3.333ZM2.665 12a2.667 2.667 0 0 1 2.667-2.666h21.333A2.667 2.667 0 0 1 29.333 12v8a2.667 2.667 0 0 1-2.667 2.667H5.333A2.667 2.667 0 0 1 2.666 20v-8Z" clip-rule="evenodd"/>
</svg>
