<svg xmlns="http://www.w3.org/2000/svg" width="16" height="16" fill="none" viewBox="0 0 16 16">
  <path fill="#141414" fill-rule="evenodd" d="M13 5H3a1 1 0 0 0-1 1v4a1 1 0 0 0 1 1h10a1 1 0 0 0 1-1V6a1 1 0 0 0-1-1ZM3 4a2 2 0 0 0-2 2v4a2 2 0 0 0 2 2h10a2 2 0 0 0 2-2V6a2 2 0 0 0-2-2H3Z" clip-rule="evenodd"/>
  <path fill="#141414" fill-rule="evenodd" d="M4 4.125a.5.5 0 0 1 .5.5V9a.5.5 0 0 1-1 0V4.625a.5.5 0 0 1 .5-.5Zm2 0a.5.5 0 0 1 .5.5V7a.5.5 0 0 1-1 0V4.625a.5.5 0 0 1 .5-.5Zm2 0a.5.5 0 0 1 .5.5V7a.5.5 0 0 1-1 0V4.625a.5.5 0 0 1 .5-.5Zm2 0a.5.5 0 0 1 .5.5V9a.5.5 0 0 1-1 0V4.625a.5.5 0 0 1 .5-.5Zm2 0a.5.5 0 0 1 .5.5V7a.5.5 0 0 1-1 0V4.625a.5.5 0 0 1 .5-.5Z" clip-rule="evenodd"/>
</svg>
