<svg xmlns="http://www.w3.org/2000/svg" width="16" height="16" fill="none" viewBox="0 0 16 16">
  <path fill="#141414" fill-rule="evenodd" d="m2.146 13.646 2-2 .708.708-2 2a.5.5 0 0 1-.708-.708Zm0-10a.5.5 0 0 0 0 .708l2 2 .708-.708-2-2a.5.5 0 0 0-.708 0Zm11.708 10-2-2-.708.708 2 2a.5.5 0 0 0 .708-.708Zm0-10a.5.5 0 0 1 0 .708l-2 2-.708-.708 2-2a.5.5 0 0 1 .708 0ZM1 9a.5.5 0 0 1 .5-.5h3a.5.5 0 0 1 0 1h-3A.5.5 0 0 1 1 9Zm14 0a.5.5 0 0 0-.5-.5h-3a.5.5 0 0 0 0 1h3A.5.5 0 0 0 15 9ZM6.5 1a.5.5 0 0 1 .5.5V4H6V1.5a.5.5 0 0 1 .5-.5Zm3 0a.5.5 0 0 1 .5.5V4H9V1.5a.5.5 0 0 1 .5-.5Z" clip-rule="evenodd"/>
  <path fill="#141414" fill-rule="evenodd" d="M11 11V7a3 3 0 0 0-6 0v4a3 3 0 1 0 6 0ZM8 3a4 4 0 0 0-4 4v4a4 4 0 0 0 8 0V7a4 4 0 0 0-4-4Z" clip-rule="evenodd"/>
  <path fill="#141414" fill-rule="evenodd" d="M8 11.5a.5.5 0 0 1 .5.5v2.5a.5.5 0 0 1-1 0V12a.5.5 0 0 1 .5-.5Z" clip-rule="evenodd"/>
</svg>
