<svg xmlns="http://www.w3.org/2000/svg" width="32" height="32" fill="none" viewBox="0 0 32 32">
  <path fill="#141414" fill-rule="evenodd" d="M14.333 4.667a1 1 0 1 0-2 0v3.932a7.703 7.703 0 0 0-2.507 2.187l-3.893-2.92a1 1 0 1 0-1.2 1.6l4.119 3.09a7.648 7.648 0 0 0-.519 2.777v.334H4a1 1 0 1 0 0 2h4.333v3c0 .26.013.518.039.772l-3.593 2.395A1 1 0 0 0 5.888 25.5l2.988-1.993a7.67 7.67 0 0 0 14.248 0l2.988 1.993a1 1 0 1 0 1.11-1.665l-3.594-2.395c.026-.254.039-.512.039-.773v-3H28a1 1 0 1 0 0-2h-4.333v-.333a7.64 7.64 0 0 0-.519-2.777l4.119-3.09a1 1 0 0 0-1.2-1.6l-3.893 2.92A7.703 7.703 0 0 0 19.666 8.6V4.666a1 1 0 1 0-2 0v3.182a7.695 7.695 0 0 0-3.334 0V4.667Zm-4 10.666a5.667 5.667 0 0 1 11.334 0v5.333A5.668 5.668 0 0 1 17 26.246V22a1 1 0 0 0-2 0v4.245a5.668 5.668 0 0 1-4.667-5.579v-5.333Z" clip-rule="evenodd"/>
</svg>
