<svg xmlns="http://www.w3.org/2000/svg" width="24" height="24" fill="none" viewBox="0 0 24 24">
  <path fill="#141414" fill-rule="evenodd" d="M10.75 3.5a.75.75 0 0 0-1.5 0v2.949a5.778 5.778 0 0 0-1.88 1.64L4.45 5.9a.75.75 0 0 0-.9 1.2l3.089 2.317A5.736 5.736 0 0 0 6.25 11.5v.25H3a.75.75 0 0 0 0 1.5h3.25v2.25c0 .196.01.389.029.58l-2.695 1.796a.75.75 0 0 0 .832 1.248l2.241-1.494a5.752 5.752 0 0 0 10.686 0l2.241 1.494a.75.75 0 0 0 .832-1.248l-2.695-1.797c.02-.19.029-.383.029-.579v-2.25H21a.75.75 0 1 0 0-1.5h-3.25v-.25c0-.735-.138-1.437-.389-2.083L20.45 7.1a.75.75 0 1 0-.9-1.2l-2.92 2.19a5.777 5.777 0 0 0-1.88-1.641V3.5a.75.75 0 0 0-1.5 0v2.386a5.77 5.77 0 0 0-2.5 0V3.5Zm-3 8a4.25 4.25 0 0 1 8.5 0v4a4.25 4.25 0 0 1-3.5 4.184V16.5a.75.75 0 0 0-1.5 0v3.184a4.251 4.251 0 0 1-3.5-4.184v-4Z" clip-rule="evenodd"/>
</svg>
