<svg xmlns="http://www.w3.org/2000/svg" width="32" height="32" fill="none" viewBox="0 0 32 32">
  <path fill="#141414" fill-rule="evenodd" d="M21.666 8.666h5c.369 0 .667.299.667.667v13.333a.667.667 0 0 1-.666.667h-5V8.667Zm-2 0h-7.333v14.667h7.333V8.667Zm-9.333 14.667V8.667h-5a.667.667 0 0 0-.667.666v13.333c0 .369.299.667.667.667h5Zm-7.667-14a2.667 2.667 0 0 1 2.667-2.667h21.334a2.667 2.667 0 0 1 2.666 2.667v13.333a2.667 2.667 0 0 1-2.666 2.667H5.332a2.667 2.667 0 0 1-2.667-2.666V9.332Z" clip-rule="evenodd"/>
</svg>
