<svg xmlns="http://www.w3.org/2000/svg" width="16" height="16" fill="none" viewBox="0 0 16 16">
  <path fill="#141414" fill-rule="evenodd" d="M14.5 13a1.5 1.5 0 0 1-1.5 1.5H3A1.5 1.5 0 0 1 1.5 13V3A1.5 1.5 0 0 1 3 1.5h10A1.5 1.5 0 0 1 14.5 3v10Zm-8-10v10a.5.5 0 0 0 .5.5h2a.5.5 0 0 0 .5-.5V3a.5.5 0 0 0-.5-.5H7a.5.5 0 0 0-.5.5ZM13 13.5h-2a.5.5 0 0 1-.5-.5V3a.5.5 0 0 1 .5-.5h2a.5.5 0 0 1 .5.5v10a.5.5 0 0 1-.5.5ZM2.5 13a.5.5 0 0 0 .5.5h2a.5.5 0 0 0 .5-.5V3a.5.5 0 0 0-.5-.5H3a.5.5 0 0 0-.5.5v10Z" clip-rule="evenodd"/>
</svg>
