<svg xmlns="http://www.w3.org/2000/svg" width="16" height="16" fill="none" viewBox="0 0 16 16">
  <path fill="#141414" fill-rule="evenodd" d="M2.5 8a.5.5 0 0 0-.5.5V13a.5.5 0 0 1-1 0V8.5A1.5 1.5 0 0 1 2.5 7h11A1.5 1.5 0 0 1 15 8.5V13a.5.5 0 0 1-1 0V8.5a.5.5 0 0 0-.5-.5h-11Z" clip-rule="evenodd"/>
  <path fill="#141414" d="M1 11h14v1H1v-1Z"/>
  <path fill="#141414" fill-rule="evenodd" d="M4 3.5a.5.5 0 0 0-.5.5v3.5a.5.5 0 0 1-1 0V4A1.5 1.5 0 0 1 4 2.5h8A1.5 1.5 0 0 1 13.5 4v3.5a.5.5 0 0 1-1 0V4a.5.5 0 0 0-.5-.5H4Z" clip-rule="evenodd"/>
  <path fill="#141414" d="M5 5.5a.5.5 0 0 1 .5-.5h5a.5.5 0 0 1 0 1h-5a.5.5 0 0 1-.5-.5Z"/>
</svg>
