<svg xmlns="http://www.w3.org/2000/svg" width="32" height="32" fill="none" viewBox="0 0 32 32">
  <path fill="#141414" fill-rule="evenodd" d="M8 7.667A.333.333 0 0 0 7.667 8v6.333h16.666V8A.333.333 0 0 0 24 7.667H8ZM5.667 8v6.333h-.334A2.333 2.333 0 0 0 3 16.666v8.667a1 1 0 1 0 2 0V23h22v2.333a1 1 0 1 0 2 0v-8.666a2.333 2.333 0 0 0-2.333-2.334h-.334V8A2.333 2.333 0 0 0 24 5.667H8A2.333 2.333 0 0 0 5.667 8ZM27 21v-4.334a.333.333 0 0 0-.333-.333H5.333a.333.333 0 0 0-.333.334V21h22ZM9.667 12.666a1 1 0 0 1 1-1h2.666a1 1 0 1 1 0 2h-2.666a1 1 0 0 1-1-1Zm9-1a1 1 0 1 0 0 2h2.666a1 1 0 1 0 0-2h-2.666Z" clip-rule="evenodd"/>
</svg>
