<svg xmlns="http://www.w3.org/2000/svg" width="24" height="24" fill="none" viewBox="0 0 24 24">
  <path fill="#141414" fill-rule="evenodd" d="M6 5.75a.25.25 0 0 0-.25.25v4.75h12.5V6a.25.25 0 0 0-.25-.25H6ZM4.25 6v4.75H4a1.75 1.75 0 0 0-1.75 1.75V19a.75.75 0 0 0 1.5 0v-1.75h16.5V19a.75.75 0 0 0 1.5 0v-6.5A1.75 1.75 0 0 0 20 10.75h-.25V6A1.75 1.75 0 0 0 18 4.25H6A1.75 1.75 0 0 0 4.25 6Zm16 9.75V12.5a.25.25 0 0 0-.25-.25H4a.25.25 0 0 0-.25.25v3.25h16.5Zm-13-6.25A.75.75 0 0 1 8 8.75h2a.75.75 0 0 1 0 1.5H8a.75.75 0 0 1-.75-.75ZM14 8.75a.75.75 0 0 0 0 1.5h2a.75.75 0 0 0 0-1.5h-2Z" clip-rule="evenodd"/>
</svg>
