<svg width="16" height="16" viewBox="0 0 16 16" fill="none" xmlns="http://www.w3.org/2000/svg">
<path fill-rule="evenodd" clip-rule="evenodd" d="M4.85652 8.00879L4.8574 8.0112C4.8749 8.05892 4.89253 8.10697 4.91335 8.16455L4.98787 8.37061L1.96592 9.99876L1.78663 9.88223C1.71702 9.83698 1.65228 9.78795 1.59135 9.73557C0.802883 9.05779 0.802883 7.95609 1.59135 7.27831C5.1254 4.24036 10.8751 4.24077 14.4086 7.27831C15.1971 7.9561 15.1971 9.05779 14.4086 9.73557C14.3484 9.78739 14.285 9.83522 14.2173 9.88028L14.0374 10L11.0112 8.37013L11.0871 8.1634C11.1159 8.08474 11.1465 8.00092 11.1764 7.91886L11.1844 7.89686C11.3397 7.47055 11.0801 7.01426 10.5932 6.85796C8.87139 6.4983 7 6.5 5.40401 6.85747C4.9189 7.01441 4.66046 7.46942 4.81484 7.89476C4.82933 7.93466 4.84306 7.9721 4.85652 8.00879Z" fill="#141414"/>
</svg>
