<svg width="24" height="24" viewBox="0 0 24 24" fill="none" xmlns="http://www.w3.org/2000/svg">
<path fill-rule="evenodd" clip-rule="evenodd" d="M7.50931 12.8141L7.51057 12.8179C7.53558 12.8943 7.56076 12.9712 7.5905 13.0633L7.69695 13.393L3.37989 15.998L3.12375 15.8116C3.02431 15.7392 2.93183 15.6607 2.84479 15.5769C1.7184 14.4925 1.7184 12.7298 2.84479 11.6453C7.89344 6.78457 16.1073 6.78523 21.1552 11.6453C22.2816 12.7298 22.2816 14.4925 21.1552 15.5769C21.0691 15.6598 20.9785 15.7364 20.8818 15.8085L20.6248 16L16.3017 13.3922L16.4101 13.0614C16.4514 12.9356 16.495 12.8015 16.5377 12.6702L16.5491 12.635C16.771 11.9529 16.4001 11.2228 15.7046 10.9727C13.1734 10.4973 10.5 10.5 8.29144 10.972C7.59843 11.2231 7.22923 11.9511 7.44978 12.6316C7.47047 12.6955 7.49008 12.7554 7.50931 12.8141Z" fill="#141414"/>
</svg>
