<svg width="32" height="32" viewBox="0 0 32 32" fill="none" xmlns="http://www.w3.org/2000/svg">
<path fill-rule="evenodd" clip-rule="evenodd" d="M9.71304 17.2211L9.7148 17.2269C9.74981 17.3414 9.78506 17.4567 9.8267 17.5949L9.97573 18.0895L3.93185 21.997L3.57325 21.7173C3.43404 21.6088 3.30456 21.4911 3.1827 21.3654C1.60577 19.7387 1.60577 17.0946 3.1827 15.4679C10.2508 8.17686 21.7502 8.17785 28.8173 15.4679C30.3942 17.0946 30.3942 19.7387 28.8173 21.3654C28.6967 21.4897 28.5699 21.6045 28.4345 21.7127L28.0747 22L22.0223 18.0883L22.1741 17.5922C22.2319 17.4034 22.293 17.2022 22.3528 17.0053L22.3688 16.9525C22.6794 15.9293 22.1602 14.8342 21.1865 14.4591C18 14 14 14 10.808 14.4579C9.8378 14.8346 9.32092 15.9266 9.62969 16.9474C9.65866 17.0432 9.68612 17.133 9.71304 17.2211Z" fill="#141414"/>
</svg>
