<svg width="24" height="24" viewBox="0 0 24 24" fill="none" xmlns="http://www.w3.org/2000/svg">
<path fill-rule="evenodd" clip-rule="evenodd" d="M9.25 4C9.25 3.0335 10.0335 2.25 11 2.25H13C13.9665 2.25 14.75 3.0335 14.75 4V6C14.75 6.9665 13.9665 7.75 13 7.75H12.75V11.75H17C18.5188 11.75 19.75 12.9812 19.75 14.5V16.25H20C20.9665 16.25 21.75 17.0335 21.75 18V20C21.75 20.9665 20.9665 21.75 20 21.75H18C17.0335 21.75 16.25 20.9665 16.25 20V18C16.25 17.0335 17.0335 16.25 18 16.25H18.25V14.5C18.25 13.8096 17.6904 13.25 17 13.25H7C6.30964 13.25 5.75 13.8096 5.75 14.5V16.25H6C6.9665 16.25 7.75 17.0335 7.75 18V20C7.75 20.9665 6.9665 21.75 6 21.75H4C3.0335 21.75 2.25 20.9665 2.25 20V18C2.25 17.0335 3.0335 16.25 4 16.25H4.25V14.5C4.25 12.9812 5.48122 11.75 7 11.75H11.25V7.75H11C10.0335 7.75 9.25 6.9665 9.25 6V4ZM11 3.75C10.8619 3.75 10.75 3.86193 10.75 4V6C10.75 6.13807 10.8619 6.25 11 6.25H13C13.1381 6.25 13.25 6.13807 13.25 6V4C13.25 3.86193 13.1381 3.75 13 3.75H11ZM4 17.75C3.86193 17.75 3.75 17.8619 3.75 18V20C3.75 20.1381 3.86193 20.25 4 20.25H6C6.13807 20.25 6.25 20.1381 6.25 20V18C6.25 17.8619 6.13807 17.75 6 17.75H4ZM17.75 18C17.75 17.8619 17.8619 17.75 18 17.75H20C20.1381 17.75 20.25 17.8619 20.25 18V20C20.25 20.1381 20.1381 20.25 20 20.25H18C17.8619 20.25 17.75 20.1381 17.75 20V18Z" fill="#141414"/>
</svg>
