<svg width="32" height="32" viewBox="0 0 32 32" fill="none" xmlns="http://www.w3.org/2000/svg">
<path fill-rule="evenodd" clip-rule="evenodd" d="M12.3384 6.66929C12.3384 5.38007 13.3835 4.33496 14.6727 4.33496H17.3405C18.6297 4.33496 19.6748 5.38007 19.6748 6.66929V9.33709C19.6748 10.6263 18.6297 11.6714 17.3405 11.6714H17.0071V15.0062H21.3422C23.3681 15.0062 25.0104 16.6485 25.0104 18.6744V20.3418H25.3439C26.6331 20.3418 27.6782 21.3869 27.6782 22.6761V25.3439C27.6782 26.6331 26.6331 27.6782 25.3439 27.6782H22.6761C21.3869 27.6782 20.3418 26.6331 20.3418 25.3439V22.6761C20.3418 21.3869 21.3869 20.3418 22.6761 20.3418H23.0096V18.6744C23.0096 17.7536 22.2631 17.007 21.3422 17.007H10.671C9.75017 17.007 9.00366 17.7536 9.00366 18.6744V20.3418H9.33709C10.6263 20.3418 11.6714 21.3869 11.6714 22.6761V25.3439C11.6714 26.6331 10.6263 27.6782 9.33709 27.6782H6.66929C5.38007 27.6782 4.33496 26.6331 4.33496 25.3439V22.6761C4.33496 21.3869 5.38007 20.3418 6.66929 20.3418H7.00281V18.6744C7.00281 16.6485 8.64513 15.0062 10.671 15.0062H15.0062V11.6714H14.6727C13.3835 11.6714 12.3384 10.6263 12.3384 9.33709V6.66929ZM14.6727 6.33581C14.4885 6.33581 14.3392 6.48511 14.3392 6.66929V9.33709C14.3392 9.52126 14.4885 9.67056 14.6727 9.67056H17.3405C17.5247 9.67056 17.674 9.52126 17.674 9.33709V6.66929C17.674 6.48511 17.5247 6.33581 17.3405 6.33581H14.6727ZM6.66929 22.3426C6.48511 22.3426 6.33581 22.4919 6.33581 22.6761V25.3439C6.33581 25.5281 6.48511 25.6774 6.66929 25.6774H9.33709C9.52126 25.6774 9.67056 25.5281 9.67056 25.3439V22.6761C9.67056 22.4919 9.52126 22.3426 9.33709 22.3426H6.66929ZM22.3426 22.6761C22.3426 22.4919 22.4919 22.3426 22.6761 22.3426H25.3439C25.5281 22.3426 25.6774 22.4919 25.6774 22.6761V25.3439C25.6774 25.5281 25.5281 25.6774 25.3439 25.6774H22.6761C22.4919 25.6774 22.3426 25.5281 22.3426 25.3439V22.6761Z" fill="#141414"/>
</svg>
