<svg width="12" height="12" viewBox="0 0 12 12" fill="none" xmlns="http://www.w3.org/2000/svg">
<path fill-rule="evenodd" clip-rule="evenodd" d="M4.625 2C4.625 1.51675 5.01675 1.125 5.5 1.125H6.5C6.98325 1.125 7.375 1.51675 7.375 2V3C7.375 3.48325 6.98325 3.875 6.5 3.875H6.375V5.875H8.5C9.25939 5.875 9.875 6.49061 9.875 7.25V8.125H10C10.4832 8.125 10.875 8.51675 10.875 9V10C10.875 10.4832 10.4832 10.875 10 10.875H9C8.51675 10.875 8.125 10.4832 8.125 10V9C8.125 8.51675 8.51675 8.125 9 8.125H9.125V7.25C9.125 6.90482 8.84518 6.625 8.5 6.625H3.5C3.15482 6.625 2.875 6.90482 2.875 7.25V8.125H3C3.48325 8.125 3.875 8.51675 3.875 9V10C3.875 10.4832 3.48325 10.875 3 10.875H2C1.51675 10.875 1.125 10.4832 1.125 10V9C1.125 8.51675 1.51675 8.125 2 8.125H2.125V7.25C2.125 6.49061 2.74061 5.875 3.5 5.875H5.625V3.875H5.5C5.01675 3.875 4.625 3.48325 4.625 3V2ZM5.5 1.875C5.43096 1.875 5.375 1.93096 5.375 2V3C5.375 3.06904 5.43096 3.125 5.5 3.125H6.5C6.56904 3.125 6.625 3.06904 6.625 3V2C6.625 1.93096 6.56904 1.875 6.5 1.875H5.5ZM2 8.875C1.93096 8.875 1.875 8.93096 1.875 9V10C1.875 10.069 1.93096 10.125 2 10.125H3C3.06904 10.125 3.125 10.069 3.125 10V9C3.125 8.93096 3.06904 8.875 3 8.875H2ZM8.875 9C8.875 8.93096 8.93096 8.875 9 8.875H10C10.069 8.875 10.125 8.93096 10.125 9V10C10.125 10.069 10.069 10.125 10 10.125H9C8.93096 10.125 8.875 10.069 8.875 10V9Z" fill="#141414"/>
</svg>
