<svg width="16" height="16" viewBox="0 0 16 16" fill="none" xmlns="http://www.w3.org/2000/svg">
<path fill-rule="evenodd" clip-rule="evenodd" d="M6.1665 3.33317C6.1665 2.68884 6.68884 2.1665 7.33317 2.1665H8.6665C9.31083 2.1665 9.83317 2.68884 9.83317 3.33317V4.6665C9.83317 5.31083 9.31084 5.83317 8.6665 5.83317H8.49982V7.4998H10.6665C11.679 7.4998 12.4998 8.32061 12.4998 9.33313V10.1665H12.6665C13.3108 10.1665 13.8332 10.6888 13.8332 11.3332V12.6665C13.8332 13.3108 13.3108 13.8332 12.6665 13.8332H11.3332C10.6888 13.8332 10.1665 13.3108 10.1665 12.6665V11.3332C10.1665 10.6888 10.6888 10.1665 11.3332 10.1665H11.4998V9.33313C11.4998 8.87289 11.1267 8.4998 10.6665 8.4998H5.33315C4.87291 8.4998 4.49982 8.87289 4.49982 9.33313V10.1665H4.6665C5.31083 10.1665 5.83317 10.6888 5.83317 11.3332V12.6665C5.83317 13.3108 5.31084 13.8332 4.6665 13.8332H3.33317C2.68884 13.8332 2.1665 13.3108 2.1665 12.6665V11.3332C2.1665 10.6888 2.68884 10.1665 3.33317 10.1665H3.49982V9.33313C3.49982 8.32061 4.32063 7.4998 5.33315 7.4998H7.49982V5.83317H7.33317C6.68884 5.83317 6.1665 5.31084 6.1665 4.6665V3.33317ZM7.33317 3.1665C7.24112 3.1665 7.1665 3.24112 7.1665 3.33317V4.6665C7.1665 4.75855 7.24112 4.83317 7.33317 4.83317H8.6665C8.75855 4.83317 8.83317 4.75855 8.83317 4.6665V3.33317C8.83317 3.24112 8.75855 3.1665 8.6665 3.1665H7.33317ZM3.33317 11.1665C3.24112 11.1665 3.1665 11.2411 3.1665 11.3332V12.6665C3.1665 12.7586 3.24112 12.8332 3.33317 12.8332H4.6665C4.75855 12.8332 4.83317 12.7586 4.83317 12.6665V11.3332C4.83317 11.2411 4.75855 11.1665 4.6665 11.1665H3.33317ZM11.1665 11.3332C11.1665 11.2411 11.2411 11.1665 11.3332 11.1665H12.6665C12.7586 11.1665 12.8332 11.2411 12.8332 11.3332V12.6665C12.8332 12.7586 12.7586 12.8332 12.6665 12.8332H11.3332C11.2411 12.8332 11.1665 12.7586 11.1665 12.6665V11.3332Z" fill="#141414"/>
</svg>
