<svg xmlns="http://www.w3.org/2000/svg" width="32" height="32" fill="none" viewBox="0 0 32 32">
  <path fill="#141414" fill-rule="evenodd" d="M17.333 7.333h-2.666A.667.667 0 0 0 14 8v1.334h4V8a.667.667 0 0 0-.667-.667Zm2.667 2V8a2.667 2.667 0 0 0-2.667-2.667h-2.666A2.667 2.667 0 0 0 12 8v1.334H6.667a1 1 0 1 0 0 2H8V24a2.667 2.667 0 0 0 2.666 2.667h10.667A2.667 2.667 0 0 0 24 24V11.334h1.333a1 1 0 1 0 0-2H20Zm2 2H10V24c0 .368.298.667.666.667h10.667A.667.667 0 0 0 22 24V11.334Zm-8.667 2.334a1 1 0 0 1 1 1v6.667a1 1 0 1 1-2 0v-6.667a1 1 0 0 1 1-1Zm6.333 1a1 1 0 1 0-2 0v6.667a1 1 0 1 0 2 0v-6.667Z" clip-rule="evenodd"/>
</svg>
