<svg xmlns="http://www.w3.org/2000/svg" width="16" height="16" fill="none" viewBox="0 0 16 16">
  <path fill="#141414" fill-rule="evenodd" d="M12 4.625H4V13a1 1 0 0 0 1 1h6a1 1 0 0 0 1-1V4.625Zm-9-1V13a2 2 0 0 0 2 2h6a2 2 0 0 0 2-2V3.625H3Z" clip-rule="evenodd"/>
  <path fill="#141414" fill-rule="evenodd" d="M9 2H7a.5.5 0 0 0-.5.5v1h3v-1A.5.5 0 0 0 9 2ZM7 1a1.5 1.5 0 0 0-1.5 1.5v2h5v-2A1.5 1.5 0 0 0 9 1H7Z" clip-rule="evenodd"/>
  <path fill="#141414" fill-rule="evenodd" d="M1.5 4a.5.5 0 0 1 .5-.5h12a.5.5 0 0 1 0 1H2a.5.5 0 0 1-.5-.5ZM6 6.625a.5.5 0 0 1 .5.5V11.5a.5.5 0 0 1-1 0V7.125a.5.5 0 0 1 .5-.5Zm4 0a.5.5 0 0 1 .5.5V11.5a.5.5 0 0 1-1 0V7.125a.5.5 0 0 1 .5-.5Z" clip-rule="evenodd"/>
</svg>
