<svg xmlns="http://www.w3.org/2000/svg" width="24" height="24" fill="none" viewBox="0 0 24 24">
  <path fill="#141414" fill-rule="evenodd" d="M13 5.5h-2a.5.5 0 0 0-.5.5v1h3V6a.5.5 0 0 0-.5-.5ZM15 7V6a2 2 0 0 0-2-2h-2a2 2 0 0 0-2 2v1H5a.75.75 0 0 0 0 1.5h1V18a2 2 0 0 0 2 2h8a2 2 0 0 0 2-2V8.5h1A.75.75 0 0 0 19 7h-4Zm1.5 1.5h-9V18a.5.5 0 0 0 .5.5h8a.5.5 0 0 0 .5-.5V8.5ZM10 10.25a.75.75 0 0 1 .75.75v5a.75.75 0 0 1-1.5 0v-5a.75.75 0 0 1 .75-.75Zm4.75.75a.75.75 0 0 0-1.5 0v5a.75.75 0 0 0 1.5 0v-5Z" clip-rule="evenodd"/>
</svg>
