<svg xmlns="http://www.w3.org/2000/svg" width="24" height="24" fill="none" viewBox="0 0 24 24">
  <path fill="#141414" fill-rule="evenodd" d="M22 9.5a6 6 0 1 1-12 0 6 6 0 0 1 12 0Zm-5.25-3a.75.75 0 0 0-1.5 0v2.25H13a.75.75 0 0 0 0 1.5h2.25v2.25a.75.75 0 0 0 1.5 0v-2.25H19a.75.75 0 0 0 0-1.5h-2.25V6.5ZM3 8.75a.75.75 0 0 0 0 1.5h4a.75.75 0 0 0 0-1.5H3Zm-.75 5.75a.75.75 0 0 1 .75-.75h6a.75.75 0 0 1 0 1.5H3a.75.75 0 0 1-.75-.75ZM3 18.75a.75.75 0 0 0 0 1.5h18a.75.75 0 0 0 0-1.5H3Z" clip-rule="evenodd"/>
</svg>
