<svg width="32" height="32" viewBox="0 0 32 32" fill="none" xmlns="http://www.w3.org/2000/svg">
<path fill-rule="evenodd" clip-rule="evenodd" d="M8.33679 4.00189C8.33679 3.44937 7.88888 3.00146 7.33636 3.00146C6.78384 3.00146 6.33594 3.44937 6.33594 4.00189V28.0121C6.33594 28.5646 6.78384 29.0125 7.33636 29.0125C7.88888 29.0125 8.33679 28.5646 8.33679 28.0121V19.6752H12.8445C13.886 19.6752 14.9012 20.0019 15.7472 20.6093C17.3478 21.7584 19.3597 22.1773 21.286 21.7624L23.559 21.2729C24.795 21.0066 25.6775 19.9138 25.6775 18.6495V9.87374C25.6775 8.27426 24.2018 7.08257 22.6382 7.41935L20.8647 7.80133C19.4908 8.09726 18.0558 7.7985 16.9141 6.97884C15.728 6.12728 14.3047 5.66925 12.8445 5.66925H8.33679V4.00189ZM8.33679 7.6701V17.6744H12.8445C14.3047 17.6744 15.728 18.1324 16.9141 18.9839C18.0558 19.8036 19.4908 20.1024 20.8647 19.8064L23.1377 19.3169C23.4521 19.2491 23.6766 18.9711 23.6766 18.6495V9.87374C23.6766 9.54895 23.377 9.30696 23.0595 9.37535L21.286 9.75733C19.3597 10.1722 17.3478 9.75335 15.7472 8.60417C14.9012 7.9968 13.886 7.6701 12.8445 7.6701H8.33679Z" fill="#141414"/>
</svg>
