<svg width="24" height="24" viewBox="0 0 24 24" fill="none" xmlns="http://www.w3.org/2000/svg">
<path fill-rule="evenodd" clip-rule="evenodd" d="M6.25 3C6.25 2.58579 5.91421 2.25 5.5 2.25C5.08579 2.25 4.75 2.58579 4.75 3V21C4.75 21.4142 5.08579 21.75 5.5 21.75C5.91421 21.75 6.25 21.4142 6.25 21V14.75H9.62938C10.4101 14.75 11.1712 14.9949 11.8054 15.4503C13.0054 16.3118 14.5137 16.6258 15.9578 16.3148L17.6618 15.9477C18.5884 15.7482 19.25 14.9289 19.25 13.9811V7.40203C19.25 6.20292 18.1437 5.30954 16.9715 5.56202L15.6419 5.84838C14.6119 6.07023 13.5361 5.84626 12.6802 5.23177C11.7911 4.59338 10.724 4.25 9.62937 4.25H6.25V3ZM6.25 5.75V13.25H9.62938C10.724 13.25 11.7911 13.5934 12.6802 14.2318C13.5361 14.8463 14.6119 15.0702 15.6419 14.8484L17.346 14.4814C17.5817 14.4306 17.75 14.2222 17.75 13.9811V7.40203C17.75 7.15854 17.5254 6.97712 17.2873 7.02839L15.9578 7.31476C14.5137 7.62579 13.0054 7.31177 11.8054 6.45026C11.1712 5.99492 10.4101 5.75 9.62937 5.75H6.25Z" fill="#141414"/>
</svg>
