<svg width="16" height="16" viewBox="0 0 16 16" fill="none" xmlns="http://www.w3.org/2000/svg">
<path fill-rule="evenodd" clip-rule="evenodd" d="M4.16699 2C4.16699 1.72386 3.94313 1.5 3.66699 1.5C3.39085 1.5 3.16699 1.72386 3.16699 2V14C3.16699 14.2761 3.39085 14.5 3.66699 14.5C3.94313 14.5 4.16699 14.2761 4.16699 14V9.83331H6.41991C6.94041 9.83331 7.4478 9.99659 7.87062 10.3002C8.6706 10.8745 9.67611 11.0838 10.6388 10.8765L11.7749 10.6318C12.3926 10.4988 12.8337 9.95257 12.8337 9.32068V4.93467C12.8337 4.13526 12.0961 3.53967 11.3146 3.70799L10.4283 3.8989C9.74161 4.0468 9.02442 3.89748 8.45382 3.48783C7.86103 3.06223 7.14966 2.83331 6.41991 2.83331H4.16699V2ZM4.16699 3.83331V8.83331H6.41991C7.14966 8.83331 7.86103 9.06223 8.45382 9.48783C9.02442 9.89748 9.74161 10.0468 10.4283 9.8989L11.5643 9.65422C11.7215 9.62037 11.8337 9.48143 11.8337 9.32068V4.93467C11.8337 4.77234 11.6839 4.6514 11.5252 4.68557L10.6388 4.87648C9.67611 5.08384 8.6706 4.8745 7.87062 4.30015C7.4478 3.99659 6.94041 3.83331 6.41991 3.83331H4.16699Z" fill="#141414"/>
</svg>
