<svg width="16" height="16" viewBox="0 0 16 16" fill="none" xmlns="http://www.w3.org/2000/svg">
<path d="M8.59082 12.3124C9.84675 12.3125 10.8652 13.3309 10.8652 14.5868V15.1777H9.86035V14.5868C9.86029 13.8855 9.29213 13.3174 8.59082 13.3173H7.40918C6.70778 13.3173 6.13873 13.8854 6.13867 14.5868V15.1777H5.13477V14.5868C5.13483 13.3308 6.15316 12.3124 7.40918 12.3124H8.59082ZM4.45508 11.1308C5.07695 11.1308 5.64119 11.3806 6.05176 11.7851L5.3418 12.496C5.11297 12.2731 4.79974 12.1357 4.45508 12.1357H3.27441C2.57311 12.1357 2.00412 12.7039 2.00391 13.4052V13.996H1V13.4052C1.00022 12.1493 2.01849 11.1308 3.27441 11.1308H4.45508ZM12.7256 11.1308C13.9815 11.1308 14.9998 12.1493 15 13.4052V13.996H13.9961V13.4052C13.9959 12.7039 13.4269 12.1357 12.7256 12.1357H11.5439C11.1994 12.1357 10.887 12.2732 10.6582 12.496L9.94824 11.7851C10.3587 11.3807 10.9223 11.1309 11.5439 11.1308H12.7256ZM8 8.08879C8.97864 8.08891 9.77148 8.88256 9.77148 9.86125C9.77133 10.8398 8.97855 11.6326 8 11.6327C7.02135 11.6327 6.22769 10.8399 6.22754 9.86125C6.22754 8.88249 7.02126 8.08879 8 8.08879ZM8 9.0927C7.57588 9.0927 7.23145 9.43712 7.23145 9.86125C7.2316 10.2853 7.57597 10.6288 8 10.6288C8.42392 10.6287 8.76743 10.2852 8.76758 9.86125C8.76758 9.4372 8.42402 9.09282 8 9.0927ZM3.86426 6.90715C4.843 6.90715 5.63672 7.70085 5.63672 8.67961C5.63659 9.65827 4.84292 10.4511 3.86426 10.4511C2.88577 10.4509 2.09291 9.65814 2.09277 8.67961C2.09277 7.70097 2.88569 6.90735 3.86426 6.90715ZM12.1348 6.90715C13.1135 6.90721 13.9072 7.70088 13.9072 8.67961C13.9071 9.65823 13.1134 10.451 12.1348 10.4511C11.1561 10.4511 10.3624 9.65827 10.3623 8.67961C10.3623 7.70085 11.156 6.90715 12.1348 6.90715ZM3.86426 7.91106C3.44031 7.91126 3.09668 8.25561 3.09668 8.67961C3.09681 9.10351 3.44039 9.44699 3.86426 9.44719C4.2883 9.44719 4.63268 9.10363 4.63281 8.67961C4.63281 8.25548 4.28838 7.91106 3.86426 7.91106ZM12.1348 7.91106C11.7106 7.91106 11.3672 8.25548 11.3672 8.67961C11.3673 9.10363 11.7107 9.44719 12.1348 9.44719C12.5588 9.44713 12.9022 9.1036 12.9023 8.67961C12.9023 8.25552 12.5588 7.91111 12.1348 7.91106ZM8.71582 1.31926C9.42392 0.823356 10.3864 0.905961 11.0098 1.56731C11.7221 2.32321 11.7222 3.54876 11.0098 4.30461L8.42969 7.04192C8.19658 7.28924 7.80353 7.28908 7.57031 7.04192L4.98926 4.30461C4.27681 3.54872 4.27681 2.32223 4.98926 1.56633C5.61266 0.904952 6.57509 0.823206 7.2832 1.31926C7.38416 1.38999 7.48044 1.47207 7.56934 1.56633L8 2.02336L8.42969 1.56731C8.5187 1.47286 8.61471 1.3901 8.71582 1.31926ZM6.83887 2.25578C6.52284 1.92049 6.03674 1.92051 5.7207 2.25578C5.37286 2.62484 5.37287 3.2461 5.7207 3.61516L8 6.0341L10.2793 3.61516C10.6267 3.24608 10.6269 2.62472 10.2793 2.25578C9.96326 1.92048 9.47619 1.92048 9.16016 2.25578L8 3.48723L6.83887 2.25578Z" fill="#141414"/>
</svg>
