<svg width="32" height="32" viewBox="0 0 32 32" fill="none" xmlns="http://www.w3.org/2000/svg">
<path d="M17.6396 23.8171C20.062 23.8172 22.0254 25.7814 22.0254 28.2038V29.3425H20.0889V28.2038C20.0889 26.8511 18.9923 25.7537 17.6396 25.7536H15.3604C14.0078 25.7538 12.9111 26.8511 12.9111 28.2038V29.3425H10.9746V28.2038C10.9746 25.7815 12.9381 23.8173 15.3604 23.8171H17.6396ZM9.66406 21.5387C10.8636 21.5387 11.9513 22.0202 12.7432 22.8005L11.373 24.1706C10.9317 23.7407 10.3288 23.4753 9.66406 23.4753H7.38574C6.03295 23.4753 4.93652 24.5727 4.93652 25.9255V27.0641H3V25.9255C3 23.503 4.9633 21.5387 7.38574 21.5387H9.66406ZM25.6143 21.5387C28.0367 21.5387 30 23.503 30 25.9255V27.0641H28.0635V25.9255C28.0635 24.5727 26.967 23.4753 25.6143 23.4753H23.3359C22.6712 23.4753 22.0683 23.7407 21.627 24.1706L20.2568 22.8005C21.0487 22.0202 22.1364 21.5387 23.3359 21.5387H25.6143ZM16.5 15.6716C18.3876 15.6716 19.918 17.2019 19.918 19.0895C19.9178 20.977 18.3875 22.5075 16.5 22.5075C14.6125 22.5075 13.0822 20.977 13.082 19.0895C13.082 17.2019 14.6124 15.6716 16.5 15.6716ZM16.5 17.6081C15.682 17.6081 15.0186 18.2716 15.0186 19.0895C15.0187 19.9074 15.6821 20.57 16.5 20.57C17.3179 20.57 17.9813 19.9074 17.9814 19.0895C17.9814 18.2716 17.318 17.6081 16.5 17.6081ZM8.52539 13.3923C10.4128 13.3925 11.9423 14.9228 11.9424 16.8102C11.9424 18.6977 10.4128 20.228 8.52539 20.2282C6.63777 20.2282 5.10742 18.6978 5.10742 16.8102C5.10754 14.9227 6.63784 13.3923 8.52539 13.3923ZM24.4746 13.3923C26.3622 13.3923 27.8925 14.9227 27.8926 16.8102C27.8926 18.6978 26.3622 20.2282 24.4746 20.2282C22.587 20.2282 21.0566 18.6978 21.0566 16.8102C21.0568 14.9227 22.5871 13.3923 24.4746 13.3923ZM8.52539 15.3298C7.7075 15.3298 7.04407 15.9924 7.04395 16.8102C7.04395 17.6282 7.70742 18.2917 8.52539 18.2917C9.34318 18.2915 10.0059 17.6281 10.0059 16.8102C10.0057 15.9925 9.3431 15.33 8.52539 15.3298ZM24.4746 15.3298C23.6567 15.3298 22.9933 15.9924 22.9932 16.8102C22.9932 17.6282 23.6566 18.2917 24.4746 18.2917C25.2926 18.2917 25.9561 17.6282 25.9561 16.8102C25.9559 15.9924 25.2925 15.3298 24.4746 15.3298ZM10.6943 3.09343C11.8966 1.81788 13.7525 1.65828 15.1182 2.61491C15.3132 2.75154 15.4982 2.9113 15.6699 3.09343L16.5 3.97331L17.3291 3.09343C17.5009 2.91124 17.6858 2.75156 17.8809 2.61491C19.2465 1.65857 21.1025 1.81812 22.3047 3.09343C23.6787 4.55122 23.6787 6.91493 22.3047 8.37273L17.3291 13.652C16.8794 14.1291 16.1206 14.1291 15.6709 13.652L10.6943 8.37273C9.32036 6.915 9.3205 4.55124 10.6943 3.09343ZM14.2607 4.42155C13.6512 3.77497 12.713 3.77492 12.1035 4.42155C11.4329 5.13322 11.433 6.33188 12.1035 7.04362L16.5 11.7077L20.8955 7.0446C21.5663 6.33294 21.5661 5.13433 20.8955 4.42253C20.286 3.77587 19.3478 3.77588 18.7383 4.42253L16.5 6.79655L14.2607 4.42155Z" fill="#141414"/>
</svg>
