<svg width="12" height="12" viewBox="0 0 12 12" fill="none" xmlns="http://www.w3.org/2000/svg">
<path d="M6.37402 9.00977C7.26333 9.00977 7.98438 9.73079 7.98438 10.6201V11.0381H7.27344V10.6201C7.27344 10.1235 6.87065 9.7207 6.37402 9.7207H5.53809C5.04146 9.7207 4.63867 10.1235 4.63867 10.6201V11.0381H3.92773V10.6201C3.92773 9.73079 4.64878 9.00977 5.53809 9.00977H6.37402ZM3.44629 8.17285C3.88666 8.17285 4.28645 8.35025 4.57715 8.63672L4.07422 9.13965C3.91221 8.98184 3.69032 8.88477 3.44629 8.88477H2.61035C2.11384 8.88477 1.71112 9.28671 1.71094 9.7832V10.2021H1V9.7832C1.00018 8.89402 1.72116 8.17285 2.61035 8.17285H3.44629ZM9.30176 8.17285C10.191 8.17285 10.9119 8.89402 10.9121 9.7832V10.2021H10.2012V9.7832C10.201 9.28671 9.79827 8.88477 9.30176 8.88477H8.46582C8.22179 8.88477 7.9999 8.98184 7.83789 9.13965L7.33496 8.63672C7.62566 8.35025 8.02545 8.17285 8.46582 8.17285H9.30176ZM5.95605 6.01953C6.64887 6.0197 7.21094 6.58153 7.21094 7.27441C7.21082 7.9672 6.6488 8.52913 5.95605 8.5293C5.26316 8.5293 4.70129 7.9673 4.70117 7.27441C4.70117 6.58143 5.26309 6.01953 5.95605 6.01953ZM5.95605 6.73047C5.65577 6.73047 5.41211 6.97412 5.41211 7.27441C5.41222 7.57461 5.65584 7.81836 5.95605 7.81836C6.25612 7.81819 6.49891 7.57451 6.49902 7.27441C6.49902 6.97423 6.25619 6.73064 5.95605 6.73047ZM3.02832 5.18262C3.72128 5.18262 4.2832 5.74451 4.2832 6.4375C4.28311 7.13041 3.72123 7.69238 3.02832 7.69238C2.33554 7.69223 1.77353 7.13032 1.77344 6.4375C1.77344 5.74461 2.33548 5.18277 3.02832 5.18262ZM8.88379 5.18262C9.57659 5.18281 10.1377 5.74464 10.1377 6.4375C10.1376 7.13029 9.57653 7.69219 8.88379 7.69238C8.19088 7.69238 7.629 7.13041 7.62891 6.4375C7.62891 5.74451 8.19082 5.18262 8.88379 5.18262ZM3.02832 5.89355C2.72816 5.8937 2.48535 6.1373 2.48535 6.4375C2.48544 6.73762 2.72822 6.9813 3.02832 6.98145C3.32855 6.98145 3.57217 6.73772 3.57227 6.4375C3.57227 6.13721 3.3286 5.89355 3.02832 5.89355ZM8.88379 5.89355C8.5835 5.89355 8.33984 6.13721 8.33984 6.4375C8.33993 6.73772 8.58356 6.98145 8.88379 6.98145C9.18385 6.98125 9.42667 6.7376 9.42676 6.4375C9.42676 6.13733 9.18391 5.89375 8.88379 5.89355ZM6.46289 1.22559C6.96419 0.874509 7.64558 0.933244 8.08691 1.40137C8.59134 1.93656 8.59134 2.80465 8.08691 3.33984L6.26074 5.27734C6.09564 5.45252 5.81646 5.45253 5.65137 5.27734L3.8252 3.33887C3.32084 2.80367 3.32079 1.93653 3.8252 1.40137C4.2666 0.933145 4.94789 0.87432 5.44922 1.22559C5.52077 1.27573 5.58837 1.33453 5.65137 1.40137L5.95605 1.72461L6.26074 1.40137C6.32375 1.33455 6.39133 1.27571 6.46289 1.22559ZM7.56934 1.88867C7.34557 1.6517 7.00096 1.65142 6.77734 1.88867L5.95605 2.76074L5.13379 1.88867C4.91003 1.65158 4.56546 1.65137 4.3418 1.88867C4.09569 2.14989 4.09581 2.59025 4.3418 2.85156L5.95605 4.56348L7.56934 2.85156C7.81562 2.59026 7.81562 2.14998 7.56934 1.88867Z" fill="#141414"/>
</svg>
