<svg width="24" height="24" viewBox="0 0 24 24" fill="none" xmlns="http://www.w3.org/2000/svg">
<path d="M12.833 17.9585C14.6048 17.9585 16.041 19.3947 16.041 21.1665V21.9995H14.625V21.1665C14.625 20.1771 13.8225 19.3745 12.833 19.3745H11.167C10.1775 19.3745 9.37504 20.1771 9.375 21.1665V21.9995H7.95801V21.1665C7.95805 19.3947 9.39517 17.9585 11.167 17.9585H12.833ZM7 16.2915C7.87734 16.2915 8.67277 16.6437 9.25195 17.2144L8.25 18.2163C7.92721 17.902 7.48615 17.7085 7 17.7085H5.33301C4.34391 17.7088 3.54224 18.5104 3.54199 19.4995V20.3335H2.125V19.4995C2.12525 17.728 3.56153 16.2918 5.33301 16.2915H7ZM18.667 16.2915C20.4385 16.2918 21.8748 17.728 21.875 19.4995V20.3335H20.458V19.4995C20.4578 18.5104 19.6561 17.7088 18.667 17.7085H17C16.5138 17.7085 16.0728 17.902 15.75 18.2163L14.748 17.2144C15.3272 16.6437 16.1227 16.2915 17 16.2915H18.667ZM12 12.0005C13.3807 12.0005 14.5 13.1198 14.5 14.5005C14.4999 15.881 13.3806 17.0005 12 17.0005C10.6194 17.0005 9.50014 15.881 9.5 14.5005C9.5 13.1198 10.6193 12.0005 12 12.0005ZM12 13.4165C11.4017 13.4165 10.917 13.9022 10.917 14.5005C10.9171 15.0987 11.4018 15.5835 12 15.5835C12.5982 15.5835 13.0829 15.0987 13.083 14.5005C13.083 13.9022 12.5983 13.4165 12 13.4165ZM6.16699 10.3335C7.54756 10.3336 8.66692 11.4529 8.66699 12.8335C8.66699 14.2141 7.5476 15.3334 6.16699 15.3335C4.78633 15.3335 3.66699 14.2142 3.66699 12.8335C3.66706 11.4529 4.78637 10.3335 6.16699 10.3335ZM17.833 10.3335C19.2136 10.3335 20.3329 11.4529 20.333 12.8335C20.333 14.2142 19.2137 15.3335 17.833 15.3335C16.4524 15.3334 15.333 14.2141 15.333 12.8335C15.3331 11.4529 16.4524 10.3336 17.833 10.3335ZM6.16699 11.7505C5.56875 11.7505 5.08405 12.2353 5.08398 12.8335C5.08398 13.4318 5.56871 13.9165 6.16699 13.9165C6.76523 13.9164 7.25 13.4317 7.25 12.8335C7.24993 12.2353 6.76518 11.7506 6.16699 11.7505ZM17.833 11.7505C17.2348 11.7506 16.7501 12.2353 16.75 12.8335C16.75 13.4317 17.2348 13.9164 17.833 13.9165C18.4313 13.9165 18.916 13.4318 18.916 12.8335C18.9159 12.2353 18.4313 11.7505 17.833 11.7505ZM7.75391 2.80029C8.63335 1.86727 9.99132 1.7508 10.9902 2.45068C11.1328 2.55058 11.2681 2.66714 11.3936 2.80029L12 3.44385L12.6064 2.80127C12.7322 2.6679 12.8679 2.55069 13.0107 2.45068C14.0096 1.75127 15.3668 1.86841 16.2461 2.80127C17.2509 3.86757 17.251 5.59641 16.2461 6.6626L12.6064 10.5239C12.2775 10.8727 11.7225 10.8727 11.3936 10.5239L7.75391 6.66162C6.74895 5.59534 6.74891 3.86655 7.75391 2.80029ZM15.2148 3.77197C14.7691 3.29953 14.0834 3.2995 13.6377 3.77197L12 5.50928L10.3623 3.77197C9.91655 3.29921 9.23092 3.29924 8.78516 3.77197C8.29446 4.29258 8.29446 5.16934 8.78516 5.68994L12 9.10205L15.2148 5.69092C15.7055 5.17031 15.7055 4.29258 15.2148 3.77197Z" fill="#141414"/>
</svg>
