<svg xmlns="http://www.w3.org/2000/svg" width="32" height="32" fill="none" viewBox="0 0 32 32">
  <path fill="#141414" fill-rule="evenodd" d="M13.03 5.405C8.399 6.701 5 10.954 5 16c0 6.075 4.925 11 11 11 5.046 0 9.299-3.398 10.595-8.03A9.626 9.626 0 0 1 20.666 21 9.667 9.667 0 0 1 11 11.333c0-2.234.758-4.291 2.03-5.928ZM3 16C3 8.82 8.82 3 16 3c1.03 0 1.384 1.332.546 1.867a7.667 7.667 0 1 0 10.587 10.587C27.668 14.617 29 14.97 29 16c0 7.18-5.82 13-13 13S3 23.18 3 16Z" clip-rule="evenodd"/>
</svg>
