<svg xmlns="http://www.w3.org/2000/svg" width="32" height="32" fill="none" viewBox="0 0 32 32">
  <path fill="#141414" fill-rule="evenodd" d="M20 13.333v-2.667a4 4 0 1 0-8 0v2.667h8Zm-10-2.667v2.667h-.667A2.667 2.667 0 0 0 6.666 16v9.333A2.667 2.667 0 0 0 9.334 28h13.333a2.667 2.667 0 0 0 2.667-2.667V16a2.667 2.667 0 0 0-2.666-2.667H22v-2.667a6 6 0 0 0-12 0Zm-.667 4.667h13.333c.369 0 .667.299.667.667v9.333a.667.667 0 0 1-.666.667H9.332a.667.667 0 0 1-.667-.667V16c0-.368.299-.667.667-.667ZM17 18.666a1 1 0 1 0-2 0v4a1 1 0 0 0 2 0v-4Z" clip-rule="evenodd"/>
</svg>
