<svg xmlns="http://www.w3.org/2000/svg" width="32" height="32" fill="none" viewBox="0 0 32 32">
  <path fill="#141414" fill-rule="evenodd" d="M22.99 6.808a1 1 0 0 0-1.98-.283l-.544 3.809h-7.313l.504-3.526a1 1 0 1 0-1.98-.283l-.544 3.809H6.667a1 1 0 1 0 0 2h4.18L9.8 19.666H6.667a1 1 0 1 0 0 2h2.847l-.504 3.525a1 1 0 1 0 1.98.283l.544-3.808h7.313l-.504 3.525a1 1 0 0 0 1.98.283l.544-3.808h4.467a1 1 0 0 0 0-2h-4.18l1.047-7.334h3.133a1 1 0 0 0 0-2h-2.848l.504-3.525Zm-2.81 5.526h-7.313l-1.047 7.333h7.313l1.047-7.334Z" clip-rule="evenodd"/>
</svg>
