<svg xmlns="http://www.w3.org/2000/svg" width="24" height="24" fill="none" viewBox="0 0 24 24">
  <path fill="#141414" fill-rule="evenodd" d="M9.606 4.258a.75.75 0 0 1 .637.848L9.865 7.75h5.485l.408-2.856a.75.75 0 0 1 1.485.212l-.378 2.644H19a.75.75 0 0 1 0 1.5h-2.35l-.785 5.5H19a.75.75 0 0 1 0 1.5h-3.35l-.407 2.856a.75.75 0 0 1-1.485-.212l.377-2.644H8.651l-.408 2.856a.75.75 0 0 1-1.485-.212l.377-2.644H5a.75.75 0 0 1 0-1.5h2.35l.785-5.5H5a.75.75 0 0 1 0-1.5h3.35l.408-2.856a.75.75 0 0 1 .848-.636ZM14.35 14.75l.785-5.5H9.651l-.786 5.5h5.485Z" clip-rule="evenodd"/>
</svg>
