<svg xmlns="http://www.w3.org/2000/svg" width="16" height="16" fill="none" viewBox="0 0 16 16">
  <path fill="#141414" fill-rule="evenodd" d="M13 2H3a1 1 0 0 0-1 1v10a1 1 0 0 0 1 1h10a1 1 0 0 0 1-1V3a1 1 0 0 0-1-1ZM3 1a2 2 0 0 0-2 2v10a2 2 0 0 0 2 2h10a2 2 0 0 0 2-2V3a2 2 0 0 0-2-2H3Z" clip-rule="evenodd"/>
  <path fill="#141414" fill-rule="evenodd" d="M10.854 6.56a.5.5 0 0 0-.708 0l-7.792 7.794a.5.5 0 0 1-.708-.708L9.44 5.854a1.5 1.5 0 0 1 2.122 0l3.293 3.292a.5.5 0 0 1-.708.708L10.854 6.56Z" clip-rule="evenodd"/>
  <path fill="#141414" d="M6 5a1 1 0 1 1-2 0 1 1 0 0 1 2 0Z"/>
</svg>
