<svg xmlns="http://www.w3.org/2000/svg" width="32" height="32" fill="none" viewBox="0 0 32 32">
  <path fill="#141414" fill-rule="evenodd" d="M26.666 4.667H5.334a.667.667 0 0 0-.667.666V25.92l13.96-13.96a1 1 0 0 1 1.414 0l7.293 7.293V5.333a.667.667 0 0 0-.666-.667Zm0 22.666H6.081l13.252-13.252 7.96 7.96.04-.041v4.666a.667.667 0 0 1-.666.667ZM5.334 2.667a2.667 2.667 0 0 0-2.667 2.666v21.334a2.667 2.667 0 0 0 2.667 2.666h21.334a2.667 2.667 0 0 0 2.666-2.666V5.332a2.667 2.667 0 0 0-2.666-2.667H5.332Zm5.333 10.666a2.667 2.667 0 1 0 0-5.333 2.667 2.667 0 0 0 0 5.333Z" clip-rule="evenodd"/>
</svg>
