<svg xmlns="http://www.w3.org/2000/svg" width="16" height="18" fill="none" viewBox="0 0 16 18">
  <path fill="#141414" fill-rule="evenodd" d="M12 1.966a.5.5 0 0 1 .5.5v.877a5.78 5.78 0 0 1-4.379 5.608A4.78 4.78 0 0 0 4.5 13.59v.877a.5.5 0 1 1-1 0v-.877a5.78 5.78 0 0 1 4.379-5.608A4.78 4.78 0 0 0 11.5 3.343v-.877a.5.5 0 0 1 .5-.5Z" clip-rule="evenodd"/>
  <path fill="#141414" fill-rule="evenodd" d="M4 1.966a.5.5 0 0 0-.5.5v.877a5.78 5.78 0 0 0 4.379 5.608A4.78 4.78 0 0 1 11.5 13.59v.877a.5.5 0 1 0 1 0v-.877a5.78 5.78 0 0 0-4.379-5.608A4.78 4.78 0 0 1 4.5 3.343v-.877a.5.5 0 0 0-.5-.5Z" clip-rule="evenodd"/>
  <path fill="#141414" fill-rule="evenodd" d="M5.5 3.466a.5.5 0 0 1 .5-.5h4a.5.5 0 0 1 0 1H6a.5.5 0 0 1-.5-.5Zm0 10a.5.5 0 0 1 .5-.5h4a.5.5 0 0 1 0 1H6a.5.5 0 0 1-.5-.5Zm1-8a.5.5 0 0 1 .5-.5h2a.5.5 0 0 1 0 1H7a.5.5 0 0 1-.5-.5Zm0 6a.5.5 0 0 1 .5-.5h2a.5.5 0 0 1 0 1H7a.5.5 0 0 1-.5-.5Z" clip-rule="evenodd"/>
</svg>
