<svg xmlns="http://www.w3.org/2000/svg" width="31" height="32" fill="none" viewBox="0 0 31 32">
  <path fill="#141414" fill-rule="evenodd" d="M22.666 3a1 1 0 0 1 1 1v1.736c0 3.752-1.804 7.276-4.85 9.468l-4.465 3.215a9.666 9.666 0 0 0-4.018 7.845V28a1 1 0 1 1-2 0v-1.736c0-3.752 1.805-7.276 4.85-9.468l4.465-3.215a9.667 9.667 0 0 0 4.018-7.845V4a1 1 0 0 1 1-1Z" clip-rule="evenodd"/>
  <path fill="#141414" fill-rule="evenodd" d="M9.333 3a1 1 0 0 0-1 1v1.736c0 3.752 1.805 7.276 4.85 9.468l4.465 3.215a9.667 9.667 0 0 1 4.018 7.845V28a1 1 0 0 0 2 0v-1.736c0-3.752-1.804-7.276-4.85-9.468l-4.465-3.215a9.667 9.667 0 0 1-4.018-7.845V4a1 1 0 0 0-1-1Zm3 2.333a1 1 0 0 1 1-1h5.333a1 1 0 1 1 0 2h-5.333a1 1 0 0 1-1-1Z" clip-rule="evenodd"/>
  <path fill="#141414" fill-rule="evenodd" d="M12.333 22.667a1 1 0 0 1 1-1h5.333a1 1 0 1 1 0 2h-5.333a1 1 0 0 1-1-1Zm0-13.334a1 1 0 0 1 1-1h5.333a1 1 0 1 1 0 2h-5.333a1 1 0 0 1-1-1Zm0 17.334a1 1 0 0 1 1-1h5.333a1 1 0 1 1 0 2h-5.333a1 1 0 0 1-1-1Z" clip-rule="evenodd"/>
</svg>
