<svg xmlns="http://www.w3.org/2000/svg" width="23" height="24" fill="none" viewBox="0 0 23 24">
  <path fill="#141414" fill-rule="evenodd" d="M17 2.25a.75.75 0 0 1 .75.75v1.302a8.75 8.75 0 0 1-3.637 7.101l-3.35 2.411a7.25 7.25 0 0 0-3.013 5.884V21a.75.75 0 0 1-1.5 0v-1.302a8.75 8.75 0 0 1 3.637-7.101l3.35-2.411a7.25 7.25 0 0 0 3.013-5.884V3a.75.75 0 0 1 .75-.75Z" clip-rule="evenodd"/>
  <path fill="#141414" fill-rule="evenodd" d="M7 2.25a.75.75 0 0 0-.75.75v1.302a8.75 8.75 0 0 0 3.637 7.101l3.35 2.411a7.25 7.25 0 0 1 3.013 5.884V21a.75.75 0 0 0 1.5 0v-1.302a8.75 8.75 0 0 0-3.637-7.101l-3.35-2.411A7.25 7.25 0 0 1 7.75 4.302V3A.75.75 0 0 0 7 2.25ZM9.25 4a.75.75 0 0 1 .75-.75h4a.75.75 0 0 1 0 1.5h-4A.75.75 0 0 1 9.25 4Z" clip-rule="evenodd"/>
  <path fill="#141414" fill-rule="evenodd" d="M9.25 17a.75.75 0 0 1 .75-.75h4a.75.75 0 0 1 0 1.5h-4a.75.75 0 0 1-.75-.75Zm0-10a.75.75 0 0 1 .75-.75h4a.75.75 0 0 1 0 1.5h-4A.75.75 0 0 1 9.25 7Zm0 13a.75.75 0 0 1 .75-.75h4a.75.75 0 0 1 0 1.5h-4a.75.75 0 0 1-.75-.75Z" clip-rule="evenodd"/>
</svg>
