<svg width="12" height="12" viewBox="0 0 12 12" fill="none" xmlns="http://www.w3.org/2000/svg">
<path d="M5.64645 2.35355C5.45118 2.15829 5.45118 1.84171 5.64645 1.64645C5.84171 1.45118 6.15829 1.45118 6.35355 1.64645L10.3536 5.64645C10.5488 5.84171 10.5488 6.15829 10.3536 6.35355L6.35355 10.3536C6.15829 10.5488 5.84171 10.5488 5.64645 10.3536C5.45118 10.1583 5.45118 9.84171 5.64645 9.64645L9.29289 6L5.64645 2.35355Z" fill="#141414"/>
<path d="M1.64645 2.35355C1.45118 2.15829 1.45118 1.84171 1.64645 1.64645C1.84171 1.45118 2.15829 1.45118 2.35355 1.64645L6.35355 5.64645C6.54882 5.84171 6.54882 6.15829 6.35355 6.35355L2.35355 10.3536C2.15829 10.5488 1.84171 10.5488 1.64645 10.3536C1.45119 10.1583 1.45119 9.84171 1.64645 9.64645L5.29289 6L1.64645 2.35355Z" fill="#141414"/>
</svg>
