<svg width="16" height="16" viewBox="0 0 16 16" fill="none" xmlns="http://www.w3.org/2000/svg">
<path d="M8.35355 2.64645C8.15829 2.45118 7.84171 2.45118 7.64645 2.64645C7.45118 2.84171 7.45118 3.15829 7.64645 3.35355L12.2929 8L7.64645 12.6464C7.45118 12.8417 7.45118 13.1583 7.64645 13.3536C7.84171 13.5488 8.15829 13.5488 8.35355 13.3536L13.3536 8.35355C13.5488 8.15829 13.5488 7.84171 13.3536 7.64645L8.35355 2.64645Z" fill="#141414"/>
<path d="M3.35355 2.64645C3.15829 2.45118 2.84171 2.45118 2.64645 2.64645C2.45118 2.84171 2.45118 3.15829 2.64645 3.35355L7.29289 8L2.64645 12.6464C2.45118 12.8417 2.45118 13.1583 2.64645 13.3536C2.84171 13.5488 3.15829 13.5488 3.35355 13.3536L8.35355 8.35355C8.54882 8.15829 8.54882 7.84171 8.35355 7.64645L3.35355 2.64645Z" fill="#141414"/>
</svg>
