<svg width="24" height="24" viewBox="0 0 24 24" fill="none" xmlns="http://www.w3.org/2000/svg">
<path d="M12.7803 5.96967C12.4874 5.67678 12.0126 5.67678 11.7197 5.96967C11.4268 6.26256 11.4268 6.73744 11.7197 7.03033L16.6893 12L11.7197 16.9697C11.4268 17.2626 11.4268 17.7374 11.7197 18.0303C12.0126 18.3232 12.4874 18.3232 12.7803 18.0303L18.2803 12.5303C18.5732 12.2374 18.5732 11.7626 18.2803 11.4697L12.7803 5.96967Z" fill="#141414"/>
<path d="M6.78033 5.96967C6.48744 5.67678 6.01256 5.67678 5.71967 5.96967C5.42678 6.26256 5.42678 6.73744 5.71967 7.03033L10.6893 12L5.71967 16.9697C5.42678 17.2626 5.42678 17.7374 5.71967 18.0303C6.01256 18.3232 6.48744 18.3232 6.78033 18.0303L12.2803 12.5303C12.5732 12.2374 12.5732 11.7626 12.2803 11.4697L6.78033 5.96967Z" fill="#141414"/>
</svg>
