<svg width="32" height="32" viewBox="0 0 32 32" fill="none" xmlns="http://www.w3.org/2000/svg">
<path d="M17.7071 7.9594C17.3166 7.56887 16.6834 7.56887 16.2929 7.9594C15.9024 8.34992 15.9024 8.98309 16.2929 9.37361L22.9191 15.9998L16.2929 22.6261C15.9024 23.0166 15.9024 23.6498 16.2929 24.0403C16.6834 24.4308 17.3166 24.4308 17.7071 24.0403L25.0404 16.7069C25.431 16.3164 25.431 15.6833 25.0404 15.2927L17.7071 7.9594Z" fill="#141414"/>
<path d="M8.37361 7.9594C7.98309 7.56887 7.34992 7.56887 6.9594 7.9594C6.56887 8.34992 6.56887 8.98309 6.9594 9.37361L13.5856 15.9998L6.9594 22.6261C6.56887 23.0166 6.56887 23.6498 6.9594 24.0403C7.34992 24.4308 7.98309 24.4308 8.37361 24.0403L15.7069 16.7069C16.0975 16.3164 16.0975 15.6833 15.7069 15.2927L8.37361 7.9594Z" fill="#141414"/>
</svg>
