<svg xmlns="http://www.w3.org/2000/svg" width="32" height="32" fill="none" viewBox="0 0 32 32">
  <path fill="#141414" d="M6.525 8.343a.667.667 0 0 1-.48-1l2.586-4.35a.667.667 0 0 1 1.175.052l.73 1.527A12.667 12.667 0 1 1 3.334 16a1 1 0 1 1 2 0A10.667 10.667 0 1 0 11.4 6.376l.83 1.733a.667.667 0 0 1-.696.948l-5.01-.714Z"/>
  <path fill="#141414" d="M15.342 22.17a.829.829 0 1 0 1.658 0v-.873c.889-.186 1.555-.557 2-1.114.444-.567.666-1.244.666-2.03 0-.524-.114-.96-.341-1.31a3.126 3.126 0 0 0-.838-.917 5.526 5.526 0 0 0-1.077-.638 52.818 52.818 0 0 1-1.094-.508 5.115 5.115 0 0 1-.838-.508.855.855 0 0 1-.325-.671c0-.371.109-.639.325-.802.217-.164.53-.246.94-.246.365 0 .69.071.975.213.038.018.077.036.115.056.468.245 1.06.238 1.418-.15.348-.379.344-.973-.074-1.273A3.876 3.876 0 0 0 17 10.654v-.825a.83.83 0 0 0-1.658 0v.857c-.81.153-1.448.497-1.915 1.032-.456.524-.684 1.19-.684 1.998 0 .49.108.906.325 1.244a3.7 3.7 0 0 0 .838.884c.341.251.706.47 1.094.655.387.175.746.355 1.077.54.341.175.62.36.837.557a.917.917 0 0 1 .342.72c0 .383-.114.667-.342.852-.216.186-.564.279-1.043.279-.41 0-.814-.077-1.213-.23a4.382 4.382 0 0 1-.336-.158c-.513-.265-1.163-.164-1.487.315-.287.425-.216 1.008.228 1.264.215.123.445.234.689.331a6.651 6.651 0 0 0 1.59.393v.809Z"/>
</svg>
