<svg xmlns="http://www.w3.org/2000/svg" width="24" height="24" fill="none" viewBox="0 0 24 24">
  <path fill="#141414" d="M4.894 6.257a.5.5 0 0 1-.36-.75l1.94-3.262a.5.5 0 0 1 .88.04l.549 1.144A9.5 9.5 0 1 1 2.5 12 .75.75 0 0 1 4 12a8 8 0 1 0 4.55-7.218l.623 1.3a.5.5 0 0 1-.522.71l-3.757-.535Z"/>
  <path fill="#141414" d="M11.506 16.628a.622.622 0 0 0 1.244 0v-.655c.667-.14 1.167-.418 1.5-.835.333-.426.5-.934.5-1.523 0-.393-.085-.72-.256-.982-.163-.27-.372-.5-.629-.688a4.149 4.149 0 0 0-.807-.48c-.29-.13-.564-.257-.82-.38a3.827 3.827 0 0 1-.629-.38.641.641 0 0 1-.244-.504c0-.278.082-.48.244-.602.162-.123.397-.184.705-.184a1.618 1.618 0 0 1 .817.202c.352.183.795.178 1.063-.113.262-.284.259-.73-.055-.955a2.905 2.905 0 0 0-1.39-.559v-.618a.622.622 0 0 0-1.243 0v.643c-.606.115-1.085.372-1.436.774-.341.393-.512.892-.512 1.498 0 .368.08.68.243.933.171.254.38.475.629.663.256.189.53.352.82.492.29.13.56.266.808.405.256.13.466.27.628.417.17.148.256.328.256.54 0 .287-.085.5-.256.64-.162.138-.423.208-.782.208-.308 0-.611-.057-.91-.172a3.608 3.608 0 0 1-.252-.119c-.385-.199-.873-.123-1.115.236-.216.32-.163.757.17.949.162.092.334.175.517.248.419.156.816.254 1.192.295v.606Z"/>
</svg>
