<svg xmlns="http://www.w3.org/2000/svg" width="16" height="16" fill="none" viewBox="0 0 16 16">
  <path fill="#141414" d="M3.263 4.171a.333.333 0 0 1-.24-.5l1.293-2.175a.333.333 0 0 1 .587.026l.366.764A6.333 6.333 0 1 1 1.667 8a.5.5 0 1 1 1 0A5.334 5.334 0 1 0 5.7 3.188l.415.866a.333.333 0 0 1-.347.474l-2.505-.357Z"/>
  <path fill="#141414" d="M7.671 11.085a.415.415 0 1 0 .83 0v-.437c.444-.092.777-.278 1-.556.222-.284.333-.623.333-1.016 0-.262-.057-.48-.171-.655a1.563 1.563 0 0 0-.42-.458 2.765 2.765 0 0 0-.538-.32 26.054 26.054 0 0 1-.547-.253 2.554 2.554 0 0 1-.418-.254.427.427 0 0 1-.163-.336c0-.185.054-.319.163-.4.108-.083.265-.124.47-.124a1.078 1.078 0 0 1 .545.135c.234.122.53.119.708-.075.174-.19.172-.487-.037-.637a1.937 1.937 0 0 0-.926-.373v-.412a.415.415 0 0 0-.829 0v.429c-.404.076-.723.248-.957.516-.228.262-.342.595-.342.999 0 .245.054.453.163.622.113.17.253.316.418.442.171.126.354.235.547.327.194.088.374.178.539.27.17.088.31.18.419.279.114.098.17.218.17.36 0 .191-.056.333-.17.426-.109.093-.282.14-.522.14-.205 0-.407-.04-.607-.115a2.393 2.393 0 0 1-.168-.08c-.256-.132-.581-.082-.743.158-.143.212-.108.504.114.632.108.062.222.117.344.166.28.103.545.169.795.196v.404Z"/>
</svg>
