<svg width="32" height="32" viewBox="0 0 32 32" fill="none" xmlns="http://www.w3.org/2000/svg">
<path d="M19.75 4.75C19.75 5.16421 19.4142 5.5 19 5.5C18.5858 5.5 18.25 5.16421 18.25 4.75C18.25 4.33579 18.5858 4 19 4C19.4142 4 19.75 4.33579 19.75 4.75Z" fill="#141414"/>
<path d="M20 9C20 9.55228 19.5523 10 19 10C18.4477 10 18 9.55228 18 9C18 8.44772 18.4477 8 19 8C19.5523 8 20 8.44772 20 9Z" fill="#141414"/>
<path d="M20.0002 16C20.0002 18.2091 18.2093 20 16.0002 20C13.791 20 12.0002 18.2091 12.0002 16C12.0002 13.7909 13.791 12 16.0002 12C18.2093 12 20.0002 13.7909 20.0002 16Z" fill="#141414"/>
<path d="M8.77419 28H23.2258C23.6534 28 24 27.6642 24 27.25V26.75C24 24.1266 21.8048 22 19.0968 22H12.9032C10.1952 22 8 24.1266 8 26.75V27.25C8 27.6642 8.34662 28 8.77419 28Z" fill="#141414"/>
<path d="M26 21C26 21.5523 25.5523 22 25 22C24.4477 22 24 21.5523 24 21C24 20.4477 24.4477 20 25 20C25.5523 20 26 20.4477 26 21Z" fill="#141414"/>
<path d="M25 16C25.5523 16 26 15.5523 26 15C26 14.4477 25.5523 14 25 14C24.4477 14 24 14.4477 24 15C24 15.5523 24.4477 16 25 16Z" fill="#141414"/>
<path d="M29.5 15C29.5 15.4142 29.1642 15.75 28.75 15.75C28.3358 15.75 28 15.4142 28 15C28 14.5858 28.3358 14.25 28.75 14.25C29.1642 14.25 29.5 14.5858 29.5 15Z" fill="#141414"/>
<path d="M3.25 15.75C3.66421 15.75 4 15.4142 4 15C4 14.5858 3.66421 14.25 3.25 14.25C2.83579 14.25 2.5 14.5858 2.5 15C2.5 15.4142 2.83579 15.75 3.25 15.75Z" fill="#141414"/>
<path d="M29.5 21C29.5 21.4142 29.1642 21.75 28.75 21.75C28.3358 21.75 28 21.4142 28 21C28 20.5858 28.3358 20.25 28.75 20.25C29.1642 20.25 29.5 20.5858 29.5 21Z" fill="#141414"/>
<path d="M3.25 21.75C3.66421 21.75 4 21.4142 4 21C4 20.5858 3.66421 20.25 3.25 20.25C2.83579 20.25 2.5 20.5858 2.5 21C2.5 21.4142 2.83579 21.75 3.25 21.75Z" fill="#141414"/>
<path d="M24.75 9.75C25.1642 9.75 25.5 9.41421 25.5 9C25.5 8.58579 25.1642 8.25 24.75 8.25C24.3358 8.25 24 8.58579 24 9C24 9.41421 24.3358 9.75 24.75 9.75Z" fill="#141414"/>
<path d="M13 5.5C13.4142 5.5 13.75 5.16421 13.75 4.75C13.75 4.33579 13.4142 4 13 4C12.5858 4 12.25 4.33579 12.25 4.75C12.25 5.16421 12.5858 5.5 13 5.5Z" fill="#141414"/>
<path d="M8 21C8 21.5523 7.55228 22 7 22C6.44772 22 6 21.5523 6 21C6 20.4477 6.44772 20 7 20C7.55228 20 8 20.4477 8 21Z" fill="#141414"/>
<path d="M7 16C7.55228 16 8 15.5523 8 15C8 14.4477 7.55228 14 7 14C6.44772 14 6 14.4477 6 15C6 15.5523 6.44772 16 7 16Z" fill="#141414"/>
<path d="M14 9C14 9.55228 13.5523 10 13 10C12.4477 10 12 9.55228 12 9C12 8.44772 12.4477 8 13 8C13.5523 8 14 8.44772 14 9Z" fill="#141414"/>
<path d="M7.5 9.5C7.91421 9.5 8.25 9.16421 8.25 8.75C8.25 8.33579 7.91421 8 7.5 8C7.08579 8 6.75 8.33579 6.75 8.75C6.75 9.16421 7.08579 9.5 7.5 9.5Z" fill="#141414"/>
</svg>
