<svg xmlns="http://www.w3.org/2000/svg" width="32" height="32" fill="none" viewBox="0 0 32 32">
  <path fill="#141414" fill-rule="evenodd" d="M13.464 3.247a13.059 13.059 0 0 1 5.072 0 1 1 0 1 1-.388 1.962 11.06 11.06 0 0 0-4.296 0 1 1 0 1 1-.388-1.962Zm8.372 2.218a1 1 0 0 1 1.388-.275 13.068 13.068 0 0 1 3.586 3.586 1 1 0 0 1-1.662 1.113 11.066 11.066 0 0 0-3.037-3.037 1 1 0 0 1-.275-1.387Zm-11.672 0a1 1 0 0 1-.275 1.387A11.066 11.066 0 0 0 6.852 9.89 1 1 0 1 1 5.19 8.776 13.066 13.066 0 0 1 8.776 5.19a1 1 0 0 1 1.388.275Zm-5.742 7.212a1 1 0 0 1 .787 1.175 11.06 11.06 0 0 0 0 4.296 1 1 0 1 1-1.962.388 13.059 13.059 0 0 1 0-5.072 1 1 0 0 1 1.175-.787Zm23.155 0a1 1 0 0 1 1.176.787 13.06 13.06 0 0 1 0 5.072 1 1 0 0 1-1.962-.388 11.057 11.057 0 0 0 0-4.296 1 1 0 0 1 .787-1.175Zm-22.112 9.16a1 1 0 0 1 1.387.274 11.066 11.066 0 0 0 3.037 3.037 1 1 0 0 1-1.113 1.662 13.068 13.068 0 0 1-3.586-3.586 1 1 0 0 1 .275-1.388Zm21.07 0a1 1 0 0 1 .275 1.387 13.07 13.07 0 0 1-3.586 3.586 1 1 0 0 1-1.113-1.662 11.066 11.066 0 0 0 3.037-3.037 1 1 0 0 1 1.387-.275Zm-13.858 5.74a1 1 0 0 1 1.175-.786 11.057 11.057 0 0 0 4.296 0 1 1 0 1 1 .388 1.962 13.06 13.06 0 0 1-5.072 0 1 1 0 0 1-.787-1.175Z" clip-rule="evenodd"/>
</svg>
