<svg xmlns="http://www.w3.org/2000/svg" width="16" height="16" fill="none" viewBox="0 0 16 16">
  <path fill="#141414" fill-rule="evenodd" d="M6.983 1.58a6.544 6.544 0 0 1 2.034 0 .5.5 0 1 1-.156.987 5.545 5.545 0 0 0-1.722 0 .5.5 0 1 1-.156-.988Zm4.14 1.271a.5.5 0 0 1 .698-.11A6.535 6.535 0 0 1 13.26 4.18a.5.5 0 0 1-.809.588 5.535 5.535 0 0 0-1.217-1.217.5.5 0 0 1-.11-.699Zm-6.246 0a.5.5 0 0 1-.11.699c-.466.34-.878.75-1.217 1.217a.5.5 0 0 1-.809-.588A6.535 6.535 0 0 1 4.18 2.74a.5.5 0 0 1 .698.11ZM2.151 6.567a.5.5 0 0 1 .416.572 5.545 5.545 0 0 0 0 1.722.5.5 0 1 1-.988.156 6.544 6.544 0 0 1 0-2.034.5.5 0 0 1 .572-.416Zm11.698 0a.5.5 0 0 1 .572.416 6.544 6.544 0 0 1 0 2.034.5.5 0 0 1-.988-.156 5.54 5.54 0 0 0 0-1.722.5.5 0 0 1 .416-.572ZM2.851 11.123a.5.5 0 0 1 .699.11c.34.466.75.878 1.217 1.217a.5.5 0 0 1-.588.809A6.535 6.535 0 0 1 2.74 11.82a.5.5 0 0 1 .11-.698Zm10.298 0a.5.5 0 0 1 .11.698 6.536 6.536 0 0 1-1.438 1.438.5.5 0 0 1-.588-.809c.466-.34.878-.75 1.217-1.217a.5.5 0 0 1 .699-.11Zm-6.582 2.726a.5.5 0 0 1 .572-.416 5.54 5.54 0 0 0 1.722 0 .5.5 0 0 1 .156.988 6.544 6.544 0 0 1-2.034 0 .5.5 0 0 1-.416-.572Z" clip-rule="evenodd"/>
</svg>
