<svg xmlns="http://www.w3.org/2000/svg" width="12" height="12" fill="none" viewBox="0 0 12 12">
  <path fill="#141414" fill-rule="evenodd" d="M6 2a4.04 4.04 0 0 0-.523.034.5.5 0 0 1-.13-.992 5.04 5.04 0 0 1 1.305 0 .5.5 0 1 1-.129.992A4.04 4.04 0 0 0 6 2Zm-2.343.125a.5.5 0 0 1-.092.701 4.027 4.027 0 0 0-.739.74.5.5 0 1 1-.793-.61c.266-.346.577-.657.923-.923a.5.5 0 0 1 .7.092Zm4.686 0a.5.5 0 0 1 .701-.092c.346.266.657.577.923.923a.5.5 0 0 1-.793.61 4.026 4.026 0 0 0-.74-.74.5.5 0 0 1-.09-.701Zm-6.74 2.791a.5.5 0 0 1 .43.56 4.04 4.04 0 0 0 0 1.047.5.5 0 0 1-.99.13 5.04 5.04 0 0 1 0-1.305.5.5 0 0 1 .56-.432Zm8.794 0a.5.5 0 0 1 .56.432 5.057 5.057 0 0 1 0 1.304.5.5 0 0 1-.99-.129 4.04 4.04 0 0 0 0-1.046.5.5 0 0 1 .43-.56ZM2.125 8.343a.5.5 0 0 1 .701.092c.213.277.462.526.74.739a.5.5 0 1 1-.61.793 5.027 5.027 0 0 1-.923-.923.5.5 0 0 1 .092-.7Zm7.75 0a.5.5 0 0 1 .092.701 5.027 5.027 0 0 1-.923.923.5.5 0 0 1-.61-.793c.278-.213.527-.462.74-.74a.5.5 0 0 1 .701-.09Zm-4.959 2.054a.5.5 0 0 1 .56-.43 4.04 4.04 0 0 0 1.047 0 .5.5 0 0 1 .13.99 5.057 5.057 0 0 1-1.305 0 .5.5 0 0 1-.432-.56Z" clip-rule="evenodd"/>
</svg>
