<svg xmlns="http://www.w3.org/2000/svg" width="24" height="24" fill="none" viewBox="0 0 24 24">
  <path fill="#141414" fill-rule="evenodd" d="M6 8.5a1 1 0 0 0 0 2h12a1 1 0 1 0 0-2H6Zm0 5a1 1 0 1 0 0 2h12a1 1 0 1 0 0-2H6Z" clip-rule="evenodd"/>
  <path fill="#141414" d="M5.25 9.5A.75.75 0 0 1 6 8.75v-.5c-.69 0-1.25.56-1.25 1.25h.5Zm.75.75a.75.75 0 0 1-.75-.75h-.5c0 .69.56 1.25 1.25 1.25v-.5Zm12 0H6v.5h12v-.5Zm.75-.75a.75.75 0 0 1-.75.75v.5c.69 0 1.25-.56 1.25-1.25h-.5ZM18 8.75a.75.75 0 0 1 .75.75h.5c0-.69-.56-1.25-1.25-1.25v.5Zm-12 0h12v-.5H6v.5Zm-.75 5.75a.75.75 0 0 1 .75-.75v-.5c-.69 0-1.25.56-1.25 1.25h.5Zm.75.75a.75.75 0 0 1-.75-.75h-.5c0 .69.56 1.25 1.25 1.25v-.5Zm12 0H6v.5h12v-.5Zm.75-.75a.75.75 0 0 1-.75.75v.5c.69 0 1.25-.56 1.25-1.25h-.5Zm-.75-.75a.75.75 0 0 1 .75.75h.5c0-.69-.56-1.25-1.25-1.25v.5Zm-12 0h12v-.5H6v.5Z"/>
</svg>
