<svg xmlns="http://www.w3.org/2000/svg" width="32" height="32" fill="none" viewBox="0 0 32 32">
  <path fill="#141414" fill-rule="evenodd" d="M8 11.334A1.333 1.333 0 1 0 8 14h16a1.333 1.333 0 0 0 0-2.666H8ZM8 18a1.333 1.333 0 1 0 0 2.667h16A1.333 1.333 0 1 0 24 18H8Z" clip-rule="evenodd"/>
  <path fill="#141414" d="M7 12.667a1 1 0 0 1 1-1V11c-.921 0-1.667.746-1.667 1.667h.666Zm1 1a1 1 0 0 1-1-1h-.667c0 .92.746 1.667 1.666 1.667v-.667Zm16 0H8v.667h16v-.667Zm1-1a1 1 0 0 1-1 1v.667c.92 0 1.666-.747 1.666-1.667h-.667Zm-1-1a1 1 0 0 1 1 1h.666c0-.92-.746-1.667-1.667-1.667v.667Zm-16 0h16V11H8v.667Zm-1 7.667a1 1 0 0 1 1-1v-.667c-.921 0-1.667.746-1.667 1.666h.666Zm1 1a1 1 0 0 1-1-1h-.667c0 .92.746 1.666 1.666 1.666v-.666Zm16 0H8V21h16v-.666Zm1-1a1 1 0 0 1-1 1V21c.92 0 1.666-.746 1.666-1.666h-.667Zm-1-1a1 1 0 0 1 1 1h.666c0-.921-.746-1.667-1.667-1.667v.666Zm-16 0h16v-.667H8v.666Z"/>
</svg>
