<svg xmlns="http://www.w3.org/2000/svg" width="24" height="24" fill="none" viewBox="0 0 24 24">
  <path fill="#141414" fill-rule="evenodd" d="M12 4.75c-4.688 0-8.25 3.152-8.25 6.772s3.562 6.773 8.25 6.773c1.044 0 2.04-.16 2.956-.45.29-.091.614-.079.905.054l2.349 1.07-.51-1.507a1.27 1.27 0 0 1 .364-1.352c1.376-1.225 2.186-2.84 2.186-4.588 0-3.62-3.562-6.772-8.25-6.772Zm-9.75 6.772C2.25 6.833 6.747 3.25 12 3.25s9.75 3.583 9.75 8.272c0 2.186-.995 4.151-2.578 5.609l.778 2.302v.124c0 .943-1.02 1.475-1.793 1.036l-2.834-1.29a11.324 11.324 0 0 1-3.323.492c-5.253 0-9.75-3.584-9.75-8.273Z" clip-rule="evenodd"/>
</svg>
