<svg xmlns="http://www.w3.org/2000/svg" width="16" height="16" fill="none" viewBox="0 0 16 16">
  <path fill="#141414" fill-rule="evenodd" d="M8.064 2.5C4.627 2.5 2 4.813 2 7.487c0 2.673 2.627 4.986 6.064 4.986.749 0 1.464-.111 2.123-.315a1.02 1.02 0 0 1 .723.045l1.763.803-.377-1.113c-.135-.4 0-.82.287-1.083.973-.894 1.546-2.061 1.546-3.323 0-2.674-2.628-4.987-6.065-4.987ZM1 7.487C1 4.1 4.25 1.5 8.064 1.5s7.065 2.6 7.065 5.987c0 1.58-.72 3.004-1.87 4.06a.048.048 0 0 0-.014.021l-.001.005.572 1.691v.083c0 .65-.705 1.019-1.24.714l-2.08-.948s-.006-.002-.014.001a8.213 8.213 0 0 1-2.418.36C4.251 13.473 1 10.873 1 7.486Z" clip-rule="evenodd"/>
</svg>
