<svg xmlns="http://www.w3.org/2000/svg" width="32" height="32" fill="none" viewBox="0 0 32 32">
  <path fill="#141414" fill-rule="evenodd" d="M16 6.333c-6.25 0-11 4.204-11 9.03 0 4.827 4.75 9.03 11 9.03 1.392 0 2.72-.213 3.942-.598a1.685 1.685 0 0 1 1.206.07l3.131 1.427-.679-2.009a1.693 1.693 0 0 1 .486-1.803C25.92 19.847 27 17.692 27 15.363c0-4.826-4.75-9.03-11-9.03Zm-13 9.03c0-6.252 5.996-11.03 13-11.03s13 4.778 13 11.03c0 2.914-1.327 5.535-3.438 7.478l1.038 3.07v.165c0 1.258-1.36 1.967-2.391 1.382l-3.778-1.721a15.1 15.1 0 0 1-4.431.656c-7.004 0-13-4.778-13-11.03Z" clip-rule="evenodd"/>
</svg>
