<svg xmlns="http://www.w3.org/2000/svg" width="24" height="24" fill="none" viewBox="0 0 24 24">
  <path fill="#141414" fill-rule="evenodd" d="M11.31 2.817a.75.75 0 0 1 .44.683v3.267c2.244.1 4.039.659 5.458 1.551 1.574.991 2.636 2.362 3.335 3.866 1.383 2.976 1.367 6.515 1.143 8.887A.75.75 0 0 1 20.189 21c0-1.86-.565-3.166-1.371-4.104-.82-.952-1.931-1.576-3.094-1.979-1.161-.402-2.335-.571-3.227-.638a14.365 14.365 0 0 0-.747-.036V17.5a.75.75 0 0 1-1.244.564l-8-7a.75.75 0 0 1 0-1.128l8-7a.75.75 0 0 1 .804-.119ZM11 13.5l-.045-.749h.011l.026-.002.094-.003a15.412 15.412 0 0 1 1.523.038c.972.072 2.283.257 3.606.716 1.322.458 2.695 1.203 3.74 2.418.056.065.112.133.167.201-.165-1.133-.457-2.266-.94-3.303-.598-1.288-1.483-2.417-2.773-3.228C15.119 8.776 13.372 8.25 11 8.25a.75.75 0 0 1-.75-.75V5.153L4.139 10.5l6.111 5.347V13.5a.75.75 0 0 1 .704-.749L11 13.5Z" clip-rule="evenodd"/>
</svg>
