<svg xmlns="http://www.w3.org/2000/svg" width="16" height="16" fill="none" viewBox="0 0 16 16">
  <path fill="#141414" fill-rule="evenodd" d="M7.54 1.878a.5.5 0 0 1 .293.456V4.51c1.496.068 2.693.44 3.639 1.035 1.05.66 1.757 1.574 2.223 2.577.922 1.984.912 4.343.762 5.924A.5.5 0 0 1 13.46 14c0-1.24-.376-2.11-.914-2.736-.546-.635-1.287-1.05-2.062-1.319A8.655 8.655 0 0 0 8.33 9.52a9.602 9.602 0 0 0-.498-.025v2.172a.5.5 0 0 1-.829.376L1.671 7.376a.5.5 0 0 1 0-.752l5.333-4.667a.5.5 0 0 1 .536-.079ZM7.333 9l-.03-.499h.008l.017-.001a4.66 4.66 0 0 1 .288-.007c.193 0 .464.005.79.03A9.651 9.651 0 0 1 10.81 9c.881.306 1.796.802 2.493 1.612.038.044.075.088.111.134-.11-.755-.304-1.51-.626-2.202-.399-.858-.989-1.61-1.849-2.152-.86-.541-2.024-.892-3.606-.892a.5.5 0 0 1-.5-.5V3.435L2.76 7l4.074 3.565V9a.5.5 0 0 1 .47-.499l.03.5Z" clip-rule="evenodd"/>
</svg>
