<svg xmlns="http://www.w3.org/2000/svg" width="32" height="32" fill="none" viewBox="0 0 32 32">
  <path fill="#141414" fill-rule="evenodd" d="M15.08 3.756a1 1 0 0 1 .587.91v4.356c2.991.135 5.385.879 7.277 2.069 2.1 1.32 3.514 3.15 4.446 5.154 1.845 3.968 1.824 8.687 1.524 11.85A1 1 0 0 1 26.92 28c0-2.481-.753-4.222-1.829-5.473-1.091-1.269-2.574-2.1-4.125-2.637-1.548-.537-3.113-.762-4.302-.851a19.217 19.217 0 0 0-.996-.049v4.343a1 1 0 0 1-1.659.753L3.342 14.752a1 1 0 0 1 0-1.505l10.666-9.333a1 1 0 0 1 1.072-.158ZM14.667 18c-.062-.998-.061-.998-.06-.998h.004l.01-.001.035-.002a10.884 10.884 0 0 1 .577-.013c.384-.001.928.01 1.579.058 1.295.097 3.044.344 4.808.956 1.763.61 3.593 1.603 4.986 3.223.076.088.15.178.223.269-.22-1.51-.61-3.021-1.252-4.404-.799-1.718-1.979-3.222-3.699-4.304C20.159 11.7 17.83 11 14.667 11a1 1 0 0 1-1-1V6.87L5.519 14l8.148 7.13V18a1 1 0 0 1 .938-.998l.062.998Z" clip-rule="evenodd"/>
</svg>
