<svg xmlns="http://www.w3.org/2000/svg" width="32" height="32" fill="none" viewBox="0 0 32 32">
  <path fill="#141414" d="M16.171 23a.829.829 0 0 1-.829-.83v-.808a6.651 6.651 0 0 1-1.59-.393 5.363 5.363 0 0 1-.688-.331c-.445-.256-.515-.839-.228-1.264.323-.48.973-.58 1.486-.315.114.06.226.112.336.158.4.153.804.23 1.214.23.479 0 .826-.093 1.043-.279.228-.185.342-.47.342-.851a.917.917 0 0 0-.342-.72 3.849 3.849 0 0 0-.838-.557c-.33-.186-.69-.366-1.077-.54a6.821 6.821 0 0 1-1.094-.656 3.7 3.7 0 0 1-.837-.884c-.217-.338-.325-.753-.325-1.244 0-.808.228-1.474.684-1.998.467-.535 1.105-.879 1.914-1.032V9.83a.83.83 0 1 1 1.658 0v.825a3.876 3.876 0 0 1 1.852.745c.418.3.422.894.074 1.273-.357.388-.95.394-1.417.15a2.66 2.66 0 0 0-.116-.056 2.157 2.157 0 0 0-.974-.213c-.41 0-.724.082-.94.246-.217.163-.325.43-.325.802 0 .262.108.486.325.671.228.175.507.344.837.508.342.164.707.333 1.094.508a5.47 5.47 0 0 1 1.077.638c.342.251.621.557.838.917.228.35.342.786.342 1.31 0 .786-.222 1.463-.667 2.03-.444.557-1.11.928-2 1.114v.874a.829.829 0 0 1-.829.829Z"/>
  <path fill="#141414" fill-rule="evenodd" d="M29.334 16c0 7.364-5.97 13.333-13.334 13.333-7.363 0-13.333-5.97-13.333-13.333C2.667 8.636 8.637 2.666 16 2.666c7.364 0 13.334 5.97 13.334 13.334Zm-2 0c0 6.26-5.074 11.333-11.334 11.333C9.741 27.333 4.667 22.26 4.667 16S9.741 4.666 16 4.666c6.26 0 11.334 5.075 11.334 11.334Z" clip-rule="evenodd"/>
</svg>
