<svg xmlns="http://www.w3.org/2000/svg" width="16" height="16" fill="none" viewBox="0 0 16 16">
  <path fill="#141414" d="M8.086 11.5a.415.415 0 0 1-.415-.415v-.404a3.326 3.326 0 0 1-.795-.196 2.674 2.674 0 0 1-.344-.166c-.222-.128-.258-.42-.114-.632.162-.24.487-.29.743-.157a1.684 1.684 0 0 0 .775.194c.24 0 .413-.047.521-.14.114-.093.171-.234.171-.426a.458.458 0 0 0-.17-.36 1.924 1.924 0 0 0-.42-.278 6.853 6.853 0 0 0-.538-.27 3.412 3.412 0 0 1-.547-.328 1.85 1.85 0 0 1-.419-.442 1.131 1.131 0 0 1-.162-.622c0-.404.114-.737.342-.999.233-.267.552-.44.957-.516v-.428a.415.415 0 0 1 .83 0v.412a1.937 1.937 0 0 1 .925.372c.21.15.211.448.037.637-.179.194-.475.197-.709.075a1.078 1.078 0 0 0-.545-.135c-.205 0-.361.042-.47.123-.108.082-.162.216-.162.402 0 .13.054.242.162.335.114.088.254.172.42.254.17.082.352.167.546.254.194.087.373.194.539.32.17.125.31.278.418.458.114.174.171.393.171.655 0 .393-.11.731-.333 1.015-.222.278-.555.464-1 .556v.438a.415.415 0 0 1-.414.414Z"/>
  <path fill="#141414" fill-rule="evenodd" d="M15 8A7 7 0 1 1 1 8a7 7 0 0 1 14 0Zm-1 0A6 6 0 1 1 2 8a6 6 0 0 1 12 0Z" clip-rule="evenodd"/>
</svg>
