<svg xmlns="http://www.w3.org/2000/svg" width="24" height="24" fill="none" viewBox="0 0 24 24">
  <path fill="#141414" d="M12.128 17.25a.622.622 0 0 1-.622-.622v-.606a4.988 4.988 0 0 1-1.192-.295 4.015 4.015 0 0 1-.516-.248c-.334-.192-.387-.63-.171-.949.242-.359.73-.435 1.114-.236.086.045.17.084.252.12.3.114.603.171.91.171.36 0 .62-.07.783-.209.17-.139.256-.352.256-.638a.687.687 0 0 0-.256-.54 2.886 2.886 0 0 0-.628-.418c-.248-.14-.518-.274-.808-.405a5.118 5.118 0 0 1-.82-.492 2.775 2.775 0 0 1-.629-.663c-.162-.254-.243-.565-.243-.933 0-.606.17-1.105.512-1.498.35-.402.83-.66 1.436-.774v-.643a.622.622 0 0 1 1.244 0v.618a2.905 2.905 0 0 1 1.389.56c.314.224.317.67.055.954-.268.291-.712.296-1.063.113a1.618 1.618 0 0 0-.817-.202c-.308 0-.543.061-.705.184-.162.123-.244.324-.244.602 0 .196.082.364.244.503.17.131.38.258.628.381.256.123.53.25.82.38.291.132.56.291.808.48.257.188.466.417.628.688.171.261.257.589.257.982 0 .59-.167 1.097-.5 1.523-.333.417-.833.696-1.5.835v.655a.622.622 0 0 1-.622.622Z"/>
  <path fill="#141414" fill-rule="evenodd" d="M22 12c0 5.523-4.477 10-10 10S2 17.523 2 12 6.477 2 12 2s10 4.477 10 10Zm-1.5 0a8.5 8.5 0 1 1-17 0 8.5 8.5 0 0 1 17 0Z" clip-rule="evenodd"/>
</svg>
