<svg width="12" height="12" viewBox="0 0 12 12" fill="none" xmlns="http://www.w3.org/2000/svg">
<path d="M8.35352 4.95707C8.54878 4.76181 8.54878 4.44522 8.35352 4.24996C8.15826 4.0547 7.84167 4.0547 7.64641 4.24996L5.20722 6.68919L4.35355 5.83537C4.15829 5.64011 3.84171 5.64011 3.64644 5.83537C3.45118 6.03064 3.45118 6.34722 3.64644 6.54248L4.85367 7.74985C4.94743 7.84362 5.07461 7.8963 5.20722 7.8963C5.33983 7.8963 5.46701 7.84362 5.56077 7.74985L8.35352 4.95707Z" fill="#141414"/>
<path fill-rule="evenodd" clip-rule="evenodd" d="M11 6C11 8.76142 8.76142 11 6 11C3.23858 11 1 8.76142 1 6C1 3.23858 3.23858 1 6 1C8.76142 1 11 3.23858 11 6ZM10 6C10 8.20914 8.20914 10 6 10C3.79086 10 2 8.20914 2 6C2 3.79086 3.79086 2 6 2C8.20914 2 10 3.79086 10 6Z" fill="#141414"/>
</svg>
