<svg xmlns="http://www.w3.org/2000/svg" width="32" height="32" fill="none" viewBox="0 0 32 32">
  <path fill="#141414" fill-rule="evenodd" d="M27.333 16c0 6.26-5.074 11.333-11.333 11.333C9.74 27.333 4.666 22.26 4.666 16S9.741 4.666 16 4.666c6.26 0 11.333 5.075 11.333 11.334Zm2 0c0 7.364-5.97 13.333-13.333 13.333-7.364 0-13.334-5.97-13.334-13.333C2.666 8.636 8.636 2.666 16 2.666S29.333 8.636 29.333 16Zm-6.626-3.293a1 1 0 1 0-1.414-1.414l-7.96 7.96-3.293-3.294a1 1 0 0 0-1.414 1.415l4 4a1 1 0 0 0 1.414 0l8.667-8.667Z" clip-rule="evenodd"/>
</svg>
