<svg width="16" height="16" viewBox="0 0 16 16" fill="none" xmlns="http://www.w3.org/2000/svg">
<path d="M5.83333 6.3335C5.83333 4.95278 6.95262 3.8335 8.33333 3.8335H8.66667C10.2315 3.8335 11.5 5.10202 11.5 6.66683V7.66683C11.5 7.94297 11.7239 8.16683 12 8.16683C12.8284 8.16683 13.5 8.8384 13.5 9.66683V10.0002C13.5 10.8286 12.8284 11.5002 12 11.5002H10.6667C10.3905 11.5002 10.1667 11.724 10.1667 12.0002C10.1667 12.2763 10.3905 12.5002 10.6667 12.5002H12C13.3807 12.5002 14.5 11.3809 14.5 10.0002V9.66683C14.5 8.45735 13.6411 7.44847 12.5 7.21684V6.66683C12.5 4.54974 10.7838 2.8335 8.66667 2.8335H8.33333C6.5701 2.8335 5.11139 4.13735 4.86878 5.8335H4.83333C2.99238 5.8335 1.5 7.32588 1.5 9.16683V9.3335C1.5 11.0824 2.91777 12.5002 4.66667 12.5002H5.33333C5.60948 12.5002 5.83333 12.2763 5.83333 12.0002C5.83333 11.724 5.60948 11.5002 5.33333 11.5002H4.66667C3.47005 11.5002 2.5 10.5301 2.5 9.3335V9.16683C2.5 7.87816 3.54467 6.8335 4.83333 6.8335H5.33333C5.60948 6.8335 5.83333 6.60964 5.83333 6.3335Z" fill="#141414"/>
<path d="M7.67374 8.9546C7.66336 8.96355 7.65335 8.97292 7.64373 8.98268L6.31313 10.3133C6.11787 10.5085 6.11787 10.8251 6.31313 11.0204C6.5084 11.2156 6.82498 11.2156 7.02024 11.0204L7.5 10.5406V12.6668C7.5 12.943 7.72386 13.1668 8 13.1668C8.27614 13.1668 8.5 12.943 8.5 12.6668V10.5406L8.9798 11.0204C9.17506 11.2156 9.49164 11.2156 9.68691 11.0204C9.88217 10.8251 9.88217 10.5085 9.68691 10.3133L8.35357 8.97994C8.30334 8.92971 8.24508 8.8924 8.18293 8.86802C8.12716 8.84608 8.06649 8.83388 8.00302 8.8335L8 8.8335C7.92849 8.8335 7.86049 8.84851 7.79897 8.87555C7.75443 8.89509 7.71216 8.92144 7.67374 8.9546Z" fill="#141414"/>
</svg>
