<svg width="32" height="32" viewBox="0 0 32 32" fill="none" xmlns="http://www.w3.org/2000/svg">
<path d="M11.6667 12.6665C11.6667 9.90508 13.9052 7.6665 16.6667 7.6665H17.3333C20.4629 7.6665 23 10.2036 23 13.3332V15.3332C23 15.8855 23.4477 16.3332 24 16.3332C25.6569 16.3332 27 17.6763 27 19.3332V19.9998C27 21.6567 25.6569 22.9998 24 22.9998H21.3333C20.781 22.9998 20.3333 23.4476 20.3333 23.9998C20.3333 24.5521 20.781 24.9998 21.3333 24.9998H24C26.7614 24.9998 29 22.7613 29 19.9998V19.3332C29 16.9142 27.2822 14.8965 25 14.4332V13.3332C25 9.09899 21.5675 5.6665 17.3333 5.6665H16.6667C13.1402 5.6665 10.2228 8.27421 9.73756 11.6665H9.66667C5.98477 11.6665 3 14.6513 3 18.3332V18.6665C3 22.1643 5.83553 24.9998 9.33333 24.9998H10.6667C11.219 24.9998 11.6667 24.5521 11.6667 23.9998C11.6667 23.4476 11.219 22.9998 10.6667 22.9998H9.33333C6.9401 22.9998 5 21.0597 5 18.6665V18.3332C5 15.7558 7.08934 13.6665 9.66667 13.6665H10.6667C11.219 13.6665 11.6667 13.2188 11.6667 12.6665Z" fill="#141414"/>
<path d="M15.3475 17.9087C15.3267 17.9266 15.3067 17.9453 15.2875 17.9649L12.6263 20.6261C12.2357 21.0166 12.2357 21.6498 12.6263 22.0403C13.0168 22.4308 13.65 22.4308 14.0405 22.0403L15 21.0808V25.3332C15 25.8855 15.4477 26.3332 16 26.3332C16.5523 26.3332 17 25.8855 17 25.3332V21.0807L17.9596 22.0403C18.3501 22.4308 18.9833 22.4308 19.3738 22.0403C19.7643 21.6498 19.7643 21.0166 19.3738 20.6261L16.7071 17.9594C16.6067 17.8589 16.4902 17.7843 16.3659 17.7355C16.2553 17.692 16.135 17.6677 16.0093 17.6665L16 17.6665L15.997 17.6665C15.855 17.6669 15.7199 17.697 15.5976 17.7508C15.5087 17.7898 15.4242 17.8425 15.3475 17.9087Z" fill="#141414"/>
</svg>
