<svg width="24" height="24" viewBox="0 0 24 24" fill="none" xmlns="http://www.w3.org/2000/svg">
<path d="M8.75 9.5C8.75 7.42893 10.4289 5.75 12.5 5.75H13C15.3472 5.75 17.25 7.65279 17.25 10V11.5C17.25 11.9142 17.5858 12.25 18 12.25C19.2426 12.25 20.25 13.2574 20.25 14.5V15C20.25 16.2426 19.2426 17.25 18 17.25H16C15.5858 17.25 15.25 17.5858 15.25 18C15.25 18.4142 15.5858 18.75 16 18.75H18C20.0711 18.75 21.75 17.0711 21.75 15V14.5C21.75 12.6858 20.4617 11.1725 18.75 10.825V10C18.75 6.82436 16.1756 4.25 13 4.25H12.5C9.85515 4.25 7.66709 6.20578 7.30317 8.75H7.25C4.48858 8.75 2.25 10.9886 2.25 13.75V14C2.25 16.6234 4.37665 18.75 7 18.75H8C8.41421 18.75 8.75 18.4142 8.75 18C8.75 17.5858 8.41421 17.25 8 17.25H7C5.20507 17.25 3.75 15.7949 3.75 14V13.75C3.75 11.817 5.317 10.25 7.25 10.25H8C8.41421 10.25 8.75 9.91421 8.75 9.5Z" fill="#141414"/>
<path d="M11.4697 13.4697C11.5416 13.3978 11.6245 13.3435 11.7129 13.3069C11.9848 13.1944 12.3093 13.2487 12.5303 13.4697L14.5303 15.4697C14.8232 15.7626 14.8232 16.2374 14.5303 16.5303C14.2374 16.8232 13.7626 16.8232 13.4697 16.5303L12.75 15.8107V19C12.75 19.4142 12.4142 19.75 12 19.75C11.5858 19.75 11.25 19.4142 11.25 19V15.8107L10.5303 16.5303C10.2374 16.8232 9.76256 16.8232 9.46967 16.5303C9.17678 16.2374 9.17678 15.7626 9.46967 15.4697L11.4697 13.4697Z" fill="#141414"/>
</svg>
