<svg xmlns="http://www.w3.org/2000/svg" width="24" height="24" fill="none" viewBox="0 0 24 24">
  <path fill="#141414" fill-rule="evenodd" d="M11.876 6.185a.25.25 0 0 1 .248 0l6 3.428a.25.25 0 0 1 .126.217v8.92a.75.75 0 0 0 1.5 0V9.83a1.75 1.75 0 0 0-.882-1.519l-6-3.429a1.75 1.75 0 0 0-1.736 0l-6 3.429a1.75 1.75 0 0 0-.882 1.52v8.92a.75.75 0 0 0 1.5 0V9.83a.25.25 0 0 1 .126-.218l6-3.428Zm-2.853 5.339a1.787 1.787 0 0 0 0 2.527l2.242 2.242a1 1 0 0 0 1.414 0l2.242-2.242a1.787 1.787 0 0 0-2.527-2.527l-.422.42-.421-.42a1.787 1.787 0 0 0-2.528 0Z" clip-rule="evenodd"/>
</svg>
