<svg xmlns="http://www.w3.org/2000/svg" width="32" height="32" fill="none" viewBox="0 0 32 32">
  <path fill="#141414" fill-rule="evenodd" d="M15.835 8.247a.333.333 0 0 1 .33 0l8 4.571c.104.06.168.17.168.29V25a1 1 0 1 0 2 0V13.107c0-.837-.448-1.61-1.175-2.025l-8-4.572a2.333 2.333 0 0 0-2.316 0l-8 4.572a2.333 2.333 0 0 0-1.175 2.025V25a1 1 0 1 0 2 0V13.107c0-.12.064-.23.167-.289l8-4.571Zm-3.804 7.118c-.93.93-.93 2.44 0 3.37l2.989 2.989c.52.52 1.365.52 1.886 0l2.989-2.989a2.383 2.383 0 1 0-3.37-3.37l-.562.562-.562-.562c-.93-.93-2.44-.93-3.37 0Z" clip-rule="evenodd"/>
</svg>
