<svg width="24" height="24" viewBox="0 0 24 24" fill="none" xmlns="http://www.w3.org/2000/svg">
<path fill-rule="evenodd" clip-rule="evenodd" d="M17.0892 9.3367C17.3318 9.89112 17.453 10.4835 17.453 11.1139C17.453 10.4835 17.5705 9.89112 17.8054 9.3367C18.048 8.78228 18.3738 8.29999 18.7831 7.88986C19.1923 7.47974 19.6736 7.15694 20.2268 6.92151C20.7801 6.67846 21.3712 6.55696 22.0003 6.55696C21.3712 6.55696 20.7801 6.43922 20.2268 6.20379C19.6736 5.96074 19.1923 5.63417 18.7831 5.22405C18.3738 4.81392 18.048 4.33164 17.8054 3.77721C17.5705 3.22278 17.453 2.63038 17.453 2C17.453 2.63038 17.3318 3.22278 17.0892 3.77721C16.8543 4.33164 16.5322 4.81392 16.1229 5.22405C15.7137 5.63417 15.2324 5.96074 14.6792 6.20379C14.1259 6.43922 13.5348 6.55696 12.9058 6.55696C13.5348 6.55696 14.1259 6.67846 14.6792 6.92151C15.2324 7.15694 15.7137 7.47974 16.1229 7.88986C16.5322 8.29999 16.8543 8.78228 17.0892 9.3367ZM2 6.91725C2 5.36421 3.25899 4.10522 4.81203 4.10522H9.41352C9.83708 4.10522 10.1804 4.44858 10.1804 4.87214C10.1804 5.2957 9.83708 5.63906 9.41352 5.63906H4.81203C4.1061 5.63906 3.53383 6.21132 3.53383 6.91725V19.1879C3.53383 19.8938 4.1061 20.4661 4.81203 20.4661H17.0827C17.7886 20.4661 18.3609 19.8938 18.3609 19.1879V14.0751C18.3609 13.6516 18.7042 13.3082 19.1278 13.3082C19.5513 13.3082 19.8947 13.6516 19.8947 14.0751V19.1879C19.8947 20.7409 18.6357 21.9999 17.0827 21.9999H4.81203C3.25899 21.9999 2 20.7409 2 19.1879V6.91725ZM10.8421 9.3418C11.2607 9.3418 11.6 9.68183 11.6 10.1013V17.1899C11.6 17.6093 11.2607 17.9494 10.8421 17.9494C10.4235 17.9494 10.0842 17.6093 10.0842 17.1899V10.1013C10.0842 9.68183 10.4235 9.3418 10.8421 9.3418ZM6.7999 10.917C7.21848 10.917 7.55781 11.2571 7.55781 11.6765V17.1899C7.55781 17.6093 7.21848 17.9494 6.7999 17.9494C6.38132 17.9494 6.04199 17.6093 6.04199 17.1899V11.6765C6.04199 11.2571 6.38132 10.917 6.7999 10.917ZM14.8843 13.2799C15.3029 13.2799 15.6422 13.6199 15.6422 14.0394V17.1899C15.6422 17.6093 15.3029 17.9494 14.8843 17.9494C14.4657 17.9494 14.1264 17.6093 14.1264 17.1899V14.0394C14.1264 13.6199 14.4657 13.2799 14.8843 13.2799Z" fill="#141414"/>
</svg>
