<svg width="32" height="32" viewBox="0 0 32 32" fill="none" xmlns="http://www.w3.org/2000/svg">
<path fill-rule="evenodd" clip-rule="evenodd" d="M23.1244 12.2714C23.464 13.0476 23.6337 13.8769 23.6337 14.7595C23.6337 13.8769 23.7982 13.0476 24.1271 12.2714C24.4667 11.4952 24.9229 10.82 25.4958 10.2458C26.0688 9.67163 26.7426 9.21972 27.5171 8.89012C28.2916 8.54985 29.1192 8.37974 29.9999 8.37974C29.1192 8.37974 28.2916 8.21491 27.5171 7.88531C26.7426 7.54504 26.0688 7.08784 25.4958 6.51366C24.9229 5.93949 24.4667 5.2643 24.1271 4.4881C23.7982 3.7119 23.6337 2.88253 23.6337 2C23.6337 2.88253 23.464 3.7119 23.1244 4.4881C22.7955 5.2643 22.3446 5.93949 21.7716 6.51366C21.1987 7.08784 20.5249 7.54504 19.7504 7.88531C18.9758 8.21491 18.1482 8.37974 17.2676 8.37974C18.1482 8.37974 18.9758 8.54985 19.7504 8.89012C20.5249 9.21972 21.1987 9.67163 21.7716 10.2458C22.3446 10.82 22.7955 11.4952 23.1244 12.2714ZM2 8.88459C2 6.71034 3.76258 4.94775 5.93684 4.94775H12.3789C12.9719 4.94775 13.4526 5.42846 13.4526 6.02144C13.4526 6.61441 12.9719 7.09512 12.3789 7.09512H5.93684C4.94854 7.09512 4.14737 7.89629 4.14737 8.88459V26.0635C4.14737 27.0518 4.94854 27.853 5.93684 27.853H23.1158C24.1041 27.853 24.9052 27.0518 24.9052 26.0635V18.9056C24.9052 18.3126 25.3859 17.8319 25.9789 17.8319C26.5719 17.8319 27.0526 18.3126 27.0526 18.9056V26.0635C27.0526 28.2378 25.29 30.0003 23.1158 30.0003H5.93684C3.76258 30.0003 2 28.2378 2 26.0635V8.88459ZM14.3793 12.2786C14.9653 12.2786 15.4404 12.7546 15.4404 13.3419V23.2659C15.4404 23.8531 14.9653 24.3292 14.3793 24.3292C13.7933 24.3292 13.3182 23.8531 13.3182 23.2659V13.3419C13.3182 12.7546 13.7933 12.2786 14.3793 12.2786ZM8.72025 14.4839C9.30627 14.4839 9.78133 14.96 9.78133 15.5472V23.2659C9.78133 23.8531 9.30627 24.3292 8.72025 24.3292C8.13424 24.3292 7.65918 23.8531 7.65918 23.2659V15.5472C7.65918 14.96 8.13424 14.4839 8.72025 14.4839ZM20.0384 17.7919C20.6244 17.7919 21.0994 18.268 21.0994 18.8552V23.2659C21.0994 23.8531 20.6244 24.3292 20.0384 24.3292C19.4524 24.3292 18.9773 23.8531 18.9773 23.2659V18.8552C18.9773 18.268 19.4524 17.7919 20.0384 17.7919Z" fill="#141414"/>
</svg>
