<svg width="16" height="16" viewBox="0 0 16 16" fill="none" xmlns="http://www.w3.org/2000/svg">
<path fill-rule="evenodd" clip-rule="evenodd" d="M11.5622 6.13569C11.732 6.52378 11.8169 6.93846 11.8169 7.37974C11.8169 6.93846 11.8991 6.52378 12.0636 6.13569C12.2333 5.7476 12.4614 5.40999 12.7479 5.12291C13.0344 4.83582 13.3713 4.60986 13.7585 4.44506C14.1458 4.27492 14.5596 4.18987 14.9999 4.18987C14.5596 4.18987 14.1458 4.10746 13.7585 3.94265C13.3713 3.77252 13.0344 3.54392 12.7479 3.25683C12.4614 2.96974 12.2333 2.63215 12.0636 2.24405C11.8991 1.85595 11.8169 1.44127 11.8169 1C11.8169 1.44127 11.732 1.85595 11.5622 2.24405C11.3978 2.63215 11.1723 2.96974 10.8858 3.25683C10.5993 3.54392 10.2625 3.77252 9.87519 3.94265C9.48792 4.10746 9.07412 4.18987 8.63379 4.18987C9.07412 4.18987 9.48792 4.27492 9.87519 4.44506C10.2625 4.60986 10.5993 4.83582 10.8858 5.12291C11.1723 5.40999 11.3978 5.7476 11.5622 6.13569ZM1 4.44229C1 3.35517 1.88129 2.47388 2.96842 2.47388H6.18947C6.48595 2.47388 6.72631 2.71423 6.72631 3.01072C6.72631 3.30721 6.48595 3.54756 6.18947 3.54756H2.96842C2.47427 3.54756 2.07368 3.94815 2.07368 4.44229V13.0318C2.07368 13.5259 2.47427 13.9265 2.96842 13.9265H11.5579C12.052 13.9265 12.4526 13.5259 12.4526 13.0318V9.45281C12.4526 9.15632 12.693 8.91597 12.9895 8.91597C13.2859 8.91597 13.5263 9.15632 13.5263 9.45281V13.0318C13.5263 14.1189 12.645 15.0002 11.5579 15.0002H2.96842C1.88129 15.0002 1 14.1189 1 13.0318V4.44229ZM7.18966 6.13916C7.48266 6.13916 7.72019 6.37719 7.72019 6.6708V11.6328C7.72019 11.9264 7.48266 12.1645 7.18966 12.1645C6.89665 12.1645 6.65912 11.9264 6.65912 11.6328V6.6708C6.65912 6.37719 6.89665 6.13916 7.18966 6.13916ZM4.36013 7.24183C4.65313 7.24183 4.89066 7.47986 4.89066 7.77348V11.6328C4.89066 11.9264 4.65313 12.1645 4.36013 12.1645C4.06712 12.1645 3.82959 11.9264 3.82959 11.6328V7.77348C3.82959 7.47986 4.06712 7.24183 4.36013 7.24183ZM10.0192 8.89584C10.3122 8.89584 10.5497 9.13386 10.5497 9.42748V11.6328C10.5497 11.9264 10.3122 12.1645 10.0192 12.1645C9.72618 12.1645 9.48865 11.9264 9.48865 11.6328V9.42748C9.48865 9.13386 9.72618 8.89584 10.0192 8.89584Z" fill="#141414"/>
</svg>
