<svg width="12" height="12" viewBox="0 0 12 12" fill="none" xmlns="http://www.w3.org/2000/svg">
<path fill-rule="evenodd" clip-rule="evenodd" d="M8.54437 4.66835C8.66564 4.94556 8.72626 5.24176 8.72626 5.55696C8.72626 5.24176 8.78501 4.94556 8.90247 4.66835C9.02374 4.39114 9.18668 4.15 9.3913 3.94493C9.59593 3.73987 9.83656 3.57847 10.1132 3.46076C10.3898 3.33923 10.6854 3.27848 10.9999 3.27848C10.6854 3.27848 10.3898 3.21961 10.1132 3.1019C9.83656 2.98037 9.59593 2.81709 9.3913 2.61202C9.18668 2.40696 9.02374 2.16582 8.90247 1.88861C8.78501 1.61139 8.72626 1.31519 8.72626 1C8.72626 1.31519 8.66564 1.61139 8.54437 1.88861C8.42691 2.16582 8.26586 2.40696 8.06123 2.61202C7.8566 2.81709 7.61598 2.98037 7.33935 3.1019C7.06273 3.21961 6.76716 3.27848 6.45264 3.27848C6.76716 3.27848 7.06273 3.33923 7.33935 3.46076C7.61598 3.57847 7.8566 3.73987 8.06123 3.94493C8.26586 4.15 8.42691 4.39114 8.54437 4.66835ZM1 3.45875C1 2.68223 1.62949 2.05273 2.40601 2.05273H4.70676C4.91854 2.05273 5.09022 2.22441 5.09022 2.43619C5.09022 2.64797 4.91854 2.81965 4.70676 2.81965H2.40601C2.05305 2.81965 1.76692 3.10578 1.76692 3.45875V9.59408C1.76692 9.94704 2.05305 10.2332 2.40601 10.2332H8.54134C8.89431 10.2332 9.18044 9.94704 9.18044 9.59408V7.03769C9.18044 6.82591 9.35212 6.65423 9.5639 6.65423C9.77567 6.65423 9.94735 6.82591 9.94735 7.03769V9.59408C9.94735 10.3706 9.31786 11.0001 8.54134 11.0001H2.40601C1.62949 11.0001 1 10.3706 1 9.59408V3.45875ZM5.42104 4.6709C5.63033 4.6709 5.8 4.84092 5.8 5.05064V8.59494C5.8 8.80467 5.63033 8.97469 5.42104 8.97469C5.21175 8.97469 5.04209 8.80467 5.04209 8.59494V5.05064C5.04209 4.84092 5.21175 4.6709 5.42104 4.6709ZM3.39995 5.45852C3.60924 5.45852 3.77891 5.62854 3.77891 5.83827V8.59494C3.77891 8.80467 3.60924 8.97469 3.39995 8.97469C3.19066 8.97469 3.021 8.80467 3.021 8.59494V5.83827C3.021 5.62854 3.19066 5.45852 3.39995 5.45852ZM7.44214 6.63995C7.65143 6.63995 7.82109 6.80997 7.82109 7.0197V8.59494C7.82109 8.80467 7.65143 8.97469 7.44214 8.97469C7.23284 8.97469 7.06318 8.80467 7.06318 8.59494V7.0197C7.06318 6.80997 7.23284 6.63995 7.44214 6.63995Z" fill="#141414"/>
</svg>
