<svg width="12" height="12" viewBox="0 0 12 12" fill="none" xmlns="http://www.w3.org/2000/svg">
<path fill-rule="evenodd" clip-rule="evenodd" d="M10.9985 6C10.9985 7.20027 10.5755 8.30174 9.87036 9.16342L10.4747 9.76775C10.6699 9.96301 10.6699 10.2796 10.4747 10.4749C10.2794 10.6701 9.96284 10.6701 9.76758 10.4749L9.16323 9.87051C8.30158 10.5755 7.20019 10.9985 6 10.9985C4.79985 10.9985 3.69849 10.5756 2.83685 9.87058L2.2325 10.4749C2.03724 10.6702 1.72065 10.6702 1.52539 10.4749C1.33013 10.2797 1.33013 9.96308 1.52539 9.76782L2.12971 9.1635C1.42454 8.30181 1.00146 7.20031 1.00146 6C1.00146 4.79973 1.42452 3.69826 2.12964 2.83658L1.52532 2.23225C1.33005 2.03699 1.33005 1.72041 1.52532 1.52515C1.72058 1.32988 2.03716 1.32988 2.23242 1.52515L2.83677 2.12949C3.69842 1.42446 4.79981 1.00146 6 1.00146C7.20015 1.00146 8.30151 1.42443 9.16315 2.12942L9.7675 1.52507C9.96276 1.32981 10.2793 1.32981 10.4746 1.52507C10.6699 1.72033 10.6699 2.03692 10.4746 2.23218L9.87029 2.8365C10.5755 3.69819 10.9985 4.79969 10.9985 6ZM6.54392 9.96185C6.36607 9.98604 6.18449 9.99854 6 9.99854C5.8154 9.99854 5.63373 9.98603 5.45578 9.96181L5.84867 8.4955C5.89873 8.49848 5.94919 8.5 6 8.5C6.05071 8.5 6.10106 8.49849 6.15102 8.49551L6.54392 9.96185ZM7.51 9.7036C8.50383 9.29799 9.29787 8.50398 9.70352 7.51018L8.23707 7.11724C7.99505 7.60092 7.60077 7.99517 7.11707 8.23716L7.51 9.7036ZM8.4955 6.15121L9.96182 6.54411C9.98603 6.3662 9.99854 6.18456 9.99854 6C9.99854 5.81557 9.98605 5.63405 9.96187 5.45625L8.49552 5.84915C8.49849 5.89906 8.5 5.94935 8.5 6C8.5 6.05077 8.49849 6.10119 8.4955 6.15121ZM8.23724 4.88309C7.99522 4.39926 7.60088 4.00489 7.11707 3.76284L7.51 2.2964C8.50394 2.70206 9.29805 3.4962 9.70366 4.49016L8.23724 4.88309ZM4.88266 8.23702L4.48972 9.70348C3.49584 9.29776 2.7018 8.50359 2.29625 7.50962L3.76265 7.1167C4.00461 7.60053 4.3989 7.99493 4.88266 8.23702ZM3.50446 6.1506C3.5015 6.10078 3.5 6.05056 3.5 6C3.5 5.94932 3.50151 5.89898 3.50448 5.84905L2.03814 5.45614C2.01396 5.63398 2.00146 5.81553 2.00146 6C2.00146 6.18435 2.01394 6.36579 2.03809 6.54351L3.50446 6.1506ZM3.76281 4.88299L2.29638 4.49006C2.70196 3.49626 3.49592 2.70223 4.48966 2.29654L4.8826 3.763C4.39897 4.00505 4.00477 4.39931 3.76281 4.88299ZM5.84861 3.50451C5.89869 3.50152 5.94917 3.5 6 3.5C6.05071 3.5 6.10106 3.50151 6.15102 3.50449L6.54392 2.03815C6.36607 2.01396 6.18449 2.00146 6 2.00146C5.81538 2.00146 5.63369 2.01398 5.45572 2.0382L5.84861 3.50451ZM4.5 6C4.5 5.17157 5.17157 4.5 6 4.5C6.82843 4.5 7.5 5.17157 7.5 6C7.5 6.82843 6.82843 7.5 6 7.5C5.17157 7.5 4.5 6.82843 4.5 6Z" fill="#141414"/>
</svg>
