<svg width="24" height="24" viewBox="0 0 24 24" fill="none" xmlns="http://www.w3.org/2000/svg">
<path fill-rule="evenodd" clip-rule="evenodd" d="M22.5 12C22.5 14.6297 21.5333 17.0335 19.9359 18.8756L21.1833 20.123C21.4762 20.4159 21.4762 20.8908 21.1833 21.1837C20.8904 21.4766 20.4155 21.4766 20.1226 21.1837L18.8752 19.9363C17.0332 21.5335 14.6295 22.5 12 22.5C9.36935 22.5 6.96465 21.5326 5.12226 19.9341L3.87259 21.1838C3.5797 21.4767 3.10483 21.4767 2.81193 21.1838C2.51904 20.8909 2.51904 20.416 2.81193 20.1231L4.06191 18.8731C2.46581 17.0314 1.5 14.6285 1.5 12C1.5 9.37053 2.46654 6.96681 4.06373 5.12475L2.81182 3.87284C2.51893 3.57994 2.51893 3.10507 2.81182 2.81218C3.10471 2.51928 3.57959 2.51928 3.87248 2.81218L5.12437 4.06406C6.96648 2.46668 9.37035 1.5 12 1.5C14.6285 1.5 17.0314 2.46581 18.8732 4.06192L20.123 2.81206C20.4159 2.51917 20.8908 2.51917 21.1837 2.81206C21.4766 3.10496 21.4766 3.57983 21.1837 3.87272L19.9341 5.12227C21.5326 6.96466 22.5 9.36936 22.5 12ZM21 12C21 12.4148 20.9719 12.823 20.9176 13.2228L17.9734 12.5686C17.991 12.3814 18 12.1918 18 12C18 11.8216 17.9922 11.6451 17.977 11.4707L20.9228 10.8161C20.9737 11.2035 21 11.5987 21 12ZM17.647 14.0326L20.592 14.6871C19.7176 17.486 17.5132 19.6976 14.7188 20.5821L14.064 17.6356C15.7278 17.026 17.0464 15.7007 17.647 14.0326ZM12.6017 17.9702L13.2557 20.9131C12.8454 20.9704 12.4261 21 12 21C11.6059 21 11.2178 20.9747 10.8371 20.9256L11.492 17.9788C11.6595 17.9928 11.8289 18 12 18C12.2031 18 12.4038 17.9899 12.6017 17.9702ZM10.0246 17.6672L9.3707 20.6099C6.54048 19.7466 4.30218 17.5262 3.41418 14.7069L6.36014 14.0522C6.97463 15.7406 8.32566 17.0751 10.0246 17.6672ZM20.6036 9.35039L17.6602 10.0045C17.0669 8.32162 15.7443 6.98274 14.072 6.36737L14.7268 3.42049C17.5299 4.31061 19.7381 6.53645 20.6036 9.35039ZM13.2641 3.08808L12.6102 6.03065C12.4096 6.01038 12.206 6 12 6C11.8259 6 11.6536 6.00741 11.4833 6.02194L10.8286 3.07554C11.212 3.02571 11.603 3 12 3C12.429 3 12.8511 3.03002 13.2641 3.08808ZM9.36245 3.39266C6.5236 4.2615 4.28151 6.49625 3.40246 9.33063L6.34676 9.98492C6.95391 8.28174 8.3089 6.93354 10.0164 6.33563L9.36245 3.39266ZM3.0799 10.7955C3.0272 11.1895 3 11.5916 3 12C3 12.4219 3.02903 12.837 3.08519 13.2434L6.02857 12.5893C6.00967 12.3954 6 12.1988 6 12C6 11.8146 6.00841 11.6311 6.02487 11.45L3.0799 10.7955ZM7.5 12C7.5 9.51472 9.51472 7.5 12 7.5C14.4853 7.5 16.5 9.51472 16.5 12C16.5 14.4853 14.4853 16.5 12 16.5C9.51472 16.5 7.5 14.4853 7.5 12Z" fill="#141414"/>
</svg>
