<svg width="16" height="16" viewBox="0 0 16 16" fill="none" xmlns="http://www.w3.org/2000/svg">
<path fill-rule="evenodd" clip-rule="evenodd" d="M15 8C15 9.75308 14.3556 11.3556 13.2907 12.5837L14.1224 13.4154C14.3176 13.6107 14.3176 13.9273 14.1224 14.1225C13.9271 14.3178 13.6105 14.3178 13.4153 14.1225L12.5835 13.2908C11.3555 14.3556 9.753 15 8 15C6.24611 15 4.64287 14.355 3.41458 13.2892L2.5814 14.1224C2.38614 14.3176 2.06956 14.3176 1.8743 14.1224C1.67903 13.9271 1.67903 13.6105 1.8743 13.4153L2.70771 12.5818C1.64378 11.354 1 9.75219 1 8C1 6.24698 1.64439 4.64447 2.70923 3.41641L1.87471 2.58189C1.67945 2.38663 1.67945 2.07005 1.87471 1.87479C2.06997 1.67952 2.38655 1.67952 2.58182 1.87479L3.41633 2.7093C4.6444 1.64442 6.24694 1 8 1C9.75227 1 11.3542 1.64384 12.582 2.70787L13.4152 1.87471C13.6104 1.67945 13.927 1.67945 14.1223 1.87471C14.3175 2.06997 14.3175 2.38655 14.1223 2.58182L13.2893 3.41476C14.355 4.64303 15 6.2462 15 8ZM14 8C14 8.27646 13.9813 8.54856 13.9451 8.8151L11.9823 8.37892C11.994 8.25419 12 8.12779 12 8C12 7.88112 11.9948 7.76345 11.9847 7.6472L13.9486 7.21078C13.9825 7.46904 14 7.73248 14 8ZM11.7647 9.35495L13.7281 9.79126C13.1451 11.6573 11.6755 13.1317 9.8125 13.7214L9.37598 11.757C10.4852 11.3507 11.3643 10.4671 11.7647 9.35495ZM8.40116 11.9801L8.83715 13.9421C8.56358 13.9803 8.28409 14 8 14C7.73726 14 7.47846 13.9831 7.22463 13.9504L7.66119 11.9859C7.77288 11.9952 7.88588 12 8 12C8.1354 12 8.26922 11.9933 8.40116 11.9801ZM6.68296 11.7781L6.24701 13.7399C4.36029 13.1644 2.86816 11.6841 2.27616 9.80469L4.24013 9.36825C4.6498 10.4937 5.55041 11.3833 6.68296 11.7781ZM13.7358 6.23367L11.7735 6.66974C11.378 5.54787 10.4964 4.65531 9.38158 4.24501L9.81816 2.28042C11.6868 2.87389 13.1588 4.35776 13.7358 6.23367ZM8.84302 2.05876L8.40708 4.02046C8.27323 4.00693 8.13742 4 8 4C7.88385 4 7.76885 4.00495 7.65521 4.01465L7.21871 2.05041C7.47444 2.01715 7.73522 2 8 2C8.28613 2 8.56757 2.02003 8.84302 2.05876ZM6.24131 2.26187C4.34887 2.84118 2.85427 4.33098 2.26828 6.2205L4.23115 6.65669C4.63586 5.5213 5.53907 4.62254 6.67731 4.22386L6.24131 2.26187ZM2.05325 7.19711C2.01813 7.45974 2 7.72775 2 8C2 8.28129 2.01936 8.55805 2.05681 8.82904L4.01906 8.39298C4.00645 8.26369 4 8.1326 4 8C4 7.87641 4.0056 7.75413 4.01657 7.6334L2.05325 7.19711ZM5 8C5 6.34315 6.34315 5 8 5C9.65685 5 11 6.34315 11 8C11 9.65685 9.65685 11 8 11C6.34315 11 5 9.65685 5 8Z" fill="#141414"/>
</svg>
