<svg width="32" height="32" viewBox="0 0 32 32" fill="none" xmlns="http://www.w3.org/2000/svg">
<path fill-rule="evenodd" clip-rule="evenodd" d="M30 16C30 19.5061 28.7112 22.7112 26.5814 25.1673L28.2447 26.8306C28.6352 27.2211 28.6352 27.8543 28.2447 28.2448C27.8542 28.6353 27.221 28.6353 26.8305 28.2448L25.1672 26.5815C22.7111 28.7112 19.5061 30 16 30C12.4924 30 9.28609 28.7101 6.82955 26.5787L5.1633 28.245C4.77277 28.6355 4.13961 28.6355 3.74908 28.245C3.35856 27.8544 3.35856 27.2213 3.74908 26.8308L5.41576 25.1641C3.2877 22.7084 2 19.5046 2 16C2 12.4941 3.2887 9.28916 5.41823 6.83309L3.74893 5.16378C3.35841 4.77326 3.35841 4.14009 3.74893 3.74957C4.13946 3.35905 4.77262 3.35905 5.16314 3.74957L6.8324 5.41883C9.28857 3.28894 12.4938 2 16 2C19.5045 2 22.7083 3.28769 25.164 5.41574L26.8304 3.74942C27.2209 3.35889 27.854 3.35889 28.2446 3.74942C28.6351 4.13994 28.6351 4.77311 28.2446 5.16363L26.5787 6.82952C28.7101 9.28606 30 12.4924 30 16ZM28 16C28 16.553 27.9626 17.0973 27.8902 17.6304L23.9646 16.7581C23.988 16.5085 24 16.2557 24 16C24 15.7622 23.9896 15.5269 23.9693 15.2944L27.8971 14.4216C27.965 14.9381 28 15.465 28 16ZM23.5293 18.7101L27.456 19.5827C26.2901 23.3146 23.351 26.2634 19.6251 27.4427L18.752 23.5141C20.9704 22.7014 22.7286 20.9343 23.5293 18.7101ZM16.8024 23.9603L17.6743 27.8841C17.1272 27.9605 16.5682 28 16 28C15.4747 28 14.9572 27.9662 14.4497 27.9008L15.3228 23.9717C15.5461 23.9905 15.7719 24 16 24C16.2708 24 16.5385 23.9865 16.8024 23.9603ZM13.3663 23.5564L12.4944 27.4799C8.72076 26.329 5.73632 23.3684 4.55228 19.6093L8.48023 18.7364C9.29959 20.9875 11.101 22.7669 13.3663 23.5564ZM27.4716 12.4673L23.547 13.3395C22.7559 11.0956 20.9925 9.31041 18.7628 8.48987L19.6359 4.5607C23.3734 5.74757 26.3175 8.71539 27.4716 12.4673ZM17.6856 4.11746L16.8137 8.04088C16.5462 8.01385 16.2747 8 16 8C15.7679 8 15.538 8.00989 15.3109 8.02926L14.4379 4.10075C14.9492 4.03428 15.4706 4 16 4C16.5721 4 17.1349 4.04004 17.6856 4.11746ZM12.4831 4.5236C8.69802 5.6821 5.70865 8.66175 4.53661 12.4409L8.46234 13.3133C9.27184 11.0424 11.0784 9.24482 13.3551 8.44757L12.4831 4.5236ZM4.10653 14.3941C4.03627 14.9194 4 15.4555 4 16C4 16.5625 4.03871 17.116 4.1136 17.658L8.03811 16.7859C8.0129 16.5273 8 16.2652 8 16C8 15.7528 8.01121 15.5082 8.03316 15.2667L4.10653 14.3941ZM10 16C10 12.6863 12.6863 10 16 10C19.3137 10 22 12.6863 22 16C22 19.3137 19.3137 22 16 22C12.6863 22 10 19.3137 10 16Z" fill="#141414"/>
</svg>
