<svg xmlns="http://www.w3.org/2000/svg" width="32" height="32" fill="none" viewBox="0 0 32 32">
  <path fill="#141414" fill-rule="evenodd" d="M13 8.666a3 3 0 1 1 6 0v.667a1 1 0 1 0 2 0v-.667a5 5 0 0 0-10 0v4.667H9.334A2.667 2.667 0 0 0 6.667 16v10.666a2.667 2.667 0 0 0 2.667 2.667h13.333a2.667 2.667 0 0 0 2.666-2.666V16a2.667 2.667 0 0 0-2.666-2.667H13V8.666Zm9.667 6.667H9.333a.667.667 0 0 0-.666.667v10.666c0 .369.298.667.667.667h13.333a.667.667 0 0 0 .666-.666V16a.667.667 0 0 0-.666-.667ZM16 17.666a1 1 0 0 1 1 1V24a1 1 0 1 1-2 0v-5.334a1 1 0 0 1 1-1Z" clip-rule="evenodd"/>
</svg>
