<svg xmlns="http://www.w3.org/2000/svg" width="16" height="16" fill="none" viewBox="0 0 16 16">
  <path fill="#141414" fill-rule="evenodd" d="M11 7H5a1 1 0 0 0-1 1v5a1 1 0 0 0 1 1h6a1 1 0 0 0 1-1V8a1 1 0 0 0-1-1ZM5 6a2 2 0 0 0-2 2v5a2 2 0 0 0 2 2h6a2 2 0 0 0 2-2V8a2 2 0 0 0-2-2H5Z" clip-rule="evenodd"/>
  <path fill="#141414" fill-rule="evenodd" d="M8 2a2 2 0 0 0-2 2v2.5a.5.5 0 0 1-1 0V4a3 3 0 0 1 6 0v.25a.5.5 0 0 1-1 0V4a2 2 0 0 0-2-2Zm0 7a.5.5 0 0 1 .5.5v2a.5.5 0 0 1-1 0v-2A.5.5 0 0 1 8 9Z" clip-rule="evenodd"/>
</svg>
