<svg xmlns="http://www.w3.org/2000/svg" width="16" height="16" fill="none" viewBox="0 0 16 16">
  <path fill="#141414" fill-rule="evenodd" d="M8 14A6 6 0 1 0 8 2a6 6 0 0 0 0 12Zm0 1A7 7 0 1 0 8 1a7 7 0 0 0 0 14Z" clip-rule="evenodd"/>
  <path fill="#141414" d="m6.1 6.08.87.25c.09-.46.47-.79 1.03-.79.54 0 .91.34.91.86 0 1.05-1.6 1.31-1.6 2.69v.15h.94v-.15c.04-.97 1.67-1.34 1.67-2.75 0-.97-.73-1.64-1.86-1.64-1.02 0-1.77.56-1.96 1.38Zm1.71 5.27c.42 0 .75-.29.75-.73s-.34-.74-.75-.74c-.42 0-.77.3-.77.74s.35.73.77.73Z"/>
</svg>
