<svg xmlns="http://www.w3.org/2000/svg" width="24" height="24" fill="none" viewBox="0 0 24 24">
  <path fill="#141414" fill-rule="evenodd" d="M12 20.5a8.5 8.5 0 1 0 0-17 8.5 8.5 0 0 0 0 17Zm0 1.5c5.523 0 10-4.477 10-10S17.523 2 12 2 2 6.477 2 12s4.477 10 10 10ZM8.75 9a3.25 3.25 0 0 1 6.5 0v.662a2.73 2.73 0 0 1-1.718 2.533 1.244 1.244 0 0 0-.782 1.151V14a.75.75 0 0 1-1.5 0v-.654c0-1.121.687-2.129 1.725-2.544a1.23 1.23 0 0 0 .775-1.14V9a1.75 1.75 0 1 0-3.5 0v.5a.75.75 0 0 1-1.5 0V9ZM12 18a1 1 0 1 0 0-2 1 1 0 0 0 0 2Z" clip-rule="evenodd"/>
</svg>
