<svg xmlns="http://www.w3.org/2000/svg" width="32" height="32" fill="none" viewBox="0 0 32 32">
  <path fill="#141414" fill-rule="evenodd" d="M16 27.333c6.26 0 11.333-5.074 11.333-11.333C27.333 9.74 22.26 4.666 16 4.666S4.666 9.741 4.666 16c0 6.26 5.075 11.333 11.334 11.333Zm0 2c7.364 0 13.333-5.97 13.333-13.333 0-7.364-5.97-13.334-13.333-13.334C8.636 2.666 2.666 8.636 2.666 16S8.636 29.333 16 29.333ZM11.666 12a4.333 4.333 0 0 1 8.667 0v.883a3.642 3.642 0 0 1-2.29 3.377A1.659 1.659 0 0 0 17 17.795v.871a1 1 0 1 1-2 0v-.871c0-1.496.916-2.839 2.3-3.392a1.642 1.642 0 0 0 1.033-1.52V12a2.333 2.333 0 0 0-4.666 0v.666a1 1 0 1 1-2 0V12ZM16 24a1.333 1.333 0 1 0 0-2.667A1.333 1.333 0 0 0 16 24Z" clip-rule="evenodd"/>
</svg>
