<svg xmlns="http://www.w3.org/2000/svg" width="16" height="16" fill="none" viewBox="0 0 16 16">
  <path fill="#141414" fill-rule="evenodd" d="M5.5 9a1 1 0 1 0 0-2 1 1 0 0 0 0 2Zm0 1a2 2 0 1 0 0-4 2 2 0 0 0 0 4Zm-2 2A1.5 1.5 0 0 0 2 13.5v1a.5.5 0 0 1-1 0v-1A2.5 2.5 0 0 1 3.5 11h4a2.5 2.5 0 0 1 2.5 2.5v1a.5.5 0 0 1-1 0v-1A1.5 1.5 0 0 0 7.5 12h-4Zm8-4a3.5 3.5 0 1 0 0-7 3.5 3.5 0 0 0 0 7ZM11 2.5a.5.5 0 0 1 1 0V4h1.5a.5.5 0 0 1 0 1H12v1.5a.5.5 0 0 1-1 0V5H9.5a.5.5 0 0 1 0-1H11V2.5Z" clip-rule="evenodd"/>
</svg>
