<svg xmlns="http://www.w3.org/2000/svg" width="24" height="24" fill="none" viewBox="0 0 24 24">
  <path fill="#141414" fill-rule="evenodd" d="M22 7a5 5 0 1 1-10 0 5 5 0 0 1 10 0Zm-4.25-2.5a.75.75 0 0 0-1.5 0v1.75H14.5a.75.75 0 0 0 0 1.5h1.75V9.5a.75.75 0 0 0 1.5 0V7.75h1.75a.75.75 0 0 0 0-1.5h-1.75V4.5Zm-6.875.923a.75.75 0 0 1-.546.91 2.751 2.751 0 1 0 1.457 5.303.75.75 0 1 1 .428 1.438 4.25 4.25 0 1 1-2.249-8.197.75.75 0 0 1 .91.546ZM8 16.25a3.25 3.25 0 0 0-3.25 3.25v.5a.75.75 0 0 1-1.5 0v-.5A4.75 4.75 0 0 1 8 14.75h6a4.75 4.75 0 0 1 4.75 4.75v.5a.75.75 0 0 1-1.5 0v-.5A3.25 3.25 0 0 0 14 16.25H8Z" clip-rule="evenodd"/>
</svg>
