<svg xmlns="http://www.w3.org/2000/svg" width="32" height="32" fill="none" viewBox="0 0 32 32">
  <path fill="#141414" fill-rule="evenodd" d="M29.334 9.333a6.667 6.667 0 1 1-13.334 0 6.667 6.667 0 0 1 13.334 0ZM23.666 6a1 1 0 1 0-2 0v2.333h-2.334a1 1 0 1 0 0 2h2.334v2.333a1 1 0 1 0 2 0v-2.333H26a1 1 0 0 0 0-2h-2.333V6ZM14.5 7.23a1 1 0 0 1-.727 1.213 3.669 3.669 0 1 0 1.942 7.072 1 1 0 1 1 .57 1.917 5.667 5.667 0 1 1-2.998-10.93 1 1 0 0 1 1.213.728Zm-3.833 14.436A4.333 4.333 0 0 0 6.334 26v.666a1 1 0 1 1-2 0V26a6.333 6.333 0 0 1 6.333-6.334h8A6.333 6.333 0 0 1 25 26v.666a1 1 0 0 1-2 0V26a4.333 4.333 0 0 0-4.333-4.334h-8Z" clip-rule="evenodd"/>
</svg>
