<svg xmlns="http://www.w3.org/2000/svg" width="16" height="16" fill="none" viewBox="0 0 16 16">
  <path fill="#141414" fill-rule="evenodd" d="M10.173 5H5.826a1 1 0 0 0-.996.91l-.636 7A1 1 0 0 0 5.19 14h5.62a1 1 0 0 0 .995-1.09l-.636-7a1 1 0 0 0-.996-.91ZM5.826 4a2 2 0 0 0-1.992 1.819l-.636 7A2 2 0 0 0 5.19 15h5.62a2 2 0 0 0 1.991-2.181l-.636-7A2 2 0 0 0 10.173 4H5.826Z" clip-rule="evenodd"/>
  <path fill="#141414" fill-rule="evenodd" d="M8 2a1.5 1.5 0 0 0-1.5 1.5v1a.5.5 0 0 1-1 0v-1a2.5 2.5 0 0 1 5 0v1a.5.5 0 0 1-1 0v-1A1.5 1.5 0 0 0 8 2Z" clip-rule="evenodd"/>
</svg>
