<svg xmlns="http://www.w3.org/2000/svg" width="32" height="32" fill="none" viewBox="0 0 32 32">
  <path fill="#141414" fill-rule="evenodd" d="M13 8.667a3 3 0 0 1 6 0v.667h-6v-.667Zm-2 .667v-.667a5 5 0 0 1 10 0v.667h.505a2.667 2.667 0 0 1 2.66 2.489l.978 14.667a2.667 2.667 0 0 1-2.66 2.844H9.515a2.667 2.667 0 0 1-2.66-2.844l.977-14.667a2.667 2.667 0 0 1 2.661-2.49H11Zm-.506 2h11.01c.351 0 .642.272.666.622l.977 14.667a.667.667 0 0 1-.665.71H9.516a.667.667 0 0 1-.665-.71l.978-14.667a.667.667 0 0 1 .665-.622Z" clip-rule="evenodd"/>
</svg>
