<svg xmlns="http://www.w3.org/2000/svg" width="16" height="16" fill="none" viewBox="0 0 16 16">
  <path fill="#141414" d="M4 4.5a.5.5 0 0 1 .5-.5h7a.5.5 0 0 1 0 1h-7a.5.5 0 0 1-.5-.5Z"/>
  <path fill="#141414" fill-rule="evenodd" d="M4 1.5a.5.5 0 0 1 .5-.5H8a.5.5 0 0 1 .5.5V6a.5.5 0 0 1-1 0V2h-3a.5.5 0 0 1-.5-.5Zm4 6a.5.5 0 0 1 .5.5v1a.5.5 0 0 1-1 0V8a.5.5 0 0 1 .5-.5Zm0 3a.5.5 0 0 1 .5.5v1a.5.5 0 0 1-1 0v-1a.5.5 0 0 1 .5-.5Zm3-4a.5.5 0 0 1 .5.5v1a.5.5 0 0 1-1 0V7a.5.5 0 0 1 .5-.5Zm0 3a.5.5 0 0 1 .5.5v1a.5.5 0 0 1-1 0v-1a.5.5 0 0 1 .5-.5Zm0 3a.5.5 0 0 1 .5.5v1a.5.5 0 0 1-1 0v-1a.5.5 0 0 1 .5-.5Zm-6-6a.5.5 0 0 1 .5.5v1a.5.5 0 0 1-1 0V7a.5.5 0 0 1 .5-.5Zm0 3a.5.5 0 0 1 .5.5v1a.5.5 0 0 1-1 0v-1a.5.5 0 0 1 .5-.5Zm0 3a.5.5 0 0 1 .5.5v1a.5.5 0 0 1-1 0v-1a.5.5 0 0 1 .5-.5Z" clip-rule="evenodd"/>
</svg>
