<svg xmlns="http://www.w3.org/2000/svg" width="32" height="32" fill="none" viewBox="0 0 32 32">
  <path fill="#141414" fill-rule="evenodd" d="M5 4a1 1 0 0 1 1-1h8.667a3.667 3.667 0 0 1 3.666 3.667V11H26a1 1 0 1 1 0 2h-7.667v1.667a1 1 0 1 1-2 0V13H8.667a1 1 0 1 1 0-2h7.666V6.667c0-.92-.746-1.667-1.666-1.667H6a1 1 0 0 1-1-1Zm12.333 13.333a1 1 0 0 0-1 1v1.334a1 1 0 1 0 2 0v-1.334a1 1 0 0 0-1-1ZM11 15.667a1 1 0 1 1 2 0V17a1 1 0 1 1-2 0v-1.333Zm11.667-1a1 1 0 0 0-1 1V17a1 1 0 1 0 2 0v-1.333a1 1 0 0 0-1-1Zm-6.334 9a1 1 0 1 1 2 0V25a1 1 0 1 1-2 0v-1.333ZM12 20a1 1 0 0 0-1 1v1.333a1 1 0 1 0 2 0V21a1 1 0 0 0-1-1Zm9.667 1a1 1 0 1 1 2 0v1.333a1 1 0 1 1-2 0V21Zm1 4.333a1 1 0 0 0-1 1v1.334a1 1 0 1 0 2 0v-1.334a1 1 0 0 0-1-1Z" clip-rule="evenodd"/>
</svg>
