<svg xmlns="http://www.w3.org/2000/svg" width="24" height="24" fill="none" viewBox="0 0 24 24">
  <path fill="#141414" fill-rule="evenodd" d="M3.75 3a.75.75 0 0 1 .75-.75H11A2.75 2.75 0 0 1 13.75 5v3.25h5.75a.75.75 0 0 1 0 1.5h-5.75V11a.75.75 0 0 1-1.5 0V9.75H6.5a.75.75 0 0 1 0-1.5h5.75V5c0-.69-.56-1.25-1.25-1.25H4.5A.75.75 0 0 1 3.75 3ZM13 13a.75.75 0 0 0-.75.75v1a.75.75 0 0 0 1.5 0v-1A.75.75 0 0 0 13 13Zm-4.75-1.25a.75.75 0 0 1 1.5 0v1a.75.75 0 0 1-1.5 0v-1ZM17 11a.75.75 0 0 0-.75.75v1a.75.75 0 0 0 1.5 0v-1A.75.75 0 0 0 17 11Zm-4.75 6.75a.75.75 0 0 1 1.5 0v1a.75.75 0 0 1-1.5 0v-1ZM9 15a.75.75 0 0 0-.75.75v1a.75.75 0 0 0 1.5 0v-1A.75.75 0 0 0 9 15Zm7.25.75a.75.75 0 0 1 1.5 0v1a.75.75 0 0 1-1.5 0v-1ZM17 19a.75.75 0 0 0-.75.75v1a.75.75 0 0 0 1.5 0v-1A.75.75 0 0 0 17 19Z" clip-rule="evenodd"/>
</svg>
