<svg xmlns="http://www.w3.org/2000/svg" width="24" height="24" fill="none" viewBox="0 0 24 24">
  <path fill="#141414" fill-rule="evenodd" d="M7 2.25a.75.75 0 0 1 .75.75v1c0 .69.56 1.25 1.25 1.25A2.75 2.75 0 0 1 11.75 8v.5a.75.75 0 0 1-1.5 0V8c0-.69-.56-1.25-1.25-1.25A2.75 2.75 0 0 1 6.25 4V3A.75.75 0 0 1 7 2.25Zm-4.75 9.984c0-.544.44-.984.984-.984h17.532c.544 0 .984.44.984.984a9.516 9.516 0 0 1-9.516 9.516h-.468a9.516 9.516 0 0 1-9.516-9.516Zm1.516.516a8.017 8.017 0 0 0 8 7.5h.468a8.017 8.017 0 0 0 8-7.5H3.766ZM13.75 3a.75.75 0 0 0-1.5 0v1A2.75 2.75 0 0 0 15 6.75c.69 0 1.25.56 1.25 1.25v.5a.75.75 0 0 0 1.5 0V8A2.75 2.75 0 0 0 15 5.25c-.69 0-1.25-.56-1.25-1.25V3Z" clip-rule="evenodd"/>
</svg>
