<svg xmlns="http://www.w3.org/2000/svg" width="16" height="16" fill="none" viewBox="0 0 16 16">
  <path fill="#141414" fill-rule="evenodd" d="M1.5 8.156c0-.362.294-.656.656-.656h11.688c.362 0 .656.294.656.656A6.344 6.344 0 0 1 8.156 14.5h-.312A6.344 6.344 0 0 1 1.5 8.156Zm1.01.344a5.344 5.344 0 0 0 5.334 5h.312a5.344 5.344 0 0 0 5.333-5H2.511Zm2.157-7a.5.5 0 0 1 .5.5v.667c0 .46.373.833.833.833 1.013 0 1.833.82 1.833 1.833v.334a.5.5 0 1 1-1 0v-.334A.833.833 0 0 0 6 4.5a1.833 1.833 0 0 1-1.833-1.833V2a.5.5 0 0 1 .5-.5Zm4 0a.5.5 0 0 1 .5.5v.667c0 .46.373.833.833.833 1.012 0 1.833.82 1.833 1.833v.334a.5.5 0 1 1-1 0v-.334A.833.833 0 0 0 10 4.5a1.833 1.833 0 0 1-1.833-1.833V2a.5.5 0 0 1 .5-.5Z" clip-rule="evenodd"/>
</svg>
