<svg xmlns="http://www.w3.org/2000/svg" width="32" height="32" fill="none" viewBox="0 0 32 32">
  <path fill="#141414" fill-rule="evenodd" d="M9.333 3a1 1 0 0 1 1 1v1.333C10.333 6.253 11.08 7 12 7a3.667 3.667 0 0 1 3.667 3.667v.666a1 1 0 1 1-2 0v-.666C13.667 9.747 12.92 9 12 9a3.667 3.667 0 0 1-3.667-3.667V4a1 1 0 0 1 1-1ZM3 16.312C3 15.587 3.587 15 4.312 15h23.376c.725 0 1.312.587 1.312 1.312C29 23.319 23.32 29 16.312 29h-.624C8.681 29 3 23.32 3 16.312ZM5.022 17c.355 5.582 4.995 10 10.666 10h.624c5.671 0 10.311-4.418 10.666-10H5.022ZM18.333 4a1 1 0 1 0-2 0v1.333A3.667 3.667 0 0 0 20 9c.92 0 1.667.746 1.667 1.667v.666a1 1 0 1 0 2 0v-.666A3.667 3.667 0 0 0 20 7c-.92 0-1.667-.746-1.667-1.667V4Z" clip-rule="evenodd"/>
</svg>
