<svg xmlns="http://www.w3.org/2000/svg" width="32" height="32" fill="none" viewBox="0 0 32 32">
  <path fill="#141414" fill-rule="evenodd" d="M16.185 5.325a.333.333 0 0 0-.37 0L6.48 11.547a.333.333 0 0 0-.148.278V27H11v-7a2.333 2.333 0 0 1 2.333-2.333h5.333A2.333 2.333 0 0 1 21 20v7h4.666V11.825a.334.334 0 0 0-.148-.278l-9.333-6.222Zm-1.48-1.664a2.333 2.333 0 0 1 2.589 0l9.333 6.222a2.333 2.333 0 0 1 1.04 1.942v15.508c0 .92-.747 1.667-1.667 1.667h-5.334c-.92 0-1.666-.746-1.666-1.667V20a.333.333 0 0 0-.334-.333h-5.333A.333.333 0 0 0 13 20v7.333c0 .92-.746 1.667-1.667 1.667H6c-.92 0-1.667-.746-1.667-1.667V11.825c0-.78.39-1.51 1.039-1.942l9.333-6.222Z" clip-rule="evenodd"/>
</svg>
