<svg xmlns="http://www.w3.org/2000/svg" width="16" height="16" fill="none" viewBox="0 0 16 16">
  <path fill="#141414" fill-rule="evenodd" d="M8.28 2.794a.5.5 0 0 0-.56 0L3.47 5.672a.5.5 0 0 0-.22.414V13.5h2.281V9.833a1 1 0 0 1 1-1H9.47a1 1 0 0 1 1 1V13.5h2.281V6.086a.5.5 0 0 0-.22-.414L8.28 2.794Zm-1.12-.828a1.5 1.5 0 0 1 1.682 0l4.25 2.878a1.5 1.5 0 0 1 .659 1.242V13.5a1 1 0 0 1-1 1H10.47a1 1 0 0 1-1-1V9.833H6.53V13.5a1 1 0 0 1-1 1H3.25a1 1 0 0 1-1-1V6.086a1.5 1.5 0 0 1 .659-1.242l4.25-2.878Z" clip-rule="evenodd"/>
</svg>
