<svg xmlns="http://www.w3.org/2000/svg" width="24" height="24" fill="none" viewBox="0 0 24 24">
  <path fill="#141414" fill-rule="evenodd" d="M12.139 3.994a.25.25 0 0 0-.278 0l-7 4.666a.25.25 0 0 0-.111.208V20.25h3.5V15c0-.967.784-1.75 1.75-1.75h4c.966 0 1.75.783 1.75 1.75v5.25h3.5V8.868a.25.25 0 0 0-.111-.208l-7-4.666Zm-1.11-1.248a1.75 1.75 0 0 1 1.942 0l7 4.666c.487.325.779.871.779 1.456V20.5c0 .69-.56 1.25-1.25 1.25h-4c-.69 0-1.25-.56-1.25-1.25V15a.25.25 0 0 0-.25-.25h-4a.25.25 0 0 0-.25.25v5.5c0 .69-.56 1.25-1.25 1.25h-4c-.69 0-1.25-.56-1.25-1.25V8.868c0-.585.292-1.131.78-1.456l7-4.666Z" clip-rule="evenodd"/>
</svg>
