<svg xmlns="http://www.w3.org/2000/svg" width="16" height="16" fill="none" viewBox="0 0 16 16">
  <path fill="#141414" fill-rule="evenodd" d="M1.5 6a.5.5 0 0 1 .5.5v4a.5.5 0 0 0 .5.5h1A1.5 1.5 0 0 1 5 12.5v2a.5.5 0 0 1-1 0v-2a.5.5 0 0 0-.5-.5h-1A1.5 1.5 0 0 1 1 10.5v-4a.5.5 0 0 1 .5-.5Z" clip-rule="evenodd"/>
  <path fill="#141414" fill-rule="evenodd" d="M3.5 5a.5.5 0 0 1 .5.5v3a.5.5 0 0 0 .5.5h1A1.5 1.5 0 0 1 7 10.5v4a.5.5 0 0 1-1 0v-4a.5.5 0 0 0-.5-.5h-1A1.5 1.5 0 0 1 3 8.5v-3a.5.5 0 0 1 .5-.5Z" clip-rule="evenodd"/>
  <path fill="#141414" d="M2 2.5a1.5 1.5 0 1 1 3 0 1.5 1.5 0 0 1-3 0Z"/>
  <path fill="#141414" fill-rule="evenodd" d="M14.5 6a.5.5 0 0 0-.5.5v4a.5.5 0 0 1-.5.5h-1a1.5 1.5 0 0 0-1.5 1.5v2a.5.5 0 0 0 1 0v-2a.5.5 0 0 1 .5-.5h1a1.5 1.5 0 0 0 1.5-1.5v-4a.5.5 0 0 0-.5-.5Z" clip-rule="evenodd"/>
  <path fill="#141414" fill-rule="evenodd" d="M12.5 5a.5.5 0 0 0-.5.5v3a.5.5 0 0 1-.5.5h-1A1.5 1.5 0 0 0 9 10.5v4a.5.5 0 0 0 1 0v-4a.5.5 0 0 1 .5-.5h1A1.5 1.5 0 0 0 13 8.5v-3a.5.5 0 0 0-.5-.5Z" clip-rule="evenodd"/>
  <path fill="#141414" d="M14 2.5a1.5 1.5 0 1 0-3 0 1.5 1.5 0 0 0 3 0Z"/>
</svg>
