<svg xmlns="http://www.w3.org/2000/svg" width="24" height="24" fill="none" viewBox="0 0 24 24">
  <path fill="#141414" fill-rule="evenodd" d="M6 5.5a1 1 0 1 1 0-2 1 1 0 0 1 0 2Zm-2.5-1a2.5 2.5 0 1 1 5 0 2.5 2.5 0 0 1-5 0Zm3.25 4a.75.75 0 0 0-1.5 0V13c0 .966.784 1.75 1.75 1.75h1c.69 0 1.25.56 1.25 1.25v5a.75.75 0 0 0 1.5 0v-5A2.75 2.75 0 0 0 8 13.25H7a.25.25 0 0 1-.25-.25V8.5ZM3 10.75a.75.75 0 0 1 .75.75V16c0 .138.112.25.25.25h2c.966 0 1.75.784 1.75 1.75v3a.75.75 0 0 1-1.5 0v-3a.25.25 0 0 0-.25-.25H4A1.75 1.75 0 0 1 2.25 16v-4.5a.75.75 0 0 1 .75-.75ZM18 5.5a1 1 0 1 0 0-2 1 1 0 0 0 0 2Zm2.5-1a2.5 2.5 0 1 0-5 0 2.5 2.5 0 0 0 5 0ZM18 7.75a.75.75 0 0 0-.75.75V13a.25.25 0 0 1-.25.25h-1A2.75 2.75 0 0 0 13.25 16v5a.75.75 0 0 0 1.5 0v-5c0-.69.56-1.25 1.25-1.25h1A1.75 1.75 0 0 0 18.75 13V8.5a.75.75 0 0 0-.75-.75Zm2.25 3.75a.75.75 0 0 1 1.5 0V16A1.75 1.75 0 0 1 20 17.75h-2a.25.25 0 0 0-.25.25v3a.75.75 0 0 1-1.5 0v-3c0-.966.784-1.75 1.75-1.75h2a.25.25 0 0 0 .25-.25v-4.5Z" clip-rule="evenodd"/>
</svg>
