<svg xmlns="http://www.w3.org/2000/svg" width="32" height="32" fill="none" viewBox="0 0 32 32">
  <path fill="#141414" fill-rule="evenodd" d="M8 7.333a1.333 1.333 0 1 1 0-2.666 1.333 1.333 0 0 1 0 2.666ZM4.667 6a3.333 3.333 0 1 1 6.666 0 3.333 3.333 0 0 1-6.666 0ZM9 11.333a1 1 0 1 0-2 0v6a2.333 2.333 0 0 0 2.333 2.334h1.334c.92 0 1.666.746 1.666 1.666V28a1 1 0 1 0 2 0v-6.667a3.667 3.667 0 0 0-3.666-3.666H9.333A.333.333 0 0 1 9 17.332v-6Zm-5 3a1 1 0 0 1 1 1v6c0 .184.15.334.333.334H8A2.333 2.333 0 0 1 10.333 24v4a1 1 0 1 1-2 0v-4A.333.333 0 0 0 8 23.666H5.333A2.333 2.333 0 0 1 3 21.334v-6a1 1 0 0 1 1-1Zm20-7a1.333 1.333 0 1 0 0-2.666 1.333 1.333 0 0 0 0 2.666ZM27.333 6a3.333 3.333 0 1 0-6.666 0 3.333 3.333 0 0 0 6.666 0ZM24 10.333a1 1 0 0 0-1 1v6c0 .184-.15.334-.333.334h-1.334a3.667 3.667 0 0 0-3.666 3.666V28a1 1 0 1 0 2 0v-6.667c0-.92.746-1.666 1.666-1.666h1.334A2.333 2.333 0 0 0 25 17.332v-6a1 1 0 0 0-1-1Zm3 5a1 1 0 1 1 2 0v6a2.333 2.333 0 0 1-2.333 2.334H24a.333.333 0 0 0-.333.333v4a1 1 0 1 1-2 0v-4A2.333 2.333 0 0 1 24 21.666h2.667a.333.333 0 0 0 .333-.333v-6Z" clip-rule="evenodd"/>
</svg>
