<svg xmlns="http://www.w3.org/2000/svg" width="32" height="32" fill="none" viewBox="0 0 32 32">
  <path fill="#141414" fill-rule="evenodd" d="M21.893 18.592a1 1 0 0 1 0-1.414l2.357-2.357a5 5 0 0 0-7.071-7.07l-2.357 2.356a1 1 0 1 1-1.415-1.414l2.357-2.357a7 7 0 0 1 9.9 9.9l-2.357 2.356a1 1 0 0 1-1.414 0Zm-11.785-5.185a1 1 0 0 1 0 1.414L7.75 17.178a5 5 0 1 0 7.07 7.071l2.358-2.357a1 1 0 0 1 1.414 1.415l-2.357 2.357a7 7 0 1 1-9.9-9.9l2.357-2.357a1 1 0 0 1 1.415 0Zm8.956.943a1 1 0 0 0-1.414-1.414l-5.186 5.185a1 1 0 0 0 1.415 1.414l5.185-5.185Z" clip-rule="evenodd"/>
</svg>
