<svg xmlns="http://www.w3.org/2000/svg" width="24" height="24" fill="none" viewBox="0 0 24 24">
  <path fill="#141414" fill-rule="evenodd" d="M16.42 13.944a.75.75 0 0 1 0-1.06l1.767-1.768a3.75 3.75 0 1 0-5.303-5.303L11.116 7.58a.75.75 0 1 1-1.06-1.06l1.767-1.768a5.25 5.25 0 0 1 7.425 7.425l-1.768 1.767a.75.75 0 0 1-1.06 0Zm-8.84-3.889a.75.75 0 0 1 0 1.061l-1.767 1.768a3.75 3.75 0 1 0 5.303 5.303l1.768-1.768a.75.75 0 0 1 1.06 1.061l-1.767 1.768a5.25 5.25 0 0 1-7.425-7.425l1.768-1.768a.75.75 0 0 1 1.06 0Zm6.718.707a.75.75 0 1 0-1.06-1.06l-3.89 3.889a.75.75 0 1 0 1.06 1.06l3.89-3.889Z" clip-rule="evenodd"/>
</svg>
