<svg xmlns="http://www.w3.org/2000/svg" width="16" height="16" fill="none" viewBox="0 0 16 16">
  <path fill="#141414" fill-rule="evenodd" d="M4.853 6.646a.5.5 0 0 1 0 .707l-1.25 1.25a2.682 2.682 0 0 0 3.793 3.793l1.25-1.25a.5.5 0 1 1 .707.707l-1.25 1.25a3.682 3.682 0 0 1-5.207-5.207l1.25-1.25a.5.5 0 0 1 .707 0Zm6.293 2.707a.5.5 0 0 1 0-.707l1.25-1.25a2.682 2.682 0 1 0-3.793-3.793l-1.25 1.25a.5.5 0 1 1-.707-.707l1.25-1.25a3.682 3.682 0 1 1 5.207 5.207l-1.25 1.25a.5.5 0 0 1-.707 0Z" clip-rule="evenodd"/>
  <path fill="#141414" fill-rule="evenodd" d="M9.603 6.396a.5.5 0 0 1 0 .707l-2.75 2.75a.5.5 0 0 1-.707-.707l2.75-2.75a.5.5 0 0 1 .707 0Z" clip-rule="evenodd"/>
</svg>
