<svg xmlns="http://www.w3.org/2000/svg" width="32" height="32" fill="none" viewBox="0 0 32 32">
  <path fill="#141414" fill-rule="evenodd" d="M8 4.667h16A3.333 3.333 0 0 1 27.333 8v7H4.667V8A3.333 3.333 0 0 1 8 4.667ZM4.667 17v7A3.333 3.333 0 0 0 8 27.333h16A3.333 3.333 0 0 0 27.333 24v-7H4.667Zm-2-9A5.333 5.333 0 0 1 8 2.667h16A5.333 5.333 0 0 1 29.333 8v16A5.333 5.333 0 0 1 24 29.333H8A5.333 5.333 0 0 1 2.667 24V8ZM20 19.666a1 1 0 0 1 1 1V22c0 .92-.746 1.666-1.667 1.666h-6.666A1.666 1.666 0 0 1 11 22v-1.334a1 1 0 0 1 2 0v1h6v-1a1 1 0 0 1 1-1Zm1-11a1 1 0 1 0-2 0v1h-6v-1a1 1 0 1 0-2 0V10c0 .92.746 1.666 1.666 1.666h6.667c.92 0 1.667-.746 1.667-1.666V8.666Z" clip-rule="evenodd"/>
</svg>
