<svg xmlns="http://www.w3.org/2000/svg" width="24" height="24" fill="none" viewBox="0 0 24 24">
  <path fill="#141414" fill-rule="evenodd" d="M6 3.5h12A2.5 2.5 0 0 1 20.5 6v5.25h-17V6A2.5 2.5 0 0 1 6 3.5Zm-2.5 9.25V18A2.5 2.5 0 0 0 6 20.5h12a2.5 2.5 0 0 0 2.5-2.5v-5.25h-17ZM2 6a4 4 0 0 1 4-4h12a4 4 0 0 1 4 4v12a4 4 0 0 1-4 4H6a4 4 0 0 1-4-4V6Zm13 8.75a.75.75 0 0 1 .75.75v1c0 .69-.56 1.25-1.25 1.25h-5c-.69 0-1.25-.56-1.25-1.25v-1a.75.75 0 0 1 1.5 0v.75h4.5v-.75a.75.75 0 0 1 .75-.75Zm.75-8.25a.75.75 0 0 0-1.5 0v.75h-4.5V6.5a.75.75 0 0 0-1.5 0v1c0 .69.56 1.25 1.25 1.25h5c.69 0 1.25-.56 1.25-1.25v-1Z" clip-rule="evenodd"/>
</svg>
