<svg xmlns="http://www.w3.org/2000/svg" width="16" height="16" fill="none" viewBox="0 0 16 16">
  <path fill="#141414" fill-rule="evenodd" d="M12 2H4a1 1 0 0 0-1 1v10a1 1 0 0 0 1 1h8a1 1 0 0 0 1-1V3a1 1 0 0 0-1-1ZM4 1a2 2 0 0 0-2 2v10a2 2 0 0 0 2 2h8a2 2 0 0 0 2-2V3a2 2 0 0 0-2-2H4Z" clip-rule="evenodd"/>
  <path fill="#141414" fill-rule="evenodd" d="M13.5 8.5H2.687v-1H13.5v1ZM5.5 5a.5.5 0 0 1 .5-.5h4a.5.5 0 0 1 0 1H6a.5.5 0 0 1-.5-.5Zm0 6a.5.5 0 0 1 .5-.5h4a.5.5 0 0 1 0 1H6a.5.5 0 0 1-.5-.5Z" clip-rule="evenodd"/>
</svg>
