<svg width="32" height="32" viewBox="0 0 32 32" fill="none" xmlns="http://www.w3.org/2000/svg">
<path fill-rule="evenodd" clip-rule="evenodd" d="M2.66699 5.66667C2.66699 4.19391 3.8609 3 5.33366 3H26.667C28.1398 3 29.3337 4.19391 29.3337 5.66667V21.6667C29.3337 23.1394 28.1398 24.3333 26.667 24.3333L13.3337 24.3333L8.00033 29.6667V24.3333L5.33366 24.3333C3.8609 24.3333 2.66699 23.1394 2.66699 21.6667V5.66667ZM9.3335 10.9993C9.3335 10.263 9.93045 9.66602 10.6668 9.66602H17.3335C18.0699 9.66602 18.6668 10.263 18.6668 10.9993V12.0835C18.6668 12.19 18.7855 12.2536 18.8741 12.1945L21.6304 10.357C22.0734 10.0616 22.6668 10.3792 22.6668 10.9117V16.4203C22.6668 16.9528 22.0734 17.2704 21.6304 16.975L18.8741 15.1375C18.7855 15.0785 18.6668 15.142 18.6668 15.2485V16.3327C18.6668 17.0691 18.0699 17.666 17.3335 17.666H10.6668C9.93045 17.666 9.3335 17.0691 9.3335 16.3327V10.9993Z" fill="#141414"/>
</svg>
