<svg width="16" height="16" viewBox="0 0 16 16" fill="none" xmlns="http://www.w3.org/2000/svg">
<path fill-rule="evenodd" clip-rule="evenodd" d="M1 2.33333C1 1.59696 1.59695 1 2.33333 1H13C13.7364 1 14.3333 1.59695 14.3333 2.33333V10.3333C14.3333 11.0697 13.7364 11.6667 13 11.6667L6.33333 11.6667L3.66667 14.3333V11.6667L2.33333 11.6667C1.59695 11.6667 1 11.0697 1 10.3333V2.33333ZM4.3335 5.00065C4.3335 4.63246 4.63197 4.33398 5.00016 4.33398H8.3335C8.70169 4.33398 9.00016 4.63246 9.00016 5.00065V5.54275C9.00016 5.596 9.05951 5.62776 9.10381 5.59822L10.4819 4.67947C10.7034 4.53179 11.0002 4.69059 11.0002 4.95682V7.71115C11.0002 7.97738 10.7034 8.13617 10.4819 7.9885L9.10381 7.06975C9.05951 7.04021 9.00016 7.07197 9.00016 7.12522V7.66732C9.00016 8.03551 8.70169 8.33398 8.3335 8.33398H5.00016C4.63197 8.33398 4.3335 8.03551 4.3335 7.66732V5.00065Z" fill="#141414"/>
</svg>
