<svg width="24" height="24" viewBox="0 0 24 24" fill="none" xmlns="http://www.w3.org/2000/svg">
<path fill-rule="evenodd" clip-rule="evenodd" d="M2 4C2 2.89543 2.89543 2 4 2H20C21.1046 2 22 2.89543 22 4V16C22 17.1046 21.1046 18 20 18H10L6 22V18H4C2.89543 18 2 17.1046 2 16V4ZM7 8C7 7.44772 7.44772 7 8 7H13C13.5523 7 14 7.44772 14 8V8.81315C14 8.89302 14.089 8.94066 14.1555 8.89635L16.2227 7.51823C16.5549 7.29671 17 7.53491 17 7.93426V12.0657C17 12.4651 16.5549 12.7033 16.2227 12.4818L14.1555 11.1036C14.089 11.0593 14 11.107 14 11.1869V12C14 12.5523 13.5523 13 13 13H8C7.44772 13 7 12.5523 7 12V8Z" fill="#141414"/>
</svg>
