<svg xmlns="http://www.w3.org/2000/svg" width="32" height="32" fill="none" viewBox="0 0 32 32">
  <path fill="#141414" fill-rule="evenodd" d="M12.667 9.683C10.751 12.666 9 16.39 9 19.703 9 23.714 12.536 27 16 27s7-3.287 7-7.296c0-3.315-1.751-7.038-3.667-10.02a34.422 34.422 0 0 0-2.649-3.599A18.767 18.767 0 0 0 16 5.32c-.192.201-.423.458-.684.765a34.422 34.422 0 0 0-2.649 3.598Zm2.77-6.525A1.13 1.13 0 0 1 16 3a1.13 1.13 0 0 1 .568.16c.085.05.16.106.219.153.12.095.254.217.39.352.28.273.633.656 1.03 1.125a36.4 36.4 0 0 1 2.809 3.812C22.983 11.665 25 15.794 25 19.704 25 24.809 20.577 29 16 29s-9-4.19-9-9.296c0-3.91 2.017-8.039 3.984-11.102a36.4 36.4 0 0 1 2.808-3.812c.399-.469.752-.852 1.03-1.125a5.09 5.09 0 0 1 .391-.352 1.899 1.899 0 0 1 .224-.155Z" clip-rule="evenodd"/>
</svg>
