<svg xmlns="http://www.w3.org/2000/svg" width="24" height="24" fill="none" viewBox="0 0 24 24">
  <path fill="#141414" fill-rule="evenodd" d="M9.5 7.262c-1.437 2.237-2.75 5.03-2.75 7.516 0 3.007 2.652 5.472 5.25 5.472s5.25-2.465 5.25-5.472c0-2.486-1.313-5.279-2.75-7.516a25.804 25.804 0 0 0-1.987-2.698A13.98 13.98 0 0 0 12 3.99a13.98 13.98 0 0 0-.513.574A25.804 25.804 0 0 0 9.5 7.262Zm2.078-4.893c.034-.02.2-.119.422-.119a.847.847 0 0 1 .426.12c.064.038.12.08.164.115.09.071.19.163.293.264.21.205.474.492.773.844.6.704 1.358 1.695 2.106 2.859 1.476 2.297 2.988 5.394 2.988 8.326 0 3.829-3.317 6.972-6.75 6.972s-6.75-3.143-6.75-6.972c0-2.932 1.512-6.029 2.988-8.326a27.314 27.314 0 0 1 2.106-2.86c.299-.351.564-.638.773-.843.102-.101.202-.193.293-.264a1.426 1.426 0 0 1 .168-.116Z" clip-rule="evenodd"/>
</svg>
