<svg xmlns="http://www.w3.org/2000/svg" width="16" height="16" fill="none" viewBox="0 0 16 16">
  <path fill="#141414" fill-rule="evenodd" d="M8 14c2.075 0 3.5-1.646 3.5-4 0-2.071-1.043-4.113-2.16-5.713-.481-.69-.96-1.275-1.34-1.718-.38.443-.859 1.027-1.34 1.718C5.543 5.887 4.5 7.929 4.5 10c0 2.354 1.425 4 3.5 4ZM7.336 1.807C6.08 3.26 3.5 6.487 3.5 10c0 2.761 1.739 5 4.5 5s4.5-2.239 4.5-5c0-3.513-2.58-6.741-3.836-8.193l-.03-.035-.288-.327C8.158 1.23 8.033 1.089 8 1.03c.011-.02.012-.03 0-.03s-.011.01 0 .03c-.033.06-.158.201-.346.415l-.287.327-.03.035Z" clip-rule="evenodd"/>
</svg>
