<svg xmlns="http://www.w3.org/2000/svg" width="24" height="24" fill="none" viewBox="0 0 24 24">
  <path fill="#141414" fill-rule="evenodd" d="m18.01 10.334-.004.026-.002.025c-.216 2.815-1.709 5.4-3.332 7.34a17.252 17.252 0 0 1-2.228 2.231 9.388 9.388 0 0 1-.473.366 8.666 8.666 0 0 1-.456-.327 14.982 14.982 0 0 1-2.202-2.1c-1.596-1.85-3.097-4.429-3.317-7.502v-.009l-.001-.009c-.179-2.145.426-3.847 1.457-5C8.48 4.222 10.038 3.5 12 3.5c3.75 0 6.416 3.171 6.01 6.834ZM12 22c-.694 0-7-4.5-7.5-11.5C4.083 5.5 7.306 2 12 2c4.695 0 8 4 7.5 8.5C19 17 12.694 22 12 22Zm0-9a3 3 0 1 0 0-6 3 3 0 0 0 0 6Z" clip-rule="evenodd"/>
</svg>
