<svg xmlns="http://www.w3.org/2000/svg" width="32" height="32" fill="none" viewBox="0 0 32 32">
  <path fill="#141414" fill-rule="evenodd" d="m24.012 13.78-.004.033-.003.034c-.288 3.753-2.278 7.2-4.442 9.787a23.018 23.018 0 0 1-2.971 2.975c-.239.196-.45.357-.63.487a11.63 11.63 0 0 1-.61-.436 20.073 20.073 0 0 1-2.936-2.8c-2.127-2.465-4.129-5.905-4.422-10.002v-.012l-.001-.012c-.239-2.86.568-5.13 1.942-6.668C11.307 5.631 13.383 4.667 16 4.667c5 0 8.555 4.228 8.013 9.113Zm-8.013 15.554c-.925 0-9.333-6-10-15.334C5.444 7.334 9.74 2.667 16 2.667S26.666 8 26 14c-.666 8.667-9.074 15.334-10 15.334Zm0-12a4 4 0 1 0 0-8 4 4 0 0 0 0 8Z" clip-rule="evenodd"/>
</svg>
