<svg xmlns="http://www.w3.org/2000/svg" width="32" height="32" fill="none" viewBox="0 0 32 32">
  <path fill="#141414" fill-rule="evenodd" d="M4.667 10.666a2 2 0 1 0 0-4 2 2 0 0 0 0 4Zm0 7.334a2 2 0 1 0 0-4 2 2 0 0 0 0 4Zm2 5.333a2 2 0 1 1-4 0 2 2 0 0 1 4 0ZM12 6.667a1.333 1.333 0 0 0 0 2.666h16a1.333 1.333 0 1 0 0-2.666H12ZM10.666 16c0-.736.598-1.334 1.334-1.334h16a1.333 1.333 0 1 1 0 2.667H12A1.333 1.333 0 0 1 10.666 16ZM12 22.666a1.333 1.333 0 0 0 0 2.667h16a1.333 1.333 0 0 0 0-2.666H12Z" clip-rule="evenodd"/>
</svg>
