<svg xmlns="http://www.w3.org/2000/svg" width="32" height="32" fill="none" viewBox="0 0 32 32">
  <path fill="#141414" d="M4.667 16C4.667 9.74 9.741 4.667 16 4.667c1.289 0 2.525.214 3.676.609a1 1 0 1 0 .649-1.892A13.317 13.317 0 0 0 16 2.667C8.637 2.667 2.667 8.637 2.667 16c0 7.364 5.97 13.333 13.333 13.333 7.364 0 13.334-5.97 13.334-13.333a13.29 13.29 0 0 0-.718-4.324 1 1 0 1 0-1.892.648 11.31 11.31 0 0 1 .61 3.676c0 6.26-5.074 11.333-11.334 11.333C9.741 27.333 4.667 22.26 4.667 16Z"/>
  <path fill="#141414" d="M9.667 16a6.333 6.333 0 0 1 8.636-5.902 1 1 0 0 0 .728-1.863 8.333 8.333 0 1 0 4.734 4.734 1 1 0 1 0-1.863.728A6.333 6.333 0 1 1 9.667 16Z"/>
  <path fill="#141414" d="M16 12.333a3.667 3.667 0 1 0 3.202 1.88l3.88-3.88H26a1 1 0 1 0 0-2h-2.333V6a1 1 0 1 0-2 0v2.92l-3.879 3.878A3.65 3.65 0 0 0 16 12.333Z"/>
</svg>
