<svg xmlns="http://www.w3.org/2000/svg" width="16" height="16" fill="none" viewBox="0 0 16 16">
  <path fill="#141414" d="M2 8a6 6 0 0 1 7.846-5.71.5.5 0 1 0 .308-.952 7 7 0 1 0 4.509 4.509.5.5 0 0 0-.952.307A6 6 0 1 1 2 8Z"/>
  <path fill="#141414" d="M4.5 8a3.5 3.5 0 0 1 4.375-3.39.5.5 0 0 0 .25-.968 4.5 4.5 0 1 0 3.234 3.234.5.5 0 1 0-.97.249A3.5 3.5 0 1 1 4.5 8Z"/>
  <path fill="#141414" d="M8 6.5a1.5 1.5 0 1 0 1.354.853L11.707 5H13.5a.5.5 0 0 0 0-1H12V2.5a.5.5 0 0 0-1 0v1.793L8.647 6.646A1.494 1.494 0 0 0 8 6.5Z"/>
</svg>
