<svg xmlns="http://www.w3.org/2000/svg" width="24" height="24" fill="none" viewBox="0 0 24 24">
  <path fill="#141414" d="M3.5 12A8.5 8.5 0 0 1 12 3.5c.966 0 1.893.16 2.757.457a.75.75 0 0 0 .486-1.42A9.987 9.987 0 0 0 12 2C6.477 2 2 6.477 2 12s4.477 10 10 10 10-4.477 10-10a9.989 9.989 0 0 0-.538-3.243.75.75 0 0 0-1.419.486A8.5 8.5 0 1 1 3.5 12Z"/>
  <path fill="#141414" d="M7.25 12a4.75 4.75 0 0 1 6.477-4.426.75.75 0 1 0 .546-1.398 6.25 6.25 0 1 0 3.55 3.55.75.75 0 0 0-1.397.547A4.75 4.75 0 1 1 7.25 12Z"/>
  <path fill="#141414" d="M12 9.25a2.75 2.75 0 1 0 2.402 1.41l2.909-2.91H19.5a.75.75 0 0 0 0-1.5h-1.75V4.5a.75.75 0 0 0-1.5 0v2.19l-2.91 2.909A2.737 2.737 0 0 0 12 9.25Z"/>
</svg>
