<svg width="24" height="24" viewBox="0 0 24 24" fill="none" xmlns="http://www.w3.org/2000/svg">
<path fill-rule="evenodd" clip-rule="evenodd" d="M1.72553 2.78754C2.01842 2.49465 2.4933 2.49465 2.78619 2.78754L3.878 3.87936C3.87845 3.87891 3.87891 3.87845 3.87936 3.878L4.94002 4.93866C4.93956 4.93911 4.93911 4.93956 4.93866 4.94002L11.4689 11.4703L11.4703 11.4689L12.5309 12.5296L12.5296 12.5309L19.06 19.0613C19.0604 19.0609 19.0609 19.0604 19.0613 19.06L20.122 20.1206C20.1215 20.1211 20.1211 20.1215 20.1206 20.122L21.2308 21.2321C21.5237 21.525 21.5237 21.9999 21.2308 22.2928C20.9379 22.5857 20.463 22.5857 20.1701 22.2928L18.776 20.8987C18.5285 20.9648 18.2684 21 18 21H6C4.34315 21 3 19.6569 3 18V6C3 5.73165 3.03523 5.47152 3.10133 5.224L1.72553 3.8482C1.43264 3.55531 1.43264 3.08043 1.72553 2.78754ZM4.5 6.62267V18C4.5 18.1343 4.51766 18.2645 4.55077 18.3884L10.4082 12.5309L4.5 6.62267ZM5.61133 19.4492C5.73529 19.4823 5.86558 19.5 6 19.5H17.3773L11.4689 13.5916L5.61133 19.4492ZM13.5916 11.4689L14.4697 10.5908C14.7626 10.2979 15.2375 10.2979 15.5304 10.5908L19.5 14.5604V17.3773L20.8987 18.776C20.9648 18.5285 21 18.2684 21 18V6C21 4.34315 19.6569 3 18 3H6C5.73165 3 5.47152 3.03523 5.224 3.10133L6.62267 4.5H18C18.8284 4.5 19.5 5.17157 19.5 6V12.4391L16.591 9.5301C15.7124 8.65143 14.2877 8.65142 13.4091 9.5301L12.5309 10.4082L13.5916 11.4689Z" fill="#141414"/>
</svg>
