<svg width="32" height="32" viewBox="0 0 32 32" fill="none" xmlns="http://www.w3.org/2000/svg">
<path fill-rule="evenodd" clip-rule="evenodd" d="M2.29973 3.71672C2.69025 3.3262 3.32342 3.3262 3.71394 3.71672L5.16989 5.17267C5.17053 5.17203 5.17117 5.17139 5.17181 5.17075L6.58602 6.58496C6.58538 6.5856 6.58474 6.58624 6.58411 6.58688L15.2915 15.2943L15.2941 15.2916L16.7084 16.7058L16.7057 16.7085L25.4125 25.4153C25.4132 25.4147 25.4138 25.414 25.4144 25.4134L26.8287 26.8276C26.828 26.8282 26.8274 26.8289 26.8267 26.8295L28.3067 28.3095C28.6972 28.7 28.6972 29.3332 28.3067 29.7237C27.9162 30.1142 27.283 30.1142 26.8925 29.7237L25.0338 27.865C24.7038 27.9531 24.3571 28.0001 23.9993 28.0001H7.99934C5.7902 28.0001 3.99934 26.2092 3.99934 24.0001V8.00008C3.99934 7.64234 4.0463 7.29557 4.13439 6.9656L2.29973 5.13093C1.9092 4.74041 1.9092 4.10725 2.29973 3.71672ZM5.99934 8.83054V24.0001C5.99934 24.1794 6.02293 24.3532 6.0672 24.5186L13.8773 16.7085L5.99934 8.83054ZM7.48173 25.9325C7.64683 25.9766 7.82034 26.0001 7.99934 26.0001H23.1689L15.2915 18.1227L7.48173 25.9325ZM18.1226 15.2916L19.2931 14.1211C19.6836 13.7306 20.3168 13.7306 20.7073 14.1211L25.9993 19.4131V23.1698L27.8642 25.0347C27.9524 24.7047 27.9993 24.3579 27.9993 24.0001V8.00008C27.9993 5.79094 26.2085 4.00008 23.9993 4.00008H7.99934C7.64153 4.00008 7.2947 4.04706 6.96467 4.13518L8.82957 6.00008H23.9993C25.1039 6.00008 25.9993 6.89551 25.9993 8.00008V16.5847L22.1215 12.7069C20.9499 11.5353 19.0504 11.5353 17.8789 12.7069L16.7084 13.8774L18.1226 15.2916Z" fill="#141414"/>
</svg>
