<svg width="16" height="16" viewBox="0 0 16 16" fill="none" xmlns="http://www.w3.org/2000/svg">
<path fill-rule="evenodd" clip-rule="evenodd" d="M1.15035 1.85836C1.34562 1.6631 1.6622 1.6631 1.85746 1.85836L2.58534 2.58624C2.58564 2.58594 2.58594 2.58564 2.58624 2.58534L3.29334 3.29244C3.29304 3.29274 3.29274 3.29304 3.29244 3.29334L7.64594 7.64684L7.64684 7.64594L8.35395 8.35305L8.35305 8.35395L12.7067 12.7076C12.707 12.7073 12.7073 12.707 12.7076 12.7067L13.4147 13.4138C13.4144 13.4141 13.4141 13.4144 13.4138 13.4147L14.1538 14.1547C14.3491 14.35 14.3491 14.6666 14.1538 14.8619C13.9586 15.0571 13.642 15.0571 13.4467 14.8619L12.5173 13.9324C12.3523 13.9765 12.1789 14 12 14H4C2.89543 14 2 13.1046 2 12V4C2 3.8211 2.02349 3.64768 2.06755 3.48267L1.15035 2.56547C0.955091 2.37021 0.955091 2.05362 1.15035 1.85836ZM3 4.41511V12C3 12.0895 3.01177 12.1763 3.03385 12.2589L6.93883 8.35395L3 4.41511ZM3.74089 12.9661C3.82353 12.9882 3.91039 13 4 13H11.5849L7.64594 9.06105L3.74089 12.9661ZM9.06105 7.64594L9.64648 7.06051C9.84175 6.86525 10.1583 6.86525 10.3536 7.06051L13 9.70692V11.5849L13.9324 12.5173C13.9765 12.3523 14 12.1789 14 12V4C14 2.89543 13.1046 2 12 2H4C3.8211 2 3.64768 2.02349 3.48267 2.06755L4.41511 3H12C12.5523 3 13 3.44772 13 4V8.2927L11.0607 6.3534C10.4749 5.76762 9.52517 5.76762 8.93938 6.3534L8.35395 6.93883L9.06105 7.64594Z" fill="#141414"/>
</svg>
