<svg xmlns="http://www.w3.org/2000/svg" width="24" height="24" fill="none" viewBox="0 0 24 24">
  <path fill="#141414" fill-rule="evenodd" d="M11.794 5A6.794 6.794 0 0 0 5 11.794c0 .114.092.206.206.206h13.588a.206.206 0 0 0 .206-.206A6.794 6.794 0 0 0 12.206 5h-.412Zm.956 1.528V8.5a.75.75 0 0 1-1.5 0V6.528A5.298 5.298 0 0 0 6.66 10.5h10.68a5.298 5.298 0 0 0-4.59-3.972Z" clip-rule="evenodd"/>
  <path fill="#141414" fill-rule="evenodd" d="M5 2a3 3 0 0 0-3 3v14a3 3 0 0 0 3 3h14a3 3 0 0 0 3-3V5a3 3 0 0 0-3-3H5Zm14 1.5H5A1.5 1.5 0 0 0 3.5 5v14A1.5 1.5 0 0 0 5 20.5h14a1.5 1.5 0 0 0 1.5-1.5V5A1.5 1.5 0 0 0 19 3.5Z" clip-rule="evenodd"/>
</svg>
