<svg xmlns="http://www.w3.org/2000/svg" width="32" height="32" fill="none" viewBox="0 0 32 32">
  <path fill="#141414" fill-rule="evenodd" d="M15.725 6.667a9.059 9.059 0 0 0-9.059 9.058c0 .152.123.275.275.275h18.118a.275.275 0 0 0 .274-.275 9.059 9.059 0 0 0-9.059-9.059h-.549ZM17 8.703v2.63a1 1 0 1 1-2 0v-2.63A7.065 7.065 0 0 0 8.879 14H23.12A7.065 7.065 0 0 0 17 8.703Z" clip-rule="evenodd"/>
  <path fill="#141414" fill-rule="evenodd" d="M6.667 2.667a4 4 0 0 0-4 4v18.666a4 4 0 0 0 4 4h18.666a4 4 0 0 0 4-4V6.667a4 4 0 0 0-4-4H6.667Zm18.666 2H6.667a2 2 0 0 0-2 2v18.666a2 2 0 0 0 2 2h18.666a2 2 0 0 0 2-2V6.667a2 2 0 0 0-2-2Z" clip-rule="evenodd"/>
</svg>
