<svg xmlns="http://www.w3.org/2000/svg" width="16" height="16" fill="none" viewBox="0 0 16 16">
  <path fill="#141414" fill-rule="evenodd" d="M11.877 6.007 11.875 6a4.004 4.004 0 0 0-7.75 0l-.002.007A3.972 3.972 0 0 0 4 6.992c0 .004.004.008.008.008h7.984A.008.008 0 0 0 12 6.992a4.032 4.032 0 0 0-.123-.985ZM7.5 4.042V5a.5.5 0 0 0 1 0v-.958A3.007 3.007 0 0 1 10.83 6H5.17A3.007 3.007 0 0 1 7.5 4.042Z" clip-rule="evenodd"/>
  <path fill="#141414" fill-rule="evenodd" d="M3 1a2 2 0 0 0-2 2v10a2 2 0 0 0 2 2h10a2 2 0 0 0 2-2V3a2 2 0 0 0-2-2H3Zm10 1H3a1 1 0 0 0-1 1v10a1 1 0 0 0 1 1h10a1 1 0 0 0 1-1V3a1 1 0 0 0-1-1Z" clip-rule="evenodd"/>
</svg>
