<svg xmlns="http://www.w3.org/2000/svg" width="24" height="24" fill="none" viewBox="0 0 24 24">
  <path fill="#141414" fill-rule="evenodd" d="M17 3.25a.75.75 0 0 1 .75.75v2c0 .69.56 1.25 1.25 1.25A2.75 2.75 0 0 1 21.75 10v1.5a.75.75 0 0 1-1.5 0V10c0-.69-.56-1.25-1.25-1.25A2.75 2.75 0 0 1 16.25 6V4a.75.75 0 0 1 .75-.75Zm.75 12.25H20a.5.5 0 0 1 .5.5v2a.5.5 0 0 1-.5.5h-2.25v-3Zm-1.5 0H4a.5.5 0 0 0-.5.5v2a.5.5 0 0 0 .5.5h12.25v-3ZM2 16a2 2 0 0 1 2-2h16a2 2 0 0 1 2 2v2a2 2 0 0 1-2 2H4a2 2 0 0 1-2-2v-2ZM21.75 4a.75.75 0 0 0-1.5 0v2a.75.75 0 0 0 1.5 0V4Z" clip-rule="evenodd"/>
</svg>
