<svg xmlns="http://www.w3.org/2000/svg" width="32" height="32" fill="none" viewBox="0 0 32 32">
  <path fill="#141414" fill-rule="evenodd" d="M22.666 4.333a1 1 0 0 1 1 1V8c0 .92.747 1.667 1.667 1.667A3.667 3.667 0 0 1 29 13.334v2a1 1 0 1 1-2 0v-2c0-.921-.746-1.667-1.667-1.667A3.667 3.667 0 0 1 21.667 8V5.333a1 1 0 0 1 1-1Zm1 16.334h3c.369 0 .667.298.667.666V24a.667.667 0 0 1-.666.667h-3v-4Zm-2 0H5.334a.667.667 0 0 0-.667.666V24c0 .368.299.667.667.667h16.334v-4Zm-19 .666a2.667 2.667 0 0 1 2.667-2.666h21.334a2.667 2.667 0 0 1 2.666 2.666V24a2.667 2.667 0 0 1-2.666 2.667H5.332A2.667 2.667 0 0 1 2.666 24v-2.666ZM29 5.334a1 1 0 1 0-2 0V8a1 1 0 0 0 2 0V5.333Z" clip-rule="evenodd"/>
</svg>
