<svg xmlns="http://www.w3.org/2000/svg" width="24" height="24" fill="none" viewBox="0 0 24 24">
  <path fill="#141414" fill-rule="evenodd" d="m14.783 16.034-.002.004-.1.189a1.5 1.5 0 0 1-1.947.67 11.425 11.425 0 0 1-5.627-5.629 1.5 1.5 0 0 1 .67-1.952l.035-.018h.001l.001-.001c.136-.071.274-.144.405-.211l.343-.179L7.336 3.57l-.346-.044A3.102 3.102 0 0 0 3.5 6.6c0 7.664 6.235 13.9 13.9 13.9a3.103 3.103 0 0 0 3.073-3.497l-.047-.341-5.331-1.223-.18.34-.132.255Zm-6.276-5.407-.035.018a9.74 9.74 0 0 0 .726 1.313 9.99 9.99 0 0 0 3.192 3.066c.311.187.633.356.963.506l.098-.186.001-.003.136-.26.358-.681a1 1 0 0 1 1.109-.51l6.042 1.387a1 1 0 0 1 .767.837l.095.683A4.602 4.602 0 0 1 17.4 22C8.906 22 2 15.092 2 6.6a4.602 4.602 0 0 1 5.18-4.563l.692.088a1 1 0 0 1 .848.768l1.39 6.055a1 1 0 0 1-.513 1.111l-.686.357-.404.211ZM12.75 3a.75.75 0 0 1 .75-.75 8.25 8.25 0 0 1 8.25 8.25.75.75 0 0 1-1.5 0 6.75 6.75 0 0 0-6.75-6.75.75.75 0 0 1-.75-.75Zm.75 3.25a.75.75 0 0 0 0 1.5 2.75 2.75 0 0 1 2.75 2.75.75.75 0 0 0 1.5 0 4.25 4.25 0 0 0-4.25-4.25Z" clip-rule="evenodd"/>
</svg>
