<svg xmlns="http://www.w3.org/2000/svg" width="16" height="16" fill="none" viewBox="0 0 16 16">
  <path fill="#141414" fill-rule="evenodd" d="M2.987 1.354a1.5 1.5 0 0 1 2.122 0l2.26 2.259-1.84 1.84a10.5 10.5 0 0 0 4.518 4.519l1.84-1.84 2.26 2.259a1.5 1.5 0 0 1 0 2.121l-.735.735a3.653 3.653 0 0 1-4.217.684A17.053 17.053 0 0 1 1.57 6.305a3.653 3.653 0 0 1 .684-4.217l.734-.734Zm1.415.707a.5.5 0 0 0-.707 0l-.735.734a2.653 2.653 0 0 0-.497 3.062 16.053 16.053 0 0 0 7.18 7.18c1.02.51 2.254.31 3.062-.498l.734-.734a.5.5 0 0 0 0-.707l-1.552-1.552-1.643 1.643-.527-.263a11.5 11.5 0 0 1-5.143-5.143l-.263-.527 1.643-1.643L4.402 2.06ZM14.5 6.5a5 5 0 0 0-5-5v-1a6 6 0 0 1 6 6h-1Z" clip-rule="evenodd"/>
  <path fill="#141414" fill-rule="evenodd" d="M12.5 6.5a3 3 0 0 0-3-3v-1a4 4 0 0 1 4 4h-1Z" clip-rule="evenodd"/>
</svg>
