<svg xmlns="http://www.w3.org/2000/svg" width="32" height="32" fill="none" viewBox="0 0 32 32">
  <path fill="#141414" fill-rule="evenodd" d="m19.71 21.378-.003.006-.132.252a2 2 0 0 1-2.596.893c-3.283-1.488-5.991-4.19-7.503-7.505a2 2 0 0 1 .893-2.602l.046-.024.002-.001.54-.283.458-.238L9.781 4.76 9.32 4.7a4.137 4.137 0 0 0-4.654 4.1c0 10.22 8.313 18.534 18.533 18.534a4.137 4.137 0 0 0 4.098-4.663l-.063-.455-7.109-1.63-.238.453-.178.34Zm-8.368-7.208-.046.024a12.98 12.98 0 0 0 .968 1.75 13.323 13.323 0 0 0 4.255 4.089c.415.249.844.474 1.285.674l.13-.248.002-.004c.054-.106.112-.215.18-.346l.478-.909a1.334 1.334 0 0 1 1.478-.68l8.057 1.85c.54.123.946.567 1.022 1.116l.127.91c.038.275.055.544.055.804a6.137 6.137 0 0 1-6.134 6.134c-11.325 0-20.533-9.21-20.533-20.534a6.137 6.137 0 0 1 6.906-6.084l.923.118c.555.07 1.006.48 1.131 1.024l1.854 8.073a1.336 1.336 0 0 1-.684 1.482l-.915.476-.539.28ZM17 4a1 1 0 0 1 1-1c6.076 0 11 4.925 11 11a1 1 0 1 1-2 0 9 9 0 0 0-9-9 1 1 0 0 1-1-1Zm1 4.334a1 1 0 0 0 0 2A3.667 3.667 0 0 1 21.666 14a1 1 0 1 0 2 0 5.667 5.667 0 0 0-5.667-5.666Z" clip-rule="evenodd"/>
</svg>
