<svg xmlns="http://www.w3.org/2000/svg" width="32" height="32" fill="none" viewBox="0 0 32 32">
  <path fill="#141414" fill-rule="evenodd" d="M8 5c-.92 0-1.667.746-1.667 1.667v10.048a6.314 6.314 0 0 1 3.334-1.636V6.666C9.667 5.747 8.92 5 8 5Zm3.667 3.733V6.667a3.667 3.667 0 1 0-7.333 0v16A6.333 6.333 0 0 0 10.666 29H24a3.667 3.667 0 0 0 3.667-3.667V12a3.667 3.667 0 0 0-6.334-2.517 3.656 3.656 0 0 0-2.666-1.15A3.66 3.66 0 0 0 16 9.483a3.656 3.656 0 0 0-2.666-1.15c-.6 0-1.167.145-1.667.4Zm0 3.267v3H15v-3a1.667 1.667 0 1 0-3.333 0ZM17 15.838V12a1.667 1.667 0 1 1 3.334 0v5.333c0 .92-.747 1.667-1.667 1.667h-.349A3.66 3.66 0 0 0 17 15.838Zm-2.333 4.495a1.667 1.667 0 1 0 0-3.333h-4a4.333 4.333 0 0 0-4.333 4.333v1.334A4.333 4.333 0 0 0 10.666 27h7v-1.667a3 3 0 0 0-3-3H12a1 1 0 1 1 0-2h2.667Zm2.713.8c.04-.043.078-.088.115-.133h1.172c1.05 0 1.998-.442 2.666-1.15A3.656 3.656 0 0 0 24 21c.6 0 1.167-.144 1.667-.4v4.733c0 .92-.746 1.667-1.667 1.667h-4.333v-1.667c0-1.76-.91-3.31-2.287-4.2Zm8.287-3.8V12a1.667 1.667 0 1 0-3.334 0v5.333a1.667 1.667 0 1 0 3.334 0Z" clip-rule="evenodd"/>
</svg>
