<svg xmlns="http://www.w3.org/2000/svg" width="16" height="16" fill="none" viewBox="0 0 16 16">
  <path fill="#141414" fill-rule="evenodd" d="M4 2.5a.833.833 0 0 0-.833.833v5.024a3.157 3.157 0 0 1 1.666-.818V3.334A.833.833 0 0 0 4 2.5Zm1.833 1.867V3.333a1.833 1.833 0 0 0-3.667 0v8A3.167 3.167 0 0 0 5.333 14.5h6a2.5 2.5 0 0 0 2.5-2.5V6a1.833 1.833 0 0 0-3.167-1.258 1.828 1.828 0 0 0-1.333-.575c-.525 0-.999.22-1.333.575a1.828 1.828 0 0 0-2.167-.375Zm0 1.633v1.5H7.5V6a.833.833 0 0 0-1.667 0ZM8.5 7.92V6a.833.833 0 1 1 1.666 0v2.667c0 .46-.373.833-.833.833H9.16a1.83 1.83 0 0 0-.66-1.58Zm-1.167 2.247a.833.833 0 0 0 0-1.667h-2c-1.196 0-2.167.97-2.167 2.167v.666c0 1.197.97 2.167 2.167 2.167h3.5v-.833a1.5 1.5 0 0 0-1.5-1.5H6a.5.5 0 0 1 0-1h1.333Zm1.357.4c.02-.022.039-.044.057-.067h.586c.526 0 1-.221 1.333-.575a1.828 1.828 0 0 0 2.167.375V12a1.5 1.5 0 0 1-1.5 1.5h-1.5v-.833c0-.88-.455-1.655-1.143-2.1Zm4.143-1.9V6a.833.833 0 0 0-1.667 0v2.667a.833.833 0 0 0 1.667 0Z" clip-rule="evenodd"/>
</svg>
