<svg xmlns="http://www.w3.org/2000/svg" width="24" height="24" fill="none" viewBox="0 0 24 24">
  <path fill="#141414" fill-rule="evenodd" d="M6 3.75c-.69 0-1.25.56-1.25 1.25v7.536a4.735 4.735 0 0 1 2.5-1.227V5c0-.69-.56-1.25-1.25-1.25Zm2.75 2.8V5a2.75 2.75 0 0 0-5.5 0v12A4.75 4.75 0 0 0 8 21.75h10A2.75 2.75 0 0 0 20.75 19V9A2.75 2.75 0 0 0 16 7.113a2.742 2.742 0 0 0-2-.863c-.788 0-1.499.331-2 .863a2.742 2.742 0 0 0-2-.863c-.45 0-.875.108-1.25.3Zm0 2.45v2.25h2.5V9a1.25 1.25 0 1 0-2.5 0Zm4 2.879V9a1.25 1.25 0 1 1 2.5 0v4c0 .69-.56 1.25-1.25 1.25h-.261a2.744 2.744 0 0 0-.989-2.371ZM11 15.25a1.25 1.25 0 1 0 0-2.5H8A3.25 3.25 0 0 0 4.75 16v1A3.25 3.25 0 0 0 8 20.25h5.25V19A2.25 2.25 0 0 0 11 16.75H9a.75.75 0 0 1 0-1.5h2Zm2.035.6a2.73 2.73 0 0 0 .086-.1H14c.788 0 1.499-.331 2-.863a2.742 2.742 0 0 0 2 .863c.45 0 .875-.108 1.25-.3V19c0 .69-.56 1.25-1.25 1.25h-3.25V19c0-1.32-.683-2.482-1.715-3.15ZM19.25 13V9a1.25 1.25 0 1 0-2.5 0v4a1.25 1.25 0 1 0 2.5 0Z" clip-rule="evenodd"/>
</svg>
