<svg xmlns="http://www.w3.org/2000/svg" width="32" height="32" fill="none" viewBox="0 0 32 32">
  <path fill="#141414" fill-rule="evenodd" d="m17.34 21.26 3.92-3.92-6.6-6.6-3.92 3.92 6.6 6.6Zm-1.414 1.414-6.6-6.6-3.247 3.248a4.667 4.667 0 0 0 6.6 6.6l3.247-3.248Zm9.952-9.952-3.204 3.204-6.6-6.6 3.204-3.204a4.667 4.667 0 0 1 6.6 6.6Zm1.414-8.014a6.667 6.667 0 0 0-9.428 0l-13.2 13.2a6.667 6.667 0 0 0 9.429 9.427l13.199-13.199a6.667 6.667 0 0 0 0-9.428ZM24 8.667a.667.667 0 1 1-1.333 0 .667.667 0 0 1 1.333 0ZM23.333 12a.667.667 0 1 0 0-1.333.667.667 0 0 0 0 1.333Zm-2-3.333a.667.667 0 1 1-1.333 0 .667.667 0 0 1 1.333 0Zm-12.666 14a.667.667 0 1 0 0 1.333.667.667 0 0 0 0-1.334Zm-.667-2a.667.667 0 1 1 1.333 0 .667.667 0 0 1-1.333 0Zm3.333 2a.667.667 0 1 0 0 1.333.667.667 0 0 0 0-1.334Z" clip-rule="evenodd"/>
</svg>
