<svg xmlns="http://www.w3.org/2000/svg" width="24" height="24" fill="none" viewBox="0 0 24 24">
  <path fill="#141414" fill-rule="evenodd" d="m13.005 15.945 2.94-2.94-4.95-4.95-2.94 2.94 4.95 4.95Zm-1.06 1.06-4.95-4.95-2.436 2.436a3.5 3.5 0 0 0 4.95 4.95l2.436-2.435Zm7.463-7.463-2.403 2.403-4.95-4.95 2.404-2.403a3.5 3.5 0 0 1 4.95 4.95Zm1.061-6.01a5 5 0 0 0-7.07 0l-9.9 9.899a5 5 0 1 0 7.07 7.07l9.9-9.899a5 5 0 0 0 0-7.07ZM18 6.5a.5.5 0 1 1-1 0 .5.5 0 0 1 1 0ZM17.5 9a.5.5 0 1 0 0-1 .5.5 0 0 0 0 1ZM16 6.5a.5.5 0 1 1-1 0 .5.5 0 0 1 1 0ZM6.5 17a.5.5 0 1 0 0 1 .5.5 0 0 0 0-1ZM6 15.5a.5.5 0 1 1 1 0 .5.5 0 0 1-1 0ZM8.5 17a.5.5 0 1 0 0 1 .5.5 0 0 0 0-1Z" clip-rule="evenodd"/>
</svg>
