<svg xmlns="http://www.w3.org/2000/svg" width="16" height="16" fill="none" viewBox="0 0 16 16">
  <g clip-path="url(#a)">
    <path fill="#141414" d="M10.7 3.8a.5.5 0 1 1-1 0 .5.5 0 0 1 1 0Zm2 0a.5.5 0 1 1-1 0 .5.5 0 0 1 1 0Zm-.5 2.5a.5.5 0 1 0 0-1 .5.5 0 0 0 0 1Zm-8.4 6.4a.5.5 0 1 0 0-1 .5.5 0 0 0 0 1Zm.5-2.5a.5.5 0 1 1-1 0 .5.5 0 0 1 1 0Zm1.5 2.5a.5.5 0 1 0 0-1 .5.5 0 0 0 0 1Z"/>
    <path fill="#141414" fill-rule="evenodd" d="M13.978 2.023a4 4 0 0 0-5.657 0L2.023 8.32a4 4 0 1 0 5.657 5.657l6.298-6.298a4 4 0 0 0 0-5.656Zm-4.95.707a3 3 0 0 1 4.243 4.242l-.942.942-4.243-4.242.942-.942ZM7.38 4.379l-2.75 2.75 4.243 4.242 2.75-2.75L7.379 4.38ZM2.73 9.028l1.192-1.192 4.243 4.242-1.192 1.192A3 3 0 1 1 2.73 9.028Z" clip-rule="evenodd"/>
  </g>
  <defs>
    <clipPath id="a">
      <path fill="#fff" d="M0 0h16v16H0z"/>
    </clipPath>
  </defs>
</svg>
