<svg xmlns="http://www.w3.org/2000/svg" width="16" height="16" fill="none" viewBox="0 0 16 16">
  <path fill="#141414" fill-rule="evenodd" d="M1.35 3.695V2.574l1.193-.74h.892v4.18H2.339v-2.92l-.99.6ZM2.882 11.8 1.35 13.402v.69h3.003v-1.03h-1.26l.57-.586c.393-.4.636-.787.636-1.323a1.24 1.24 0 0 0-.43-.973c-.268-.23-.636-.346-1.045-.346-.779 0-1.397.49-1.474 1.223l-.017.163 1.072.13.02-.164a.347.347 0 0 1 .116-.23.416.416 0 0 1 .277-.087c.124 0 .217.04.278.097a.34.34 0 0 1 .102.259c0 .126-.054.297-.315.575Zm3.784-8.466a.667.667 0 0 0 0 1.333H14a.667.667 0 0 0 0-1.333H6.667Zm0 4a.667.667 0 0 0 0 1.333H14a.667.667 0 0 0 0-1.333H6.667ZM6 12.001c0-.368.299-.667.667-.667H14a.667.667 0 0 1 0 1.333H6.667A.667.667 0 0 1 6 12.001Z" clip-rule="evenodd"/>
</svg>
