<svg xmlns="http://www.w3.org/2000/svg" width="24" height="24" fill="none" viewBox="0 0 24 24">
  <path fill="#141414" fill-rule="evenodd" d="M2.024 5.54V3.86l1.79-1.11h1.338v6.269H3.509V4.641l-1.485.9Zm2.3 12.159-2.3 2.403v1.034h4.505v-1.544h-1.89l.855-.88c.589-.598.954-1.18.954-1.984 0-.61-.236-1.112-.644-1.46-.403-.343-.955-.518-1.568-.518-1.169 0-2.096.734-2.21 1.835L2 16.83l1.607.194.031-.246a.52.52 0 0 1 .173-.346.628.628 0 0 1 .416-.129c.185 0 .325.059.417.145.09.085.152.212.152.388 0 .19-.08.445-.471.863ZM10 5a1 1 0 0 0 0 2h11a1 1 0 1 0 0-2H10Zm0 6a1 1 0 1 0 0 2h11a1 1 0 1 0 0-2H10Zm-1 7a1 1 0 0 1 1-1h11a1 1 0 1 1 0 2H10a1 1 0 0 1-1-1Z" clip-rule="evenodd"/>
</svg>
