<svg xmlns="http://www.w3.org/2000/svg" width="32" height="32" fill="none" viewBox="0 0 32 32">
  <path fill="#141414" fill-rule="evenodd" d="M2.698 7.388V5.146l2.387-1.48h1.784v8.36H4.68V6.187l-1.98 1.2Zm3.068 16.21-3.067 3.204v1.38h6.006v-2.06h-2.52l1.14-1.172c.786-.798 1.272-1.574 1.272-2.646 0-.812-.315-1.483-.858-1.946-.538-.458-1.274-.692-2.091-.692-1.558 0-2.795.979-2.948 2.447l-.034.326 2.143.26.042-.329a.694.694 0 0 1 .23-.46c.12-.102.3-.173.555-.173.247 0 .434.079.556.194a.68.68 0 0 1 .203.517c0 .252-.107.594-.629 1.15Zm7.567-16.931a1.333 1.333 0 1 0 0 2.666H28a1.333 1.333 0 1 0 0-2.666H13.333Zm0 8a1.333 1.333 0 1 0 0 2.666H28a1.333 1.333 0 0 0 0-2.666H13.333ZM12 24c0-.736.597-1.334 1.333-1.334H28a1.333 1.333 0 1 1 0 2.667H13.333A1.333 1.333 0 0 1 12 24Z" clip-rule="evenodd"/>
</svg>
