<svg xmlns="http://www.w3.org/2000/svg" width="32" height="32" fill="none" viewBox="0 0 32 32">
  <path fill="#141414" fill-rule="evenodd" d="M25.333 8.666a2 2 0 1 1 0-4 2 2 0 0 1 0 4Zm-4-2a4 4 0 1 1 8 0 4 4 0 0 1-8 0ZM4.667 9.334a2 2 0 1 0 4 0 2 2 0 0 0-4 0Zm2-4a4 4 0 1 0 0 8 4 4 0 0 0 0-8Zm9.333 10a2 2 0 1 1 0-4 2 2 0 0 1 0 4Zm-4-2a4 4 0 1 1 8 0 4 4 0 0 1-8 0Zm2 8c0-.368.298-.666.666-.666h2.667c.368 0 .667.298.667.666v5.334a.667.667 0 0 1-.667.666h-2.666a.667.667 0 0 1-.667-.666v-5.334Zm-2 0a2.667 2.667 0 0 1 2.666-2.666h2.667A2.667 2.667 0 0 1 20 21.332v5.334a2.667 2.667 0 0 1-2.667 2.666h-2.666A2.667 2.667 0 0 1 12 26.667v-5.334ZM4 15a1 1 0 0 1 1 1v11c0 .184.15.333.333.333h2a1 1 0 1 1 0 2h-2A2.333 2.333 0 0 1 3 27V16a1 1 0 0 1 1-1Zm23-.334a.333.333 0 0 0-.334-.333h-2a1 1 0 1 1 0-2h2A2.333 2.333 0 0 1 29 14.666V27a2.333 2.333 0 0 1-2.334 2.333h-2a1 1 0 1 1 0-2h2c.185 0 .334-.15.334-.333V14.666Z" clip-rule="evenodd"/>
</svg>
