<svg xmlns="http://www.w3.org/2000/svg" width="16" height="16" fill="none" viewBox="0 0 16 16">
  <path fill="#141414" fill-rule="evenodd" d="M3 6a1 1 0 1 0 0-2 1 1 0 0 0 0 2Zm0 1a2 2 0 1 0 0-4 2 2 0 0 0 0 4Zm5 0a.5.5 0 1 0 0-1 .5.5 0 0 0 0 1Zm0 1a1.5 1.5 0 1 0 0-3 1.5 1.5 0 0 0 0 3Zm5-4a1 1 0 1 0 0-2 1 1 0 0 0 0 2Zm0 1a2 2 0 1 0 0-4 2 2 0 0 0 0 4ZM1.5 8a.5.5 0 0 1 .5.5v5a.5.5 0 0 0 .5.5h1a.5.5 0 0 1 0 1h-1A1.5 1.5 0 0 1 1 13.5v-5a.5.5 0 0 1 .5-.5ZM11 6.5a.5.5 0 0 1 .5-.5h2A1.5 1.5 0 0 1 15 7.5v6a1.5 1.5 0 0 1-1.5 1.5h-2a.5.5 0 0 1 0-1h2a.5.5 0 0 0 .5-.5v-6a.5.5 0 0 0-.5-.5h-2a.5.5 0 0 1-.5-.5ZM9 10H7v4h2v-4ZM7 9a1 1 0 0 0-1 1v4a1 1 0 0 0 1 1h2a1 1 0 0 0 1-1v-4a1 1 0 0 0-1-1H7Z" clip-rule="evenodd"/>
</svg>
