<svg xmlns="http://www.w3.org/2000/svg" width="24" height="24" fill="none" viewBox="0 0 24 24">
  <path fill="#141414" fill-rule="evenodd" d="M19 6.5a1.5 1.5 0 1 1 0-3 1.5 1.5 0 0 1 0 3ZM16 5a3 3 0 1 1 6 0 3 3 0 0 1-6 0ZM3.5 7a1.5 1.5 0 1 0 3 0 1.5 1.5 0 0 0-3 0ZM5 4a3 3 0 1 0 0 6 3 3 0 0 0 0-6Zm7 7.5a1.5 1.5 0 1 1 0-3 1.5 1.5 0 0 1 0 3ZM9 10a3 3 0 1 1 6 0 3 3 0 0 1-6 0Zm1.5 6a.5.5 0 0 1 .5-.5h2a.5.5 0 0 1 .5.5v4a.5.5 0 0 1-.5.5h-2a.5.5 0 0 1-.5-.5v-4ZM9 16a2 2 0 0 1 2-2h2a2 2 0 0 1 2 2v4a2 2 0 0 1-2 2h-2a2 2 0 0 1-2-2v-4Zm-6-4.75a.75.75 0 0 1 .75.75v8.25c0 .138.112.25.25.25h1.5a.75.75 0 0 1 0 1.5H4a1.75 1.75 0 0 1-1.75-1.75V12a.75.75 0 0 1 .75-.75ZM20.25 11a.25.25 0 0 0-.25-.25h-1.5a.75.75 0 0 1 0-1.5H20c.966 0 1.75.784 1.75 1.75v9.25A1.75 1.75 0 0 1 20 22h-1.5a.75.75 0 0 1 0-1.5H20a.25.25 0 0 0 .25-.25V11Z" clip-rule="evenodd"/>
</svg>
