<svg xmlns="http://www.w3.org/2000/svg" width="16" height="16" fill="none" viewBox="0 0 16 16">
  <path fill="#141414" fill-rule="evenodd" d="M1.5 9.5A.5.5 0 0 1 2 9h4.5a.5.5 0 0 1 .5.5V14a.5.5 0 0 1-1 0v-4H2a.5.5 0 0 1-.5-.5Z" clip-rule="evenodd"/>
  <path fill="#141414" fill-rule="evenodd" d="m1.146 14.146 5-5 .708.708-5 5a.5.5 0 0 1-.708-.708ZM14.5 6.5a.5.5 0 0 1-.5.5H9.5a.5.5 0 0 1-.5-.5V2a.5.5 0 0 1 1 0v4h4a.5.5 0 0 1 .5.5Z" clip-rule="evenodd"/>
  <path fill="#141414" fill-rule="evenodd" d="M14.854 1.146a.5.5 0 0 1 0 .708l-5 5a.5.5 0 1 1-.708-.708l5-5a.5.5 0 0 1 .708 0Z" clip-rule="evenodd"/>
</svg>
