<svg xmlns="http://www.w3.org/2000/svg" width="12" height="12" fill="none" viewBox="0 0 12 12">
  <path fill="#141414" fill-rule="evenodd" d="M11 4.5a.5.5 0 0 1-.5.5h-3a.5.5 0 0 1-.5-.5v-3a.5.5 0 0 1 1 0V4h2.5a.5.5 0 0 1 .5.5Z" clip-rule="evenodd"/>
  <path fill="#141414" fill-rule="evenodd" d="M7.146 4.854a.5.5 0 0 1 0-.708l3-3a.5.5 0 0 1 .708.708l-3 3a.5.5 0 0 1-.708 0ZM1 7.5a.5.5 0 0 1 .5-.5h3a.5.5 0 0 1 .5.5v3a.5.5 0 0 1-1 0V8H1.5a.5.5 0 0 1-.5-.5Z" clip-rule="evenodd"/>
  <path fill="#141414" fill-rule="evenodd" d="M4.854 7.146a.5.5 0 0 1 0 .708l-3 3a.5.5 0 0 1-.708-.708l3-3a.5.5 0 0 1 .708 0Z" clip-rule="evenodd"/>
</svg>
