<svg xmlns="http://www.w3.org/2000/svg" width="32" height="32" fill="none" viewBox="0 0 32 32">
  <path fill="#141414" fill-rule="evenodd" d="M25.822 8.666H6.178l8.72 7.694c.63.556 1.575.556 2.205 0l8.719-7.694ZM4.667 10v12.666c0 .369.298.667.666.667h21.334a.667.667 0 0 0 .666-.666V10l-8.907 7.86a3.667 3.667 0 0 1-4.852 0L4.667 10Zm-2-.667a2.667 2.667 0 0 1 2.666-2.667h21.334a2.667 2.667 0 0 1 2.666 2.667v13.333a2.667 2.667 0 0 1-2.666 2.667H5.332a2.667 2.667 0 0 1-2.667-2.666V9.332Z" clip-rule="evenodd"/>
</svg>
