<svg xmlns="http://www.w3.org/2000/svg" width="16" height="16" fill="none" viewBox="0 0 16 16">
  <path fill="#141414" fill-rule="evenodd" d="M13 4H3a1 1 0 0 0-1 1v6a1 1 0 0 0 1 1h10a1 1 0 0 0 1-1V5a1 1 0 0 0-1-1ZM3 3a2 2 0 0 0-2 2v6a2 2 0 0 0 2 2h10a2 2 0 0 0 2-2V5a2 2 0 0 0-2-2H3Z" clip-rule="evenodd"/>
  <path fill="#141414" fill-rule="evenodd" d="M1.584 3.723a.5.5 0 0 1 .693-.139l5.446 3.63a.5.5 0 0 0 .554 0l5.446-3.63a.5.5 0 0 1 .554.832l-5.445 3.63a1.5 1.5 0 0 1-1.664 0l-5.445-3.63a.5.5 0 0 1-.139-.693Z" clip-rule="evenodd"/>
</svg>
