<svg xmlns="http://www.w3.org/2000/svg" width="16" height="16" fill="none" viewBox="0 0 16 16">
  <path fill="#141414" fill-rule="evenodd" d="M9 4H3a1 1 0 0 0-1 1v6a1 1 0 0 0 1 1h6a1 1 0 0 0 1-1V5a1 1 0 0 0-1-1ZM3 3a2 2 0 0 0-2 2v6a2 2 0 0 0 2 2h6a2 2 0 0 0 2-2V5a2 2 0 0 0-2-2H3Z" clip-rule="evenodd"/>
  <path fill="#141414" fill-rule="evenodd" d="M14.808 5.106A.5.5 0 0 1 15 5.5v5a.5.5 0 0 1-.621.485l-4-1A.5.5 0 0 1 10 9.5v-3a.5.5 0 0 1 .379-.485l4-1a.5.5 0 0 1 .429.09ZM11 6.89v2.22l3 .75V6.14l-3 .75Z" clip-rule="evenodd"/>
</svg>
