<svg xmlns="http://www.w3.org/2000/svg" width="32" height="32" fill="none" viewBox="0 0 32 32">
  <path fill="#141414" fill-rule="evenodd" d="M5.333 7.333h16c.368 0 .667.299.667.667v16a.667.667 0 0 1-.667.667h-16A.667.667 0 0 1 4.666 24V8c0-.368.299-.667.667-.667ZM24 20.727V24a2.667 2.667 0 0 1-2.667 2.667h-16A2.667 2.667 0 0 1 2.666 24V8a2.667 2.667 0 0 1 2.667-2.667h16A2.667 2.667 0 0 1 24 8v3.273l3.544-1.29a1.333 1.333 0 0 1 1.79 1.254v9.526c0 .925-.92 1.57-1.79 1.253L24 20.727Zm0-2.128 3.333 1.212V12.19L24 13.4v5.198Z" clip-rule="evenodd"/>
</svg>
