<svg xmlns="http://www.w3.org/2000/svg" width="16" height="16" fill="none" viewBox="0 0 16 16">
  <path fill="#141414" fill-rule="evenodd" d="M9.5 1.5A.5.5 0 0 1 10 1h4.5a.5.5 0 0 1 .5.5V6a.5.5 0 0 1-1 0V2h-4a.5.5 0 0 1-.5-.5Zm-3 13a.5.5 0 0 1-.5.5H1.5a.5.5 0 0 1-.5-.5V10a.5.5 0 0 1 1 0v4h4a.5.5 0 0 1 .5.5Z" clip-rule="evenodd"/>
  <path fill="#141414" fill-rule="evenodd" d="M14.854 1.146a.5.5 0 0 1 0 .708l-5 5a.5.5 0 1 1-.708-.708l5-5a.5.5 0 0 1 .708 0Zm-8 8a.5.5 0 0 1 0 .708l-5 5a.5.5 0 0 1-.708-.708l5-5a.5.5 0 0 1 .708 0Z" clip-rule="evenodd"/>
</svg>
