<svg width="12" height="12" viewBox="0 0 12 12" fill="none" xmlns="http://www.w3.org/2000/svg">
<path fill-rule="evenodd" clip-rule="evenodd" d="M7.30328 2.93587C7.30328 2.41901 7.64611 2 8.069 2H9.34519C9.76808 2 10.1109 2.419 10.1109 2.93587V7.61524C10.1109 8.13211 9.76808 8.55112 9.34519 8.55112H8.069C7.64611 8.55112 7.30328 8.13211 7.30328 7.61524V2.93587ZM8.23916 2.62392C8.09819 2.62392 7.9272 2.76358 7.9272 2.93587V7.61524C7.9272 7.78753 8.09819 7.9272 8.23916 7.9272H9.17503C9.316 7.9272 9.48699 7.78753 9.48699 7.61524V2.93587C9.48699 2.76358 9.316 2.62392 9.17503 2.62392L8.23916 2.62392Z" fill="#141414"/>
<path fill-rule="evenodd" clip-rule="evenodd" d="M6.24797 2.63461C5.75894 2.6243 4.81412 2.61518 4.19646 2.63878C3.98412 2.6469 3.87453 2.67147 3.80297 2.70741C3.74219 2.73793 3.6805 2.79102 3.60325 2.92784C3.52147 3.07271 3.4373 3.28392 3.32238 3.60754C3.27891 3.72996 3.2295 3.87297 3.17413 4.03319C3.09113 4.27337 2.99477 4.55225 2.88503 4.85845C2.61168 5.62116 2.59333 6.08904 2.64984 6.35487C2.70102 6.59562 2.80693 6.65709 2.84319 6.67061C2.84385 6.67064 2.84459 6.67067 2.84542 6.6707C2.84878 6.67083 2.85307 6.6709 2.85885 6.6709H3.9235C4.58865 6.6709 5.00462 7.32527 4.84602 7.91958C4.64536 8.67147 4.69431 9.04151 4.7774 9.20663C4.83979 9.3306 4.94664 9.38206 5.12794 9.37564C5.1451 9.37504 5.16718 9.36882 5.1948 9.34695C5.22394 9.32388 5.25428 9.28666 5.27773 9.23814C5.99124 7.76236 6.57193 7.14893 7.11136 6.79917C7.23831 6.71685 7.30329 6.5977 7.30329 6.48762V3.44265C7.30329 3.33771 7.25054 3.2398 7.16289 3.1821L6.40796 2.68502C6.35934 2.65301 6.3039 2.63579 6.24797 2.63461ZM4.17264 2.01532C4.80964 1.99098 5.76972 2.00047 6.26112 2.01083C6.43677 2.01454 6.60622 2.06855 6.75107 2.16392L7.506 2.66099C7.76894 2.83412 7.92721 3.12784 7.92721 3.44265V6.48762C7.92721 6.8487 7.71918 7.14865 7.4508 7.32267C7.04228 7.58755 6.52542 8.09089 5.83944 9.50972C5.7283 9.7396 5.49421 9.98699 5.15001 9.99917C4.82705 10.0106 4.43145 9.90712 4.22008 9.4871C4.02942 9.10823 4.03331 8.54521 4.2432 7.75871C4.30917 7.51148 4.12933 7.29482 3.9235 7.29482H2.85885C2.81918 7.29482 2.74924 7.2936 2.67304 7.27116C2.38345 7.18587 2.13199 6.9194 2.03956 6.4846C1.94917 6.05937 2.00496 5.46473 2.2977 4.64795C2.40938 4.33633 2.49961 4.07497 2.57952 3.84351C2.63488 3.68317 2.68528 3.53718 2.73443 3.39876C2.84826 3.0782 2.94821 2.81903 3.05994 2.62112C3.17621 2.41517 3.31742 2.25308 3.52296 2.14986C3.71771 2.05205 3.93784 2.0243 4.17264 2.01532Z" fill="#141414"/>
</svg>
