<svg width="32" height="32" viewBox="0 0 32 32" fill="none" xmlns="http://www.w3.org/2000/svg">
<path fill-rule="evenodd" clip-rule="evenodd" d="M20 6C20 4.34315 21.0989 3 22.4545 3H26.5455C27.9011 3 29 4.34315 29 6V21C29 22.6569 27.9011 24 26.5455 24H22.4545C21.0989 24 20 22.6569 20 21V6ZM23 5C22.5481 5 22 5.44772 22 6V21C22 21.5523 22.5481 22 23 22H26C26.4519 22 27 21.5523 27 21V6C27 5.44772 26.4519 5 26 5L23 5Z" fill="#141414"/>
<path fill-rule="evenodd" clip-rule="evenodd" d="M16.6171 5.03428C15.0495 5.00124 12.0208 4.97201 10.0409 5.04766C9.36023 5.07367 9.00891 5.15244 8.77952 5.26764C8.5847 5.36549 8.38693 5.53565 8.13932 5.97426C7.87715 6.43865 7.60734 7.11569 7.23898 8.15306C7.09963 8.54549 6.94123 9.00391 6.76375 9.51751C6.4977 10.2874 6.1888 11.1814 5.83702 12.1629C4.96077 14.6078 4.90197 16.1077 5.08311 16.9598C5.24717 17.7315 5.58666 17.9286 5.7029 17.9719C5.70501 17.972 5.70738 17.9721 5.71003 17.9722C5.72081 17.9726 5.73457 17.9729 5.7531 17.9729H9.16588C11.2981 17.9729 12.6315 20.0705 12.1231 21.9756C11.4799 24.3858 11.6368 25.572 11.9031 26.1013C12.1031 26.4987 12.4456 26.6636 13.0268 26.6431C13.0818 26.6411 13.1526 26.6212 13.2411 26.5511C13.3345 26.4771 13.4318 26.3578 13.507 26.2023C15.7942 21.4716 17.6556 19.5052 19.3848 18.384C19.7917 18.1202 20 17.7382 20 17.3853V7.62449C20 7.28811 19.8309 6.97426 19.55 6.78928L17.13 5.19588C16.9741 5.09327 16.7964 5.03806 16.6171 5.03428ZM9.96453 3.04912C12.0065 2.9711 15.0841 3.00152 16.6593 3.03473C17.2223 3.0466 17.7655 3.21974 18.2298 3.52546L20.6498 5.11886C21.4927 5.67382 22 6.61535 22 7.62449V17.3853C22 18.5428 21.3332 19.5043 20.4729 20.0621C19.1633 20.9112 17.5065 22.5247 15.3076 27.0729C14.9513 27.8097 14.2009 28.6028 13.0975 28.6418C12.0623 28.6785 10.7942 28.3468 10.1166 27.0003C9.50543 25.7859 9.51789 23.9811 10.1907 21.4599C10.4022 20.6674 9.82568 19.9729 9.16588 19.9729H5.7531C5.62594 19.9729 5.40174 19.969 5.15747 19.897C4.22917 19.6236 3.42311 18.7694 3.12683 17.3757C2.83706 16.0126 3.01591 14.1064 3.95428 11.4882C4.31229 10.4892 4.60154 9.65144 4.8577 8.90948C5.03515 8.39551 5.19672 7.92753 5.35427 7.48382C5.71915 6.45624 6.03955 5.62543 6.39769 4.99103C6.7704 4.33084 7.22306 3.81127 7.88193 3.48037C8.50622 3.16684 9.21185 3.07788 9.96453 3.04912Z" fill="#141414"/>
</svg>
