<svg width="16" height="16" viewBox="0 0 16 16" fill="none" xmlns="http://www.w3.org/2000/svg">
<path fill-rule="evenodd" clip-rule="evenodd" d="M9.95493 3.40381C9.95493 2.62851 10.4692 2 11.1035 2H13.0178C13.6521 2 14.1664 2.62851 14.1664 3.40381V10.4229C14.1664 11.1982 13.6521 11.8267 13.0178 11.8267H11.1035C10.4692 11.8267 9.95493 11.1982 9.95493 10.4229V3.40381ZM11.3587 2.93587C11.1473 2.93587 10.8908 3.14538 10.8908 3.40381V10.4229C10.8908 10.6813 11.1473 10.8908 11.3587 10.8908H12.7625C12.974 10.8908 13.2305 10.6813 13.2305 10.4229V3.40381C13.2305 3.14538 12.974 2.93587 12.7625 2.93587L11.3587 2.93587Z" fill="#141414"/>
<path fill-rule="evenodd" clip-rule="evenodd" d="M8.37195 2.95192C7.63841 2.93645 6.22118 2.92278 5.2947 2.95818C4.97619 2.97035 4.81179 3.0072 4.70445 3.06111C4.61328 3.1069 4.52074 3.18652 4.40488 3.39176C4.2822 3.60907 4.15594 3.92588 3.98358 4.41131C3.91837 4.59494 3.84424 4.80945 3.7612 5.04978C3.6367 5.41006 3.49216 5.82837 3.32754 6.28767C2.91752 7.43174 2.89 8.13356 2.97477 8.53231C3.05153 8.89342 3.21039 8.98563 3.26479 9.00592C3.26577 9.00596 3.26688 9.00601 3.26812 9.00606C3.27317 9.00624 3.27961 9.00635 3.28828 9.00635H4.88524C5.88297 9.00635 6.50692 9.98791 6.26902 10.8794C5.96805 12.0072 6.04146 12.5623 6.1661 12.8099C6.25968 12.9959 6.41997 13.0731 6.69192 13.0635C6.71765 13.0626 6.75077 13.0532 6.7922 13.0204C6.8359 12.9858 6.88141 12.93 6.9166 12.8572C7.98687 10.6435 8.8579 9.72339 9.66705 9.19875C9.85747 9.07528 9.95494 8.89655 9.95494 8.73143V4.16397C9.95494 4.00656 9.8758 3.8597 9.74434 3.77314L8.61194 3.02753C8.53901 2.97952 8.45586 2.95368 8.37195 2.95192ZM5.25896 2.02299C6.21446 1.98648 7.65457 2.00071 8.39168 2.01625C8.65515 2.0218 8.90933 2.10283 9.1266 2.24588L10.259 2.99149C10.6534 3.25118 10.8908 3.69175 10.8908 4.16397V8.73143C10.8908 9.27305 10.5788 9.72298 10.1762 9.98401C9.56341 10.3813 8.78813 11.1363 7.75916 13.2646C7.59245 13.6094 7.24132 13.9805 6.72501 13.9988C6.24057 14.0159 5.64717 13.8607 5.33012 13.2306C5.04413 12.6623 5.04996 11.8178 5.36479 10.6381C5.46376 10.2672 5.19399 9.94222 4.88524 9.94222H3.28828C3.22878 9.94222 3.12386 9.94041 3.00956 9.90674C2.57518 9.77881 2.19799 9.3791 2.05935 8.7269C1.92375 8.08905 2.00745 7.1971 2.44654 5.97192C2.61407 5.50449 2.74942 5.11245 2.86929 4.76526C2.95232 4.52476 3.02793 4.30577 3.10165 4.09815C3.27239 3.6173 3.42232 3.22854 3.58991 2.93168C3.76431 2.62275 3.97613 2.37962 4.28443 2.22478C4.57656 2.07807 4.90675 2.03644 5.25896 2.02299Z" fill="#141414"/>
</svg>
