<svg width="24" height="24" viewBox="0 0 24 24" fill="none" xmlns="http://www.w3.org/2000/svg">
<path fill-rule="evenodd" clip-rule="evenodd" d="M15.2582 4.33968C15.2582 3.04751 16.1153 2 17.1725 2H20.363C21.4202 2 22.2773 3.04751 22.2773 4.33968V16.0381C22.2773 17.3303 21.4202 18.3778 20.363 18.3778H17.1725C16.1153 18.3778 15.2582 17.3303 15.2582 16.0381V4.33968ZM17.5979 3.55979C17.2455 3.55979 16.818 3.90896 16.818 4.33968V16.0381C16.818 16.4688 17.2455 16.818 17.5979 16.818H19.9376C20.29 16.818 20.7175 16.4688 20.7175 16.0381V4.33968C20.7175 3.90896 20.29 3.55979 19.9376 3.55979L17.5979 3.55979Z" fill="#141414"/>
<path fill-rule="evenodd" clip-rule="evenodd" d="M12.6199 3.58653C11.3974 3.56075 9.03531 3.53796 7.49116 3.59696C6.96031 3.61724 6.68632 3.67867 6.50742 3.76852C6.35547 3.84483 6.20124 3.97754 6.00813 4.31961C5.80366 4.68179 5.59324 5.20981 5.30596 6.01885C5.19728 6.3249 5.07374 6.68242 4.93533 7.08297C4.72784 7.68344 4.48693 8.38062 4.21257 9.14612C3.52919 11.0529 3.48334 12.2226 3.62461 12.8872C3.75255 13.489 4.01732 13.6427 4.10798 13.6765C4.10962 13.6766 4.11147 13.6767 4.11354 13.6768C4.12194 13.6771 4.13268 13.6772 4.14713 13.6772H6.80874C8.47162 13.6772 9.51154 15.3132 9.11504 16.799C8.61341 18.6787 8.73577 19.6038 8.94351 20.0166C9.09947 20.3265 9.36661 20.4552 9.81986 20.4391C9.86275 20.4376 9.91794 20.4221 9.987 20.3674C10.0598 20.3097 10.1357 20.2166 10.1943 20.0954C11.9781 16.4059 13.4298 14.8723 14.7784 13.9979C15.0958 13.7921 15.2582 13.4943 15.2582 13.219V5.60661C15.2582 5.34427 15.1263 5.09951 14.9072 4.95524L13.0199 3.71256C12.8984 3.63253 12.7598 3.58947 12.6199 3.58653ZM7.4316 2.03831C9.02411 1.97746 11.4243 2.00118 12.6528 2.02708C13.0919 2.03634 13.5156 2.17138 13.8777 2.4098L15.765 3.65249C16.4223 4.08529 16.818 4.81959 16.818 5.60661V13.219C16.818 14.1217 16.298 14.8716 15.627 15.3067C14.6057 15.9689 13.3136 17.2272 11.5986 20.7743C11.3208 21.349 10.7355 21.9675 9.87502 21.9979C9.06762 22.0265 8.07862 21.7678 7.5502 20.7177C7.07355 19.7706 7.08327 18.363 7.60799 16.3968C7.77293 15.7787 7.32331 15.237 6.80874 15.237H4.14713C4.04796 15.237 3.8731 15.234 3.6826 15.1779C2.95863 14.9647 2.32998 14.2985 2.09891 13.2115C1.87292 12.1484 2.01241 10.6618 2.74424 8.61987C3.02345 7.84082 3.24903 7.18742 3.44881 6.60877C3.5872 6.20793 3.71321 5.84295 3.83609 5.49691C4.12065 4.69551 4.37053 4.04756 4.64984 3.5528C4.94051 3.03792 5.29355 2.6327 5.80739 2.37464C6.29427 2.13012 6.84459 2.06074 7.4316 2.03831Z" fill="#141414"/>
</svg>
