<svg xmlns="http://www.w3.org/2000/svg" width="16" height="16" fill="none" viewBox="0 0 16 16">
  <path fill="#141414" fill-rule="evenodd" d="M2.5 3a.5.5 0 0 0-.5.5v9a.5.5 0 0 0 .5.5H5a.5.5 0 0 1 0 1H2.5A1.5 1.5 0 0 1 1 12.5v-9A1.5 1.5 0 0 1 2.5 2h5a.5.5 0 0 1 .354.146L9.207 3.5H11.5A1.5 1.5 0 0 1 13 5v1.5a.5.5 0 0 1-1 0V5a.5.5 0 0 0-.5-.5H9a.5.5 0 0 1-.354-.146L7.293 3H2.5Z" clip-rule="evenodd"/>
  <path fill="#141414" fill-rule="evenodd" d="M4.239 7.5a.5.5 0 0 0-.478.353l-1.385 4.5a.5.5 0 0 0 .478.647h9.407a.5.5 0 0 0 .478-.353l1.385-4.5a.5.5 0 0 0-.478-.647H4.239Zm-1.434.059A1.5 1.5 0 0 1 4.239 6.5h9.407a1.5 1.5 0 0 1 1.434 1.941l-1.385 4.5A1.5 1.5 0 0 1 12.261 14H2.854a1.5 1.5 0 0 1-1.434-1.941l1.385-4.5Z" clip-rule="evenodd"/>
</svg>
