<svg xmlns="http://www.w3.org/2000/svg" width="24" height="24" fill="none" viewBox="0 0 24 24">
  <path fill="#141414" fill-rule="evenodd" d="M3.75 6A.25.25 0 0 1 4 5.75h6.086a.25.25 0 0 1 .177.073l1.914 1.914a1.75 1.75 0 0 0 1.237.513H17.5a.25.25 0 0 1 .25.25v1.75H6.47a1.75 1.75 0 0 0-1.66 1.197l-1.06 3.181V6Zm.387 13.25H17.53a.25.25 0 0 0 .236-.17l2.334-7a.25.25 0 0 0-.238-.33H6.472a.25.25 0 0 0-.238.17l-2.333 7a.25.25 0 0 0 .237.33Zm0 1.5H4A1.75 1.75 0 0 1 2.25 19V6c0-.966.784-1.75 1.75-1.75h6.086c.464 0 .909.184 1.237.513l1.914 1.914a.25.25 0 0 0 .177.073H17.5c.966 0 1.75.784 1.75 1.75v1.75h.613a1.75 1.75 0 0 1 1.66 2.303l-2.334 7a1.75 1.75 0 0 1-1.66 1.197H4.137Z" clip-rule="evenodd"/>
</svg>
