<svg xmlns="http://www.w3.org/2000/svg" width="32" height="32" fill="none" viewBox="0 0 32 32">
  <path fill="#141414" fill-rule="evenodd" d="M5 8c0-.184.15-.333.333-.333h8.115c.088 0 .173.035.235.097l2.553 2.552a2.333 2.333 0 0 0 1.65.684h5.447c.184 0 .334.15.334.333v2.333H8.627a2.333 2.333 0 0 0-2.213 1.596L5 19.502V8Zm7 17.666h11.372c.143 0 .27-.091.316-.227l3.111-9.334a.333.333 0 0 0-.316-.439H8.627a.333.333 0 0 0-.316.228L5.2 25.228a.333.333 0 0 0 .314.438H12Zm-6.488 2h-.179A2.333 2.333 0 0 1 3 25.334V8a2.333 2.333 0 0 1 2.333-2.333h8.115c.619 0 1.212.245 1.65.683l2.552 2.552a.333.333 0 0 0 .236.098h5.447a2.333 2.333 0 0 1 2.334 2.333v2.333h.816a2.333 2.333 0 0 1 2.214 3.072l-3.111 9.333a2.333 2.333 0 0 1-2.214 1.595H5.512Z" clip-rule="evenodd"/>
</svg>
