<svg width="12" height="12" viewBox="0 0 12 12" fill="none" xmlns="http://www.w3.org/2000/svg">
<path fill-rule="evenodd" clip-rule="evenodd" d="M8.54458 1.32154C8.14413 0.892819 7.49488 0.892819 7.09443 1.32154L3.43581 5.35397C3.24351 5.55985 3.13548 5.83908 3.13548 6.13024V7.90219C3.13548 8.50849 3.59457 9 4.16089 9H5.81597C6.08792 9 6.34874 8.88434 6.54105 8.67846L10.1997 4.64603C10.6001 4.21731 10.6001 3.52221 10.1997 3.09349L8.54458 1.32154ZM8.31945 5.22588L6.55282 3.33451L4.10511 6.07053C4.09032 6.08636 4.08201 6.10784 4.08201 6.13024V7.90219C4.08201 7.94882 4.11733 7.98663 4.16089 7.98663H5.81597C5.83689 7.98663 5.85695 7.97774 5.87174 7.9619L8.31945 5.22588ZM8.98875 4.50932L7.22212 2.61795L7.76373 2.0381C7.79453 2.00512 7.84448 2.00512 7.87528 2.0381L9.53036 3.81005C9.56117 3.84302 9.56117 3.89649 9.53036 3.92947L8.98875 4.50932Z" fill="#141414"/>
<path d="M1.97327 10C1.71189 10 1.5 10.2268 1.5 10.5067C1.5 10.7865 1.71189 11.0134 1.97327 11.0134H9.70329C9.96467 11.0134 10.1766 10.7865 10.1766 10.5067C10.1766 10.2268 9.96467 10 9.70329 10H1.97327Z" fill="#141414"/>
</svg>
