<svg width="32" height="32" viewBox="0 0 32 32" fill="none" xmlns="http://www.w3.org/2000/svg">
<path fill-rule="evenodd" clip-rule="evenodd" d="M22.4341 2.90217C21.5228 1.99094 20.0455 1.99094 19.1342 2.90217L6.34992 15.6865C5.91234 16.1241 5.6665 16.7176 5.6665 17.3364V21.3331C5.6665 22.6218 6.71117 23.6665 7.99984 23.6665H11.9966C12.6154 23.6665 13.2089 23.4206 13.6465 22.983L26.4308 10.1987C27.342 9.28751 27.342 7.81013 26.4308 6.8989L22.4341 2.90217ZM22.1935 11.6076L17.7253 7.1395L7.76413 17.1007C7.70162 17.1632 7.6665 17.248 7.6665 17.3364V21.3331C7.6665 21.5172 7.81574 21.6665 7.99984 21.6665H11.9966C12.085 21.6665 12.1698 21.6313 12.2323 21.5688L22.1935 11.6076ZM23.6077 10.1934L19.1395 5.72529L20.5484 4.31638C20.6786 4.18621 20.8897 4.18621 21.0199 4.31638L25.0166 8.31312C25.1468 8.44329 25.1468 8.65434 25.0166 8.78452L23.6077 10.1934Z" fill="#141414"/>
<path d="M6.6665 26.9998C6.11422 26.9998 5.6665 27.4475 5.6665 27.9998C5.6665 28.5521 6.11422 28.9998 6.6665 28.9998H25.3332C25.8855 28.9998 26.3332 28.5521 26.3332 27.9998C26.3332 27.4475 25.8855 26.9998 25.3332 26.9998H6.6665Z" fill="#141414"/>
</svg>
