<svg width="24" height="24" viewBox="0 0 24 24" fill="none" xmlns="http://www.w3.org/2000/svg">
<path fill-rule="evenodd" clip-rule="evenodd" d="M16.8257 2.17663C16.1423 1.49321 15.0342 1.49321 14.3508 2.17663L4.76256 11.7649C4.43437 12.0931 4.25 12.5382 4.25 13.0023V15.9998C4.25 16.9663 5.0335 17.7498 6 17.7498H8.99755C9.46168 17.7498 9.9068 17.5655 10.235 17.2373L19.8232 7.64905C20.5066 6.96563 20.5066 5.8576 19.8232 5.17418L16.8257 2.17663ZM16.6452 8.70573L13.2941 5.35463L5.82322 12.8255C5.77634 12.8724 5.75 12.936 5.75 13.0023V15.9998C5.75 16.1379 5.86193 16.2498 6 16.2498H8.99755C9.06386 16.2498 9.12744 16.2235 9.17433 16.1766L16.6452 8.70573ZM17.7059 7.64507L14.3548 4.29397L15.4115 3.23729C15.5091 3.13965 15.6674 3.13965 15.765 3.23729L18.7626 6.23484C18.8602 6.33247 18.8602 6.49076 18.7626 6.58839L17.7059 7.64507Z" fill="#141414"/>
<path d="M5 20.2498C4.58579 20.2498 4.25 20.5856 4.25 20.9998C4.25 21.4141 4.58579 21.7498 5 21.7498H19C19.4142 21.7498 19.75 21.4141 19.75 20.9998C19.75 20.5856 19.4142 20.2498 19 20.2498H5Z" fill="#141414"/>
</svg>
