<svg width="16" height="16" viewBox="0 0 16 16" fill="none" xmlns="http://www.w3.org/2000/svg">
<path fill-rule="evenodd" clip-rule="evenodd" d="M11.2168 1.45108C10.7612 0.995472 10.0225 0.995472 9.56687 1.45108L3.17472 7.84324C2.95592 8.06203 2.83301 8.35878 2.83301 8.6682V10.6666C2.83301 11.3109 3.35534 11.8332 3.99967 11.8332H5.99804C6.30746 11.8332 6.60421 11.7103 6.823 11.4915L13.2152 5.09937C13.6708 4.64376 13.6708 3.90506 13.2152 3.44945L11.2168 1.45108ZM11.0965 5.80382L8.86242 3.56975L3.88182 8.55035C3.85057 8.5816 3.83301 8.624 3.83301 8.6682V10.6666C3.83301 10.7586 3.90763 10.8332 3.99967 10.8332H5.99804C6.04224 10.8332 6.08464 10.8157 6.11589 10.7844L11.0965 5.80382ZM11.8036 5.09671L9.56953 2.86264L10.274 2.15819C10.3391 2.0931 10.4446 2.0931 10.5097 2.15819L12.5081 4.15656C12.5731 4.22165 12.5731 4.32717 12.508 4.39226L11.8036 5.09671Z" fill="#141414"/>
<path d="M3.33301 13.4999C3.05687 13.4999 2.83301 13.7238 2.83301 13.9999C2.83301 14.276 3.05687 14.4999 3.33301 14.4999H12.6663C12.9425 14.4999 13.1663 14.276 13.1663 13.9999C13.1663 13.7238 12.9425 13.4999 12.6663 13.4999H3.33301Z" fill="#141414"/>
</svg>
