<svg xmlns="http://www.w3.org/2000/svg" width="24" height="24" fill="none" viewBox="0 0 24 24">
  <path fill="#141414" fill-rule="evenodd" d="m14.829 14.122 3.182-3.182a3.5 3.5 0 0 0-4.95-4.95L9.879 9.172l4.95 4.95Zm-6.01-6.01-1.061 1.06L4.929 12A5 5 0 1 0 12 19.071l2.829-2.828 1.06-1.06L19.072 12a5 5 0 1 0-7.07-7.07L8.817 8.11Zm2.12 9.899 2.83-2.829-4.95-4.95-2.829 2.829a3.5 3.5 0 0 0 4.95 4.95Zm6.47-8.238a.75.75 0 0 0-1.06-1.06l-2.122 2.12a.75.75 0 1 0 1.06 1.061l2.122-2.12Z" clip-rule="evenodd"/>
</svg>
