<svg xmlns="http://www.w3.org/2000/svg" width="32" height="32" fill="none" viewBox="0 0 32 32">
  <path fill="#141414" fill-rule="evenodd" d="m19.772 18.829 4.242-4.243a4.667 4.667 0 1 0-6.6-6.6l-4.242 4.243 6.6 6.6Zm-8.014-8.014-1.414 1.414L6.572 16A6.667 6.667 0 0 0 16 25.428l3.772-3.77 1.414-1.415L25.428 16A6.667 6.667 0 1 0 16 6.572l-4.242 4.243Zm2.828 13.2 3.771-3.772-6.6-6.6-3.77 3.772a4.667 4.667 0 1 0 6.6 6.6Zm8.626-10.984a1 1 0 0 0-1.414-1.415l-2.828 2.829a1 1 0 0 0 1.414 1.414l2.828-2.828Z" clip-rule="evenodd"/>
</svg>
