<svg xmlns="http://www.w3.org/2000/svg" width="32" height="32" fill="none" viewBox="0 0 32 32">
  <path fill="#141414" fill-rule="evenodd" d="M16 2.667a3.193 3.193 0 0 0-3.193 3.192c0 .017-.002.073-.083.173a1.087 1.087 0 0 1-.446.307c-.161.062-.32.128-.478.198-.2.089-.393.113-.532.098-.127-.013-.168-.051-.18-.063a3.193 3.193 0 1 0-4.516 4.515c.012.012.05.054.064.18.014.14-.01.333-.099.533-.07.157-.136.316-.198.478a1.087 1.087 0 0 1-.308.446c-.099.08-.155.083-.172.083a3.193 3.193 0 1 0 0 6.386c.017 0 .073.002.173.082.108.088.228.243.307.447.062.161.128.321.198.479.089.199.113.392.099.531-.014.127-.052.168-.064.18l1.414 1.414-1.414-1.414a3.193 3.193 0 0 0 4.516 4.516c.012-.012.053-.05.18-.064.139-.014.332.01.531.098.158.07.317.137.479.199.204.078.358.199.446.307.08.1.083.155.083.172a3.193 3.193 0 1 0 6.386 0c0-.017.002-.073.082-.172.088-.108.243-.229.447-.307.161-.062.32-.129.478-.199.2-.088.393-.112.532-.098.127.014.168.052.18.064a3.193 3.193 0 1 0 4.516-4.516c-.012-.012-.05-.054-.064-.18a1.09 1.09 0 0 1 .099-.533c.07-.157.136-.316.198-.477.078-.204.199-.359.307-.447.1-.08.155-.082.172-.082a3.193 3.193 0 1 0 0-6.386c-.017 0-.073-.002-.172-.083a1.086 1.086 0 0 1-.307-.446c-.062-.161-.128-.32-.198-.478a1.085 1.085 0 0 1-.099-.532c.014-.127.052-.168.064-.18a3.193 3.193 0 1 0-4.515-4.516l1.414 1.414-1.414-1.414c-.013.012-.054.05-.181.063a1.084 1.084 0 0 1-.532-.098c-.158-.07-.317-.136-.478-.198a1.087 1.087 0 0 1-.447-.308c-.08-.099-.082-.155-.082-.172A3.193 3.193 0 0 0 16 2.667Zm6.327 5.319a1.193 1.193 0 1 1 1.687 1.687c-.76.76-.816 1.956-.379 2.94.056.126.11.254.16.384.386 1.004 1.27 1.81 2.345 1.81a1.193 1.193 0 1 1 0 2.386c-1.075 0-1.959.806-2.345 1.81-.05.13-.104.258-.16.384-.437.983-.382 2.179.379 2.94a1.193 1.193 0 1 1-1.687 1.686c-.76-.76-1.956-.815-2.94-.378-.126.056-.254.11-.384.16-1.004.386-1.81 1.27-1.81 2.345a1.193 1.193 0 1 1-2.386 0c0-1.075-.806-1.959-1.81-2.345a8.193 8.193 0 0 1-.385-.16c-.983-.437-2.178-.382-2.939.378a1.193 1.193 0 1 1-1.687-1.687c.76-.76.816-1.955.379-2.938a8.315 8.315 0 0 1-.16-.386c-.387-1.003-1.27-1.81-2.346-1.81a1.193 1.193 0 1 1 0-2.385c1.076 0 1.96-.806 2.346-1.81.05-.13.104-.258.16-.385.437-.983.382-2.178-.379-2.94a1.193 1.193 0 1 1 1.687-1.686c.761.76 1.956.815 2.94.379.126-.057.254-.11.384-.16 1.004-.387 1.81-1.27 1.81-2.346a1.193 1.193 0 1 1 2.386 0c0 1.076.806 1.96 1.81 2.346.13.05.258.103.384.16.984.437 2.18.382 2.94-.38ZM11.667 16a4.333 4.333 0 1 1 8.666 0 4.333 4.333 0 0 1-8.666 0ZM16 9.666a6.333 6.333 0 1 0 0 12.667 6.333 6.333 0 0 0 0-12.667Z" clip-rule="evenodd"/>
</svg>
