<svg xmlns="http://www.w3.org/2000/svg" width="16" height="16" fill="none" viewBox="0 0 16 16">
  <path fill="#141414" fill-rule="evenodd" d="M6.368 2.632a1.632 1.632 0 1 1 3.264 0v.197c.302.095.594.217.87.361l.14-.14.708.707-.702.702a4.398 4.398 0 0 0-2.016-.835v-.992a.632.632 0 0 0-1.264 0v.992a4.398 4.398 0 0 0-2.016.835l-.701-.702a.632.632 0 1 0-.894.893l.702.702a4.398 4.398 0 0 0-.835 2.016h-.992a.632.632 0 0 0 0 1.264h.992c.107.749.402 1.437.835 2.016l-.701.701a.632.632 0 0 0 .893.893l.701-.701a4.4 4.4 0 0 0 2.016.835v.992a.632.632 0 0 0 1.264 0v-.992a4.4 4.4 0 0 0 2.016-.835l.702.701a.631.631 0 1 0 .893-.893l-.702-.701a4.4 4.4 0 0 0 .835-2.016h.992a.632.632 0 0 0 0-1.264h-.992a4.4 4.4 0 0 0-.835-2.016l.702-.702a.632.632 0 0 0-.893-.893l-.707-.707a1.632 1.632 0 0 1 2.307 2.308l-.14.14c.144.277.265.568.36.87h.198a1.632 1.632 0 1 1 0 3.264h-.197a5.396 5.396 0 0 1-.361.87l.14.14a1.632 1.632 0 0 1-2.307 2.308l-.14-.14a5.386 5.386 0 0 1-.871.36v.198a1.632 1.632 0 1 1-3.264 0v-.197a5.388 5.388 0 0 1-.87-.361l-.14.14a1.632 1.632 0 1 1-2.308-2.308l.14-.14a5.396 5.396 0 0 1-.36-.87h-.198a1.632 1.632 0 1 1 0-3.264h.197c.096-.302.217-.594.361-.87l-.14-.14A1.632 1.632 0 0 1 5.358 3.05l.14.14a5.31 5.31 0 0 1 .87-.36v-.198Z" clip-rule="evenodd"/>
  <path fill="#141414" fill-rule="evenodd" d="M8 6.5a1.5 1.5 0 1 0 0 3 1.5 1.5 0 0 0 0-3ZM5.5 8a2.5 2.5 0 1 1 5 0 2.5 2.5 0 0 1-5 0Z" clip-rule="evenodd"/>
</svg>
