<svg xmlns="http://www.w3.org/2000/svg" width="24" height="24" fill="none" viewBox="0 0 24 24">
  <path fill="#141414" fill-rule="evenodd" d="M12 2a2.395 2.395 0 0 0-2.395 2.395c0 .012-.001.054-.062.129a.815.815 0 0 1-.334.23 7.72 7.72 0 0 0-.359.149.813.813 0 0 1-.399.074c-.095-.01-.126-.039-.135-.048a2.395 2.395 0 0 0-3.387 3.386c.01.01.038.04.048.136a.812.812 0 0 1-.074.399 7.728 7.728 0 0 0-.149.359.815.815 0 0 1-.23.334c-.075.06-.117.062-.13.062a2.395 2.395 0 1 0 0 4.79c.013 0 .055.001.13.062a.815.815 0 0 1 .23.334c.047.122.097.241.15.36a.81.81 0 0 1 .073.398c-.01.095-.039.126-.048.135l1.06 1.06-1.06-1.06a2.395 2.395 0 0 0 3.387 3.387c.01-.01.04-.038.135-.048.104-.01.25.008.399.074.118.052.237.102.359.149a.816.816 0 0 1 .334.23c.06.075.062.117.062.13a2.395 2.395 0 0 0 4.79 0c0-.013.001-.055.062-.13a.815.815 0 0 1 .334-.23 7.79 7.79 0 0 0 .36-.149.813.813 0 0 1 .398-.074c.095.01.126.039.136.048a2.395 2.395 0 1 0 3.386-3.387c-.009-.009-.038-.04-.048-.135a.813.813 0 0 1 .074-.4c.053-.117.102-.237.149-.357a.815.815 0 0 1 .23-.335c.075-.06.117-.062.13-.062a2.395 2.395 0 0 0 0-4.79c-.013 0-.055-.001-.13-.062a.815.815 0 0 1-.23-.334 7.786 7.786 0 0 0-.149-.358.814.814 0 0 1-.074-.4c.01-.095.04-.126.048-.136a2.395 2.395 0 1 0-3.386-3.386c-.01.009-.04.038-.136.048a.813.813 0 0 1-.4-.074 7.692 7.692 0 0 0-.357-.149.815.815 0 0 1-.335-.23c-.06-.075-.062-.117-.062-.13A2.395 2.395 0 0 0 12 2ZM5.99 16.745c.57-.57.611-1.467.284-2.204a6.188 6.188 0 0 1-.12-.289c-.29-.753-.953-1.357-1.76-1.357a.895.895 0 1 1 0-1.79c.807 0 1.47-.604 1.76-1.357a6.22 6.22 0 0 1 .12-.29c.327-.736.286-1.633-.284-2.203a.895.895 0 1 1 1.265-1.266c.57.571 1.467.612 2.204.285.095-.043.192-.083.289-.12.753-.29 1.357-.953 1.357-1.76a.895.895 0 1 1 1.79 0c0 .807.604 1.47 1.357 1.76.097.037.194.077.289.12.737.327 1.634.286 2.204-.285a.895.895 0 1 1 1.266 1.266c-.571.57-.612 1.467-.284 2.205.042.094.082.19.12.288.29.753.952 1.357 1.758 1.357a.895.895 0 1 1 0 1.79c-.806 0-1.469.604-1.759 1.357a6.297 6.297 0 0 1-.12.289c-.327.737-.286 1.633.285 2.204a.895.895 0 0 1-1.266 1.265c-.57-.57-1.467-.611-2.204-.284a6.253 6.253 0 0 1-.289.12c-.753.29-1.357.953-1.357 1.76a.895.895 0 1 1-1.79 0c0-.807-.604-1.47-1.357-1.76a6.192 6.192 0 0 1-.289-.12c-.737-.327-1.633-.286-2.204.284a.895.895 0 1 1-1.265-1.265ZM8.75 12a3.25 3.25 0 1 1 6.5 0 3.25 3.25 0 0 1-6.5 0ZM12 7.25a4.75 4.75 0 1 0 0 9.5 4.75 4.75 0 0 0 0-9.5Z" clip-rule="evenodd"/>
</svg>
