<svg xmlns="http://www.w3.org/2000/svg" width="32" height="32" fill="none" viewBox="0 0 32 32">
  <path fill="#141414" fill-rule="evenodd" d="M9.333 4.667h13.333c.369 0 .667.298.667.666v21.334a.667.667 0 0 1-.666.666H9.332a.667.667 0 0 1-.667-.666V5.332c0-.368.299-.667.667-.667Zm-2.667.666a2.667 2.667 0 0 1 2.667-2.667h13.333a2.667 2.667 0 0 1 2.667 2.667v21.334a2.667 2.667 0 0 1-2.666 2.666H9.332a2.667 2.667 0 0 1-2.667-2.666V5.332Zm5.365 7.365c-.93.93-.93 2.44 0 3.37l2.989 2.989c.52.52 1.365.52 1.886 0l2.989-2.989a2.383 2.383 0 0 0-3.37-3.37l-.562.562-.562-.562c-.93-.93-2.44-.93-3.37 0Z" clip-rule="evenodd"/>
</svg>
