<svg xmlns="http://www.w3.org/2000/svg" width="24" height="24" fill="none" viewBox="0 0 24 24">
  <path fill="#141414" fill-rule="evenodd" d="M9 2.25A2.75 2.75 0 0 0 6.25 5v1.25H5A2.75 2.75 0 0 0 2.25 9v10A2.75 2.75 0 0 0 5 21.75h10A2.75 2.75 0 0 0 17.75 19v-1.25H19A2.75 2.75 0 0 0 21.75 15V5A2.75 2.75 0 0 0 19 2.25H9Zm7.25 15.5H9A2.75 2.75 0 0 1 6.25 15V7.75H5c-.69 0-1.25.56-1.25 1.25v10c0 .69.56 1.25 1.25 1.25h10c.69 0 1.25-.56 1.25-1.25v-1.25ZM7.75 5c0-.69.56-1.25 1.25-1.25h10c.69 0 1.25.56 1.25 1.25v10c0 .69-.56 1.25-1.25 1.25H9c-.69 0-1.25-.56-1.25-1.25V5Z" clip-rule="evenodd"/>
</svg>
