<svg xmlns="http://www.w3.org/2000/svg" width="16" height="16" fill="none" viewBox="0 0 16 16">
  <path fill="#141414" fill-rule="evenodd" d="M13 2H7a1 1 0 0 0-1 1v6a1 1 0 0 0 1 1h6a1 1 0 0 0 1-1V3a1 1 0 0 0-1-1ZM7 1a2 2 0 0 0-2 2v6a2 2 0 0 0 2 2h6a2 2 0 0 0 2-2V3a2 2 0 0 0-2-2H7Z" clip-rule="evenodd"/>
  <path fill="#141414" fill-rule="evenodd" d="M1 7.5A2.5 2.5 0 0 1 3.5 5h2a.5.5 0 0 1 0 1h-2A1.5 1.5 0 0 0 2 7.5v5A1.5 1.5 0 0 0 3.5 14h5a1.5 1.5 0 0 0 1.5-1.5v-2a.5.5 0 0 1 1 0v2A2.5 2.5 0 0 1 8.5 15h-5A2.5 2.5 0 0 1 1 12.5v-5Z" clip-rule="evenodd"/>
</svg>
