<svg xmlns="http://www.w3.org/2000/svg" width="32" height="32" fill="none" viewBox="0 0 32 32">
  <path fill="#141414" fill-rule="evenodd" d="M12 3a3.667 3.667 0 0 0-3.667 3.667v1.666H6.667A3.667 3.667 0 0 0 3 12v13.333A3.667 3.667 0 0 0 6.667 29H20a3.667 3.667 0 0 0 3.667-3.667v-1.666h1.666A3.667 3.667 0 0 0 29 20V6.667A3.667 3.667 0 0 0 25.333 3H12Zm9.667 20.667H12A3.667 3.667 0 0 1 8.333 20v-9.667H6.667C5.747 10.333 5 11.08 5 12v13.333C5 26.253 5.746 27 6.667 27H20c.92 0 1.667-.746 1.667-1.667v-1.666Zm-11.334-17C10.333 5.747 11.08 5 12 5h13.333C26.253 5 27 5.746 27 6.667V20c0 .92-.746 1.667-1.667 1.667H12c-.92 0-1.667-.747-1.667-1.667V6.667Z" clip-rule="evenodd"/>
</svg>
