<svg xmlns="http://www.w3.org/2000/svg" width="16" height="16" fill="none" viewBox="0 0 16 16">
  <path fill="#141414" fill-rule="evenodd" d="M6.5 3a.5.5 0 0 0-.5.5V4a.5.5 0 0 1-.5.5h-3A.5.5 0 0 0 2 5v7.5a.5.5 0 0 0 .5.5h11a.5.5 0 0 0 .5-.5V5a.5.5 0 0 0-.5-.5h-3A.5.5 0 0 1 10 4v-.5a.5.5 0 0 0-.5-.5h-3ZM5 3.5A1.5 1.5 0 0 1 6.5 2h3A1.5 1.5 0 0 1 11 3.5h2.5A1.5 1.5 0 0 1 15 5v7.5a1.5 1.5 0 0 1-1.5 1.5h-11A1.5 1.5 0 0 1 1 12.5V5a1.5 1.5 0 0 1 1.5-1.5H5Z" clip-rule="evenodd"/>
  <path fill="#141414" fill-rule="evenodd" d="M8 10.5a2 2 0 1 0 0-4 2 2 0 0 0 0 4Zm0 1a3 3 0 1 0 0-6 3 3 0 0 0 0 6Z" clip-rule="evenodd"/>
</svg>
