<svg xmlns="http://www.w3.org/2000/svg" width="24" height="24" fill="none" viewBox="0 0 24 24">
  <path fill="#141414" fill-rule="evenodd" d="M6.444 7.786a1.5 1.5 0 0 0 1.5-1.5V6a.5.5 0 0 1 .5-.5h7.112a.5.5 0 0 1 .5.5v.286a1.5 1.5 0 0 0 1.5 1.5H20a.5.5 0 0 1 .5.5V18a.5.5 0 0 1-.5.5H4a.5.5 0 0 1-.5-.5V8.286a.5.5 0 0 1 .5-.5h2.444ZM2 8.286a2 2 0 0 1 2-2h2.444V6a2 2 0 0 1 2-2h7.112a2 2 0 0 1 2 2v.286H20a2 2 0 0 1 2 2V18a2 2 0 0 1-2 2H4a2 2 0 0 1-2-2V8.286ZM9.75 12a2.25 2.25 0 1 1 4.5 0 2.25 2.25 0 0 1-4.5 0ZM12 8.25a3.75 3.75 0 1 0 0 7.5 3.75 3.75 0 0 0 0-7.5Z" clip-rule="evenodd"/>
</svg>
