<svg xmlns="http://www.w3.org/2000/svg" width="32" height="32" fill="none" viewBox="0 0 32 32">
  <path fill="#141414" fill-rule="evenodd" d="M14.46 4.43c.57-1.37 2.51-1.37 3.079 0l2.853 6.859 7.405.593c1.477.119 2.077 1.963.95 2.928l-5.641 4.832 1.724 7.227c.344 1.442-1.225 2.581-2.49 1.809L16 24.805l-6.34 3.873c-1.265.772-2.834-.367-2.49-1.81l1.724-7.226-5.642-4.832c-1.126-.965-.527-2.81.95-2.928l7.406-.593 2.853-6.86ZM16 5.936l-2.624 6.308c-.24.577-.782.971-1.405 1.021l-6.81.546 5.189 4.444c.474.407.681 1.044.536 1.652l-1.585 6.645 5.83-3.56a1.667 1.667 0 0 1 1.738 0l5.83 3.56-1.586-6.645a1.667 1.667 0 0 1 .537-1.652l5.188-4.444-6.81-.546a1.667 1.667 0 0 1-1.405-1.021L16 5.937Z" clip-rule="evenodd"/>
</svg>
