<svg xmlns="http://www.w3.org/2000/svg" width="24" height="24" fill="none" viewBox="0 0 24 24">
  <path fill="#141414" fill-rule="evenodd" d="M10.846 3.322c.427-1.027 1.881-1.027 2.308 0l2.14 5.144 5.554.445c1.108.09 1.558 1.472.713 2.196l-4.231 3.625 1.292 5.42c.258 1.08-.918 1.935-1.867 1.356L12 18.604l-4.755 2.904c-.949.58-2.125-.275-1.867-1.357l1.293-5.42-4.232-3.624c-.844-.724-.395-2.107.713-2.196l5.554-.445 2.14-5.144ZM12 4.452l-1.967 4.731a1.25 1.25 0 0 1-1.055.766l-5.107.41 3.891 3.333c.356.305.512.783.403 1.239l-1.189 4.984 4.372-2.671a1.25 1.25 0 0 1 1.304 0l4.372 2.67-1.189-4.983a1.25 1.25 0 0 1 .403-1.24l3.89-3.332-5.106-.41a1.25 1.25 0 0 1-1.054-.766L12 4.453Z" clip-rule="evenodd"/>
</svg>
