<svg xmlns="http://www.w3.org/2000/svg" width="16" height="16" fill="none" viewBox="0 0 16 16">
  <path fill="#141414" fill-rule="evenodd" d="M7.23 2.113a.833.833 0 0 1 1.54 0l1.426 3.43 3.702.297a.833.833 0 0 1 .476 1.463L11.553 9.72l.862 3.613a.833.833 0 0 1-1.245.905L8 12.3l-3.17 1.937a.833.833 0 0 1-1.245-.905l.862-3.613-2.821-2.417A.833.833 0 0 1 2.1 5.84l3.703-.297 1.426-3.43Zm.77.754L6.688 6.021a.833.833 0 0 1-.703.51l-3.404.274 2.594 2.222a.833.833 0 0 1 .268.826l-.792 3.322 2.915-1.78a.833.833 0 0 1 .868 0l2.915 1.78-.792-3.322a.833.833 0 0 1 .268-.826l2.594-2.222-3.405-.273a.833.833 0 0 1-.702-.51L8 2.866Z" clip-rule="evenodd"/>
</svg>
