<svg xmlns="http://www.w3.org/2000/svg" width="32" height="32" fill="none" viewBox="0 0 32 32">
  <path fill="#141414" fill-rule="evenodd" d="M10.667 12 6.04 7.374A1 1 0 0 1 7.455 5.96L26.04 24.545a1 1 0 0 1-1.415 1.414l-3.34-3.34A8.95 8.95 0 0 1 17 24.279v2.054a1 1 0 1 1-2 0v-2.055a9 9 0 0 1-8-8.945v-2.667a1 1 0 1 1 2 0v2.667a7 7 0 0 0 10.848 5.848l-1.211-1.21a5.333 5.333 0 0 1-7.97-4.637V12Zm6.468 6.468a3.333 3.333 0 0 1-4.468-3.135V14l4.468 4.468ZM19.333 10v5.014l1.794 1.794c.134-.469.206-.963.206-1.475V10a5.333 5.333 0 0 0-9.85-2.837l1.474 1.475A3.334 3.334 0 0 1 19.333 10Zm3.095 8.109 1.496 1.496A8.96 8.96 0 0 0 25 15.333v-2.667a1 1 0 1 0-2 0v2.667c0 .986-.204 1.925-.572 2.776Z" clip-rule="evenodd"/>
</svg>
