<svg xmlns="http://www.w3.org/2000/svg" width="16" height="16" fill="none" viewBox="0 0 16 16">
  <path fill="#141414" fill-rule="evenodd" d="M5.333 6 3.02 3.687a.5.5 0 1 1 .708-.707l9.292 9.293a.5.5 0 0 1-.707.707l-1.67-1.67a4.475 4.475 0 0 1-2.143.83v1.027a.5.5 0 0 1-1 0v-1.028a4.5 4.5 0 0 1-4-4.472V6.333a.5.5 0 0 1 1 0v1.334a3.5 3.5 0 0 0 5.424 2.924l-.605-.606a2.667 2.667 0 0 1-3.985-2.318V6Zm3.235 3.234a1.667 1.667 0 0 1-2.234-1.568V7l2.234 2.234ZM9.667 5v2.507l.897.897c.067-.234.103-.482.103-.737V5a2.667 2.667 0 0 0-4.925-1.418l.737.737A1.667 1.667 0 0 1 9.667 5Zm1.547 4.054.748.748a4.48 4.48 0 0 0 .538-2.135V6.333a.5.5 0 1 0-1 0v1.334c0 .493-.102.962-.286 1.387Z" clip-rule="evenodd"/>
</svg>
