<svg xmlns="http://www.w3.org/2000/svg" width="24" height="24" fill="none" viewBox="0 0 24 24">
  <path fill="#141414" fill-rule="evenodd" d="M8 9 4.53 5.53a.75.75 0 1 1 1.06-1.06l13.94 13.94a.75.75 0 0 1-1.06 1.06l-2.506-2.506a6.712 6.712 0 0 1-3.214 1.245v1.541a.75.75 0 0 1-1.5 0v-1.541a6.751 6.751 0 0 1-6-6.709v-2a.75.75 0 1 1 1.5 0v2a5.25 5.25 0 0 0 8.136 4.386l-.909-.908A4 4 0 0 1 8 11.5V9Zm4.851 4.851A2.5 2.5 0 0 1 9.5 11.5v-1l3.351 3.351ZM14.5 7.5v3.76l1.345 1.346c.1-.351.155-.722.155-1.106v-4a4 4 0 0 0-7.388-2.127l1.105 1.105A2.5 2.5 0 0 1 14.5 7.5Zm2.321 6.082 1.122 1.121a6.72 6.72 0 0 0 .807-3.203v-2a.75.75 0 0 0-1.5 0v2c0 .74-.153 1.443-.429 2.082Z" clip-rule="evenodd"/>
</svg>
