<svg preserveAspectRatio="none" width="100%" height="100%" overflow="visible" style="display: block;" viewBox="0 0 48 48" fill="none" xmlns="http://www.w3.org/2000/svg">
<g id="Icon">
<rect width="48" height="48" rx="12" fill="var(--fill-0, white)" fill-opacity="0.05"/>
<path id="Intersect" d="M23.9502 16C25.0137 17.008 25.6787 18.4327 25.6787 20.0137C25.6786 21.5947 25.0139 23.0194 23.9502 24.0273C22.8866 23.0194 22.2218 21.5947 22.2217 20.0137C22.2217 18.4327 22.8867 17.008 23.9502 16Z" fill="var(--fill-0, white)"/>
<path id="Intersect_2" d="M23.9502 24.1621C25.0138 25.1701 25.6787 26.5947 25.6787 28.1758C25.6787 29.7568 25.0138 31.1814 23.9502 32.1895C22.8866 31.1814 22.2217 29.7568 22.2217 28.1758C22.2217 26.5947 22.8866 25.1701 23.9502 24.1621Z" fill="var(--fill-0, white)"/>
<path id="Intersect_3" d="M24.0293 23.8154C23.0212 24.8797 21.5953 25.5439 20.0137 25.5439C18.4325 25.5439 17.008 24.8792 16 23.8154C17.0079 22.7519 18.4328 22.088 20.0137 22.0879C21.595 22.0879 23.0213 22.7515 24.0293 23.8154Z" fill="var(--fill-0, white)"/>
<path id="Intersect_4" d="M24.2969 23.8154C25.3049 22.7515 26.7302 22.0869 28.3115 22.0869C29.8927 22.087 31.3172 22.7516 32.3252 23.8154C31.3173 24.8789 29.8924 25.5429 28.3115 25.543C26.7304 25.543 25.3049 24.8791 24.2969 23.8154Z" fill="var(--fill-0, white)"/>
</g>
</svg>
