<svg preserveAspectRatio="none" width="100%" height="100%" overflow="visible" style="display: block;" viewBox="0 0 48 48" fill="none" xmlns="http://www.w3.org/2000/svg">
<g id="Icon">
<rect width="48" height="48" rx="12" fill="var(--fill-0, white)" fill-opacity="0.05"/>
<path id="Ellipse 18" d="M32 26C32 28.1217 31.1571 30.1566 29.6569 31.6569C28.1566 33.1571 26.1217 34 24 34C21.8783 34 19.8434 33.1571 18.3431 31.6569C16.8429 30.1566 16 28.1217 16 26L24 26H32Z" fill="var(--fill-0, white)"/>
<path id="Ellipse 19" d="M30.9282 14C31.9891 15.8375 32.2766 18.0211 31.7274 20.0706C31.1783 22.12 29.8375 23.8673 28 24.9282C26.1625 25.9891 23.9789 26.2766 21.9294 25.7274C19.88 25.1783 18.1327 23.8375 17.0718 22L24 18L30.9282 14Z" fill="var(--fill-0, white)"/>
</g>
</svg>
