<svg width="32" height="32" viewBox="0 0 32 32" fill="none" xmlns="http://www.w3.org/2000/svg">
<path d="M3 9.3335C3 8.78121 3.44772 8.3335 4 8.3335H28C28.5523 8.3335 29 8.78121 29 9.3335C29 9.88578 28.5523 10.3335 28 10.3335H4C3.44772 10.3335 3 9.88578 3 9.3335Z" fill="#141414"/>
<path d="M3 16.0002C3 15.4479 3.44772 15.0002 4 15.0002H28C28.5523 15.0002 29 15.4479 29 16.0002C29 16.5525 28.5523 17.0002 28 17.0002H4C3.44772 17.0002 3 16.5525 3 16.0002Z" fill="#141414"/>
<path d="M4 21.6669C3.44772 21.6669 3 22.1146 3 22.6669C3 23.2191 3.44772 23.6669 4 23.6669H28C28.5523 23.6669 29 23.2191 29 22.6669C29 22.1146 28.5523 21.6669 28 21.6669H4Z" fill="#141414"/>
</svg>
