<svg width="12" height="12" viewBox="0 0 12 12" fill="none" xmlns="http://www.w3.org/2000/svg">
<path d="M1 3C1 2.72386 1.22386 2.5 1.5 2.5H10.5C10.7761 2.5 11 2.72386 11 3C11 3.27614 10.7761 3.5 10.5 3.5H1.5C1.22386 3.5 1 3.27614 1 3Z" fill="#141414"/>
<path d="M1 6C1 5.72386 1.22386 5.5 1.5 5.5H10.5C10.7761 5.5 11 5.72386 11 6C11 6.27614 10.7761 6.5 10.5 6.5H1.5C1.22386 6.5 1 6.27614 1 6Z" fill="#141414"/>
<path d="M1 9C1 8.72386 1.22386 8.5 1.5 8.5H10.5C10.7761 8.5 11 8.72386 11 9C11 9.27614 10.7761 9.5 10.5 9.5H1.5C1.22386 9.5 1 9.27614 1 9Z" fill="#141414"/>
</svg>
