<svg xmlns="http://www.w3.org/2000/svg" width="16" height="16" fill="none" viewBox="0 0 16 16">
  <path fill="#141414" fill-rule="evenodd" d="M8 4a7.485 7.485 0 0 0-5.855 2.813.5.5 0 1 1-.78-.626A8.485 8.485 0 0 1 8 3a8.485 8.485 0 0 1 6.636 3.187.5.5 0 0 1-.78.626A7.485 7.485 0 0 0 8 4Z" clip-rule="evenodd"/>
  <path fill="#141414" fill-rule="evenodd" d="M8 6.667c-1.634 0-3.08.81-3.955 2.055a.5.5 0 1 1-.818-.575A5.827 5.827 0 0 1 8 5.667c1.975 0 3.72.98 4.774 2.48a.5.5 0 1 1-.818.575A4.827 4.827 0 0 0 8 6.667Z" clip-rule="evenodd"/>
  <path fill="#141414" fill-rule="evenodd" d="M8 9.333c-.869 0-1.62.512-1.965 1.253a.5.5 0 0 1-.906-.422 3.167 3.167 0 0 1 5.714-.061.5.5 0 0 1-.898.442A2.167 2.167 0 0 0 8 9.333Z" clip-rule="evenodd"/>
  <path fill="#141414" d="M9 12a1 1 0 1 1-2 0 1 1 0 0 1 2 0Z"/>
</svg>
