<svg xmlns="http://www.w3.org/2000/svg" width="24" height="24" fill="none" viewBox="0 0 24 24">
  <path fill="#141414" fill-rule="evenodd" d="M3.217 10.47A11.228 11.228 0 0 1 12 6.25c3.552 0 6.72 1.646 8.783 4.22a.75.75 0 1 0 1.17-.94A12.728 12.728 0 0 0 12 4.75a12.728 12.728 0 0 0-9.953 4.78.75.75 0 0 0 1.17.94Zm2.85 2.863A7.24 7.24 0 0 1 12 10.25a7.24 7.24 0 0 1 5.934 3.083.75.75 0 0 0 1.227-.863A8.74 8.74 0 0 0 12 8.75a8.74 8.74 0 0 0-7.161 3.72.75.75 0 1 0 1.227.863ZM12 14.25a3.25 3.25 0 0 0-2.948 1.88.75.75 0 0 1-1.36-.634 4.75 4.75 0 0 1 8.571-.092.75.75 0 0 1-1.345.663A3.25 3.25 0 0 0 12 14.25Zm0 4.25a1 1 0 1 0 0-2 1 1 0 0 0 0 2Z" clip-rule="evenodd"/>
</svg>
