<svg xmlns="http://www.w3.org/2000/svg" width="32" height="32" fill="none" viewBox="0 0 32 32">
  <path fill="#141414" fill-rule="evenodd" d="M4.29 13.959A14.97 14.97 0 0 1 16 8.333a14.97 14.97 0 0 1 11.71 5.626 1 1 0 0 0 1.561-1.251 16.97 16.97 0 0 0-13.27-6.375 16.97 16.97 0 0 0-13.272 6.375 1 1 0 1 0 1.56 1.25Zm3.799 3.818A9.654 9.654 0 0 1 16 13.667a9.654 9.654 0 0 1 7.912 4.11 1 1 0 0 0 1.636-1.15A11.654 11.654 0 0 0 16 11.666a11.654 11.654 0 0 0-9.548 4.96 1 1 0 0 0 1.636 1.15ZM15.999 19a4.334 4.334 0 0 0-3.93 2.506 1 1 0 0 1-1.813-.845 6.334 6.334 0 0 1 11.429-.122 1 1 0 0 1-1.795.883A4.333 4.333 0 0 0 16 19ZM16 24.667A1.333 1.333 0 1 0 16 22a1.333 1.333 0 0 0 0 2.667Z" clip-rule="evenodd"/>
</svg>
