<svg xmlns="http://www.w3.org/2000/svg" width="24" height="24" fill="none" viewBox="0 0 24 24">
  <path fill="#141414" fill-rule="evenodd" d="M18.71 6.775a3.5 3.5 0 0 0-4.95 0l-.353.354-1.06-1.061.353-.354a5 5 0 0 1 7.07 7.072l-6.363 6.364a2 2 0 0 1-2.829 0l-6.364-6.364a5 5 0 1 1 7.072-7.072l-1.061 1.061a3.5 3.5 0 0 0-4.95 4.95l6.364 6.364a.5.5 0 0 0 .707 0l6.364-6.364a3.5 3.5 0 0 0 0-4.95Zm-7.425-1.06-1.06 1.06.353.354 1.061-1.061-1.06 1.06a2 2 0 0 0 2.828 0l-1.06-1.06a.5.5 0 0 1-.708 0l-.353-.354Z" clip-rule="evenodd"/>
</svg>
