<svg xmlns="http://www.w3.org/2000/svg" width="32" height="32" fill="none" viewBox="0 0 32 32">
  <path fill="#141414" fill-rule="evenodd" d="M24.947 9.033a4.667 4.667 0 0 0-6.6 0l-.471.472L16.46 8.09l.472-.472a6.667 6.667 0 0 1 9.428 9.428l-8.485 8.485a2.667 2.667 0 0 1-3.772 0L5.62 17.047a6.667 6.667 0 1 1 9.428-9.428l-1.414 1.414a4.667 4.667 0 1 0-6.6 6.6l8.486 8.485c.26.26.682.26.942 0l8.486-8.485a4.667 4.667 0 0 0 0-6.6Zm-9.9-1.414-1.414 1.414.471.472L15.52 8.09l-1.415 1.414a2.667 2.667 0 0 0 3.772 0L16.46 8.09a.667.667 0 0 1-.942 0l-.472-.472Z" clip-rule="evenodd"/>
</svg>
