<svg xmlns="http://www.w3.org/2000/svg" width="16" height="16" fill="none" viewBox="0 0 16 16">
  <path fill="#141414" fill-rule="evenodd" d="M13.184 4.066a2.787 2.787 0 0 0-3.941 0l-.268.268a1.379 1.379 0 0 1-1.95 0l.707-.707a.379.379 0 0 0 .536 0l.268-.268a3.787 3.787 0 0 1 5.355 5.355l-4.82 4.82a1.515 1.515 0 0 1-2.142 0l-4.82-4.82A3.787 3.787 0 1 1 7.464 3.36l-.707.707a2.787 2.787 0 0 0-3.94 3.941l4.819 4.82a.515.515 0 0 0 .728 0l4.82-4.82a2.787 2.787 0 0 0 0-3.94Zm-5.72-.707-.707.707.268.268.707-.707-.268-.268Z" clip-rule="evenodd"/>
</svg>
