<svg xmlns="http://www.w3.org/2000/svg" width="32" height="32" fill="none" viewBox="0 0 32 32">
  <path fill="#141414" fill-rule="evenodd" d="M19.333 15.333V10a3.333 3.333 0 0 0-6.666 0v5.333a3.333 3.333 0 0 0 6.666 0ZM16 4.667A5.333 5.333 0 0 0 10.667 10v5.333a5.333 5.333 0 0 0 10.666 0V10A5.333 5.333 0 0 0 16 4.667Zm-8 7a1 1 0 0 1 1 1v2.666a7 7 0 1 0 14 0v-2.667a1 1 0 1 1 2 0v2.667a9 9 0 0 1-8 8.945v2.055a1 1 0 1 1-2 0v-2.055a9 9 0 0 1-8-8.945v-2.667a1 1 0 0 1 1-1Z" clip-rule="evenodd"/>
</svg>
