<svg width="32" height="32" viewBox="0 0 32 32" fill="none" xmlns="http://www.w3.org/2000/svg">
<path fill-rule="evenodd" clip-rule="evenodd" d="M7 8C5.34315 8 4 9.34315 4 11V25C4 26.6569 5.34315 28 7 28H21C22.6569 28 24 26.6569 24 25V22C24 21.4477 24.4477 21 25 21C25.5523 21 26 21.4477 26 22V25C26 27.7614 23.7614 30 21 30H7C4.23858 30 2 27.7614 2 25V11C2 8.23858 4.23858 6 7 6H10C10.5523 6 11 6.44772 11 7C11 7.55228 10.5523 8 10 8H7Z" fill="#141414"/>
<path fill-rule="evenodd" clip-rule="evenodd" d="M26 4H18C16.8954 4 16 4.89543 16 6V14C16 15.1046 16.8954 16 18 16H26C27.1046 16 28 15.1046 28 14V6C28 4.89543 27.1046 4 26 4ZM18 2C15.7909 2 14 3.79086 14 6V14C14 16.2091 15.7909 18 18 18H26C28.2091 18 30 16.2091 30 14V6C30 3.79086 28.2091 2 26 2H18Z" fill="#141414"/>
</svg>
