<svg width="24" height="24" viewBox="0 0 24 24" fill="none" xmlns="http://www.w3.org/2000/svg">
<path fill-rule="evenodd" clip-rule="evenodd" d="M5.25 6C4.00736 6 3 7.00736 3 8.25V18.75C3 19.9926 4.00736 21 5.25 21H15.75C16.9926 21 18 19.9926 18 18.75V16.5C18 16.0858 18.3358 15.75 18.75 15.75C19.1642 15.75 19.5 16.0858 19.5 16.5V18.75C19.5 20.8211 17.8211 22.5 15.75 22.5H5.25C3.17893 22.5 1.5 20.8211 1.5 18.75V8.25C1.5 6.17893 3.17893 4.5 5.25 4.5H7.5C7.91421 4.5 8.25 4.83579 8.25 5.25C8.25 5.66421 7.91421 6 7.5 6H5.25Z" fill="#141414"/>
<path fill-rule="evenodd" clip-rule="evenodd" d="M19.5 3H13.5C12.6716 3 12 3.67157 12 4.5V10.5C12 11.3284 12.6716 12 13.5 12H19.5C20.3284 12 21 11.3284 21 10.5V4.5C21 3.67157 20.3284 3 19.5 3ZM13.5 1.5C11.8431 1.5 10.5 2.84315 10.5 4.5V10.5C10.5 12.1569 11.8431 13.5 13.5 13.5H19.5C21.1569 13.5 22.5 12.1569 22.5 10.5V4.5C22.5 2.84315 21.1569 1.5 19.5 1.5H13.5Z" fill="#141414"/>
</svg>
