<svg width="16" height="16" viewBox="0 0 16 16" fill="none" xmlns="http://www.w3.org/2000/svg">
<path fill-rule="evenodd" clip-rule="evenodd" d="M3.5 4C2.67157 4 2 4.67157 2 5.5V12.5C2 13.3284 2.67157 14 3.5 14H10.5C11.3284 14 12 13.3284 12 12.5V11C12 10.7239 12.2239 10.5 12.5 10.5C12.7761 10.5 13 10.7239 13 11V12.5C13 13.8807 11.8807 15 10.5 15H3.5C2.11929 15 1 13.8807 1 12.5V5.5C1 4.11929 2.11929 3 3.5 3H5C5.27614 3 5.5 3.22386 5.5 3.5C5.5 3.77614 5.27614 4 5 4H3.5Z" fill="#141414"/>
<path fill-rule="evenodd" clip-rule="evenodd" d="M13 2H9C8.44772 2 8 2.44772 8 3V7C8 7.55228 8.44772 8 9 8H13C13.5523 8 14 7.55228 14 7V3C14 2.44772 13.5523 2 13 2ZM9 1C7.89543 1 7 1.89543 7 3V7C7 8.10457 7.89543 9 9 9H13C14.1046 9 15 8.10457 15 7V3C15 1.89543 14.1046 1 13 1H9Z" fill="#141414"/>
</svg>
