<svg xmlns="http://www.w3.org/2000/svg" width="24" height="24" fill="none" viewBox="0 0 24 24">
  <path fill="#141414" fill-rule="evenodd" d="M5.25 10.25c0-1.042.343-2.757 1.361-4.19C7.602 4.664 9.254 3.5 12 3.5c2.746 0 4.398 1.165 5.389 2.56 1.018 1.433 1.361 3.148 1.361 4.19v9.991c-.004.009-.016.043-.06.084-.054.05-.231.175-.69.175a1.59 1.59 0 0 1-.612-.103 2.558 2.558 0 0 1-.472-.271c-.412-.275-.94-.626-1.916-.626-.975 0-1.504.351-1.916.626-.193.129-.32.21-.472.271A1.59 1.59 0 0 1 12 20.5a1.59 1.59 0 0 1-.612-.103 2.558 2.558 0 0 1-.472-.271c-.412-.275-.94-.626-1.916-.626-.975 0-1.504.351-1.916.626-.193.129-.32.21-.472.271A1.59 1.59 0 0 1 6 20.5c-.459 0-.636-.125-.69-.175a.204.204 0 0 1-.06-.084V10.25ZM12 2C8.746 2 6.648 3.419 5.389 5.19 4.157 6.925 3.75 8.959 3.75 10.25v10c0 .368.157.82.54 1.175.396.366.969.575 1.71.575.975 0 1.504-.351 1.916-.626.193-.129.32-.21.472-.271A1.59 1.59 0 0 1 9 21c.285 0 .472.046.612.103.152.06.279.142.472.271.412.275.94.626 1.916.626.975 0 1.504-.351 1.916-.626.193-.129.32-.21.472-.271A1.59 1.59 0 0 1 15 21c.286 0 .472.046.612.103.152.06.279.142.472.271.412.275.94.626 1.916.626.741 0 1.314-.209 1.71-.575.383-.355.54-.807.54-1.175v-10c0-1.292-.407-3.326-1.639-5.06C17.352 3.42 15.254 2 12 2Zm-1.143 7.591c0 .624-.512 1.13-1.143 1.13a1.136 1.136 0 0 1-1.143-1.13c0-.623.512-1.13 1.143-1.13s1.143.507 1.143 1.13Zm3.429 1.13c.631 0 1.143-.506 1.143-1.13 0-.623-.512-1.13-1.143-1.13s-1.143.507-1.143 1.13c0 .624.512 1.13 1.143 1.13Zm-3.43 2.259c0-.624.512-1.13 1.144-1.13.631 0 1.143.506 1.143 1.13v1.13c0 .623-.512 1.129-1.143 1.129a1.136 1.136 0 0 1-1.143-1.13V12.98Z" clip-rule="evenodd"/>
</svg>
