<svg xmlns="http://www.w3.org/2000/svg" width="32" height="32" fill="none" viewBox="0 0 32 32">
  <path fill="#141414" fill-rule="evenodd" d="M7 13.666c0-1.388.457-3.676 1.815-5.587C10.137 6.219 12.34 4.666 16 4.666c3.661 0 5.863 1.553 7.185 3.413C24.543 9.99 25 12.278 25 13.666v13.319l-.001.002a.265.265 0 0 1-.078.112c-.074.068-.31.234-.921.234-.38 0-.629-.062-.816-.137-.203-.08-.372-.19-.63-.362C22.005 26.468 21.302 26 20 26c-1.3 0-2.005.468-2.555.834-.257.172-.426.281-.629.362-.187.075-.435.137-.816.137-.38 0-.629-.062-.816-.137-.203-.08-.372-.19-.63-.362C14.005 26.468 13.302 26 12 26c-1.3 0-2.005.468-2.555.834-.257.172-.426.281-.629.362-.187.075-.435.137-.816.137-.612 0-.847-.166-.92-.234a.272.272 0 0 1-.08-.112V13.665Zm9-11c-4.339 0-7.137 1.892-8.815 4.255C5.543 9.23 5 11.944 5 13.666V27c0 .49.209 1.093.72 1.567.527.488 1.292.766 2.28.766 1.3 0 2.005-.468 2.555-.834.257-.172.426-.281.629-.362.187-.075.435-.137.816-.137.38 0 .629.062.816.137.203.08.372.19.63.362.55.366 1.253.834 2.554.834 1.3 0 2.005-.468 2.555-.834.257-.172.426-.281.629-.362.187-.075.435-.137.816-.137.38 0 .629.062.816.137.203.08.372.19.63.362.55.366 1.253.834 2.554.834.988 0 1.753-.278 2.28-.766.511-.474.72-1.077.72-1.567V13.666c0-1.722-.543-4.434-2.185-6.745C23.137 4.558 20.34 2.666 16 2.666Zm-1.524 10.122c0 .832-.682 1.506-1.524 1.506a1.515 1.515 0 0 1-1.524-1.506c0-.831.683-1.506 1.524-1.506.842 0 1.524.675 1.524 1.506Zm4.571 1.506c.842 0 1.524-.674 1.524-1.506 0-.831-.682-1.506-1.524-1.506-.841 0-1.524.675-1.524 1.506 0 .832.683 1.506 1.524 1.506Zm-4.57 3.013c0-.832.681-1.506 1.523-1.506.842 0 1.524.673 1.524 1.506v1.506c0 .832-.682 1.505-1.524 1.505a1.515 1.515 0 0 1-1.523-1.506v-1.505Z" clip-rule="evenodd"/>
</svg>
