<svg xmlns="http://www.w3.org/2000/svg" width="16" height="16" fill="none" viewBox="0 0 16 16">
  <path fill="#141414" fill-rule="evenodd" d="M8 1C5.646 1 4.132 2.025 3.224 3.303 2.334 4.555 2.04 6.026 2.04 6.958v6.814c0 .256.109.572.379.822.277.257.682.406 1.213.406.696 0 1.07-.25 1.369-.448l.002-.001c.247-.165.418-.279.812-.279.394 0 .565.114.812.279l.002.001c.298.199.673.448 1.37.448.695 0 1.07-.25 1.369-.448l.002-.001c.247-.165.418-.279.812-.279.395 0 .565.114.812.279l.002.001c.298.199.673.448 1.37.448.53 0 .935-.15 1.212-.406.27-.25.379-.566.379-.822V6.958c0-.932-.294-2.403-1.184-3.655C11.866 2.025 10.352 1 7.999 1ZM3.04 6.958c0-.765.252-2.024 1-3.076C4.77 2.855 5.984 2 7.998 2c2.014 0 3.23.855 3.96 1.882.748 1.052.999 2.31.999 3.076v6.814-.002.002c-.003.008-.013.046-.058.088-.05.047-.191.14-.534.14-.394 0-.565-.114-.812-.278l-.002-.002c-.298-.199-.673-.448-1.369-.448s-1.071.25-1.369.448l-.002.001C8.565 13.886 8.394 14 8 14c-.394 0-.565-.114-.812-.278l-.002-.002c-.298-.199-.673-.448-1.369-.448s-1.071.25-1.369.448l-.002.002c-.247.164-.418.278-.812.278-.343 0-.484-.093-.534-.14a.184.184 0 0 1-.057-.088c-.001-.002-.001-.003-.001 0V6.958Zm4.102-.452a.852.852 0 0 1-.858.847.852.852 0 0 1-.857-.847c0-.468.384-.847.857-.847.474 0 .858.379.858.847Zm3.428 0a.852.852 0 0 1-.857.847.852.852 0 0 1-.857-.847c0-.468.384-.847.857-.847s.857.379.857.847ZM8 8.2a.852.852 0 0 0-.857.848v.847c0 .468.384.847.857.847.474 0 .857-.38.857-.847v-.847A.852.852 0 0 0 8 8.2Z" clip-rule="evenodd"/>
</svg>
