<svg xmlns="http://www.w3.org/2000/svg" width="24" height="24" fill="none" viewBox="0 0 24 24">
  <path fill="#141414" fill-rule="evenodd" d="M7 4.75a.75.75 0 0 1 1.5 0V6h7V4.75a.75.75 0 0 1 1.5 0V6h2a2 2 0 0 1 2 2v10a2 2 0 0 1-2 2H5a2 2 0 0 1-2-2V8a2 2 0 0 1 2-2h2V4.75ZM19 7.5H5a.5.5 0 0 0-.5.5v10a.5.5 0 0 0 .5.5h14a.5.5 0 0 0 .5-.5V8a.5.5 0 0 0-.5-.5ZM12 9a.75.75 0 0 0-.75.75v2.5h-2.5a.75.75 0 0 0 0 1.5h2.5v2.5a.75.75 0 0 0 1.5 0v-2.5h2.5a.75.75 0 0 0 0-1.5h-2.5v-2.5A.75.75 0 0 0 12 9Z" clip-rule="evenodd"/>
</svg>
