<svg xmlns="http://www.w3.org/2000/svg" width="32" height="32" fill="none" viewBox="0 0 32 32">
  <path fill="#141414" fill-rule="evenodd" d="M9.333 6.333a1 1 0 1 1 2 0V8h9.334V6.333a1 1 0 1 1 2 0V8h2.666A2.667 2.667 0 0 1 28 10.667V24a2.667 2.667 0 0 1-2.667 2.667H6.667A2.667 2.667 0 0 1 4 24V10.667A2.667 2.667 0 0 1 6.667 8h2.666V6.333Zm16 3.667H6.667a.667.667 0 0 0-.667.667V24c0 .368.298.667.667.667h18.666A.667.667 0 0 0 26 24V10.667a.667.667 0 0 0-.667-.667ZM16 12a1 1 0 0 0-1 1v3.334h-3.333a1 1 0 1 0 0 2H15v3.333a1 1 0 1 0 2 0v-3.334h3.333a1 1 0 1 0 0-2H17V13a1 1 0 0 0-1-1Z" clip-rule="evenodd"/>
</svg>
