<svg xmlns="http://www.w3.org/2000/svg" width="16" height="16" fill="none" viewBox="0 0 16 16">
  <path fill="#141414" fill-rule="evenodd" d="M13 5H3a1 1 0 0 0-1 1v6a1 1 0 0 0 1 1h10a1 1 0 0 0 1-1V6a1 1 0 0 0-1-1ZM3 4a2 2 0 0 0-2 2v6a2 2 0 0 0 2 2h10a2 2 0 0 0 2-2V6a2 2 0 0 0-2-2H3Z" clip-rule="evenodd"/>
  <path fill="#141414" d="M4 2.5a.5.5 0 0 1 1 0v2a.5.5 0 0 1-1 0v-2Zm3.5 4a.5.5 0 0 1 1 0v5a.5.5 0 0 1-1 0v-5Z"/>
  <path fill="#141414" d="M5.5 9.5a.5.5 0 0 1 0-1h5a.5.5 0 0 1 0 1h-5Zm5.5-7a.5.5 0 0 1 1 0v2a.5.5 0 0 1-1 0v-2Z"/>
</svg>
