<svg width="32" height="32" viewBox="0 0 32 32" fill="none" xmlns="http://www.w3.org/2000/svg">
<path d="M9.64985 3.80852C10.0404 4.19904 10.0404 4.83221 9.64985 5.22273L7.76424 7.10835C7.37371 7.49887 6.74055 7.49887 6.35002 7.10835C5.9595 6.71783 5.9595 6.08466 6.35002 5.69414L8.23564 3.80852C8.62616 3.41799 9.25933 3.41799 9.64985 3.80852Z" fill="#141414"/>
<path fill-rule="evenodd" clip-rule="evenodd" d="M19.5525 15.7804C20.7241 14.6088 20.7241 12.7093 19.5525 11.5378L14.3671 6.35232C13.1955 5.18075 11.296 5.18075 10.1244 6.35232L8.71023 7.76653C7.53866 8.9381 7.53866 10.8376 8.71023 12.0092L9.32776 12.6267C8.70743 13.312 8.19458 14.0907 7.80933 14.9367C7.2422 16.1821 6.96653 17.5404 7.00327 18.9083C7.04002 20.2763 7.38822 21.6178 8.02139 22.8309C8.65456 24.0441 9.55603 25.0969 10.6572 25.9092C11.5368 26.5581 12.5253 27.0399 13.5734 27.3333H8.00003C7.44774 27.3333 7.00003 27.7811 7.00003 28.3333C7.00003 28.8856 7.44774 29.3333 8.00003 29.3333H24C24.5523 29.3333 25 28.8856 25 28.3333C25 27.7811 24.5523 27.3333 24 27.3333H18.4266C19.7437 26.9646 20.9595 26.3004 21.9815 25.3914C22.9367 24.5417 23.6992 23.499 24.2192 22.3333H25.3334C25.8856 22.3333 26.3334 21.8856 26.3334 21.3333C26.3334 20.7811 25.8856 20.3333 25.3334 20.3333H20C19.4477 20.3333 19 20.7811 19 21.3333C19 21.8856 19.4477 22.3333 20 22.3333H21.9629C21.6058 22.9141 21.1647 23.4412 20.6523 23.897C19.857 24.6044 18.9109 25.1211 17.8859 25.4078C16.861 25.6946 15.7841 25.7438 14.7372 25.5518C13.6903 25.3598 12.701 24.9316 11.8445 24.2998C10.988 23.6679 10.2869 22.8491 9.79442 21.9055C9.30195 20.962 9.03113 19.9186 9.00255 18.8546C8.97397 17.7907 9.18838 16.7342 9.62948 15.7656C9.91529 15.138 10.2914 14.5579 10.7442 14.0432L13.8957 17.1946C15.0673 18.3662 16.9667 18.3662 18.1383 17.1946L19.5525 15.7804ZM16.7241 15.7804L18.1383 14.3662C18.5288 13.9757 18.5288 13.3425 18.1383 12.952L12.9529 7.76653C12.5623 7.37601 11.9292 7.37601 11.5387 7.76653L10.1244 9.18075C9.73392 9.57127 9.73392 10.2044 10.1244 10.595L15.3099 15.7804C15.7004 16.1709 16.3336 16.1709 16.7241 15.7804Z" fill="#141414"/>
</svg>
