<svg width="16" height="16" viewBox="0 0 16 16" fill="none" xmlns="http://www.w3.org/2000/svg">
<path d="M4.82517 1.90426C5.02043 2.09952 5.02043 2.4161 4.82517 2.61137L3.88236 3.55417C3.6871 3.74944 3.37052 3.74944 3.17526 3.55418C2.97999 3.35891 2.97999 3.04233 3.17526 2.84707L4.11806 1.90426C4.31333 1.709 4.62991 1.709 4.82517 1.90426Z" fill="#141414"/>
<path fill-rule="evenodd" clip-rule="evenodd" d="M10.0321 6.14338C10.6179 6.72917 10.6179 7.67891 10.0321 8.2647L9.32502 8.97181C8.73923 9.55759 7.78949 9.55759 7.2037 8.97181L5.31731 7.08542C5.11523 7.32659 4.94595 7.59466 4.81474 7.88279C4.59419 8.36711 4.48699 8.89534 4.50128 9.42731C4.51557 9.95929 4.65098 10.481 4.89721 10.9528C5.14344 11.4245 5.49402 11.834 5.92227 12.1499C6.35052 12.4658 6.84517 12.6799 7.3686 12.7759C7.89204 12.8719 8.43048 12.8473 8.94297 12.7039C9.45546 12.5605 9.9285 12.3022 10.3261 11.9485C10.5823 11.7206 10.8029 11.457 10.9814 11.1667H10C9.72387 11.1667 9.50001 10.9428 9.50001 10.6667C9.50001 10.3905 9.72387 10.1667 10 10.1667H12.6667C12.9428 10.1667 13.1667 10.3905 13.1667 10.6667C13.1667 10.9428 12.9428 11.1667 12.6667 11.1667H12.1096C11.8496 11.7495 11.4684 12.2709 10.9907 12.6957C10.4798 13.1502 9.87191 13.4823 9.21338 13.6667H12C12.2762 13.6667 12.5 13.8905 12.5 14.1667C12.5 14.4428 12.2762 14.6667 12 14.6667H4.00001C3.72387 14.6667 3.50001 14.4428 3.50001 14.1667C3.50001 13.8905 3.72387 13.6667 4.00001 13.6667H6.78665C6.26261 13.5199 5.76839 13.279 5.32862 12.9546C4.77802 12.5484 4.32728 12.022 4.0107 11.4155C3.69411 10.8089 3.52001 10.1381 3.50164 9.45417C3.48326 8.7702 3.6211 8.09105 3.90466 7.46836C4.08561 7.07101 4.32286 6.70333 4.60807 6.37618L4.37527 6.14338C3.78949 5.55759 3.78949 4.60785 4.37527 4.02206L5.08238 3.31495C5.66817 2.72917 6.61791 2.72917 7.2037 3.31495L10.0321 6.14338ZM9.32502 7.55759C9.52028 7.36233 9.52028 7.04575 9.32502 6.85049L6.49659 4.02206C6.30133 3.8268 5.98475 3.8268 5.78949 4.02206L5.08238 4.72917C4.88712 4.92443 4.88712 5.24101 5.08238 5.43627L7.91081 8.2647C8.10607 8.45996 8.42265 8.45996 8.61791 8.2647L9.32502 7.55759Z" fill="#141414"/>
</svg>
