<svg width="24" height="24" viewBox="0 0 24 24" fill="none" xmlns="http://www.w3.org/2000/svg">
<path d="M7.23702 2.85639C7.52992 3.14928 7.52992 3.62416 7.23702 3.91705L5.82281 5.33126C5.52992 5.62416 5.05504 5.62416 4.76215 5.33126C4.46926 5.03837 4.46926 4.5635 4.76215 4.2706L6.17636 2.85639C6.46926 2.5635 6.94413 2.5635 7.23702 2.85639Z" fill="#141414"/>
<path fill-rule="evenodd" clip-rule="evenodd" d="M14.8414 11.6585C15.6225 10.8775 15.6225 9.61116 14.8414 8.83011L10.5988 4.58747C9.81773 3.80642 8.5514 3.80642 7.77035 4.58747L6.35614 6.00168C5.57509 6.78273 5.57509 8.04906 6.35614 8.83011L6.99582 9.46978C6.53046 9.98381 6.14574 10.568 5.85675 11.2026C5.4314 12.1366 5.22465 13.1553 5.25221 14.1813C5.27977 15.2072 5.54092 16.2134 6.0158 17.1232C6.49068 18.0331 7.16678 18.8227 7.99269 19.4319C8.65234 19.9185 9.39367 20.2799 10.1797 20.5H5.99978C5.58556 20.5 5.24978 20.8358 5.24978 21.25C5.24978 21.6642 5.58556 22 5.99978 22H17.9998C18.414 22 18.7498 21.6642 18.7498 21.25C18.7498 20.8358 18.414 20.5 17.9998 20.5H13.8198C14.8076 20.2234 15.7194 19.7253 16.4859 19.0436C17.2023 18.4063 17.7742 17.6243 18.1642 16.75H18.9998C19.414 16.75 19.7498 16.4142 19.7498 16C19.7498 15.5858 19.414 15.25 18.9998 15.25H14.9998C14.5856 15.25 14.2498 15.5858 14.2498 16C14.2498 16.4142 14.5856 16.75 14.9998 16.75H16.4719C16.2041 17.1855 15.8733 17.5809 15.489 17.9228C14.8925 18.4533 14.1829 18.8408 13.4142 19.0559C12.6455 19.2709 11.8378 19.3079 11.0527 19.1639C10.2675 19.0199 9.52553 18.6987 8.88316 18.2248C8.24078 17.751 7.71492 17.1368 7.34557 16.4292C6.97622 15.7215 6.77311 14.9389 6.75167 14.141C6.73023 13.343 6.89104 12.5507 7.22187 11.8242C7.43628 11.3534 7.71843 10.9183 8.05816 10.5321L10.5988 13.0728C11.3798 13.8538 12.6462 13.8538 13.4272 13.0728L14.8414 11.6585ZM12.3665 12.0121L13.7808 10.5979C13.976 10.4026 13.976 10.086 13.7808 9.89077L9.53812 5.64813C9.34286 5.45287 9.02628 5.45287 8.83101 5.64813L7.4168 7.06234C7.22154 7.25761 7.22154 7.57419 7.4168 7.76945L11.6594 12.0121C11.8547 12.2074 12.1713 12.2074 12.3665 12.0121Z" fill="#141414"/>
</svg>
