<svg width="24" height="24" viewBox="0 0 24 24" fill="none" xmlns="http://www.w3.org/2000/svg">
<path d="M8.85249 13.813C8.74924 13.4119 8.34035 13.1704 7.93921 13.2736C7.53807 13.3769 7.29658 13.7857 7.39983 14.1869C7.92709 16.2354 9.7858 17.7499 12.0001 17.7499C14.2145 17.7499 16.0732 16.2354 16.6005 14.1869C16.7037 13.7857 16.4622 13.3769 16.0611 13.2736C15.6599 13.1704 15.251 13.4119 15.1478 13.813C14.787 15.2149 13.5135 16.2499 12.0001 16.2499C10.4868 16.2499 9.21331 15.2149 8.85249 13.813Z" fill="#141414"/>
<path d="M10.5 9.5C10.5 10.3284 9.82843 11 9 11C8.17157 11 7.5 10.3284 7.5 9.5C7.5 8.67157 8.17157 8 9 8C9.82843 8 10.5 8.67157 10.5 9.5Z" fill="#141414"/>
<path d="M15 11C15.8284 11 16.5 10.3284 16.5 9.5C16.5 8.67157 15.8284 8 15 8C14.1716 8 13.5 8.67157 13.5 9.5C13.5 10.3284 14.1716 11 15 11Z" fill="#141414"/>
<path fill-rule="evenodd" clip-rule="evenodd" d="M22 12C22 17.5228 17.5228 22 12 22C6.47715 22 2 17.5228 2 12C2 6.47715 6.47715 2 12 2C17.5228 2 22 6.47715 22 12ZM20.5 12C20.5 16.6944 16.6944 20.5 12 20.5C7.30558 20.5 3.5 16.6944 3.5 12C3.5 7.30558 7.30558 3.5 12 3.5C16.6944 3.5 20.5 7.30558 20.5 12Z" fill="#141414"/>
</svg>
