<svg width="12" height="12" viewBox="0 0 12 12" fill="none" xmlns="http://www.w3.org/2000/svg">
<path d="M4.34863 5.25C4.76285 5.25 5.09863 4.91421 5.09863 4.5C5.09863 4.08579 4.76285 3.75 4.34863 3.75C3.93442 3.75 3.59863 4.08579 3.59863 4.5C3.59863 4.91421 3.93442 5.25 4.34863 5.25Z" fill="#141414"/>
<path d="M7.61816 5.25C8.03238 5.25 8.36816 4.91421 8.36816 4.5C8.36816 4.08579 8.03238 3.75 7.61816 3.75C7.20395 3.75 6.86816 4.08579 6.86816 4.5C6.86816 4.91421 7.20395 5.25 7.61816 5.25Z" fill="#141414"/>
<path d="M7.64916 7.12804C7.74977 6.93294 7.9641 6.80409 8.17613 6.8609C8.38815 6.91771 8.51668 7.13739 8.42882 7.33854C8.3448 7.5309 8.23835 7.71228 8.11194 7.87898C7.96989 8.06632 7.80262 8.23511 7.61367 8.3801C7.15092 8.73518 6.58394 8.92764 6.00066 8.92764C5.41738 8.92764 4.8504 8.73518 4.38765 8.3801C4.1987 8.23511 4.03144 8.06632 3.88938 7.87898C3.76303 7.71235 3.65662 7.53106 3.57261 7.33878C3.48469 7.13754 3.61334 6.91777 3.82551 6.86104C4.03747 6.80437 4.25166 6.93319 4.35224 7.12819C4.47674 7.36957 4.65352 7.58216 4.87156 7.74947C5.19548 7.99802 5.59237 8.13275 6.00066 8.13275C6.40896 8.13275 6.80585 7.99802 7.12977 7.74947C7.34785 7.58213 7.52466 7.36948 7.64916 7.12804Z" fill="#141414"/>
<path fill-rule="evenodd" clip-rule="evenodd" d="M6 11C8.76142 11 11 8.76142 11 6C11 3.23858 8.76142 1 6 1C3.23858 1 1 3.23858 1 6C1 8.76142 3.23858 11 6 11ZM6 10C8.20914 10 10 8.20914 10 6C10 3.79086 8.20914 2 6 2C3.79086 2 2 3.79086 2 6C2 8.20914 3.79086 10 6 10Z" fill="#141414"/>
</svg>
