<svg width="16" height="16" viewBox="0 0 16 16" fill="none" xmlns="http://www.w3.org/2000/svg">
<path d="M5.90133 8.87549C5.8325 8.60807 5.55991 8.44707 5.29248 8.5159C5.02506 8.58473 4.86406 8.85732 4.93289 9.12475C5.2844 10.4904 6.52354 11.5001 7.99977 11.5001C9.47599 11.5001 10.7151 10.4904 11.0666 9.12475C11.1355 8.85732 10.9745 8.58473 10.7071 8.5159C10.4396 8.44707 10.167 8.60807 10.0982 8.87549C9.85765 9.8101 9.00866 10.5001 7.99977 10.5001C6.99087 10.5001 6.14188 9.8101 5.90133 8.87549Z" fill="#141414"/>
<path d="M7 6C7 6.55228 6.55228 7 6 7C5.44772 7 5 6.55228 5 6C5 5.44772 5.44772 5 6 5C6.55228 5 7 5.44772 7 6Z" fill="#141414"/>
<path d="M10 7C10.5523 7 11 6.55228 11 6C11 5.44772 10.5523 5 10 5C9.44772 5 9 5.44772 9 6C9 6.55228 9.44772 7 10 7Z" fill="#141414"/>
<path fill-rule="evenodd" clip-rule="evenodd" d="M15 8C15 11.866 11.866 15 8 15C4.13401 15 1 11.866 1 8C1 4.13401 4.13401 1 8 1C11.866 1 15 4.13401 15 8ZM14 8C14 11.3137 11.3137 14 8 14C4.68629 14 2 11.3137 2 8C2 4.68629 4.68629 2 8 2C11.3137 2 14 4.68629 14 8Z" fill="#141414"/>
</svg>
