<svg width="32" height="32" viewBox="0 0 32 32" fill="none" xmlns="http://www.w3.org/2000/svg">
<path d="M11.8027 18.4177C11.665 17.8829 11.1198 17.5609 10.585 17.6986C10.0501 17.8362 9.72813 18.3814 9.86579 18.9163C10.5688 21.6477 13.0471 23.667 15.9995 23.667C18.952 23.667 21.4303 21.6477 22.1333 18.9163C22.2709 18.3814 21.949 17.8362 21.4141 17.6986C20.8793 17.5609 20.3341 17.8829 20.1964 18.4177C19.7153 20.287 18.0173 21.667 15.9995 21.667C13.9817 21.667 12.2838 20.287 11.8027 18.4177Z" fill="#141414"/>
<path d="M13.9993 12.6667C13.9993 13.7713 13.1039 14.6667 11.9993 14.6667C10.8948 14.6667 9.99935 13.7713 9.99935 12.6667C9.99935 11.5622 10.8948 10.6667 11.9993 10.6667C13.1039 10.6667 13.9993 11.5622 13.9993 12.6667Z" fill="#141414"/>
<path d="M19.9993 14.6667C21.1039 14.6667 21.9993 13.7713 21.9993 12.6667C21.9993 11.5622 21.1039 10.6667 19.9993 10.6667C18.8948 10.6667 17.9993 11.5622 17.9993 12.6667C17.9993 13.7713 18.8948 14.6667 19.9993 14.6667Z" fill="#141414"/>
<path fill-rule="evenodd" clip-rule="evenodd" d="M29.3327 16.0001C29.3327 23.3639 23.3631 29.3334 15.9993 29.3334C8.63555 29.3334 2.66602 23.3639 2.66602 16.0001C2.66602 8.63628 8.63555 2.66675 15.9993 2.66675C23.3631 2.66675 29.3327 8.63628 29.3327 16.0001ZM27.3327 16.0001C27.3327 22.2593 22.2586 27.3334 15.9993 27.3334C9.74012 27.3334 4.66602 22.2593 4.66602 16.0001C4.66602 9.74085 9.74012 4.66675 15.9993 4.66675C22.2586 4.66675 27.3327 9.74085 27.3327 16.0001Z" fill="#141414"/>
</svg>
