<svg width="16" height="16" viewBox="0 0 16 16" fill="none" xmlns="http://www.w3.org/2000/svg">
<path d="M7.99969 10.0002C9.10426 10.0002 9.99969 9.10473 9.99969 8.00016C9.99969 6.89559 9.10426 6.00016 7.99969 6.00016C6.89513 6.00016 5.99969 6.89559 5.99969 8.00016C5.99969 9.10473 6.89513 10.0002 7.99969 10.0002Z" fill="#141414"/>
<path fill-rule="evenodd" clip-rule="evenodd" d="M7.99969 1.3335C7.63151 1.3335 7.33303 1.63197 7.33303 2.00016V3.3335C7.33303 3.34931 7.33358 3.36499 7.33466 3.38052C5.39973 3.6566 3.84739 5.11957 3.43862 7.00846C3.40422 7.00299 3.36895 7.00014 3.33301 7.00014L1.99967 7.00014C1.63148 7.00014 1.33301 7.29862 1.33301 7.66681C1.33301 8.035 1.63148 8.33348 1.99967 8.33348H3.33301L3.34474 8.33337C3.49995 10.5334 5.18012 12.3124 7.33466 12.6198C7.33358 12.6353 7.33303 12.651 7.33303 12.6668V14.0002C7.33303 14.3684 7.63151 14.6668 7.99969 14.6668C8.36788 14.6668 8.66636 14.3684 8.66636 14.0002V12.6668C8.66636 12.651 8.66581 12.6353 8.66473 12.6198C10.7097 12.328 12.3274 10.7105 12.6193 8.66552C12.6348 8.6666 12.6505 8.66715 12.6664 8.66715H13.9997C14.3679 8.66715 14.6664 8.36868 14.6664 8.00049C14.6664 7.6323 14.3679 7.33382 13.9997 7.33382L12.6664 7.33382C12.6506 7.33382 12.6349 7.33437 12.6194 7.33545C12.3277 5.29019 10.7099 3.67233 8.66473 3.38052C8.66581 3.36499 8.66636 3.34931 8.66636 3.3335V2.00016C8.66636 1.63197 8.36788 1.3335 7.99969 1.3335ZM11.7914 8.00016C11.7914 10.0942 10.0938 11.7918 7.99969 11.7918C5.90561 11.7918 4.20803 10.0942 4.20803 8.00016C4.20803 5.90608 5.90561 4.2085 7.99969 4.2085C10.0938 4.2085 11.7914 5.90608 11.7914 8.00016Z" fill="#141414"/>
</svg>
