<svg width="24" height="24" viewBox="0 0 24 24" fill="none" xmlns="http://www.w3.org/2000/svg">
<path d="M12 15C13.6569 15 15 13.6569 15 12C15 10.3431 13.6569 9 12 9C10.3431 9 9 10.3431 9 12C9 13.6569 10.3431 15 12 15Z" fill="#141414"/>
<path fill-rule="evenodd" clip-rule="evenodd" d="M12 2C11.4477 2 11 2.44772 11 3V5C11 5.02372 11.0008 5.04724 11.0024 5.07054C7.93478 5.50823 5.50823 7.93478 5.07054 11.0024C5.04724 11.0008 5.02372 11 5 11H3C2.44772 11 2 11.4477 2 12C2 12.5523 2.44772 13 3 13H5C5.02372 13 5.04724 12.9992 5.07054 12.9976C5.50823 16.0652 7.93478 18.4918 11.0024 18.9295C11.0008 18.9528 11 18.9763 11 19V21C11 21.5523 11.4477 22 12 22C12.5523 22 13 21.5523 13 21V19C13 18.9763 12.9992 18.9528 12.9976 18.9295C16.0651 18.4918 18.4915 16.0655 18.9294 12.998C18.9527 12.9997 18.9763 13.0005 19 13.0005H21C21.5523 13.0005 22 12.5528 22 12.0005C22 11.4482 21.5523 11.0005 21 11.0005H19C18.9763 11.0005 18.9528 11.0013 18.9295 11.0029C18.492 7.93504 16.0654 5.50825 12.9976 5.07054C12.9992 5.04724 13 5.02372 13 5V3C13 2.44772 12.5523 2 12 2ZM17.6875 12C17.6875 15.1411 15.1411 17.6875 12 17.6875C8.85888 17.6875 6.3125 15.1411 6.3125 12C6.3125 8.85888 8.85888 6.3125 12 6.3125C15.1411 6.3125 17.6875 8.85888 17.6875 12Z" fill="#141414"/>
</svg>
