<svg width="32" height="32" viewBox="0 0 32 32" fill="none" xmlns="http://www.w3.org/2000/svg">
<path d="M16.007 20.0087C18.217 20.0087 20.0087 18.217 20.0087 16.007C20.0087 13.7969 18.217 12.0053 16.007 12.0053C13.7969 12.0053 12.0053 13.7969 12.0053 16.007C12.0053 18.217 13.7969 20.0087 16.007 20.0087Z" fill="#141414"/>
<path fill-rule="evenodd" clip-rule="evenodd" d="M16.007 2.66797C15.2703 2.66797 14.6731 3.26518 14.6731 4.00187V6.66967C14.6731 6.7013 14.6742 6.73268 14.6763 6.76376C10.5844 7.34759 7.34759 10.5844 6.76376 14.6763C6.73268 14.6742 6.7013 14.6731 6.66967 14.6731H4.00187C3.26517 14.6731 2.66797 15.2703 2.66797 16.007C2.66797 16.7437 3.26517 17.3409 4.00187 17.3409H6.66967C6.7013 17.3409 6.73268 17.3398 6.76376 17.3376C7.34759 21.4296 10.5844 24.6663 14.6763 25.2502C14.6742 25.2813 14.6731 25.3126 14.6731 25.3443V28.0121C14.6731 28.7488 15.2703 29.346 16.007 29.346C16.7437 29.346 17.3409 28.7488 17.3409 28.0121V25.3443C17.3409 25.3126 17.3398 25.2813 17.3376 25.2502C21.4293 24.6664 24.666 21.4299 25.2501 17.3382C25.2812 17.3404 25.3126 17.3415 25.3443 17.3415H28.0121C28.7488 17.3415 29.346 16.7443 29.346 16.0076C29.346 15.2709 28.7488 14.6737 28.0121 14.6737H25.3443C25.3127 14.6737 25.2813 14.6748 25.2503 14.677C24.6667 10.5847 21.4298 7.34762 17.3376 6.76376C17.3398 6.73268 17.3409 6.7013 17.3409 6.66967V4.00187C17.3409 3.26518 16.7437 2.66797 16.007 2.66797ZM23.5935 16.007C23.5935 20.1969 20.1969 23.5935 16.007 23.5935C11.817 23.5935 8.42041 20.1969 8.42041 16.007C8.42041 11.817 11.817 8.42041 16.007 8.42041C20.1969 8.42041 23.5935 11.817 23.5935 16.007Z" fill="#141414"/>
</svg>
