<svg xmlns="http://www.w3.org/2000/svg" width="16" height="16" fill="none" viewBox="0 0 16 16">
  <path fill="#141414" fill-rule="evenodd" d="M6.5 7A1.5 1.5 0 0 0 5 8.5v3A1.5 1.5 0 0 0 6.5 13h3a1.5 1.5 0 0 0 1.5-1.5v-3A1.5 1.5 0 0 0 9.5 7h-3Zm1 1h-1a.5.5 0 0 0-.5.5v1h1.5V8ZM6 10.5v1a.5.5 0 0 0 .5.5h1v-1.5H6Zm4-2a.5.5 0 0 0-.5-.5h-1v1.5H10v-1Zm0 2H8.5V12h1a.5.5 0 0 0 .5-.5v-1Z" clip-rule="evenodd"/>
  <path fill="#141414" fill-rule="evenodd" d="M13 4.828a2 2 0 0 0-.586-1.414l-1.828-1.828A2 2 0 0 0 9.172 1H5a2 2 0 0 0-2 2v10a2 2 0 0 0 2 2h6a2 2 0 0 0 2-2V4.828ZM11 14H5a1 1 0 0 1-1-1V3a1 1 0 0 1 1-1h4v1.5A1.5 1.5 0 0 0 10.5 5H12v8a1 1 0 0 1-1 1Zm.586-10L10 2.414V3.5a.5.5 0 0 0 .5.5h1.086Z" clip-rule="evenodd"/>
</svg>
