<svg xmlns="http://www.w3.org/2000/svg" width="24" height="24" fill="none" viewBox="0 0 24 24">
  <path fill="#141414" fill-rule="evenodd" d="M7 11a2 2 0 0 1 2-2h6a2 2 0 0 1 2 2v6a2 2 0 0 1-2 2H9a2 2 0 0 1-2-2v-6Zm2-.5h2.25v2.75H8.5V11a.5.5 0 0 1 .5-.5Zm-.5 4.25V17a.5.5 0 0 0 .5.5h2.25v-2.75H8.5Zm4.25-4.25H15a.5.5 0 0 1 .5.5v2.25h-2.75V10.5Zm0 4.25v2.75H15a.5.5 0 0 0 .5-.5v-2.25h-2.75Z" clip-rule="evenodd"/>
  <path fill="#141414" fill-rule="evenodd" d="M18 22H6a2 2 0 0 1-2-2V4a2 2 0 0 1 2-2h9.172a2 2 0 0 1 1.414.586l2.828 2.828A2 2 0 0 1 20 6.828V20a2 2 0 0 1-2 2ZM6 20.5h12a.5.5 0 0 0 .5-.5V7.25h-2a1.75 1.75 0 0 1-1.75-1.75v-2H6a.5.5 0 0 0-.5.5v16a.5.5 0 0 0 .5.5ZM16.25 4.371l1.379 1.379H16.5a.25.25 0 0 1-.25-.25V4.371Z" clip-rule="evenodd"/>
</svg>
