<svg xmlns="http://www.w3.org/2000/svg" width="32" height="32" fill="none" viewBox="0 0 32 32">
  <path fill="#141414" fill-rule="evenodd" d="M9.334 14.666A2.667 2.667 0 0 1 12 12h8a2.667 2.667 0 0 1 2.667 2.666v8A2.667 2.667 0 0 1 20 25.334h-8a2.667 2.667 0 0 1-2.666-2.666v-8ZM12 14h3v3.666h-3.666v-3c0-.368.298-.666.666-.666Zm-.666 5.666v3c0 .369.298.667.666.667h3v-3.666h-3.666ZM17 14h3c.368 0 .667.298.667.666v3H17V14Zm0 5.666v3.667h3a.667.667 0 0 0 .667-.666v-3H17Z" clip-rule="evenodd"/>
  <path fill="#141414" fill-rule="evenodd" d="M24 29.333H8a2.667 2.667 0 0 1-2.667-2.666V5.332A2.667 2.667 0 0 1 8 2.666h12.23c.707 0 1.385.281 1.886.782l3.77 3.77c.5.5.782 1.18.782 1.886v17.563A2.667 2.667 0 0 1 24 29.332Zm-16-2h16a.667.667 0 0 0 .667-.666v-17H22a2.333 2.333 0 0 1-2.333-2.334V4.666H8a.667.667 0 0 0-.667.667v21.334c0 .368.299.666.667.666ZM21.667 5.828l1.838 1.838H22a.333.333 0 0 1-.333-.333V5.828Z" clip-rule="evenodd"/>
</svg>
