<svg xmlns="http://www.w3.org/2000/svg" width="16" height="16" fill="none" viewBox="0 0 16 16">
  <path fill="#141414" fill-rule="evenodd" d="M5.333 5.333a2 2 0 1 1 0-4 2 2 0 0 1 0 4Zm0-1a1 1 0 1 0 0-2 1 1 0 0 0 0 2Zm5.945 1.097 2.409-2.41a.5.5 0 0 0-.707-.707L2.313 12.98a.5.5 0 1 0 .707.707l5.742-5.742a2 2 0 1 0 2.516-2.516Zm-.971.97-.573.574a1 1 0 1 0 .573-.573Z" clip-rule="evenodd"/>
  <path fill="#141414" d="M1.5 9.334a3.167 3.167 0 0 1 3.167-3.167H6a.5.5 0 0 1 0 1H4.667c-1.197 0-2.167.97-2.167 2.167v.833a.5.5 0 1 1-1 0v-.833Zm5.333 4A3.167 3.167 0 0 1 10 10.167h1.333a3.167 3.167 0 0 1 3.167 3.167v.833a.5.5 0 1 1-1 0v-.833c0-1.197-.97-2.167-2.167-2.167H10c-1.197 0-2.167.97-2.167 2.167v.833a.5.5 0 1 1-1 0v-.833Z"/>
</svg>
