<svg xmlns="http://www.w3.org/2000/svg" width="32" height="32" fill="none" viewBox="0 0 32 32">
  <path fill="#141414" fill-rule="evenodd" d="M10.667 10.666a4 4 0 1 1 0-8 4 4 0 0 1 0 8Zm0-2a2 2 0 1 0 0-4 2 2 0 0 0 0 4Zm11.889 2.192 4.818-4.818a1 1 0 0 0-1.414-1.414L4.626 25.96a1 1 0 1 0 1.414 1.415L17.525 15.89a4 4 0 1 0 5.031-5.031Zm-1.943 1.943-1.146 1.146a2 2 0 1 0 1.146-1.146Z" clip-rule="evenodd"/>
  <path fill="#141414" d="M3 18.666a6.333 6.333 0 0 1 6.333-6.333H12a1 1 0 1 1 0 2H9.333A4.333 4.333 0 0 0 5 18.666v1.667a1 1 0 1 1-2 0v-1.666Zm10.667 8A6.333 6.333 0 0 1 20 20.334h2.667A6.333 6.333 0 0 1 29 26.667v1.666a1 1 0 1 1-2 0v-1.666a4.333 4.333 0 0 0-4.333-4.334H20a4.333 4.333 0 0 0-4.333 4.334v1.666a1 1 0 1 1-2 0v-1.666Z"/>
</svg>
