<svg xmlns="http://www.w3.org/2000/svg" width="24" height="24" fill="none" viewBox="0 0 24 24">
  <path fill="#141414" fill-rule="evenodd" d="M8 8a3 3 0 1 1 0-6 3 3 0 0 1 0 6Zm0-1.5a1.5 1.5 0 1 0 0-3 1.5 1.5 0 0 0 0 3Zm8.917 1.644L20.53 4.53a.75.75 0 0 0-1.06-1.06l-16 16a.75.75 0 1 0 1.06 1.06l8.614-8.613a3 3 0 1 0 3.773-3.773ZM15.46 9.6l-.86.86a1.5 1.5 0 1 0 .86-.86Z" clip-rule="evenodd"/>
  <path fill="#141414" d="M2.25 14A4.75 4.75 0 0 1 7 9.25h2a.75.75 0 0 1 0 1.5H7A3.25 3.25 0 0 0 3.75 14v1.25a.75.75 0 0 1-1.5 0V14Zm8 6A4.75 4.75 0 0 1 15 15.25h2A4.75 4.75 0 0 1 21.75 20v1.25a.75.75 0 0 1-1.5 0V20A3.25 3.25 0 0 0 17 16.75h-2A3.25 3.25 0 0 0 11.75 20v1.25a.75.75 0 0 1-1.5 0V20Z"/>
</svg>
