<svg xmlns="http://www.w3.org/2000/svg" width="32" height="32" fill="none" viewBox="0 0 32 32">
  <path fill="#141414" fill-rule="evenodd" d="M11.333 10H6.667a.667.667 0 0 0-.667.666v16c0 .369.298.667.667.667h18.666a.667.667 0 0 0 .667-.666v-3.334h-.667a4.667 4.667 0 0 1 0-9.333H26v-3.334a.667.667 0 0 0-.667-.666h-8.666V7.333a2.667 2.667 0 0 0-5.334 0V10Zm7.334-2.667a4.667 4.667 0 0 0-9.334 0V8H6.667A2.667 2.667 0 0 0 4 10.666v16a2.667 2.667 0 0 0 2.667 2.667h18.666A2.667 2.667 0 0 0 28 26.667v-5.334h-2.667a2.667 2.667 0 0 1 0-5.333H28v-5.334A2.667 2.667 0 0 0 25.333 8h-6.666v-.667Z" clip-rule="evenodd"/>
</svg>
