<svg xmlns="http://www.w3.org/2000/svg" width="16" height="16" fill="none" viewBox="0 0 16 16">
  <path fill="#141414" fill-rule="evenodd" d="M5 3.5a2.5 2.5 0 0 1 5 0V4h2.5A1.5 1.5 0 0 1 14 5.5v2a.5.5 0 0 1-.5.5h-1a1.5 1.5 0 0 0 0 3h1a.5.5 0 0 1 .5.5v2a1.5 1.5 0 0 1-1.5 1.5h-9A1.5 1.5 0 0 1 2 13.5v-8A1.5 1.5 0 0 1 3.5 4H5v-.5ZM7.5 2A1.5 1.5 0 0 0 6 3.5v1a.5.5 0 0 1-.5.5h-2a.5.5 0 0 0-.5.5v8a.5.5 0 0 0 .5.5h9a.5.5 0 0 0 .5-.5V12h-.5a2.5 2.5 0 0 1 0-5h.5V5.5a.5.5 0 0 0-.5-.5h-3a.5.5 0 0 1-.5-.5v-1A1.5 1.5 0 0 0 7.5 2Z" clip-rule="evenodd"/>
</svg>
