<svg xmlns="http://www.w3.org/2000/svg" width="16" height="16" fill="none" viewBox="0 0 16 16">
  <path fill="#141414" fill-rule="evenodd" d="M7.525 1.5a.5.5 0 0 1 .5.5v3a2.5 2.5 0 1 0 5 0V2a.5.5 0 0 1 1 0v3a3.5 3.5 0 1 1-7 0V2a.5.5 0 0 1 .5-.5Z" clip-rule="evenodd"/>
  <path fill="#141414" fill-rule="evenodd" d="M10.025 12.313V8h1v4.313a2.188 2.188 0 0 1-4.375 0v-.188c0-.76-.616-1.375-1.375-1.375H3.15v-1h2.125a2.375 2.375 0 0 1 2.375 2.375v.188a1.188 1.188 0 0 0 2.375 0Z" clip-rule="evenodd"/>
  <path fill="#141414" d="M4 10.25a1 1 0 1 1-2 0 1 1 0 0 1 2 0Z"/>
</svg>
