<svg width="16" height="16" viewBox="0 0 16 16" fill="none" xmlns="http://www.w3.org/2000/svg">
<path opacity="0.4" d="M9.33643 14.7498H9.32959L9.33252 14.7488C9.3336 14.7488 9.33529 14.7496 9.33643 14.7498ZM8.00928 1.2771C10.135 1.09193 12.2602 1.89479 13.6353 3.6228C14.722 4.99413 15.1845 6.73117 14.9321 8.51733C14.8659 8.98396 14.7519 9.43851 14.5952 9.87671C14.4349 11.0776 13.9817 12.2006 13.2144 13.0759L13.0288 13.2742C12.0828 14.2357 10.7971 14.748 9.33252 14.7488C9.1374 14.7487 8.93503 14.7424 8.72607 14.7214C8.44803 14.6956 8.1676 14.6503 7.88623 14.5896C7.82517 14.591 7.7637 14.5935 7.70264 14.5935L7.6958 14.5867C5.55031 14.5866 3.41825 13.7496 2.14209 12.1394C1.07639 10.8032 0.739889 9.07246 1.20264 7.27222C1.26879 7.01244 1.35206 6.75354 1.44971 6.49683C1.57949 5.31047 2.04434 4.17667 2.86377 3.2439C4.16503 1.76284 6.07789 1.10524 8.00928 1.2771ZM13.6929 11.5994C13.3071 12.1393 12.8432 12.6317 12.3091 13.0603C11.5509 13.6677 10.664 14.0882 9.72607 14.3337C11.0148 14.244 12.1162 13.716 12.9136 12.8113C13.2295 12.4508 13.4881 12.0418 13.6929 11.5994ZM8.00439 1.67847C6.75321 1.79488 5.50028 2.27497 4.41846 3.14038H4.41748C3.25003 4.07042 2.34399 5.30115 1.84326 6.58667C1.64139 8.56227 2.42783 10.7021 4.15186 12.2273C5.2592 13.2046 6.59897 13.8932 7.91553 14.1882C9.42106 14.1474 10.9045 13.6736 12.0591 12.7488C13.0534 11.951 13.7882 10.9236 14.2056 9.77515C14.275 9.22588 14.2809 8.65697 14.2212 8.08569C14.0363 6.31787 13.2385 4.57615 11.9038 3.39624C10.7461 2.37257 9.36809 1.80537 8.00439 1.67847ZM1.4624 8.00464C1.26241 9.35447 1.55043 10.6208 2.27881 11.655L2.45459 11.8894L2.45557 11.8904C3.35855 13.0299 4.73898 13.765 6.25342 14.0505C5.41105 13.6742 4.60145 13.1575 3.88721 12.5271C2.4888 11.2901 1.66681 9.65571 1.4624 8.00464ZM10.2817 1.87573C10.948 2.17513 11.5867 2.58116 12.1694 3.09644C13.537 4.30548 14.3612 6.05649 14.5933 7.8396C14.6566 6.38267 14.2126 4.99482 13.3218 3.87085C12.526 2.87109 11.4567 2.20012 10.2817 1.87573ZM5.62451 1.91968C4.68777 2.2131 3.83568 2.74461 3.16455 3.50854C2.80286 3.92027 2.51629 4.37673 2.30029 4.86108C2.74168 4.20049 3.28103 3.58526 3.89795 3.05249L4.16846 2.82788C4.62772 2.46048 5.11721 2.15782 5.62451 1.91968Z" fill="#141414"/>
<path d="M7.77539 2C9.5423 2 11.366 2.71591 12.7695 3.96973C14.1873 5.23065 15 6.86683 15 8.46777L14.9902 8.76562C14.8964 10.2456 14.1032 11.5636 12.7275 12.5332C11.4023 13.4683 9.59931 14 7.77539 14V13.9932C4.15175 13.9931 1.19012 11.4664 1.00879 8.30078L1 7.99316C1 4.68507 4.03502 2.00009 7.77539 2ZM7.77539 3C4.46844 3.00009 2 5.34916 2 7.99316C2.00015 10.6385 4.47016 12.9931 7.77539 12.9932H8.10059C9.62984 12.9343 11.0915 12.4636 12.1514 11.7158C13.3934 10.8405 13.9999 9.69682 14 8.46777C14 7.20617 13.3536 5.82684 12.1055 4.7168L12.1035 4.71484C10.8719 3.6147 9.28159 3 7.77539 3Z" fill="#141414"/>
</svg>
