<svg width="32" height="32" viewBox="0 0 32 32" fill="none" xmlns="http://www.w3.org/2000/svg">
<path opacity="0.4" d="M18.6719 29.5H18.6582C18.66 29.5 18.6622 29.4991 18.6641 29.499C18.6666 29.499 18.6694 29.4999 18.6719 29.5ZM16 2.55371C20.2573 2.17724 24.5165 3.78488 27.2705 7.24609C29.4441 9.98878 30.3701 13.4627 29.8652 17.0352C29.7329 17.9675 29.5061 18.8763 29.1934 19.752C28.873 22.1545 27.9631 24.4012 26.4277 26.1523C24.5076 28.3309 21.7889 29.4976 18.6641 29.499C18.274 29.4988 17.8698 29.4862 17.4521 29.4443C16.8935 29.3925 16.3299 29.302 15.7646 29.1797C15.6452 29.1823 15.5257 29.1875 15.4062 29.1875L15.3916 29.1738C11.1004 29.1737 6.83657 27.5 4.28418 24.2793C2.15256 21.607 1.47984 18.1465 2.40527 14.5459C2.5373 14.0273 2.70363 13.5106 2.89844 12.998C3.14616 10.7275 4.00818 8.5535 5.51758 6.73535L5.72754 6.48926C8.32604 3.53142 12.1434 2.2157 16 2.55371ZM27.0605 23.6396C26.3581 24.5477 25.5415 25.3818 24.6201 26.1211L24.376 26.3125C23.0674 27.3095 21.5791 28.0388 20.0068 28.5146C22.3181 28.2311 24.294 27.2128 25.7529 25.5576C26.2618 24.9769 26.6971 24.3322 27.0605 23.6396ZM14.3564 3.41211C12.3727 3.84898 10.434 4.74462 8.71094 6.12305L8.70996 6.12402C6.67278 7.74686 5.02843 9.82356 3.96289 12.0371C3.09755 16.2537 4.60594 21.0513 8.37012 24.3809H8.37109C10.8828 26.5976 13.9921 28.0658 16.9463 28.4795L17.0781 28.4941C19.6933 28.2153 22.2174 27.2807 24.2461 25.6553L24.502 25.4453C26.0316 24.1596 27.2404 22.5975 28.0771 20.8643C28.421 19.379 28.5104 17.7866 28.3428 16.1826C27.9754 12.6682 26.3902 9.20925 23.7422 6.86816C20.9736 4.41978 17.5751 3.2877 14.3564 3.41211ZM2.85254 15.2578C2.19808 18.3795 2.81359 21.3305 4.56738 23.6689L4.75195 23.9062L4.75293 23.9082C6.7605 26.4413 9.91367 27.9876 13.3057 28.4375C11.5443 27.752 9.83353 26.7557 8.30957 25.5098L7.77539 25.0557C4.76543 22.3938 3.08978 18.8117 2.85254 15.2578ZM19.3965 3.28418C21.1496 3.89553 22.8358 4.86508 24.3379 6.19336C27.3541 8.85983 29.0533 12.843 29.2949 16.7783C29.7241 13.4246 28.8367 10.1838 26.8027 7.61719C24.9098 5.2385 22.2594 3.77582 19.3965 3.28418ZM10.5498 4.19336C8.98073 4.80632 7.55687 5.77116 6.4043 7.08301C5.82405 7.74355 5.33911 8.46148 4.94824 9.2207C5.76203 8.08944 6.72029 7.03411 7.79688 6.10449L8.33789 5.65625C9.04335 5.09191 9.78444 4.60494 10.5498 4.19336Z" fill="#141414"/>
<path d="M15.5508 4C19.0846 4 22.7329 5.43081 25.54 7.93848C28.3757 10.4603 30 13.7337 30 16.9355L29.9951 17.2344C29.8978 20.3151 28.2977 23.0636 25.4541 25.0674C22.8037 26.9374 19.1985 28 15.5508 28V27.9854C8.07003 27.9852 2 22.6015 2 15.9854C2.00029 9.36939 8.07021 4.00017 15.5508 4ZM15.5508 5.5C8.72036 5.50017 3.5003 10.3655 3.5 15.9854C3.5 21.6076 8.72259 26.4852 15.5508 26.4854H16.2373C19.3741 26.3616 22.3855 25.3972 24.5898 23.8418L24.5908 23.8408C27.1876 22.0107 28.4998 19.5795 28.5 16.9355C28.5 14.2426 27.1242 11.3551 24.543 9.05957L24.541 9.05762C21.9917 6.78028 18.6937 5.5 15.5508 5.5Z" fill="#141414"/>
</svg>
