<svg width="24" height="24" viewBox="0 0 24 24" fill="none" xmlns="http://www.w3.org/2000/svg">
<path opacity="0.4" d="M14.0049 22.125H13.9941C13.9957 22.125 13.9975 22.1241 13.999 22.124C14.0007 22.124 14.0031 22.1249 14.0049 22.125ZM12.0146 1.91602C15.2029 1.63863 18.3908 2.84261 20.4531 5.43457C22.0833 7.49156 22.778 10.0971 22.3994 12.7764L22.3164 13.2734C22.2156 13.7995 22.0713 14.3132 21.8926 14.8135C21.6524 16.6155 20.9728 18.3008 19.8213 19.6143L19.5439 19.9121C18.1249 21.3544 16.1958 22.1228 13.999 22.124C13.7063 22.1239 13.4024 22.1145 13.0889 22.083C12.6705 22.0442 12.2485 21.9763 11.8252 21.8848C11.735 21.8867 11.6449 21.8906 11.5547 21.8906L11.5439 21.8799C8.32543 21.8799 5.1282 20.6246 3.21387 18.209C1.61511 16.2047 1.10957 13.6097 1.80371 10.9092C1.90261 10.5207 2.02795 10.1339 2.17383 9.75C2.35086 8.12406 2.94758 6.56398 3.98633 5.23926L4.2959 4.86719C6.24799 2.64514 9.11733 1.65797 12.0146 1.91602ZM20.1973 17.8525C19.6926 18.4857 19.1139 19.0701 18.4648 19.5908C17.477 20.3823 16.3433 20.9629 15.1406 21.3438C16.8089 21.1089 18.2353 20.3548 19.2959 19.1514C19.6426 18.7557 19.9408 18.3186 20.1973 17.8525ZM10.9189 2.57812C9.38984 2.89187 7.89237 3.57129 6.56543 4.63281L6.56445 4.63379C5.01306 5.86974 3.76625 7.45714 2.97266 9.14551C2.37495 12.271 3.51068 15.8045 6.29395 18.2666C8.16937 19.9218 10.4904 21.019 12.6953 21.332C14.6866 21.1385 16.6116 20.4356 18.1523 19.2012L18.5303 18.8838C19.6143 17.9295 20.4694 16.7842 21.0615 15.5205C21.2959 14.4446 21.3533 13.2964 21.2324 12.1396C20.9574 9.50908 19.7708 6.92103 17.79 5.16992C15.7612 3.37575 13.2813 2.52531 10.9189 2.57812ZM2.1543 11.6445C1.74476 13.8224 2.16584 15.8772 3.33691 17.54L3.60449 17.8975L3.60547 17.8984C5.06141 19.7356 7.3285 20.8776 9.78418 21.2471C8.53256 20.7365 7.31871 20.02 6.23242 19.1318L5.83203 18.792C3.63135 16.8458 2.38081 14.2436 2.1543 11.6445ZM14.8379 2.57129C16.0483 3.03268 17.2106 3.72289 18.2539 4.64551C20.4485 6.58574 21.7103 9.45571 21.9492 12.3203C22.1773 10.0689 21.6097 7.89887 20.3398 6.11621L20.0615 5.74512C18.7167 4.0552 16.8581 2.98564 14.8379 2.57129ZM7.73145 3.24609C6.63344 3.70675 5.63696 4.40177 4.82227 5.3291C4.42802 5.77789 4.09174 6.26173 3.81445 6.77246C4.50448 5.83962 5.32701 4.9798 6.25293 4.24219C6.72613 3.86364 7.22161 3.53294 7.73145 3.24609Z" fill="#141414"/>
<path d="M11.6631 3C14.3135 3 17.0499 4.07335 19.1553 5.9541C21.2818 7.84542 22.5 10.2999 22.5 12.7012C22.5 15.1026 21.2923 17.2494 19.0908 18.8008L18.71 19.0566C16.765 20.2999 14.2279 21 11.6631 21V20.9893C6.05252 20.9891 1.5 16.9514 1.5 11.9893C1.50007 7.02717 6.05257 3.00013 11.6631 3ZM11.6631 4.2002C6.57268 4.20032 2.70027 7.82407 2.7002 11.9893C2.7002 16.1562 6.57457 19.7889 11.6631 19.7891H12.1719C14.513 19.6973 16.7587 18.978 18.3994 17.8203V17.8193C20.3305 16.4586 21.2998 14.6565 21.2998 12.7012C21.2998 10.7069 20.2805 8.5609 18.3574 6.85059L18.3555 6.84863C16.4564 5.15222 14.0007 4.2002 11.6631 4.2002Z" fill="#141414"/>
</svg>
