<svg width="32" height="32" viewBox="0 0 32 32" fill="none" xmlns="http://www.w3.org/2000/svg">
<path d="M14.3861 3.29001C14.7746 1.57 17.2254 1.57 17.6139 3.29001L18.386 6.70799C18.6378 7.82273 19.917 8.35261 20.8833 7.74242L23.8461 5.87148C25.3371 4.92997 27.07 6.66292 26.1285 8.15388L24.2576 11.1167C23.6474 12.083 24.1773 13.3622 25.292 13.614L28.71 14.3861C30.43 14.7746 30.43 17.2254 28.71 17.6139L25.292 18.386C24.1773 18.6378 23.6474 19.917 24.2576 20.8833L26.1285 23.8461C27.07 25.3371 25.3371 27.07 23.8461 26.1285L20.8833 24.2576C19.917 23.6474 18.6378 24.1773 18.386 25.292L17.6139 28.71C17.2254 30.43 14.7746 30.43 14.3861 28.71L13.614 25.292C13.3622 24.1773 12.083 23.6474 11.1167 24.2576L8.15388 26.1285C6.66292 27.07 4.92997 25.3371 5.87147 23.8461L7.74242 20.8833C8.35261 19.917 7.82273 18.6378 6.70799 18.386L3.29001 17.6139C1.57 17.2254 1.57 14.7746 3.29001 14.3861L6.70799 13.614C7.82273 13.3622 8.35261 12.083 7.74242 11.1167L5.87148 8.15389C4.92997 6.66292 6.66292 4.92997 8.15388 5.87147L11.1167 7.74242C12.083 8.35261 13.3622 7.82273 13.614 6.70799L14.3861 3.29001Z" fill="#141414"/>
</svg>
