<svg width="16" height="16" viewBox="0 0 16 16" fill="none" xmlns="http://www.w3.org/2000/svg">
<path d="M7.19305 1.64501C7.38731 0.784999 8.61269 0.784998 8.80695 1.64501L9.19299 3.35399C9.31889 3.91137 9.95851 4.1763 10.4417 3.87121L11.9231 2.93574C12.6685 2.46498 13.535 3.33146 13.0643 4.07694L12.1288 5.55835C11.8237 6.04149 12.0886 6.68111 12.646 6.80701L14.355 7.19305C15.215 7.38731 15.215 8.61269 14.355 8.80695L12.646 9.19299C12.0886 9.31889 11.8237 9.95851 12.1288 10.4417L13.0643 11.9231C13.535 12.6685 12.6685 13.535 11.9231 13.0643L10.4417 12.1288C9.95851 11.8237 9.31889 12.0886 9.19299 12.646L8.80695 14.355C8.61269 15.215 7.38731 15.215 7.19305 14.355L6.80701 12.646C6.68111 12.0886 6.0415 11.8237 5.55835 12.1288L4.07694 13.0643C3.33146 13.535 2.46498 12.6685 2.93574 11.9231L3.87121 10.4417C4.1763 9.95851 3.91137 9.31889 3.35399 9.19299L1.64501 8.80695C0.784999 8.61269 0.784998 7.38731 1.64501 7.19305L3.35399 6.80701C3.91137 6.68111 4.1763 6.0415 3.87121 5.55835L2.93574 4.07694C2.46498 3.33146 3.33146 2.46498 4.07694 2.93574L5.55835 3.87121C6.04149 4.1763 6.68111 3.91137 6.80701 3.35399L7.19305 1.64501Z" fill="#141414"/>
</svg>
