<svg width="12" height="12" viewBox="0 0 12 12" fill="none" xmlns="http://www.w3.org/2000/svg">
<path d="M5.4236 1.46072C5.56236 0.846428 6.43764 0.846427 6.5764 1.46072L6.85213 2.68142C6.94206 3.07955 7.39893 3.26879 7.74404 3.05086L8.80218 2.38267C9.33467 2.04642 9.95358 2.66533 9.61733 3.19782L8.94914 4.25596C8.73121 4.60107 8.92045 5.05794 9.31858 5.14787L10.5393 5.4236C11.1536 5.56236 11.1536 6.43764 10.5393 6.5764L9.31858 6.85213C8.92045 6.94206 8.73121 7.39893 8.94914 7.74404L9.61733 8.80219C9.95358 9.33467 9.33467 9.95358 8.80219 9.61733L7.74404 8.94914C7.39893 8.73121 6.94206 8.92045 6.85213 9.31858L6.5764 10.5393C6.43764 11.1536 5.56236 11.1536 5.4236 10.5393L5.14787 9.31858C5.05794 8.92045 4.60107 8.73121 4.25596 8.94914L3.19782 9.61733C2.66533 9.95358 2.04642 9.33467 2.38267 8.80219L3.05086 7.74404C3.26879 7.39893 3.07955 6.94206 2.68142 6.85213L1.46072 6.5764C0.846428 6.43764 0.846427 5.56236 1.46072 5.4236L2.68142 5.14787C3.07955 5.05794 3.26879 4.60107 3.05086 4.25596L2.38267 3.19782C2.04642 2.66533 2.66533 2.04642 3.19782 2.38267L4.25596 3.05086C4.60107 3.26879 5.05794 3.07955 5.14787 2.68142L5.4236 1.46072Z" fill="#141414"/>
</svg>
