<svg width="24" height="24" viewBox="0 0 24 24" fill="none" xmlns="http://www.w3.org/2000/svg">
<path d="M10.8472 2.92144C11.1247 1.69286 12.8753 1.69285 13.1528 2.92144L13.7043 5.36285C13.8841 6.15909 14.7979 6.53758 15.4881 6.10173L17.6044 4.76534C18.6693 4.09284 19.9072 5.33066 19.2347 6.39563L17.8983 8.51192C17.4624 9.20214 17.8409 10.1159 18.6372 10.2957L21.0786 10.8472C22.3071 11.1247 22.3071 12.8753 21.0786 13.1528L18.6372 13.7043C17.8409 13.8841 17.4624 14.7979 17.8983 15.4881L19.2347 17.6044C19.9072 18.6693 18.6693 19.9072 17.6044 19.2347L15.4881 17.8983C14.7979 17.4624 13.8841 17.8409 13.7043 18.6372L13.1528 21.0786C12.8753 22.3071 11.1247 22.3071 10.8472 21.0786L10.2957 18.6372C10.1159 17.8409 9.20214 17.4624 8.51193 17.8983L6.39563 19.2347C5.33066 19.9072 4.09283 18.6693 4.76534 17.6044L6.10173 15.4881C6.53758 14.7979 6.15909 13.8841 5.36285 13.7043L2.92144 13.1528C1.69286 12.8753 1.69285 11.1247 2.92144 10.8472L5.36285 10.2957C6.15909 10.1159 6.53758 9.20214 6.10173 8.51193L4.76534 6.39563C4.09284 5.33066 5.33066 4.09284 6.39563 4.76534L8.51192 6.10173C9.20214 6.53758 10.1159 6.15909 10.2957 5.36285L10.8472 2.92144Z" fill="#141414"/>
</svg>
