<svg width="16" height="16" viewBox="0 0 16 16" fill="none" xmlns="http://www.w3.org/2000/svg">
<g clip-path="url(#clip0_18240_64)">
<path d="M13.3335 4.6665H2.66683C1.93045 4.6665 1.3335 5.26346 1.3335 5.99984V12.6665C1.3335 13.4029 1.93045 13.9998 2.66683 13.9998H13.3335C14.0699 13.9998 14.6668 13.4029 14.6668 12.6665V5.99984C14.6668 5.26346 14.0699 4.6665 13.3335 4.6665Z" stroke="#141414" stroke-linecap="round" stroke-linejoin="round"/>
<path d="M10.6668 14V3.33333C10.6668 2.97971 10.5264 2.64057 10.2763 2.39052C10.0263 2.14048 9.68712 2 9.3335 2H6.66683C6.31321 2 5.97407 2.14048 5.72402 2.39052C5.47397 2.64057 5.3335 2.97971 5.3335 3.33333V14" stroke="#141414" stroke-linecap="round" stroke-linejoin="round"/>
</g>
<defs>
<clipPath id="clip0_18240_64">
<rect width="16" height="16" fill="white"/>
</clipPath>
</defs>
</svg>
