<svg width="32" height="32" viewBox="0 0 32 32" fill="none" xmlns="http://www.w3.org/2000/svg">
<g clip-path="url(#clip0_18240_65)">
<path d="M26.6665 9.3335H5.33317C3.86041 9.3335 2.6665 10.5274 2.6665 12.0002V25.3335C2.6665 26.8063 3.86041 28.0002 5.33317 28.0002H26.6665C28.1393 28.0002 29.3332 26.8063 29.3332 25.3335V12.0002C29.3332 10.5274 28.1393 9.3335 26.6665 9.3335Z" stroke="#141414" stroke-width="2" stroke-linecap="round" stroke-linejoin="round"/>
<path d="M21.3332 28V6.66667C21.3332 5.95942 21.0522 5.28115 20.5521 4.78105C20.052 4.28095 19.3737 4 18.6665 4H13.3332C12.6259 4 11.9477 4.28095 11.4476 4.78105C10.9475 5.28115 10.6665 5.95942 10.6665 6.66667V28" stroke="#141414" stroke-width="2" stroke-linecap="round" stroke-linejoin="round"/>
</g>
<defs>
<clipPath id="clip0_18240_65">
<rect width="32" height="32" fill="white"/>
</clipPath>
</defs>
</svg>
