<svg xmlns="http://www.w3.org/2000/svg" width="24" height="24" fill="none" viewBox="0 0 24 24">
  <path fill="#141414" fill-rule="evenodd" d="M10.75 4a.25.25 0 0 1 .25-.25h1.5a.75.75 0 0 0 0-1.5H11A1.75 1.75 0 0 0 9.25 4v2.25H7A3.75 3.75 0 0 0 3.25 10v4c0 .966.784 1.75 1.75 1.75h6.25V21a.75.75 0 0 0 1.5 0v-5.25H20a.75.75 0 0 0 0-1.5h-1.25V10a3.75 3.75 0 0 0-4.096-3.734.752.752 0 0 0-.154-.016h-3.75V4ZM10 7.75H7A2.25 2.25 0 0 0 4.75 10v4c0 .138.112.25.25.25h6.25V10c0-.844.279-1.623.75-2.25h-2ZM17.25 10v4.25h-4.5V10a2.25 2.25 0 0 1 4.5 0Z" clip-rule="evenodd"/>
</svg>
