<svg xmlns="http://www.w3.org/2000/svg" width="16" height="16" fill="none" viewBox="0 0 16 16">
  <path fill="#141414" fill-rule="evenodd" d="M5.5 4A2.5 2.5 0 0 0 3 6.5v3a.5.5 0 0 0 .5.5h10a.5.5 0 0 1 0 1h-10A1.5 1.5 0 0 1 2 9.5v-3A3.5 3.5 0 0 1 5.5 3H10a.5.5 0 0 1 0 1H5.5Z" clip-rule="evenodd"/>
  <path fill="#141414" fill-rule="evenodd" d="M7.5 2a.5.5 0 0 0-.5.5v1a.5.5 0 0 1-1 0v-1A1.5 1.5 0 0 1 7.5 1h1a.5.5 0 0 1 0 1h-1ZM7 6a3 3 0 0 1 6 0v4.5a.5.5 0 0 1-1 0V6a2 2 0 1 0-4 0v8.5a.5.5 0 0 1-1 0V6Z" clip-rule="evenodd"/>
</svg>
