<svg xmlns="http://www.w3.org/2000/svg" width="32" height="32" fill="none" viewBox="0 0 32 32">
  <path fill="#141414" fill-rule="evenodd" d="M14.334 5.333c0-.184.15-.333.333-.333h2a1 1 0 1 0 0-2h-2a2.333 2.333 0 0 0-2.333 2.333v3h-3a5 5 0 0 0-5 5v5.334A2.333 2.333 0 0 0 6.667 21h8.334v7a1 1 0 1 0 2 0v-7h9.666a1 1 0 1 0 0-2h-1.666v-5.667a5 5 0 0 0-5.462-4.979 1.005 1.005 0 0 0-.205-.02h-5v-3Zm-1 5h-4a3 3 0 0 0-3 3v5.334c0 .184.15.333.333.333h8.334v-5.667c0-1.125.372-2.164 1-3h-2.667Zm9.667 3V19h-6v-5.667a3 3 0 0 1 6 0Z" clip-rule="evenodd"/>
</svg>
