<svg xmlns="http://www.w3.org/2000/svg" width="32" height="32" fill="none" viewBox="0 0 32 32">
  <path fill="#141414" fill-rule="evenodd" d="M27.333 16c0 6.26-5.074 11.333-11.333 11.333C9.74 27.333 4.666 22.26 4.666 16S9.741 4.666 16 4.666c6.26 0 11.333 5.075 11.333 11.334Zm2 0c0 7.364-5.97 13.333-13.333 13.333-7.364 0-13.334-5.97-13.334-13.333C2.666 8.636 8.636 2.666 16 2.666S29.333 8.636 29.333 16ZM22 16a6 6 0 1 1-12 0 6 6 0 0 1 12 0Zm2 0a8 8 0 1 1-16 0 8 8 0 0 1 16 0Zm-10.667 0a2.667 2.667 0 1 0 5.334 0 2.667 2.667 0 0 0-5.334 0Z" clip-rule="evenodd"/>
</svg>
