<svg xmlns="http://www.w3.org/2000/svg" width="32" height="32" fill="none" viewBox="0 0 32 32">
  <path fill="#141414" fill-rule="evenodd" d="M10.333 5.333a1 1 0 0 0-1 1V8H6.667A2.667 2.667 0 0 0 4 10.667V24a2.667 2.667 0 0 0 2.667 2.667h18.666A2.667 2.667 0 0 0 28 24V10.667A2.667 2.667 0 0 0 25.333 8h-2.666V6.333a1 1 0 1 0-2 0V8h-9.334V6.333a1 1 0 0 0-1-1Zm15 4.667H6.667a.667.667 0 0 0-.667.667V24c0 .368.298.667.667.667h18.666A.667.667 0 0 0 26 24V10.667a.667.667 0 0 0-.667-.667Zm-16 4.334a1 1 0 1 1 2 0 1 1 0 0 1-2 0Zm1 5a1 1 0 1 0 0 2 1 1 0 0 0 0-2Zm4.667-5a1 1 0 1 1 2 0 1 1 0 0 1-2 0Zm1 5a1 1 0 1 0 0 2 1 1 0 0 0 0-2Zm4.667-5a1 1 0 1 1 2 0 1 1 0 0 1-2 0Zm1 5a1 1 0 1 0 0 2 1 1 0 0 0 0-2Z" clip-rule="evenodd"/>
</svg>
