<svg xmlns="http://www.w3.org/2000/svg" width="16" height="16" fill="none" viewBox="0 0 16 16">
  <path fill="#141414" fill-rule="evenodd" d="M13 5H3a1 1 0 0 0-1 1v6a1 1 0 0 0 1 1h10a1 1 0 0 0 1-1V6a1 1 0 0 0-1-1ZM3 4a2 2 0 0 0-2 2v6a2 2 0 0 0 2 2h10a2 2 0 0 0 2-2V6a2 2 0 0 0-2-2H3Z" clip-rule="evenodd"/>
  <path fill="#141414" d="M4 2.5a.5.5 0 0 1 1 0v2a.5.5 0 0 1-1 0v-2Zm7 0a.5.5 0 0 1 1 0v2a.5.5 0 0 1-1 0v-2Zm-6 5a.5.5 0 1 1-1 0 .5.5 0 0 1 1 0Zm7 0a.5.5 0 1 1-1 0 .5.5 0 0 1 1 0Zm-3.5 0a.5.5 0 1 1-1 0 .5.5 0 0 1 1 0Zm0 3a.5.5 0 1 1-1 0 .5.5 0 0 1 1 0Zm-3.5 0a.5.5 0 1 1-1 0 .5.5 0 0 1 1 0Z"/>
</svg>
