<svg xmlns="http://www.w3.org/2000/svg" width="24" height="24" fill="none" viewBox="0 0 24 24">
  <path fill="#141414" fill-rule="evenodd" d="M7.75 4a.75.75 0 0 0-.75.75V6H5a2 2 0 0 0-2 2v10a2 2 0 0 0 2 2h14a2 2 0 0 0 2-2V8a2 2 0 0 0-2-2h-2V4.75a.75.75 0 0 0-1.5 0V6h-7V4.75A.75.75 0 0 0 7.75 4ZM19 7.5H5a.5.5 0 0 0-.5.5v10a.5.5 0 0 0 .5.5h14a.5.5 0 0 0 .5-.5V8a.5.5 0 0 0-.5-.5ZM7 10.75a.75.75 0 1 1 1.5 0 .75.75 0 0 1-1.5 0Zm.75 3.75a.75.75 0 1 0 0 1.5.75.75 0 0 0 0-1.5Zm3.5-3.75a.75.75 0 1 1 1.5 0 .75.75 0 0 1-1.5 0ZM12 14.5a.75.75 0 1 0 0 1.5.75.75 0 0 0 0-1.5Zm3.5-3.75a.75.75 0 1 1 1.5 0 .75.75 0 0 1-1.5 0Zm.75 3.75a.75.75 0 1 0 0 1.5.75.75 0 0 0 0-1.5Z" clip-rule="evenodd"/>
</svg>
