<svg xmlns="http://www.w3.org/2000/svg" width="32" height="32" fill="none" viewBox="0 0 32 32">
  <path fill="#141414" fill-rule="evenodd" d="M16 5a1.667 1.667 0 1 0 0 3.333A1.667 1.667 0 0 0 16 5Zm-3.667 1.667A3.667 3.667 0 1 1 17 10.195v2.138h3a1 1 0 1 1 0 2h-3v4.334c0 .184.149.333.333.333h4.24c1.113 0 2.07.785 2.288 1.876l.905 4.523a.333.333 0 0 0 .327.268h1.573a1 1 0 1 1 0 2h-1.573a2.333 2.333 0 0 1-2.288-1.876l-.905-4.523a.333.333 0 0 0-.327-.268h-.58a8.333 8.333 0 1 1-8.327-8.667H15v-2.138a3.668 3.668 0 0 1-2.667-3.528ZM15 14.333h-2.334A6.333 6.333 0 1 0 18.991 21h-1.658A2.333 2.333 0 0 1 15 18.667v-4.334Z" clip-rule="evenodd"/>
</svg>
