<svg xmlns="http://www.w3.org/2000/svg" width="24" height="24" fill="none" viewBox="0 0 24 24">
  <path fill="#141414" fill-rule="evenodd" d="M12 3.75a1.25 1.25 0 1 0 0 2.5 1.25 1.25 0 0 0 0-2.5ZM9.25 5a2.75 2.75 0 1 1 3.5 2.646V9.25H15a.75.75 0 0 1 0 1.5h-2.25V14c0 .138.112.25.25.25h3.18a1.75 1.75 0 0 1 1.716 1.407l.679 3.392a.25.25 0 0 0 .245.201H20a.75.75 0 0 1 0 1.5h-1.18a1.75 1.75 0 0 1-1.716-1.407l-.679-3.392a.25.25 0 0 0-.245-.201h-.435A6.25 6.25 0 1 1 9.5 9.25h1.75V7.646A2.751 2.751 0 0 1 9.25 5Zm2 5.75H9.5a4.75 4.75 0 1 0 4.743 5H13A1.75 1.75 0 0 1 11.25 14v-3.25Z" clip-rule="evenodd"/>
</svg>
