<svg xmlns="http://www.w3.org/2000/svg" width="16" height="16" fill="none" viewBox="0 0 16 16">
  <path fill="#141414" fill-rule="evenodd" d="M7.5 4a1 1 0 1 0 0-2 1 1 0 0 0 0 2Zm0 1a2 2 0 1 0 0-4 2 2 0 0 0 0 4Z" clip-rule="evenodd"/>
  <path fill="#141414" fill-rule="evenodd" d="M7.5 4.5A.5.5 0 0 1 8 5v1.5h1.5a.5.5 0 0 1 0 1H8V9a.5.5 0 0 0 .5.5h2.117a1.5 1.5 0 0 1 1.489 1.314l.28 2.248a.5.5 0 0 0 .497.438h.617a.5.5 0 0 1 0 1h-.617a1.5 1.5 0 0 1-1.489-1.314l-.28-2.248a.5.5 0 0 0-.497-.438H8.5A1.5 1.5 0 0 1 7 9V5a.5.5 0 0 1 .5-.5Z" clip-rule="evenodd"/>
  <path fill="#141414" fill-rule="evenodd" d="M6 7.5a3 3 0 1 0 3 3V10a.5.5 0 0 1 1 0v.5a4 4 0 1 1-4-4h3.5a.5.5 0 0 1 0 1H6Z" clip-rule="evenodd"/>
</svg>
