<svg width="12" height="12" viewBox="0 0 12 12" fill="none" xmlns="http://www.w3.org/2000/svg">
<path fill-rule="evenodd" clip-rule="evenodd" d="M2.33333 1C1.59695 1 1 1.59695 1 2.33333V5.66667C1 6.40305 1.59695 7 2.33333 7H9.66667C10.403 7 11 6.40305 11 5.66667V2.33333C11 1.59695 10.403 1 9.66667 1H2.33333ZM4.92065 2.78993V5.20812C4.92065 5.4301 5.15397 5.56721 5.33737 5.453L7.27893 4.24391C7.45705 4.13299 7.45705 3.86506 7.27893 3.75414L5.33737 2.54504C5.15397 2.43084 4.92065 2.56795 4.92065 2.78993Z" fill="#141414"/>
<path fill-rule="evenodd" clip-rule="evenodd" d="M3 10.5C3 10.2239 3.22386 10 3.5 10L8.5 10C8.77614 10 9 10.2239 9 10.5C9 10.7761 8.77614 11 8.5 11L3.5 11C3.22386 11 3 10.7761 3 10.5Z" fill="#141414"/>
<path fill-rule="evenodd" clip-rule="evenodd" d="M2 8.5C2 8.22386 2.22386 8 2.5 8L9.5 8C9.77614 8 10 8.22386 10 8.5C10 8.77614 9.77614 9 9.5 9L2.5 9C2.22386 9 2 8.77614 2 8.5Z" fill="#141414"/>
</svg>
