<svg width="16" height="16" viewBox="0 0 16 16" fill="none" xmlns="http://www.w3.org/2000/svg">
<path fill-rule="evenodd" clip-rule="evenodd" d="M2.66634 1.66699C1.92996 1.66699 1.33301 2.26395 1.33301 3.00033V9.00033C1.33301 9.73671 1.92996 10.3337 2.66634 10.3337H13.333C14.0694 10.3337 14.6663 9.7367 14.6663 9.00033V3.00033C14.6663 2.26395 14.0694 1.66699 13.333 1.66699H2.66634ZM6.66634 4.38293V7.61772C6.66634 7.91466 6.97845 8.09807 7.22377 7.9453L9.82098 6.3279C10.0592 6.17953 10.0592 5.82113 9.82098 5.67275L7.22378 4.05536C6.97845 3.90258 6.66634 4.08599 6.66634 4.38293Z" fill="#141414"/>
<path fill-rule="evenodd" clip-rule="evenodd" d="M2.33317 11.8335C2.33317 11.5574 2.55703 11.3335 2.83317 11.3335L13.1665 11.3335C13.4426 11.3335 13.6665 11.5574 13.6665 11.8335C13.6665 12.1096 13.4426 12.3335 13.1665 12.3335L2.83317 12.3335C2.55703 12.3335 2.33317 12.1096 2.33317 11.8335Z" fill="#141414"/>
<path fill-rule="evenodd" clip-rule="evenodd" d="M3.33317 13.8335C3.33317 13.5574 3.55703 13.3335 3.83317 13.3335L12.1665 13.3335C12.4426 13.3335 12.6665 13.5574 12.6665 13.8335C12.6665 14.1096 12.4426 14.3335 12.1665 14.3335L3.83317 14.3335C3.55703 14.3335 3.33317 14.1096 3.33317 13.8335Z" fill="#141414"/>
</svg>
