<svg width="24" height="24" viewBox="0 0 24 24" fill="none" xmlns="http://www.w3.org/2000/svg">
<path fill-rule="evenodd" clip-rule="evenodd" d="M4 2.5C2.89543 2.5 2 3.39543 2 4.5V13.5C2 14.6046 2.89543 15.5 4 15.5H20C21.1046 15.5 22 14.6046 22 13.5V4.5C22 3.39543 21.1046 2.5 20 2.5H4ZM10 6.57391V11.4261C10 11.8715 10.4682 12.1466 10.8362 11.9175L14.732 9.49137C15.0893 9.2688 15.0893 8.7312 14.732 8.50863L10.8362 6.08255C10.4682 5.85338 10 6.1285 10 6.57391Z" fill="#141414"/>
<path d="M3.5 17.75C3.5 17.3358 3.83579 17 4.25 17L19.75 17C20.1642 17 20.5 17.3358 20.5 17.75C20.5 18.1642 20.1642 18.5 19.75 18.5L4.25 18.5C3.83579 18.5 3.5 18.1642 3.5 17.75Z" fill="#141414"/>
<path d="M5.75 20C5.33579 20 5 20.3358 5 20.75C5 21.1642 5.33579 21.5 5.75 21.5L18.25 21.5C18.6642 21.5 19 21.1642 19 20.75C19 20.3358 18.6642 20 18.25 20L5.75 20Z" fill="#141414"/>
</svg>
