<svg width="32" height="32" viewBox="0 0 32 32" fill="none" xmlns="http://www.w3.org/2000/svg">
<path fill-rule="evenodd" clip-rule="evenodd" d="M5.33268 3.3335C3.85992 3.3335 2.66602 4.5274 2.66602 6.00016V18.0002C2.66602 19.4729 3.85992 20.6668 5.33268 20.6668H26.666C28.1388 20.6668 29.3327 19.4729 29.3327 18.0002V6.00016C29.3327 4.5274 28.1388 3.3335 26.666 3.3335H5.33268ZM13.3327 8.76538V15.2349C13.3327 15.8288 13.9569 16.1956 14.4475 15.8901L19.642 12.6553C20.1185 12.3586 20.1185 11.6418 19.642 11.345L14.4476 8.11022C13.9569 7.80467 13.3327 8.17149 13.3327 8.76538Z" fill="#141414"/>
<path d="M4.66634 23.6668C4.66634 23.1145 5.11406 22.6668 5.66634 22.6668L26.333 22.6668C26.8853 22.6668 27.333 23.1145 27.333 23.6668C27.333 24.2191 26.8853 24.6668 26.333 24.6668L5.66634 24.6668C5.11406 24.6668 4.66634 24.2191 4.66634 23.6668Z" fill="#141414"/>
<path d="M7.66634 26.6668C7.11406 26.6668 6.66634 27.1145 6.66634 27.6668C6.66634 28.2191 7.11406 28.6668 7.66634 28.6668L24.333 28.6668C24.8853 28.6668 25.333 28.2191 25.333 27.6668C25.333 27.1145 24.8853 26.6668 24.333 26.6668L7.66634 26.6668Z" fill="#141414"/>
</svg>
