<svg width="16" height="16" viewBox="0 0 16 16" fill="none" xmlns="http://www.w3.org/2000/svg">
<path fill-rule="evenodd" clip-rule="evenodd" d="M3 1.5C2.17157 1.5 1.5 2.17157 1.5 3V13C1.5 13.8284 2.17157 14.5 3 14.5H13C13.8284 14.5 14.5 13.8284 14.5 13V3.79289L12.2071 1.5H3ZM3 2.5C2.72386 2.5 2.5 2.72386 2.5 3V13C2.5 13.2761 2.72386 13.5 3 13.5H3.5V11C3.5 10.1716 4.17157 9.5 5 9.5H11C11.8284 9.5 12.5 10.1716 12.5 11V13.5H13C13.2761 13.5 13.5 13.2761 13.5 13V4.20711L11.7929 2.5H11.5V5C11.5 5.82843 10.8284 6.5 10 6.5H6C5.17157 6.5 4.5 5.82843 4.5 5V2.5H3ZM5.5 2.5V5C5.5 5.27614 5.72386 5.5 6 5.5H10C10.2761 5.5 10.5 5.27614 10.5 5V2.5H5.5ZM11.5 13.5H4.5V11C4.5 10.7239 4.72386 10.5 5 10.5H11C11.2761 10.5 11.5 10.7239 11.5 11V13.5Z" fill="#141414"/>
</svg>
