<svg width="32" height="32" viewBox="0 0 32 32" fill="none" xmlns="http://www.w3.org/2000/svg">
<path fill-rule="evenodd" clip-rule="evenodd" d="M7 4C5.34315 4 4 5.34314 4 7V25C4 26.6569 5.34314 28 7 28H25C26.6569 28 28 26.6569 28 25V8.25245L23.7475 4H7ZM7 6C6.44771 6 6 6.44772 6 7V25C6 25.5523 6.44772 26 7 26H8V20C8 18.3431 9.34315 17 11 17H21C22.6569 17 24 18.3431 24 20V26H25C25.5523 26 26 25.5523 26 25V9.08088L22.9191 6H22V10C22 11.6569 20.6569 13 19 13H13C11.3431 13 10 11.6569 10 10V6H7ZM12 6V10C12 10.5523 12.4477 11 13 11H19C19.5523 11 20 10.5523 20 10V6H12ZM22 26H10V20C10 19.4477 10.4477 19 11 19H21C21.5523 19 22 19.4477 22 20V26Z" fill="#141414"/>
</svg>
