<svg width="24" height="24" viewBox="0 0 24 24" fill="none" xmlns="http://www.w3.org/2000/svg">
<path fill-rule="evenodd" clip-rule="evenodd" d="M5 21.75C3.48122 21.75 2.25 20.5188 2.25 19V5C2.25 3.48122 3.48122 2.25 5 2.25H17C17.1989 2.25 17.3897 2.32902 17.5303 2.46967L21.5303 6.46967C21.671 6.61032 21.75 6.80109 21.75 7V19C21.75 20.5188 20.5188 21.75 19 21.75H5ZM5 3.75C4.30964 3.75 3.75 4.30964 3.75 5V19C3.75 19.6904 4.30964 20.25 5 20.25H6.25V16C6.25 15.0335 7.0335 14.25 8 14.25H16C16.9665 14.25 17.75 15.0335 17.75 16V20.25H19C19.6904 20.25 20.25 19.6904 20.25 19V7.31066L16.75 3.81066V8C16.75 8.9665 15.9665 9.75 15 9.75H9C8.0335 9.75 7.25 8.9665 7.25 8V3.75H5ZM16.25 20.25V16C16.25 15.8619 16.1381 15.75 16 15.75H8C7.86193 15.75 7.75 15.8619 7.75 16V20.25H16.25ZM8.75 3.75H15.25V8C15.25 8.13807 15.1381 8.25 15 8.25H9C8.86193 8.25 8.75 8.13807 8.75 8V3.75Z" fill="#141414"/>
</svg>
