<svg width="12" height="12" viewBox="0 0 12 12" fill="none" xmlns="http://www.w3.org/2000/svg">
  <path fill-rule="evenodd" clip-rule="evenodd" d="M6 2C3.79086 2 2 3.79086 2 6C2 8.20914 3.79086 10 6 10C8.20914 10 10 8.20914 10 6C10 3.79086 8.20914 2 6 2ZM1 6C1 3.23858 3.23858 1 6 1C8.76142 1 11 3.23858 11 6C11 8.76142 8.76142 11 6 11C3.23858 11 1 8.76142 1 6Z" fill="#141414"/>
  <path fill-rule="evenodd" clip-rule="evenodd" d="M6 3.625C6.27614 3.625 6.5 3.84886 6.5 4.125V6.375C6.5 6.65114 6.27614 6.875 6 6.875C5.72386 6.875 5.5 6.65114 5.5 6.375V4.125C5.5 3.84886 5.72386 3.625 6 3.625Z" fill="#141414"/>
  <path fill-rule="evenodd" clip-rule="evenodd" d="M5.375 8.25C5.375 7.90482 5.65482 7.625 6 7.625H6.005C6.35018 7.625 6.63 7.90482 6.63 8.25C6.63 8.59518 6.35018 8.875 6.005 8.875H6C5.65482 8.875 5.375 8.59518 5.375 8.25Z" fill="#141414"/>
</svg>
