<svg width="32" height="32" viewBox="0 0 32 32" fill="none" xmlns="http://www.w3.org/2000/svg">
<path d="M19.5 5C20.3284 5 21 4.32843 21 3.5C21 2.67157 20.3284 2 19.5 2C18.6716 2 18 2.67157 18 3.5C18 4.32843 18.6716 5 19.5 5Z" fill="#141414"/>
<path d="M19.5 10C20.3284 10 21 9.32843 21 8.5C21 7.67157 20.3284 7 19.5 7C18.6716 7 18 7.67157 18 8.5C18 9.32843 18.6716 10 19.5 10Z" fill="#141414"/>
<path d="M20.0002 16C20.0002 18.2091 18.2093 20 16.0002 20C13.791 20 12.0002 18.2091 12.0002 16C12.0002 13.7909 13.791 12 16.0002 12C18.2093 12 20.0002 13.7909 20.0002 16Z" fill="#141414"/>
<path d="M8.77419 28H23.2258C23.6534 28 24 27.6642 24 27.25V26.75C24 24.1266 21.8048 22 19.0968 22H12.9032C10.1952 22 8 24.1266 8 26.75V27.25C8 27.6642 8.34662 28 8.77419 28Z" fill="#141414"/>
<path d="M26 20.5C26 21.3284 25.3284 22 24.5 22C23.6716 22 23 21.3284 23 20.5C23 19.6716 23.6716 19 24.5 19C25.3284 19 26 19.6716 26 20.5Z" fill="#141414"/>
<path d="M24.5 16C25.3284 16 26 15.3284 26 14.5C26 13.6716 25.3284 13 24.5 13C23.6716 13 23 13.6716 23 14.5C23 15.3284 23.6716 16 24.5 16Z" fill="#141414"/>
<path d="M31 14.5C31 15.3284 30.3284 16 29.5 16C28.6716 16 28 15.3284 28 14.5C28 13.6716 28.6716 13 29.5 13C30.3284 13 31 13.6716 31 14.5Z" fill="#141414"/>
<path d="M26 8.5C26 9.32843 25.3284 10 24.5 10C23.6716 10 23 9.32843 23 8.5C23 7.67157 23.6716 7 24.5 7C25.3284 7 26 7.67157 26 8.5Z" fill="#141414"/>
<path d="M6 20.5C6 21.3284 6.67157 22 7.5 22C8.32843 22 9 21.3284 9 20.5C9 19.6716 8.32843 19 7.5 19C6.67157 19 6 19.6716 6 20.5Z" fill="#141414"/>
<path d="M7.5 16C6.67157 16 6 15.3284 6 14.5C6 13.6716 6.67157 13 7.5 13C8.32843 13 9 13.6716 9 14.5C9 15.3284 8.32843 16 7.5 16Z" fill="#141414"/>
<path d="M1 14.5C1 15.3284 1.67157 16 2.5 16C3.32843 16 4 15.3284 4 14.5C4 13.6716 3.32843 13 2.5 13C1.67157 13 1 13.6716 1 14.5Z" fill="#141414"/>
<path d="M12.5 10C11.6716 10 11 9.32843 11 8.5C11 7.67157 11.6716 7 12.5 7C13.3284 7 14 7.67157 14 8.5C14 9.32843 13.3284 10 12.5 10Z" fill="#141414"/>
<path d="M6 8.5C6 9.32843 6.67157 10 7.5 10C8.32843 10 9 9.32843 9 8.5C9 7.67157 8.32843 7 7.5 7C6.67157 7 6 7.67157 6 8.5Z" fill="#141414"/>
<path d="M12.5 5C11.6716 5 11 4.32843 11 3.5C11 2.67157 11.6716 2 12.5 2C13.3284 2 14 2.67157 14 3.5C14 4.32843 13.3284 5 12.5 5Z" fill="#141414"/>
<path d="M30 9C30 9.55228 29.5523 10 29 10C28.4477 10 28 9.55228 28 9C28 8.44772 28.4477 8 29 8C29.5523 8 30 8.44772 30 9Z" fill="#141414"/>
<path d="M29 21C29.5523 21 30 20.5523 30 20C30 19.4477 29.5523 19 29 19C28.4477 19 28 19.4477 28 20C28 20.5523 28.4477 21 29 21Z" fill="#141414"/>
<path d="M4 20C4 20.5523 3.55228 21 3 21C2.44772 21 2 20.5523 2 20C2 19.4477 2.44772 19 3 19C3.55228 19 4 19.4477 4 20Z" fill="#141414"/>
<path d="M3 10C3.55228 10 4 9.55228 4 9C4 8.44772 3.55228 8 3 8C2.44772 8 2 8.44772 2 9C2 9.55228 2.44772 10 3 10Z" fill="#141414"/>
<path d="M9 4C9 4.55228 8.55228 5 8 5C7.44772 5 7 4.55228 7 4C7 3.44772 7.44772 3 8 3C8.55228 3 9 3.44772 9 4Z" fill="#141414"/>
<path d="M24 5C24.5523 5 25 4.55228 25 4C25 3.44772 24.5523 3 24 3C23.4477 3 23 3.44772 23 4C23 4.55228 23.4477 5 24 5Z" fill="#141414"/>
</svg>
