<svg xmlns="http://www.w3.org/2000/svg" width="24" height="24" fill="none" viewBox="0 0 24 24">
  <path fill="#141414" fill-rule="evenodd" d="M17.833 5.105a.75.75 0 0 1 1.061 0A9.722 9.722 0 0 1 21.75 12a9.722 9.722 0 0 1-2.856 6.894.75.75 0 0 1-1.06-1.06A8.222 8.222 0 0 0 20.25 12c0-2.279-.923-4.34-2.417-5.834a.75.75 0 0 1 0-1.06Zm-6.508.219A.75.75 0 0 1 11.75 6v12a.75.75 0 0 1-1.219.585L5.737 14.75H4A1.75 1.75 0 0 1 2.25 13v-2c0-.966.784-1.75 1.75-1.75h1.737l4.794-3.835a.75.75 0 0 1 .794-.09ZM10.25 7.56l-3.781 3.025A.75.75 0 0 1 6 10.75H4a.25.25 0 0 0-.25.25v2c0 .139.112.25.25.25h2a.75.75 0 0 1 .469.165l3.781 3.025V7.56Zm5.775.333a.75.75 0 1 0-1.05 1.071A4.235 4.235 0 0 1 16.25 12c0 1.19-.487 2.263-1.275 3.036a.75.75 0 0 0 1.05 1.07A5.735 5.735 0 0 0 17.75 12a5.735 5.735 0 0 0-1.725-4.106Z" clip-rule="evenodd"/>
</svg>
