<svg xmlns="http://www.w3.org/2000/svg" width="32" height="32" fill="none" viewBox="0 0 32 32">
  <path fill="#141414" fill-rule="evenodd" d="M23.778 6.807a1 1 0 0 1 1.414 0A12.962 12.962 0 0 1 29 16c0 3.59-1.456 6.841-3.808 9.193a1 1 0 1 1-1.414-1.414A10.962 10.962 0 0 0 27 15.999c0-3.037-1.23-5.786-3.222-7.778a1 1 0 0 1 0-1.414Zm-8.678.29a1 1 0 0 1 .567.902v16a1 1 0 0 1-1.625.781l-6.393-5.114H5.333A2.333 2.333 0 0 1 3 17.332v-2.666a2.333 2.333 0 0 1 2.333-2.334H7.65l6.393-5.114a1 1 0 0 1 1.058-.12Zm-1.433 2.983-5.042 4.033a1 1 0 0 1-.625.22H5.333a.333.333 0 0 0-.333.333v2.666c0 .185.15.334.333.334H8a1 1 0 0 1 .625.219l5.042 4.034v-11.84Zm7.7.444a1 1 0 0 0-1.4 1.428 5.647 5.647 0 0 1 1.7 4.047 5.65 5.65 0 0 1-1.7 4.047 1 1 0 1 0 1.4 1.428 7.646 7.646 0 0 0 2.3-5.475 7.647 7.647 0 0 0-2.3-5.475Z" clip-rule="evenodd"/>
</svg>
