<svg xmlns="http://www.w3.org/2000/svg" width="16" height="16" fill="none" viewBox="0 0 16 16">
  <path fill="#141414" fill-rule="evenodd" d="M7.55 3.55a.5.5 0 0 1 .283.45v8a.5.5 0 0 1-.812.39L3.825 9.833H3a1.5 1.5 0 0 1-1.5-1.5v-.666a1.5 1.5 0 0 1 1.5-1.5h.825L7.02 3.61a.5.5 0 0 1 .529-.06Zm-.717 1.49-2.52 2.017a.5.5 0 0 1-.313.11H3a.5.5 0 0 0-.5.5v.666a.5.5 0 0 0 .5.5h1a.5.5 0 0 1 .312.11l2.521 2.017V5.04Zm5.056-1.636a.5.5 0 0 1 .707 0A6.481 6.481 0 0 1 14.5 8a6.48 6.48 0 0 1-1.904 4.596.5.5 0 0 1-.707-.707A5.482 5.482 0 0 0 13.499 8a5.481 5.481 0 0 0-1.61-3.89.5.5 0 0 1 0-.706Z" clip-rule="evenodd"/>
  <path fill="#141414" fill-rule="evenodd" d="M9.976 5.27a.5.5 0 0 1 .707-.007A3.823 3.823 0 0 1 11.833 8c0 1.072-.44 2.042-1.15 2.738a.5.5 0 0 1-.7-.714c.525-.515.85-1.231.85-2.024a2.82 2.82 0 0 0-.85-2.023.5.5 0 0 1-.007-.707Z" clip-rule="evenodd"/>
</svg>
