<svg width="24" height="24" viewBox="0 0 24 24" fill="none" xmlns="http://www.w3.org/2000/svg">
<path d="M12.5302 11.4696C12.2373 11.1767 11.7624 11.1767 11.4695 11.4696C11.1766 11.7625 11.1766 12.2373 11.4695 12.5302L11.8231 12.8838C12.116 13.1767 12.5909 13.1767 12.8838 12.8838C13.1766 12.5909 13.1766 12.116 12.8838 11.8231L12.5302 11.4696Z" fill="#141414"/>
<path d="M9.70178 9.70181C9.99467 9.40891 10.4695 9.40891 10.7624 9.70181L11.116 10.0554C11.4089 10.3483 11.4089 10.8231 11.116 11.116C10.8231 11.4089 10.3482 11.4089 10.0553 11.116L9.70178 10.7625C9.40889 10.4696 9.40889 9.9947 9.70178 9.70181Z" fill="#141414"/>
<path d="M13.2373 13.2373C13.5302 12.9444 14.0051 12.9444 14.298 13.2373L14.6515 13.5909C14.9444 13.8838 14.9444 14.3586 14.6515 14.6515C14.3586 14.9444 13.8837 14.9444 13.5909 14.6515L13.2373 14.298C12.9444 14.0051 12.9444 13.5302 13.2373 13.2373Z" fill="#141414"/>
<path fill-rule="evenodd" clip-rule="evenodd" d="M12.3534 2.45395L2.45395 12.3534C1.6729 13.1345 1.6729 14.4008 2.45395 15.1819L4.33957 17.0675C4.66501 17.3929 5.19264 17.3929 5.51808 17.0675L5.98948 16.5961C6.38001 16.2056 7.01317 16.2056 7.4037 16.5961C7.79422 16.9866 7.79422 17.6198 7.4037 18.0103L6.93229 18.4817C6.60686 18.8071 6.60686 19.3348 6.93229 19.6602L8.81791 21.5458C9.59896 22.3269 10.8653 22.3269 11.6463 21.5458L21.5458 11.6463C22.3269 10.8653 22.3269 9.59896 21.5458 8.81791L19.6602 6.93229C19.3348 6.60686 18.8071 6.60686 18.4817 6.93229L18.0103 7.4037C17.6198 7.79422 16.9866 7.79422 16.5961 7.4037C16.2056 7.01317 16.2056 6.38001 16.5961 5.98948L17.0675 5.51808C17.3929 5.19264 17.3929 4.66501 17.0675 4.33957L15.1819 2.45395C14.4008 1.6729 13.1345 1.6729 12.3534 2.45395ZM8.99468 7.93403L13.4141 3.51461C13.6094 3.31935 13.926 3.31935 14.1212 3.51461L15.5354 4.92882C14.5591 5.90514 14.5591 7.48805 15.5354 8.46436C16.5117 9.44067 18.0946 9.44067 19.071 8.46436L20.4852 9.87857C20.6804 10.0738 20.6804 10.3904 20.4852 10.5857L16.0658 15.0051C15.7729 14.7122 15.298 14.7122 15.0051 15.0051C14.7122 15.298 14.7122 15.7729 15.0051 16.0658L10.5857 20.4852C10.3904 20.6804 10.0738 20.6804 9.87857 20.4852L8.46436 19.071C9.44067 18.0946 9.44067 16.5117 8.46436 15.5354C7.48805 14.5591 5.90513 14.5591 4.92882 15.5354L3.51461 14.1212C3.31935 13.926 3.31935 13.6094 3.51461 13.4141L7.93402 8.99469L8.28757 9.34824C8.58047 9.64114 9.05534 9.64114 9.34823 9.34824C9.64113 9.05535 9.64113 8.58048 9.34823 8.28758L8.99468 7.93403Z" fill="#141414"/>
</svg>
