<svg width="16" height="16" viewBox="0 0 16 16" fill="none" xmlns="http://www.w3.org/2000/svg">
<path d="M7.99989 7.2928C7.80462 7.09754 7.48804 7.09754 7.29278 7.2928C7.09752 7.48806 7.09752 7.80465 7.29278 7.99991L7.99989 8.70702C8.19515 8.90228 8.51173 8.90228 8.70699 8.70702C8.90226 8.51175 8.90226 8.19517 8.70699 7.99991L7.99989 7.2928Z" fill="#141414"/>
<path fill-rule="evenodd" clip-rule="evenodd" d="M8.11775 1.75379L1.75379 8.11775C1.16801 8.70354 1.16801 9.65329 1.75379 10.2391L2.89302 11.3783C3.10998 11.5953 3.46174 11.5953 3.67869 11.3783L3.99296 11.064C4.25331 10.8037 4.67542 10.8037 4.93577 11.064C5.19612 11.3244 5.19612 11.7465 4.93577 12.0068L4.6215 12.3211C4.40455 12.5381 4.40455 12.8898 4.6215 13.1068L5.76073 14.246C6.34652 14.8318 7.29627 14.8318 7.88205 14.246L14.246 7.88205C14.8318 7.29627 14.8318 6.34652 14.246 5.76073L13.1068 4.6215C12.8898 4.40455 12.5381 4.40455 12.3211 4.6215L12.0068 4.93577C11.7465 5.19612 11.3244 5.19612 11.064 4.93577C10.8037 4.67542 10.8037 4.25331 11.064 3.99296L11.3783 3.67869C11.5953 3.46174 11.5953 3.10998 11.3783 2.89302L10.2391 1.75379C9.65329 1.16801 8.70354 1.16801 8.11775 1.75379ZM2.4609 8.82486L5.28932 5.99644L5.87858 6.58569C6.07384 6.78095 6.39042 6.78095 6.58569 6.58569C6.78095 6.39043 6.78095 6.07385 6.58569 5.87859L5.99643 5.28933L8.82486 2.4609C9.02012 2.26564 9.33671 2.26564 9.53197 2.4609L10.3569 3.28586C9.70605 3.93673 9.70605 4.99201 10.3569 5.64288C11.0078 6.29375 12.0631 6.29375 12.7139 5.64288L13.5389 6.46784C13.7342 6.6631 13.7342 6.97968 13.5389 7.17494L10.7105 10.0034L10.1212 9.41413C9.92596 9.21886 9.60938 9.21886 9.41412 9.41412C9.21886 9.60939 9.21886 9.92597 9.41412 10.1212L10.0034 10.7105L7.17494 13.5389C6.97968 13.7342 6.6631 13.7342 6.46784 13.5389L5.64288 12.7139C6.29375 12.0631 6.29375 11.0078 5.64288 10.3569C4.99201 9.70605 3.93673 9.70605 3.28586 10.3569L2.4609 9.53197C2.26564 9.33671 2.26564 9.02012 2.4609 8.82486Z" fill="#141414"/>
</svg>
