<svg width="32" height="32" viewBox="0 0 32 32" fill="none" xmlns="http://www.w3.org/2000/svg">
<path d="M16.7069 15.2927C16.3164 14.9022 15.6832 14.9022 15.2927 15.2927C14.9022 15.6832 14.9022 16.3164 15.2927 16.7069L15.7641 17.1783C16.1546 17.5688 16.7878 17.5688 17.1783 17.1783C17.5688 16.7878 17.5688 16.1546 17.1783 15.7641L16.7069 15.2927Z" fill="#141414"/>
<path d="M12.9357 12.9357C13.3262 12.5451 13.9593 12.5451 14.3499 12.9357L14.8213 13.4071C15.2118 13.7976 15.2118 14.4308 14.8213 14.8213C14.4308 15.2118 13.7976 15.2118 13.4071 14.8213L12.9357 14.3499C12.5451 13.9594 12.5451 13.3262 12.9357 12.9357Z" fill="#141414"/>
<path d="M17.6497 17.6497C18.0402 17.2592 18.6734 17.2592 19.0639 17.6497L19.5353 18.1211C19.9258 18.5117 19.9258 19.1448 19.5353 19.5353C19.1448 19.9259 18.5116 19.9259 18.1211 19.5353L17.6497 19.0639C17.2592 18.6734 17.2592 18.0402 17.6497 17.6497Z" fill="#141414"/>
<path fill-rule="evenodd" clip-rule="evenodd" d="M16.2355 3.50759L3.50759 16.2355C2.33601 17.4071 2.33601 19.3066 3.50759 20.4781L5.86461 22.8352C6.25513 23.2257 6.8883 23.2257 7.27882 22.8352L7.98593 22.1281C8.50663 21.6074 9.35085 21.6074 9.87155 22.1281C10.3922 22.6488 10.3922 23.493 9.87155 24.0137L9.16444 24.7208C8.77392 25.1113 8.77392 25.7445 9.16444 26.135L11.5215 28.492C12.693 29.6636 14.5925 29.6636 15.7641 28.492L28.492 15.7641C29.6636 14.5925 29.6636 12.693 28.492 11.5215L26.135 9.16444C25.7445 8.77392 25.1113 8.77392 24.7208 9.16444L24.0137 9.87155C23.493 10.3922 22.6488 10.3922 22.1281 9.87155C21.6074 9.35085 21.6074 8.50663 22.1281 7.98593L22.8352 7.27882C23.2257 6.8883 23.2257 6.25513 22.8352 5.86461L20.4781 3.50759C19.3066 2.33601 17.4071 2.33601 16.2355 3.50759ZM11.9929 10.5787L17.6497 4.9218C18.0402 4.53128 18.6734 4.53128 19.0639 4.9218L20.7139 6.57171C19.4121 7.87346 19.4121 9.98401 20.7139 11.2858C22.0156 12.5875 24.1262 12.5875 25.4279 11.2858L27.0778 12.9357C27.4683 13.3262 27.4683 13.9594 27.0778 14.3499L21.4209 20.0067C21.0304 19.6162 20.3973 19.6162 20.0067 20.0067C19.6162 20.3973 19.6162 21.0304 20.0067 21.421L14.3499 27.0778C13.9594 27.4683 13.3262 27.4683 12.9357 27.0778L11.2858 25.4279C12.5875 24.1261 12.5875 22.0156 11.2858 20.7139C9.98401 19.4121 7.87346 19.4121 6.57171 20.7139L4.9218 19.0639C4.53127 18.6734 4.53128 18.0402 4.9218 17.6497L10.5786 11.9929L11.05 12.4643C11.4406 12.8548 12.0737 12.8548 12.4642 12.4643C12.8548 12.0737 12.8548 11.4406 12.4642 11.05L11.9929 10.5787Z" fill="#141414"/>
</svg>
