<svg width="32" height="32" viewBox="0 0 32 32" fill="none" xmlns="http://www.w3.org/2000/svg">
<path fill-rule="evenodd" clip-rule="evenodd" d="M12 26C12 27.6569 10.9011 29 9.54545 29H5.45455C4.09894 29 3 27.6569 3 26V11C3 9.34315 4.09894 8 5.45455 8H9.54545C10.9011 8 12 9.34315 12 11V26ZM9 27C9.45187 27 10 26.5523 10 26V11C10 10.4477 9.45187 10 9 10H6C5.54813 10 5 10.4477 5 11V26C5 26.5523 5.54813 27 6 27L9 27Z" fill="#141414"/>
<path fill-rule="evenodd" clip-rule="evenodd" d="M15.3829 26.9657C16.9505 26.9988 19.9792 27.028 21.9591 26.9523C22.6398 26.9263 22.9911 26.8476 23.2205 26.7324C23.4153 26.6345 23.6131 26.4643 23.8607 26.0257C24.1228 25.5613 24.3927 24.8843 24.761 23.8469C24.9004 23.4545 25.0588 22.9961 25.2362 22.4825C25.5023 21.7126 25.8112 20.8186 26.163 19.8371C27.0392 17.3922 27.098 15.8923 26.9169 15.0402C26.7528 14.2685 26.4133 14.0714 26.2971 14.0281C26.295 14.028 26.2926 14.0279 26.29 14.0278C26.2792 14.0274 26.2654 14.0271 26.2469 14.0271H22.8341C20.7019 14.0271 19.3685 11.9295 19.8769 10.0244C20.5201 7.61421 20.3632 6.42803 20.0969 5.8987C19.8969 5.50132 19.5544 5.33636 18.9732 5.35692C18.9182 5.35887 18.8474 5.3788 18.7589 5.44892C18.6655 5.52287 18.5682 5.64217 18.493 5.79769C16.2058 10.5284 14.3444 12.4948 12.6152 13.616C12.2083 13.8798 12 14.2618 12 14.6147V24.3755C12 24.7119 12.1691 25.0257 12.45 25.2107L14.87 26.8041C15.0259 26.9067 15.2036 26.9619 15.3829 26.9657ZM22.0355 28.9509C19.9935 29.0289 16.9159 28.9985 15.3407 28.9653C14.7777 28.9534 14.2345 28.7803 13.7702 28.4745L11.3502 26.8811C10.5073 26.3262 9.99997 25.3847 9.99997 24.3755V14.6147C9.99997 13.4572 10.6668 12.4957 11.5271 11.9379C12.8367 11.0888 14.4935 9.47529 16.6924 4.92713C17.0487 4.19026 17.7991 3.39722 18.9025 3.35817C19.9377 3.32154 21.2058 3.65324 21.8834 4.99966C22.4946 6.21414 22.4821 8.01892 21.8093 10.5401C21.5978 11.3326 22.1743 12.0271 22.8341 12.0271H26.2469C26.3741 12.0271 26.5983 12.031 26.8425 12.103C27.7708 12.3764 28.5769 13.2306 28.8732 14.6243C29.1629 15.9874 28.9841 17.8936 28.0457 20.5118C27.6877 21.5108 27.3985 22.3486 27.1423 23.0905C26.9649 23.6045 26.8033 24.0725 26.6457 24.5162C26.2808 25.5438 25.9605 26.3746 25.6023 27.009C25.2296 27.6692 24.7769 28.1887 24.1181 28.5196C23.4938 28.8332 22.7881 28.9221 22.0355 28.9509Z" fill="#141414"/>
</svg>
