<svg width="17" height="16" viewBox="0 0 17 16" fill="none" xmlns="http://www.w3.org/2000/svg">
<path fill-rule="evenodd" clip-rule="evenodd" d="M6.87808 12.5962C6.87808 13.3715 6.36385 14 5.72951 14H3.81522C3.18088 14 2.66665 13.3715 2.66665 12.5962V5.57714C2.66665 4.80183 3.18088 4.17333 3.81522 4.17333H5.72951C6.36385 4.17333 6.87808 4.80183 6.87808 5.57714V12.5962ZM5.47427 13.0641C5.68572 13.0641 5.94221 12.8546 5.94221 12.5962V5.57714C5.94221 5.3187 5.68572 5.1092 5.47427 5.1092H4.07046C3.85901 5.1092 3.60252 5.3187 3.60252 5.57714V12.5962C3.60252 12.8546 3.85901 13.0641 4.07046 13.0641L5.47427 13.0641Z" fill="#141414"/>
<path fill-rule="evenodd" clip-rule="evenodd" d="M8.46105 13.0481C9.19459 13.0635 10.6118 13.0772 11.5383 13.0418C11.8568 13.0297 12.0212 12.9928 12.1286 12.9389C12.2197 12.8931 12.3123 12.8135 12.4281 12.6082C12.5508 12.3909 12.6771 12.0741 12.8494 11.5887C12.9146 11.4051 12.9888 11.1905 13.0718 10.9502C13.1963 10.5899 13.3409 10.1716 13.5055 9.71233C13.9155 8.56826 13.943 7.86644 13.8582 7.46769C13.7815 7.10658 13.6226 7.01437 13.5682 6.99408C13.5672 6.99404 13.5661 6.99399 13.5649 6.99394C13.5598 6.99376 13.5534 6.99365 13.5447 6.99365H11.9478C10.95 6.99365 10.3261 6.01209 10.564 5.12063C10.865 3.9928 10.7915 3.43774 10.6669 3.19005C10.5733 3.0041 10.413 2.92691 10.1411 2.93653C10.1154 2.93744 10.0822 2.94677 10.0408 2.97958C9.9971 3.01419 9.95159 3.07001 9.91641 3.14278C8.84614 5.35645 7.97511 6.27661 7.16596 6.80125C6.97554 6.92472 6.87807 7.10345 6.87807 7.26857V11.836C6.87807 11.9934 6.9572 12.1403 7.08867 12.2269L8.22107 12.9725C8.294 13.0205 8.37715 13.0463 8.46105 13.0481ZM11.574 13.977C10.6185 14.0135 9.17843 13.9993 8.44133 13.9838C8.17786 13.9782 7.92367 13.8972 7.70641 13.7541L6.57401 13.0085C6.17961 12.7488 5.94219 12.3082 5.94219 11.836V7.26857C5.94219 6.72695 6.25424 6.27702 6.65681 6.01599C7.26959 5.61867 8.04488 4.86367 9.07385 2.73542C9.24056 2.39061 9.59169 2.01952 10.108 2.00124C10.5924 1.9841 11.1858 2.13932 11.5029 2.76935C11.7889 3.33766 11.783 4.18218 11.4682 5.36194C11.3692 5.73277 11.639 6.05778 11.9478 6.05778H13.5447C13.6042 6.05778 13.7091 6.05959 13.8234 6.09326C14.2578 6.22119 14.635 6.6209 14.7737 7.2731C14.9093 7.91095 14.8256 8.8029 14.3865 10.0281C14.2189 10.4955 14.0836 10.8875 13.9637 11.2347C13.8807 11.4752 13.8051 11.6942 13.7314 11.9019C13.5606 12.3827 13.4107 12.7715 13.2431 13.0683C13.0687 13.3772 12.8569 13.6204 12.5486 13.7752C12.2564 13.9219 11.9263 13.9636 11.574 13.977Z" fill="#141414"/>
</svg>
