<svg width="25" height="24" viewBox="0 0 25 24" fill="none" xmlns="http://www.w3.org/2000/svg">
<path fill-rule="evenodd" clip-rule="evenodd" d="M9.52452 18.9364C9.52452 20.0761 8.7686 21 7.83612 21H5.02212C4.08964 21 3.33372 20.0761 3.33372 18.9364V8.61839C3.33372 7.47869 4.08964 6.55479 5.02212 6.55479H7.83612C8.7686 6.55479 9.52452 7.47869 9.52452 8.61839V18.9364ZM7.46092 19.6243C7.77174 19.6243 8.14879 19.3163 8.14879 18.9364V8.61839C8.14879 8.23849 7.77174 7.93052 7.46092 7.93052H5.39732C5.08649 7.93052 4.70945 8.23849 4.70945 8.61839V18.9364C4.70945 19.3163 5.08649 19.6243 5.39732 19.6243L7.46092 19.6243Z" fill="#141414"/>
<path fill-rule="evenodd" clip-rule="evenodd" d="M11.8515 19.6007C12.9298 19.6234 15.0131 19.6435 16.3751 19.5915C16.8433 19.5736 17.0849 19.5194 17.2427 19.4402C17.3767 19.3729 17.5128 19.2558 17.6831 18.9541C17.8634 18.6347 18.049 18.169 18.3024 17.4554C18.3983 17.1854 18.5072 16.8701 18.6293 16.5168C18.8123 15.9872 19.0248 15.3723 19.2668 14.6971C19.8695 13.0153 19.91 11.9837 19.7854 11.3975C19.6725 10.8667 19.439 10.7311 19.359 10.7013C19.3576 10.7012 19.3559 10.7012 19.3541 10.7011C19.3467 10.7008 19.3372 10.7007 19.3245 10.7007H16.977C15.5103 10.7007 14.5931 9.25777 14.9428 7.94732C15.3852 6.28942 15.2773 5.47348 15.0941 5.10938C14.9565 4.83603 14.7209 4.72256 14.3211 4.7367C14.2833 4.73804 14.2346 4.75175 14.1737 4.79998C14.1095 4.85085 14.0426 4.93292 13.9909 5.03989C12.4176 8.29399 11.1372 9.64661 9.94771 10.4178C9.66778 10.5993 9.5245 10.8621 9.5245 11.1048V17.819C9.5245 18.0504 9.64083 18.2662 9.83409 18.3935L11.4987 19.4895C11.6059 19.5601 11.7282 19.5981 11.8515 19.6007ZM16.4276 20.9662C15.023 21.0199 12.906 20.999 11.8225 20.9761C11.4352 20.9679 11.0615 20.8488 10.7422 20.6386L9.07753 19.5425C8.49776 19.1608 8.14876 18.5131 8.14876 17.819V11.1048C8.14876 10.3086 8.60747 9.64722 9.19925 9.26351C10.1 8.67945 11.2397 7.56959 12.7523 4.44106C12.9974 3.93419 13.5135 3.38869 14.2725 3.36183C14.9846 3.33663 15.8569 3.56479 16.323 4.49095C16.7434 5.32636 16.7348 6.5678 16.272 8.30205C16.1265 8.84718 16.5231 9.32493 16.977 9.32493H19.3245C19.412 9.32493 19.5662 9.3276 19.7342 9.37709C20.3728 9.56515 20.9272 10.1527 21.131 11.1115C21.3303 12.0491 21.2073 13.3603 20.5618 15.1613C20.3156 15.8484 20.1166 16.4247 19.9404 16.9351C19.8183 17.2886 19.7072 17.6105 19.5988 17.9157C19.3478 18.6226 19.1275 19.194 18.8811 19.6304C18.6247 20.0846 18.3134 20.442 17.8601 20.6696C17.4307 20.8852 16.9453 20.9464 16.4276 20.9662Z" fill="#141414"/>
</svg>
