<svg width="12" height="12" viewBox="0 0 12 12" fill="none" xmlns="http://www.w3.org/2000/svg">
<path fill-rule="evenodd" clip-rule="evenodd" d="M4.80756 9.06413C4.80756 9.58099 4.46473 10 4.04184 10H2.76565C2.34276 10 1.99993 9.581 1.99993 9.06413V4.38476C1.99993 3.86789 2.34276 3.44888 2.76565 3.44888H4.04184C4.46473 3.44888 4.80756 3.86789 4.80756 4.38476V9.06413ZM3.87168 9.37608C4.01265 9.37608 4.18364 9.23642 4.18364 9.06413V4.38476C4.18364 4.21247 4.01265 4.0728 3.87168 4.0728H2.93581C2.79484 4.0728 2.62385 4.21247 2.62385 4.38476V9.06413C2.62385 9.23642 2.79484 9.37608 2.93581 9.37608L3.87168 9.37608Z" fill="#141414"/>
<path fill-rule="evenodd" clip-rule="evenodd" d="M5.86287 9.36539C6.3519 9.3757 7.29672 9.38482 7.91438 9.36122C8.12672 9.3531 8.23631 9.32853 8.30787 9.29259C8.36865 9.26207 8.43034 9.20898 8.50759 9.07216C8.58937 8.92729 8.67354 8.71608 8.78846 8.39246C8.83193 8.27004 8.88134 8.12703 8.93671 7.96681C9.01971 7.72662 9.11607 7.44775 9.22581 7.14155C9.49916 6.37884 9.51751 5.91096 9.461 5.64513C9.40982 5.40438 9.30391 5.34291 9.26765 5.32939C9.26699 5.32936 9.26625 5.32933 9.26542 5.3293C9.26206 5.32917 9.25777 5.3291 9.25199 5.3291H8.18734C7.52219 5.3291 7.10622 4.67473 7.26482 4.08042C7.46548 3.32853 7.41653 2.95849 7.33344 2.79337C7.27105 2.6694 7.1642 2.61794 6.9829 2.62436C6.96574 2.62496 6.94366 2.63118 6.91604 2.65305C6.8869 2.67612 6.85656 2.71334 6.83311 2.76186C6.1196 4.23764 5.53891 4.85107 4.99948 5.20083C4.87253 5.28315 4.80755 5.4023 4.80755 5.51238V8.55735C4.80755 8.66229 4.8603 8.7602 4.94795 8.8179L5.70288 9.31498C5.7515 9.34699 5.80694 9.36421 5.86287 9.36539ZM7.9382 9.98468C7.3012 10.009 6.34112 9.99953 5.84972 9.98917C5.67407 9.98546 5.50462 9.93145 5.35977 9.83608L4.60484 9.33901C4.3419 9.16588 4.18363 8.87216 4.18363 8.55735V5.51238C4.18363 5.1513 4.39166 4.85135 4.66004 4.67733C5.06856 4.41245 5.58542 3.90911 6.2714 2.49028C6.38254 2.2604 6.61663 2.01301 6.96083 2.00083C7.28379 1.9894 7.67939 2.09288 7.89076 2.5129C8.08142 2.89177 8.07753 3.45479 7.86764 4.24129C7.80167 4.48852 7.98151 4.70518 8.18734 4.70518H9.25199C9.29166 4.70518 9.3616 4.7064 9.4378 4.72884C9.72739 4.81413 9.97885 5.0806 10.0713 5.5154C10.1617 5.94063 10.1059 6.53527 9.81314 7.35205C9.70146 7.66367 9.61123 7.92503 9.53132 8.15649C9.47596 8.31683 9.42556 8.46282 9.37641 8.60124C9.26258 8.9218 9.16263 9.18097 9.0509 9.37888C8.93463 9.58483 8.79342 9.74692 8.58788 9.85014C8.39313 9.94795 8.173 9.9757 7.9382 9.98468Z" fill="#141414"/>
</svg>
