<svg xmlns="http://www.w3.org/2000/svg" width="24" height="24" fill="none" viewBox="0 0 24 24">
  <path fill="#141414" fill-rule="evenodd" d="M12 2a.75.75 0 0 1 .75.75v3.548a5.722 5.722 0 0 1 2.751 1.14l2.51-2.51a.75.75 0 1 1 1.06 1.061l-2.51 2.51a5.72 5.72 0 0 1 1.14 2.751h3.549a.75.75 0 0 1 0 1.5h-3.549a5.72 5.72 0 0 1-1.14 2.751l2.51 2.51a.75.75 0 0 1-1.06 1.06l-2.51-2.51a5.721 5.721 0 0 1-2.751 1.14v3.549a.75.75 0 0 1-1.5 0v-3.549a5.72 5.72 0 0 1-2.75-1.14l-2.51 2.51a.75.75 0 1 1-1.06-1.06l2.509-2.51a5.721 5.721 0 0 1-1.14-2.751H2.75a.75.75 0 0 1 0-1.5h3.548a5.721 5.721 0 0 1 1.14-2.75l-2.51-2.51A.75.75 0 1 1 5.99 4.93L8.5 7.438a5.721 5.721 0 0 1 2.751-1.14V2.75A.75.75 0 0 1 12 2Zm3.013 12.997-.008.008-.008.009A4.236 4.236 0 0 1 12 16.25a4.237 4.237 0 0 1-2.997-1.236l-.008-.009-.008-.008A4.236 4.236 0 0 1 7.75 12c0-1.171.474-2.232 1.24-3l.005-.005.004-.005a4.25 4.25 0 0 1 6.014 6.007Z" clip-rule="evenodd"/>
</svg>
