<svg xmlns="http://www.w3.org/2000/svg" width="16" height="16" fill="none" viewBox="0 0 16 16">
  <path fill="#141414" fill-rule="evenodd" d="M8 1.333a.5.5 0 0 1 .5.5v2.366a3.816 3.816 0 0 1 1.834.76l1.673-1.673a.5.5 0 0 1 .707.707L11.04 5.666c.4.521.67 1.15.76 1.834h2.365a.5.5 0 1 1 0 1H11.8a3.815 3.815 0 0 1-.76 1.834l1.672 1.673a.5.5 0 1 1-.707.707l-1.672-1.673c-.522.4-1.15.67-1.834.76v2.365a.5.5 0 1 1-1 0v-2.365a3.815 3.815 0 0 1-1.834-.76l-1.673 1.673a.5.5 0 0 1-.707-.707l1.673-1.673a3.814 3.814 0 0 1-.76-1.834H1.833a.5.5 0 1 1 0-1h2.366a3.808 3.808 0 0 1 .76-1.834L3.285 3.993a.5.5 0 1 1 .707-.707l1.673 1.673a3.814 3.814 0 0 1 1.834-.76V1.833a.5.5 0 0 1 .5-.5Zm2.009 8.665-.006.005-.006.006A2.824 2.824 0 0 1 8 10.833c-.78 0-1.486-.315-1.998-.824l-.006-.006-.005-.005A2.824 2.824 0 0 1 5.166 8c0-.781.316-1.488.827-2l.003-.004L6 5.993a2.833 2.833 0 0 1 4.01 4.004Z" clip-rule="evenodd"/>
</svg>
