<svg xmlns="http://www.w3.org/2000/svg" width="32" height="32" fill="none" viewBox="0 0 32 32">
  <path fill="#141414" fill-rule="evenodd" d="M16 2.667a1 1 0 0 1 1 1v4.731a7.628 7.628 0 0 1 3.667 1.52l3.347-3.346a1 1 0 1 1 1.414 1.414l-3.346 3.346A7.627 7.627 0 0 1 23.602 15h4.73a1 1 0 1 1 0 2h-4.73a7.63 7.63 0 0 1-1.52 3.669l3.345 3.345a1 1 0 0 1-1.414 1.415l-3.346-3.346A7.63 7.63 0 0 1 17 23.603v4.73a1 1 0 0 1-2 0v-4.73a7.63 7.63 0 0 1-3.667-1.52l-3.346 3.346a1 1 0 0 1-1.414-1.414l3.345-3.346A7.629 7.629 0 0 1 8.397 17H3.666a1 1 0 1 1 0-2h4.731a7.629 7.629 0 0 1 1.52-3.667L6.57 7.987a1 1 0 1 1 1.414-1.414l3.346 3.345A7.628 7.628 0 0 1 15 8.398V3.667a1 1 0 0 1 1-1Zm4.017 17.33-.011.01-.011.012a5.649 5.649 0 0 1-3.996 1.648c-1.559 0-2.97-.63-3.995-1.648l-.011-.011-.011-.012A5.649 5.649 0 0 1 10.332 16c0-1.561.632-2.975 1.654-4l.006-.006.006-.007a5.648 5.648 0 0 1 3.998-1.653h.007a5.667 5.667 0 0 1 4.014 9.662Z" clip-rule="evenodd"/>
</svg>
