<svg xmlns="http://www.w3.org/2000/svg" width="32" height="32" fill="none" viewBox="0 0 32 32">
  <path fill="#141414" fill-rule="evenodd" d="M26.666 8.667H5.333a.667.667 0 0 0-.667.667v3h22.667v-3a.667.667 0 0 0-.667-.667Zm-22 14v-8.333h22.667v8.333a.667.667 0 0 1-.667.667H5.333a.667.667 0 0 1-.667-.667Zm.667-16a2.667 2.667 0 0 0-2.667 2.667v13.333a2.667 2.667 0 0 0 2.667 2.667h21.333a2.667 2.667 0 0 0 2.667-2.667V9.334a2.667 2.667 0 0 0-2.667-2.667H5.333ZM7.999 19a1 1 0 1 0 0 2h4a1 1 0 1 0 0-2H8Z" clip-rule="evenodd"/>
</svg>
