<svg width="24" height="24" viewBox="0 0 24 24" fill="none" xmlns="http://www.w3.org/2000/svg">
<path fill-rule="evenodd" clip-rule="evenodd" d="M9 4.5C9 3.67157 8.32843 3 7.5 3C6.67157 3 6 3.67157 6 4.5V14C6 17.3137 8.68629 20 12 20C15.3137 20 18 17.3137 18 14V4.5C18 3.67157 17.3284 3 16.5 3C15.6716 3 15 3.67157 15 4.5V14C15 15.6569 13.6569 17 12 17C10.3431 17 9 15.6569 9 14V4.5ZM6.75 21.5C6.33579 21.5 6 21.8358 6 22.25C6 22.6642 6.33579 23 6.75 23H17.25C17.6642 23 18 22.6642 18 22.25C18 21.8358 17.6642 21.5 17.25 21.5H6.75Z" fill="#141414"/>
</svg>
