<svg width="32" height="32" viewBox="0 0 32 32" fill="none" xmlns="http://www.w3.org/2000/svg">
<path fill-rule="evenodd" clip-rule="evenodd" d="M12 5.66675C12 4.56218 11.1046 3.66675 10 3.66675C8.89543 3.66675 8 4.56218 8 5.66675V18.3334C8 22.7517 11.5817 26.3334 16 26.3334C20.4183 26.3334 24 22.7517 24 18.3334V5.66675C24 4.56218 23.1046 3.66675 22 3.66675C20.8954 3.66675 20 4.56218 20 5.66675V18.3334C20 20.5426 18.2091 22.3334 16 22.3334C13.7909 22.3334 12 20.5426 12 18.3334V5.66675ZM9 28.3334C8.44772 28.3334 8 28.7811 8 29.3334C8 29.8857 8.44772 30.3334 9 30.3334H23C23.5523 30.3334 24 29.8857 24 29.3334C24 28.7811 23.5523 28.3334 23 28.3334H9Z" fill="#141414"/>
</svg>
