<svg width="16" height="16" viewBox="0 0 16 16" fill="none" xmlns="http://www.w3.org/2000/svg">
<path fill-rule="evenodd" clip-rule="evenodd" d="M6 3.3335C6 2.78121 5.55228 2.3335 5 2.3335C4.44772 2.3335 4 2.78121 4 3.3335V9.66683C4 11.876 5.79086 13.6668 8 13.6668C10.2091 13.6668 12 11.876 12 9.66683V3.3335C12 2.78121 11.5523 2.3335 11 2.3335C10.4477 2.3335 10 2.78121 10 3.3335V9.66683C10 10.7714 9.10457 11.6668 8 11.6668C6.89543 11.6668 6 10.7714 6 9.66683V3.3335ZM4.5 14.6668C4.22386 14.6668 4 14.8907 4 15.1668C4 15.443 4.22386 15.6668 4.5 15.6668H11.5C11.7761 15.6668 12 15.443 12 15.1668C12 14.8907 11.7761 14.6668 11.5 14.6668H4.5Z" fill="#141414"/>
</svg>
