<svg xmlns="http://www.w3.org/2000/svg" width="32" height="32" fill="none" viewBox="0 0 32 32">
  <path fill="#141414" fill-rule="evenodd" d="M9.333 4.667h13.333c.369 0 .667.298.667.666v21.334a.667.667 0 0 1-.666.666H9.332a.667.667 0 0 1-.667-.666V5.332c0-.368.299-.667.667-.667Zm-2.667.666a2.667 2.667 0 0 1 2.667-2.667h13.333a2.667 2.667 0 0 1 2.667 2.667v21.334a2.667 2.667 0 0 1-2.666 2.666H9.332a2.667 2.667 0 0 1-2.667-2.666V5.332Zm9.334 20a2 2 0 1 0 0-4 2 2 0 0 0 0 4Z" clip-rule="evenodd"/>
</svg>
