<svg xmlns="http://www.w3.org/2000/svg" width="24" height="24" fill="none" viewBox="0 0 24 24">
  <path fill="#141414" fill-rule="evenodd" d="M18 7.75a2.75 2.75 0 1 0-2.664-2.064l-7.433 4.328a2.75 2.75 0 1 0 0 3.97l7.436 4.318a2.75 2.75 0 1 0 .762-1.291l-7.44-4.316a2.754 2.754 0 0 0 .001-1.387l7.43-4.327A2.74 2.74 0 0 0 18 7.75Zm0-1.5a1.25 1.25 0 1 0 0-2.5 1.25 1.25 0 0 0 0 2.5ZM19.25 19a1.25 1.25 0 1 1-2.5 0 1.25 1.25 0 0 1 2.5 0Zm-12-7a1.25 1.25 0 1 1-2.5 0 1.25 1.25 0 0 1 2.5 0Z" clip-rule="evenodd"/>
</svg>
