<svg xmlns="http://www.w3.org/2000/svg" width="16" height="16" fill="none" viewBox="0 0 16 16">
  <path fill="#141414" fill-rule="evenodd" d="M12 5.167a1.833 1.833 0 1 0-1.775-1.376L5.269 6.676a1.833 1.833 0 1 0 0 2.647l4.958 2.878A1.836 1.836 0 0 0 12 14.5a1.833 1.833 0 1 0-1.265-3.16l-4.96-2.877a1.837 1.837 0 0 0 0-.924l4.954-2.885c.33.317.778.513 1.271.513Zm0-1A.833.833 0 1 0 12 2.5a.833.833 0 0 0 0 1.667Zm.834 8.5a.833.833 0 1 1-1.667 0 .833.833 0 0 1 1.667 0ZM4.834 8a.833.833 0 1 1-1.667 0 .833.833 0 0 1 1.667 0Z" clip-rule="evenodd"/>
</svg>
