<svg xmlns="http://www.w3.org/2000/svg" width="32" height="32" fill="none" viewBox="0 0 32 32">
  <path fill="#141414" fill-rule="evenodd" d="M24 10.333a3.667 3.667 0 1 0-3.552-2.752l-9.911 5.772a3.667 3.667 0 1 0 0 5.294l9.916 5.756a3.667 3.667 0 1 0 1.016-1.722l-9.92-5.754a3.672 3.672 0 0 0 0-1.85l9.908-5.769A3.654 3.654 0 0 0 24 10.333Zm0-2A1.667 1.667 0 1 0 24 5a1.667 1.667 0 0 0 0 3.333Zm1.667 17a1.667 1.667 0 1 1-3.334 0 1.667 1.667 0 0 1 3.334 0ZM9.667 16a1.667 1.667 0 1 1-3.334 0 1.667 1.667 0 0 1 3.334 0Z" clip-rule="evenodd"/>
</svg>
