<svg xmlns="http://www.w3.org/2000/svg" width="24" height="24" fill="none" viewBox="0 0 24 24">
  <path fill="#141414" fill-rule="evenodd" d="M22.069 7.772a.75.75 0 0 0-1.398-.543 8.848 8.848 0 0 1-2.208 3.248C16.798 12.036 14.52 13 11.999 13c-2.514 0-4.788-.96-6.451-2.512a8.846 8.846 0 0 1-2.22-3.259.75.75 0 0 0-1.398.543 10.287 10.287 0 0 0 1.936 3.141L2.55 11.9a.75.75 0 1 0 .9 1.2l1.51-1.131c.637.533 1.34.995 2.096 1.373l-.752 1.88a.75.75 0 1 0 1.393.557l.744-1.86c.89.3 1.832.492 2.81.557V16.5a.75.75 0 1 0 1.5 0v-2.024a11.05 11.05 0 0 0 2.808-.558l.745 1.86a.75.75 0 1 0 1.392-.556l-.752-1.88a10.8 10.8 0 0 0 2.096-1.374l1.51 1.132a.75.75 0 0 0 .9-1.2l-1.317-.987a10.287 10.287 0 0 0 1.936-3.141Z" clip-rule="evenodd"/>
</svg>
