<svg xmlns="http://www.w3.org/2000/svg" width="16" height="16" fill="none" viewBox="0 0 16 16">
  <path fill="#141414" fill-rule="evenodd" d="M14.427 4.534a.5.5 0 0 1 .285.647c-1.021 2.629-3.649 4.486-6.713 4.486S2.308 7.81 1.286 5.182a.5.5 0 1 1 .932-.363C3.088 7.06 5.341 8.667 8 8.667c2.658 0 4.91-1.609 5.78-3.848a.5.5 0 0 1 .648-.285Z" clip-rule="evenodd"/>
  <path fill="#141414" fill-rule="evenodd" d="M8 8.833a.5.5 0 0 1 .5.5V11a.5.5 0 1 1-1 0V9.333a.5.5 0 0 1 .5-.5Zm-2.481-.63a.5.5 0 0 1 .278.65l-.667 1.666a.5.5 0 1 1-.928-.371l.667-1.667a.5.5 0 0 1 .65-.278Zm-1.786-1.17a.5.5 0 0 1-.1.7l-1.334 1a.5.5 0 0 1-.6-.8l1.334-1a.5.5 0 0 1 .7.1Zm6.747 1.17a.5.5 0 0 0-.278.65l.667 1.666a.5.5 0 1 0 .928-.371L11.13 8.48a.5.5 0 0 0-.65-.278Zm1.786-1.17a.5.5 0 0 0 .1.7l1.334 1a.5.5 0 0 0 .6-.8l-1.334-1a.5.5 0 0 0-.7.1Z" clip-rule="evenodd"/>
</svg>
