<svg xmlns="http://www.w3.org/2000/svg" width="32" height="32" fill="none" viewBox="0 0 32 32">
  <path fill="#141414" fill-rule="evenodd" d="M29.425 10.363a1 1 0 1 0-1.864-.725 11.796 11.796 0 0 1-2.947 4.334c-2.22 2.077-5.255 3.362-8.615 3.362-3.352 0-6.383-1.28-8.6-3.35a11.793 11.793 0 0 1-2.96-4.346 1 1 0 1 0-1.865.725 13.715 13.715 0 0 0 2.58 4.188L3.4 15.867a1 1 0 0 0 1.2 1.6l2.012-1.51c.85.712 1.789 1.328 2.796 1.832l-1.003 2.507a1 1 0 1 0 1.857.742l.992-2.48c1.186.401 2.443.656 3.746.743V22a1 1 0 1 0 2 0v-2.7a14.736 14.736 0 0 0 3.746-.742l.992 2.48a1 1 0 1 0 1.857-.743l-1.003-2.507a14.399 14.399 0 0 0 2.796-1.83l2.012 1.509a1 1 0 1 0 1.2-1.6l-1.755-1.317a13.715 13.715 0 0 0 2.58-4.188Z" clip-rule="evenodd"/>
</svg>
