<svg xmlns="http://www.w3.org/2000/svg" width="24" height="24" fill="none" viewBox="0 0 24 24">
  <path fill="#141414" fill-rule="evenodd" d="M19.487 15.986c.6-1.199 1.013-2.96 1.013-4.986 0-2.027-.414-3.787-1.013-4.986C18.843 4.726 18.23 4.5 18 4.5c-.23 0-.843.226-1.487 1.514-.6 1.199-1.013 2.96-1.013 4.986 0 2.027.414 3.787 1.013 4.986C17.157 17.274 17.77 17.5 18 17.5c.23 0 .843-.226 1.487-1.514ZM18 19c2.21 0 4-3.582 4-8s-1.79-8-4-8c-.344 0-.677.087-.996.25a.75.75 0 0 0-.234.036L5.15 7.02a4.18 4.18 0 0 0 0 7.958l.1.032v2.49a2.75 2.75 0 1 0 5.5 0v-.721l6.02 1.935a.749.749 0 0 0 .234.036c.319.163.652.25.996.25Zm-8.75-2.703-2.5-.804V17.5a1.25 1.25 0 1 0 2.5 0v-1.203ZM14 11c0-2.19.44-4.174 1.152-5.618L5.61 8.449a2.68 2.68 0 0 0 0 5.102l9.542 3.067C14.44 15.174 14 13.19 14 11Z" clip-rule="evenodd"/>
</svg>
