<svg xmlns="http://www.w3.org/2000/svg" width="16" height="16" fill="none" viewBox="0 0 16 16">
  <path fill="#141414" fill-rule="evenodd" d="M13.357 10.975C13.738 10.137 14 8.91 14 7.5c0-1.41-.262-2.637-.643-3.475C12.936 3.097 12.557 3 12.5 3c-.057 0-.435.097-.857 1.025C11.262 4.863 11 6.09 11 7.5c0 1.41.262 2.637.643 3.475.421.929.8 1.025.857 1.025.057 0 .435-.096.857-1.025ZM12.5 13c1.38 0 2.5-2.462 2.5-5.5C15 4.463 13.88 2 12.5 2S10 4.463 10 7.5c0 3.038 1.12 5.5 2.5 5.5Z" clip-rule="evenodd"/>
  <path fill="#141414" fill-rule="evenodd" d="M12.479 2.356a.5.5 0 0 1-.335.623l-8.88 2.678a1.777 1.777 0 0 0-.049 3.388l8.943 2.98a.5.5 0 1 1-.316.95L2.899 9.994A2.777 2.777 0 0 1 2.975 4.7l8.88-2.679a.5.5 0 0 1 .624.335Z" clip-rule="evenodd"/>
  <path fill="#141414" fill-rule="evenodd" d="M4.5 9.667v2a.833.833 0 0 0 1.667 0v-1h1v1a1.833 1.833 0 0 1-3.667 0v-2h1Z" clip-rule="evenodd"/>
</svg>
