<svg xmlns="http://www.w3.org/2000/svg" width="32" height="32" fill="none" viewBox="0 0 32 32">
  <path fill="#141414" fill-rule="evenodd" d="M25.982 21.315c.8-1.598 1.351-3.946 1.351-6.648 0-2.703-.552-5.05-1.35-6.648C25.122 6.3 24.306 6 24 6c-.307 0-1.123.3-1.982 2.019-.8 1.598-1.351 3.945-1.351 6.648 0 2.702.552 5.05 1.35 6.648.86 1.717 1.676 2.018 1.983 2.018.307 0 1.123-.3 1.982-2.018ZM24 25.333c2.945 0 5.333-4.775 5.333-10.666S26.946 4 24 4a2.89 2.89 0 0 0-1.328.333.999.999 0 0 0-.311.049L6.867 9.362a5.573 5.573 0 0 0 0 10.61l.133.043v3.318a3.667 3.667 0 1 0 7.333 0v-.96l8.028 2.58a.998.998 0 0 0 .312.047 2.89 2.89 0 0 0 1.327.333ZM12.333 21.73 9 20.658v2.675a1.667 1.667 0 1 0 3.333 0V21.73Zm6.334-7.062c0-2.92.586-5.565 1.536-7.491L7.48 11.266a3.573 3.573 0 0 0 0 6.802l12.724 4.09c-.95-1.926-1.536-4.572-1.536-7.491Z" clip-rule="evenodd"/>
</svg>
