<svg width="12" height="12" viewBox="0 0 12 12" fill="none" xmlns="http://www.w3.org/2000/svg">
<path fill-rule="evenodd" clip-rule="evenodd" d="M8.99993 2.99996C9.19519 3.19523 9.19519 3.51181 8.99993 3.70707L3.70711 8.99996C3.51184 9.19522 3.19526 9.19522 3 8.99996C2.80474 8.8047 2.80474 8.48812 3 8.29285L8.29282 2.99996C8.48808 2.8047 8.80466 2.8047 8.99993 2.99996Z" fill="#141414"/>
<path fill-rule="evenodd" clip-rule="evenodd" d="M2.99996 2.99996C2.8047 3.19522 2.8047 3.51181 2.99996 3.70707L8.29289 9C8.48816 9.19526 8.80474 9.19526 9 9C9.19526 8.80474 9.19526 8.48816 9 8.29289L3.70707 2.99996C3.51181 2.8047 3.19523 2.8047 2.99996 2.99996Z" fill="#141414"/>
</svg>
