<svg xmlns="http://www.w3.org/2000/svg" width="32" height="32" fill="none" viewBox="0 0 32 32">
  <path fill="#141414" fill-rule="evenodd" d="m19.71 21.378-.003.005-.131.252a2 2 0 0 1-2.597.893c-3.282-1.487-5.99-4.19-7.503-7.504a2 2 0 0 1 .893-2.602l.047-.025h.002c.18-.096.366-.193.54-.283l.458-.238L9.78 4.759l-.461-.06a4.137 4.137 0 0 0-4.654 4.1c0 10.22 8.314 18.534 18.534 18.534a4.137 4.137 0 0 0 4.098-4.662l-.064-.456-7.108-1.63-.239.454-.177.339Zm-8.367-7.209-.047.025a12.98 12.98 0 0 0 .968 1.75 13.323 13.323 0 0 0 4.255 4.088c.416.25.845.475 1.286.674l.13-.248.001-.004.18-.346.479-.908a1.333 1.333 0 0 1 1.478-.68l8.056 1.849c.54.124.947.568 1.023 1.116l.127.91a6.137 6.137 0 0 1-6.079 6.938c-11.325 0-20.534-9.21-20.534-20.533a6.137 6.137 0 0 1 6.907-6.084l.922.117c.555.07 1.007.48 1.132 1.025l1.853 8.073c.136.592-.145 1.2-.684 1.481l-.915.476-.538.281Z" clip-rule="evenodd"/>
</svg>
