<svg xmlns="http://www.w3.org/2000/svg" width="32" height="32" fill="none" viewBox="0 0 32 32">
  <path fill="#141414" d="M16.255 11.919a.373.373 0 0 1-.51 0l-.255-.244c-1.408-1.345-3.692-1.345-5.1 0a3.336 3.336 0 0 0 0 4.871l4.59 4.384a1.491 1.491 0 0 0 2.04 0l4.59-4.384a3.336 3.336 0 0 0 0-4.87c-1.408-1.346-3.691-1.346-5.1 0l-.255.243Z"/>
  <path fill="#141414" fill-rule="evenodd" d="M3.667 16c-.553 0-1.004.45-.964 1C3.215 23.897 8.973 29.333 16 29.333c7.364 0 13.333-5.97 13.333-13.333 0-7.028-5.436-12.785-12.333-13.297-.55-.04-1 .411-1 .964 0 .552.45.995 1 1.043 5.79.506 10.333 5.367 10.333 11.29 0 6.26-5.074 11.333-11.333 11.333-5.923 0-10.784-4.543-11.29-10.334-.048-.55-.491-1-1.043-1Z" clip-rule="evenodd"/>
</svg>
