<svg xmlns="http://www.w3.org/2000/svg" width="12" height="12" fill="none" viewBox="0 0 12 12">
  <path fill="#141414" d="M6.096 4.47a.14.14 0 0 1-.192 0l-.095-.092a1.398 1.398 0 0 0-1.913 0 1.25 1.25 0 0 0 0 1.827l1.721 1.644a.56.56 0 0 0 .766 0l1.72-1.644a1.25 1.25 0 0 0 0-1.827 1.398 1.398 0 0 0-1.912 0l-.095.092Z"/>
  <path fill="#141414" fill-rule="evenodd" d="M10 6a4 4 0 0 1-7.97.499C1.998 6.225 1.777 6 1.5 6s-.503.224-.475.5a5 5 0 1 0 5.474-5.475C6.225.997 6 1.224 6 1.5c0 .276.225.497.499.53A4 4 0 0 1 10 6Z" clip-rule="evenodd"/>
</svg>
