<svg xmlns="http://www.w3.org/2000/svg" width="24" height="24" fill="none" viewBox="0 0 24 24">
  <path fill="#141414" d="M12.191 8.94a.28.28 0 0 1-.382 0l-.191-.183c-1.057-1.01-2.77-1.01-3.826 0a2.502 2.502 0 0 0 0 3.653l3.443 3.287a1.118 1.118 0 0 0 1.53 0l3.443-3.287a2.502 2.502 0 0 0 0-3.653c-1.056-1.01-2.77-1.01-3.825 0l-.192.182Z"/>
  <path fill="#141414" fill-rule="evenodd" d="M2.75 12c-.414 0-.753.337-.722.75A9.999 9.999 0 0 0 12 22c5.523 0 10-4.477 10-10 0-5.27-4.077-9.589-9.25-9.972-.413-.03-.75.308-.75.722s.337.747.75.783a8.5 8.5 0 1 1-9.217 9.217c-.036-.413-.369-.75-.783-.75Z" clip-rule="evenodd"/>
</svg>
