<svg xmlns="http://www.w3.org/2000/svg" width="16" height="16" fill="none" viewBox="0 0 16 16">
  <path fill="#141414" d="M8.134 5.858a.196.196 0 0 1-.268 0l-.134-.128a1.957 1.957 0 0 0-2.677 0 1.751 1.751 0 0 0 0 2.557l2.41 2.301a.783.783 0 0 0 1.07 0l2.41-2.301a1.75 1.75 0 0 0 0-2.557 1.957 1.957 0 0 0-2.677 0l-.134.128Z"/>
  <path fill="#141414" fill-rule="evenodd" d="M14 8a6 6 0 0 1-11.98.5.534.534 0 0 0-.52-.5.474.474 0 0 0-.482.5A7 7 0 1 0 8.5 1.018.474.474 0 0 0 8 1.5c0 .276.225.498.5.52A6 6 0 0 1 14 8Z" clip-rule="evenodd"/>
</svg>
