<svg width="24" height="24" viewBox="0 0 24 24" fill="none" xmlns="http://www.w3.org/2000/svg">
<path d="M17.752 13.5379C18.2657 14.2257 18.5234 14.9728 18.5234 15.7803V16.1933C18.5234 17.6287 17.9264 18.7886 16.7324 19.6732C15.5384 20.5577 14.0983 21 12.4121 21C10.7259 21 9.38607 20.7955 8.39258 20.3866C7.4082 19.9694 6.70638 19.5021 6.28711 18.9847C6.0957 18.7427 6 18.4965 6 18.2462C6 17.9958 6.10938 17.7663 6.32812 17.5577C6.54688 17.3491 6.77474 17.2448 7.01172 17.2448C7.2487 17.2448 7.58594 17.3449 8.02344 17.5452L8.66602 17.8581C9.85091 18.4172 10.9674 18.6968 12.0156 18.6968C13.0638 18.6968 13.8659 18.5299 14.4219 18.1961C15.1784 17.7455 15.5566 17.1196 15.5566 16.3185C15.5566 15.509 15.1647 14.8164 14.3809 14.2406C14.0931 14.0266 13.691 13.7925 13.1748 13.5379H17.752ZM12.3984 3C13.556 3 14.5176 3.14604 15.2832 3.43811C16.0579 3.73018 16.5911 4.04312 16.8828 4.37691C17.1836 4.70236 17.334 4.93602 17.334 5.07789C17.334 5.45341 17.2337 5.74548 17.0332 5.9541C16.8327 6.16273 16.5684 6.26704 16.2402 6.26704C16.1947 6.26704 15.6751 6.08762 14.6816 5.72879C13.6973 5.36996 12.7038 5.19054 11.7012 5.19054C10.6986 5.19054 9.9056 5.4993 9.32227 6.11683C9.04883 6.41725 8.87565 6.77608 8.80273 7.19332C8.78451 7.28512 8.77539 7.37691 8.77539 7.46871C8.77539 7.8025 8.88021 8.15716 9.08984 8.53268C9.44531 9.14186 10.6074 9.84701 12.5762 10.6481C12.6944 10.6957 12.8094 10.7445 12.9229 10.7912H19C19.5523 10.7912 20 11.2011 20 11.7067C20 12.2124 19.5523 12.6223 19 12.6223H5C4.44772 12.6223 4 12.2124 4 11.7067C4 11.2011 4.44772 10.7912 5 10.7912H7.375C6.45851 9.90145 6 8.82749 6 7.56885C6 6.21697 6.57878 5.11544 7.73633 4.26426C8.88477 3.42142 10.4206 3 12.3438 3H12.3984Z" fill="black"/>
</svg>
