<svg width="32" height="32" viewBox="0 0 32 32" fill="none" xmlns="http://www.w3.org/2000/svg">
<path d="M23.9089 18.2213C24.6153 19.2149 24.9697 20.2941 24.9697 21.4604V22.057C24.9697 24.1303 24.1488 25.8057 22.5071 27.0835C20.8653 28.3612 18.8852 29 16.5667 29C14.2481 29 12.4058 28.7047 11.0398 28.114C9.68628 27.5114 8.72127 26.8363 8.14478 26.089C7.88159 25.7395 7.75 25.3839 7.75 25.0223C7.75 24.6606 7.90039 24.3292 8.20117 24.0278C8.50195 23.7265 8.81527 23.5758 9.14111 23.5758C9.46696 23.5758 9.93066 23.7204 10.5322 24.0097L11.4158 24.4618C13.045 25.2694 14.5802 25.6732 16.0215 25.6732C17.4627 25.6732 18.5656 25.4321 19.3301 24.9499C20.3703 24.299 20.8904 23.395 20.8904 22.2378C20.8904 21.0686 20.3515 20.0682 19.2737 19.2364C18.878 18.9273 18.3251 18.5892 17.6154 18.2213H23.9089ZM16.5479 3C18.1395 3 19.4617 3.21094 20.5144 3.63282C21.5797 4.05471 22.3128 4.50672 22.7139 4.98887C23.1274 5.45897 23.3342 5.79648 23.3342 6.00139C23.3342 6.54381 23.1964 6.96569 22.9207 7.26704C22.6449 7.56838 22.2815 7.71905 21.8303 7.71905C21.7677 7.71905 21.0533 7.4599 19.6873 6.94159C18.3337 6.42327 16.9677 6.16412 15.5891 6.16412C14.2105 6.16412 13.1202 6.61011 12.3181 7.50209C11.9421 7.93602 11.704 8.45433 11.6038 9.05702C11.5787 9.18962 11.5662 9.32221 11.5662 9.4548C11.5662 9.93695 11.7103 10.4492 11.9985 10.9917C12.4873 11.8716 14.0852 12.8901 16.7922 14.0473C16.9548 14.1161 17.113 14.1865 17.2689 14.2539H25.625C26.3844 14.2539 27 14.846 27 15.5764C27 16.3068 26.3844 16.8989 25.625 16.8989H6.375C5.61561 16.8989 5 16.3068 5 15.5764C5 14.846 5.61561 14.2539 6.375 14.2539H9.64062C8.38046 12.9688 7.75 11.4175 7.75 9.59944C7.75 7.64673 8.54582 6.05563 10.1375 4.82615C11.7166 3.60872 13.8283 3 16.4727 3H16.5479Z" fill="black"/>
</svg>
