<svg width="16" height="16" viewBox="0 0 16 16" fill="none" xmlns="http://www.w3.org/2000/svg">
<path d="M11.595 9.02523C11.9161 9.48381 12.0771 9.98187 12.0771 10.5202V10.7955C12.0771 11.7524 11.704 12.5257 10.9578 13.1154C10.2115 13.7051 9.31144 14 8.25757 14C7.20369 14 6.36629 13.8637 5.74536 13.5911C5.13013 13.3129 4.69149 13.0014 4.42944 12.6565C4.30981 12.4951 4.25 12.331 4.25 12.1641C4.25 11.9972 4.31836 11.8442 4.45508 11.7051C4.5918 11.5661 4.73421 11.4965 4.88232 11.4965C5.03044 11.4965 5.24121 11.5633 5.51465 11.6968L5.91626 11.9054C6.65682 12.2782 7.35465 12.4645 8.00977 12.4645C8.66488 12.4645 9.16618 12.3533 9.51367 12.1307C9.98649 11.8303 10.2229 11.4131 10.2229 10.879C10.2229 10.3394 9.97795 9.87761 9.48804 9.49374C9.3082 9.35104 9.05686 9.19501 8.73425 9.02523H11.595ZM8.24902 2C8.97249 2 9.57349 2.09736 10.052 2.29207C10.5362 2.48679 10.8695 2.69541 11.0518 2.91794C11.2397 3.13491 11.3337 3.29068 11.3337 3.38526C11.3337 3.6356 11.2711 3.83032 11.1458 3.9694C11.0204 4.10848 10.8552 4.17803 10.6501 4.17803C10.6217 4.17803 10.297 4.05841 9.67603 3.81919C9.06079 3.57997 8.43986 3.46036 7.81323 3.46036C7.1866 3.46036 6.691 3.6662 6.32642 4.07789C6.15552 4.27816 6.04728 4.51739 6.00171 4.79555C5.99032 4.85675 5.98462 4.91794 5.98462 4.97914C5.98462 5.20167 6.05013 5.43811 6.18115 5.68846C6.40332 6.09458 7.12964 6.56467 8.36011 7.09875C8.434 7.13049 8.50591 7.16298 8.57678 7.19412H12.375C12.7202 7.19412 13 7.46739 13 7.80449C13 8.14159 12.7202 8.41486 12.375 8.41486H3.625C3.27982 8.41486 3 8.14159 3 7.80449C3 7.46739 3.27982 7.19412 3.625 7.19412H5.10938C4.53657 6.60096 4.25 5.88499 4.25 5.0459C4.25 4.14465 4.61173 3.41029 5.33521 2.84284C6.05298 2.28095 7.01286 2 8.21484 2H8.24902Z" fill="black"/>
</svg>
