<svg xmlns="http://www.w3.org/2000/svg" width="24" height="24" fill="none" viewBox="0 0 24 24">
  <path fill="#141414" fill-rule="evenodd" d="M4.25 6.083V4a.75.75 0 0 0-1.5 0v4c0 .414.336.75.75.75h4a.75.75 0 0 0 0-1.5H5.254a8.25 8.25 0 1 1-.587 8.533.75.75 0 1 0-1.333.689A9.75 9.75 0 0 0 12 21.75c5.385 0 9.75-4.365 9.75-9.75S17.385 2.25 12 2.25a9.735 9.735 0 0 0-7.75 3.833ZM12 6.25a.75.75 0 0 1 .75.75v5.25H17a.75.75 0 0 1 0 1.5h-5a.75.75 0 0 1-.75-.75V7a.75.75 0 0 1 .75-.75Z" clip-rule="evenodd"/>
</svg>
