<svg xmlns="http://www.w3.org/2000/svg" width="32" height="32" fill="none" viewBox="0 0 32 32">
  <path fill="#141414" fill-rule="evenodd" d="M5.667 8.111V5.333a1 1 0 1 0-2 0v5.334a1 1 0 0 0 1 1H10a1 1 0 0 0 0-2H7.005A10.987 10.987 0 0 1 16 5c6.075 0 11 4.925 11 11s-4.925 11-11 11a11 11 0 0 1-9.778-5.956 1 1 0 1 0-1.777.918A13 13 0 0 0 16 29c7.18 0 13-5.82 13-13S23.18 3 16 3A12.98 12.98 0 0 0 5.666 8.111ZM16 8.333a1 1 0 0 1 1 1v7h5.666a1 1 0 1 1 0 2H16a1 1 0 0 1-1-1v-8a1 1 0 0 1 1-1Z" clip-rule="evenodd"/>
</svg>
