<svg xmlns="http://www.w3.org/2000/svg" width="32" height="32" fill="none" viewBox="0 0 32 32">
  <path fill="#141414" fill-rule="evenodd" d="M25.746 6.35a2.333 2.333 0 0 0-3.3 0l-4.064 4.064a1 1 0 0 1-.898.275L7.75 8.79l-1.356 1.356 7.109 3.238A1 1 0 0 1 13.796 15l-2.294 2.293a1 1 0 0 1-.83.285l-3.707-.462-.546.546 4.92 2.697a1 1 0 0 1 .397.397l2.697 4.92.546-.546-.462-3.706a1 1 0 0 1 .285-.831l2.294-2.293a1 1 0 0 1 1.617.292l3.237 7.11 1.356-1.357-1.898-9.733a1 1 0 0 1 .274-.899l4.064-4.064a2.333 2.333 0 0 0 0-3.3Zm-4.714-1.414a4.333 4.333 0 1 1 6.129 6.128l-3.688 3.688 1.898 9.734a1 1 0 0 1-.274.898l-2.752 2.753a1 1 0 0 1-1.617-.293l-3.238-7.11-.928.928.462 3.707a1 1 0 0 1-.285.83l-1.835 1.835a1 1 0 0 1-1.584-.226l-3.198-5.834-5.834-3.198a1 1 0 0 1-.226-1.584l1.834-1.834a1 1 0 0 1 .831-.286l3.707.462.928-.928-7.11-3.237a1 1 0 0 1-.292-1.617L6.712 7a1 1 0 0 1 .898-.275l9.734 1.899 3.688-3.688Z" clip-rule="evenodd"/>
</svg>
