<svg xmlns="http://www.w3.org/2000/svg" width="16" height="16" fill="none" viewBox="0 0 16 16">
  <path fill="#141414" fill-rule="evenodd" d="M12.873 3.175a1.167 1.167 0 0 0-1.65 0L9.19 5.207a.5.5 0 0 1-.45.138l-4.867-.95-.678.678 3.555 1.62a.5.5 0 0 1 .146.808L5.751 8.647a.5.5 0 0 1-.416.143l-1.853-.231-.273.273 2.46 1.348a.5.5 0 0 1 .198.199l1.349 2.46.273-.273-.231-1.853a.5.5 0 0 1 .143-.416l1.146-1.146a.5.5 0 0 1 .809.146l1.619 3.555.678-.678-.95-4.867a.5.5 0 0 1 .138-.45l2.032-2.032a1.167 1.167 0 0 0 0-1.65Zm-2.357-.707a2.167 2.167 0 1 1 3.064 3.064l-1.844 1.844.949 4.867a.5.5 0 0 1-.137.45l-1.376 1.376a.5.5 0 0 1-.809-.147l-1.618-3.555-.464.464.23 1.854a.5.5 0 0 1-.142.415l-.917.918a.5.5 0 0 1-.792-.114l-1.6-2.917-2.916-1.599a.5.5 0 0 1-.114-.792l.918-.917a.5.5 0 0 1 .415-.143l1.853.231.464-.464-3.554-1.618a.5.5 0 0 1-.147-.809L3.355 3.5a.5.5 0 0 1 .45-.137l4.867.95 1.844-1.845Z" clip-rule="evenodd"/>
</svg>
