<svg xmlns="http://www.w3.org/2000/svg" width="24" height="24" fill="none" viewBox="0 0 24 24">
  <path fill="#141414" fill-rule="evenodd" d="M19.31 4.763a1.75 1.75 0 0 0-2.475 0L13.786 7.81a.75.75 0 0 1-.673.206l-7.3-1.424L4.794 7.61l5.332 2.428a.75.75 0 0 1 .22 1.213l-1.72 1.72a.75.75 0 0 1-.624.214l-2.78-.347-.409.41 3.69 2.023a.75.75 0 0 1 .298.297l2.023 3.69.409-.41-.347-2.78a.75.75 0 0 1 .214-.622l1.72-1.72a.75.75 0 0 1 1.213.22l2.428 5.331 1.017-1.017-1.423-7.3a.75.75 0 0 1 .205-.674l3.049-3.049a1.75 1.75 0 0 0 0-2.474Zm-3.536-1.061a3.25 3.25 0 0 1 4.596 4.596l-2.766 2.766 1.424 7.3a.75.75 0 0 1-.206.674l-2.064 2.064a.75.75 0 0 1-1.213-.219l-2.428-5.332-.696.696.347 2.78a.75.75 0 0 1-.214.623l-1.376 1.376a.75.75 0 0 1-1.188-.17l-2.398-4.375-4.376-2.399a.75.75 0 0 1-.17-1.188l1.376-1.376a.75.75 0 0 1 .623-.214l2.78.347.696-.696L3.19 8.527a.75.75 0 0 1-.22-1.213L5.035 5.25a.75.75 0 0 1 .674-.206l7.3 1.424 2.766-2.766Z" clip-rule="evenodd"/>
</svg>
