<svg xmlns="http://www.w3.org/2000/svg" width="24" height="24" fill="none" viewBox="0 0 24 24">
  <path fill="#141414" fill-rule="evenodd" d="M3.955 10.987C5.542 8.314 8.545 6.5 12 6.5s6.457 1.814 8.045 4.487c.37.624.37 1.402 0 2.026C18.457 15.686 15.455 17.5 12 17.5c-3.456 0-6.458-1.814-8.045-4.487a1.986 1.986 0 0 1 0-2.026ZM12 5c-3.987 0-7.48 2.095-9.335 5.221a3.485 3.485 0 0 0 0 3.558C4.522 16.905 8.013 19 12 19c3.987 0 7.478-2.095 9.334-5.221a3.486 3.486 0 0 0 0-3.558C19.478 7.095 15.987 5 12 5Zm0 4a3 3 0 1 0 0 6 3 3 0 0 0 0-6Z" clip-rule="evenodd"/>
</svg>
