<svg xmlns="http://www.w3.org/2000/svg" width="32" height="32" fill="none" viewBox="0 0 32 32">
  <path fill="#141414" fill-rule="evenodd" d="M5.273 14.65C7.389 11.085 11.393 8.666 16 8.666s8.61 2.42 10.726 5.983c.494.832.494 1.87 0 2.701-2.116 3.564-6.119 5.983-10.727 5.983-4.607 0-8.61-2.418-10.726-5.982a2.647 2.647 0 0 1 0-2.701ZM16 6.666c-5.316 0-9.971 2.794-12.447 6.962a4.647 4.647 0 0 0 0 4.744C6.03 22.54 10.683 25.333 16 25.333c5.317 0 9.972-2.793 12.447-6.962a4.647 4.647 0 0 0 0-4.743C25.97 9.46 21.316 6.666 16 6.666ZM16 12a4 4 0 1 0 0 8 4 4 0 0 0 0-8Z" clip-rule="evenodd"/>
</svg>
