<svg width="16" height="16" viewBox="0 0 16 16" fill="none" xmlns="http://www.w3.org/2000/svg">
<path fill-rule="evenodd" clip-rule="evenodd" d="M11.055 9.32351C10.8887 9.24073 10.0731 8.84184 9.92128 8.78628C9.76944 8.73128 9.65891 8.70406 9.54782 8.86962C9.43729 9.03406 9.11966 9.40628 9.02309 9.51628C8.92596 9.62684 8.82938 9.64017 8.66359 9.55795C8.4978 9.47462 7.96301 9.30073 7.32943 8.73851C6.83651 8.30073 6.50325 7.76018 6.40667 7.59462C6.3101 7.42962 6.39607 7.34018 6.47924 7.25795C6.55405 7.18406 6.64504 7.06518 6.72821 6.96907C6.81139 6.8724 6.83874 6.80351 6.89401 6.69295C6.94983 6.58295 6.92192 6.48684 6.88005 6.40407C6.83874 6.32129 6.50716 5.50851 6.36871 5.17796C6.23418 4.85629 6.09742 4.90018 5.99582 4.89462C5.89869 4.89018 5.78816 4.88907 5.67763 4.88907C5.5671 4.88907 5.38735 4.93018 5.23551 5.09573C5.08311 5.26073 4.65495 5.66018 4.65495 6.47295C4.65495 7.28518 5.24891 8.07017 5.33208 8.18073C5.41526 8.29073 6.50157 9.9585 8.16565 10.6735C8.56199 10.8435 8.87069 10.9452 9.11129 11.0207C9.50875 11.1468 9.87048 11.1291 10.1563 11.0863C10.4745 11.0391 11.1377 10.6868 11.2761 10.3013C11.414 9.91573 11.414 9.58517 11.3727 9.51628C11.3314 9.44739 11.2208 9.40628 11.0545 9.32351H11.055ZM8.02833 13.4363H8.02609C7.03771 13.4365 6.06748 13.172 5.21709 12.6707L5.01613 12.5518L2.92724 13.0974L3.48491 11.0707L3.35372 10.8629C2.80115 9.98759 2.50873 8.97449 2.51024 7.94073C2.51136 4.91296 4.98654 2.44963 8.03056 2.44963C9.50428 2.44963 10.8898 3.02185 11.9315 4.05963C12.4452 4.56884 12.8525 5.17438 13.1296 5.84123C13.4067 6.50808 13.5482 7.223 13.5459 7.94462C13.5447 10.9724 11.0696 13.4363 8.02833 13.4363V13.4363ZM12.7241 3.27129C12.1091 2.65514 11.3773 2.16659 10.5711 1.83396C9.76494 1.50133 8.90047 1.33123 8.02777 1.33352C4.36914 1.33352 1.39044 4.2974 1.38932 7.94017C1.38876 9.10462 1.69411 10.2413 2.27523 11.2429L1.3335 14.6668L4.85257 13.7479C5.82605 14.2758 6.91695 14.5524 8.02554 14.5524H8.02833C11.687 14.5524 14.6657 11.5885 14.6668 7.94517C14.6695 7.077 14.4992 6.2169 14.1657 5.41464C13.8323 4.61238 13.3423 3.88389 12.7241 3.27129" fill="#141414"/>
</svg>
