<svg width="24" height="24" viewBox="0 0 24 24" fill="none" xmlns="http://www.w3.org/2000/svg">
<path fill-rule="evenodd" clip-rule="evenodd" d="M16.5823 13.985C16.3328 13.8608 15.1094 13.2625 14.8817 13.1792C14.6539 13.0967 14.4881 13.0558 14.3215 13.3042C14.1557 13.5508 13.6792 14.1092 13.5344 14.2742C13.3887 14.44 13.2438 14.46 12.9951 14.3367C12.7465 14.2117 11.9443 13.9508 10.9939 13.1075C10.2545 12.4509 9.75463 11.64 9.60977 11.3917C9.46491 11.1442 9.59386 11.01 9.71862 10.8867C9.83083 10.7759 9.96731 10.5975 10.0921 10.4534C10.2168 10.3084 10.2579 10.205 10.3408 10.0392C10.4245 9.87419 10.3826 9.73002 10.3198 9.60585C10.2579 9.48169 9.76049 8.26252 9.55283 7.76669C9.35103 7.28419 9.14588 7.35003 8.99348 7.34169C8.84779 7.33503 8.68199 7.33336 8.5162 7.33336C8.3504 7.33336 8.08078 7.39503 7.85302 7.64336C7.62443 7.89086 6.98219 8.49002 6.98219 9.70919C6.98219 10.9275 7.87312 12.105 7.99788 12.2709C8.12265 12.4358 9.75211 14.9375 12.2482 16.01C12.8427 16.265 13.3058 16.4175 13.6667 16.5308C14.2629 16.72 14.8055 16.6933 15.2342 16.6292C15.7115 16.5583 16.7062 16.03 16.9139 15.4517C17.1207 14.8733 17.1207 14.3775 17.0588 14.2742C16.9968 14.1708 16.831 14.1092 16.5815 13.985H16.5823ZM12.0422 20.1542H12.0389C10.5563 20.1544 9.10097 19.7578 7.82539 19.0058L7.52395 18.8275L4.39061 19.6458L5.22712 16.6058L5.03034 16.2942C4.20149 14.9811 3.76285 13.4615 3.76512 11.9109C3.76679 7.36919 7.47957 3.6742 12.0456 3.6742C14.2562 3.6742 16.3345 4.53253 17.8969 6.08919C18.6676 6.85301 19.2784 7.76133 19.6941 8.7616C20.1098 9.76188 20.322 10.8343 20.3185 11.9167C20.3169 16.4583 16.6041 20.1542 12.0422 20.1542V20.1542ZM19.086 4.9067C18.1634 3.98247 17.0657 3.24965 15.8564 2.7507C14.6472 2.25175 13.3505 1.9966 12.0414 2.00003C6.55347 2.00003 2.08541 6.44586 2.08373 11.91C2.0829 13.6567 2.54092 15.3617 3.4126 16.8642L2 22L7.27861 20.6217C8.73883 21.4134 10.3752 21.8283 12.0381 21.8283H12.0422C17.5302 21.8283 21.9982 17.3825 21.9999 11.9175C22.004 10.6152 21.7485 9.32511 21.2483 8.12172C20.7482 6.91833 20.0132 5.82559 19.086 4.9067" fill="#141414"/>
</svg>
