<svg width="32" height="32" viewBox="0 0 32 32" fill="none" xmlns="http://www.w3.org/2000/svg">
<path fill-rule="evenodd" clip-rule="evenodd" d="M22.1096 18.6465C21.7769 18.481 20.1457 17.6832 19.8421 17.5721C19.5384 17.4621 19.3173 17.4076 19.0952 17.7387C18.8741 18.0676 18.2388 18.8121 18.0457 19.0321C17.8514 19.2532 17.6583 19.2799 17.3267 19.1154C16.9951 18.9487 15.9255 18.601 14.6584 17.4765C13.6725 16.601 13.006 15.5199 12.8129 15.1888C12.6197 14.8588 12.7916 14.6799 12.958 14.5154C13.1076 14.3676 13.2896 14.1299 13.4559 13.9376C13.6223 13.7443 13.677 13.6065 13.7875 13.3854C13.8992 13.1654 13.8433 12.9732 13.7596 12.8076C13.677 12.6421 13.0138 11.0165 12.7369 10.3554C12.4679 9.71209 12.1943 9.79987 11.9911 9.78876C11.7969 9.77987 11.5758 9.77765 11.3548 9.77765C11.1337 9.77765 10.7742 9.85987 10.4705 10.191C10.1657 10.521 9.30942 11.3199 9.30942 12.9454C9.30942 14.5699 10.4973 16.1399 10.6637 16.361C10.83 16.581 13.0027 19.9165 16.3308 21.3465C17.1235 21.6865 17.7409 21.8898 18.2221 22.041C19.017 22.2932 19.7405 22.2576 20.3121 22.1721C20.9485 22.0776 22.2748 21.3732 22.5517 20.6021C22.8275 19.831 22.8275 19.1699 22.7449 19.0321C22.6622 18.8943 22.4412 18.8121 22.1085 18.6465H22.1096ZM16.0562 26.8721H16.0517C14.0749 26.8724 12.1345 26.3436 10.4337 25.341L10.0318 25.1032L5.85399 26.1943L6.96933 22.141L6.70696 21.7254C5.60182 19.9747 5.01697 17.9485 5.01999 15.881C5.02223 9.82543 9.97259 4.89877 16.0606 4.89877C19.0081 4.89877 21.7791 6.04321 23.8624 8.11876C24.89 9.13718 25.7044 10.3483 26.2587 11.682C26.8129 13.0157 27.0958 14.4455 27.0912 15.8887C27.089 21.9443 22.1386 26.8721 16.0562 26.8721V26.8721ZM25.4478 6.5421C24.2177 5.30979 22.754 4.3327 21.1417 3.66744C19.5294 3.00218 17.8004 2.66197 16.055 2.66655C8.73779 2.66655 2.78038 8.59432 2.77815 15.8799C2.77703 18.2087 3.38773 20.4821 4.54997 22.4854L2.6665 29.3332L9.70464 27.4954C11.6516 28.5511 13.8334 29.1042 16.0506 29.1043H16.0562C23.3734 29.1043 29.3308 23.1765 29.3331 15.8899C29.3385 14.1535 28.9979 12.4333 28.331 10.8288C27.6641 9.22428 26.6841 7.76729 25.4478 6.5421" fill="#141414"/>
</svg>
