<svg xmlns="http://www.w3.org/2000/svg" width="32" height="32" fill="none" viewBox="0 0 32 32">
  <path fill="#141414" fill-rule="evenodd" d="M13.374 3.293a1 1 0 1 0-1.414 1.414L14.252 7H6.667A3.667 3.667 0 0 0 3 10.667v10.666A3.667 3.667 0 0 0 6.667 25H10a1 1 0 1 0 0-2H6.667C5.747 23 5 22.254 5 21.333V10.667C5 9.747 5.746 9 6.667 9h7.585l-2.292 2.293a1 1 0 1 0 1.414 1.414l4-4a1 1 0 0 0 0-1.414l-4-4Zm6.666 25.414a1 1 0 0 1-1.414 0l-4-4a1 1 0 0 1 0-1.414l4-4a1 1 0 0 1 1.414 1.414L17.747 23h7.586c.92 0 1.667-.746 1.667-1.667V10.667C27 9.747 26.254 9 25.333 9H22a1 1 0 1 1 0-2h3.333A3.667 3.667 0 0 1 29 10.667v10.666A3.667 3.667 0 0 1 25.333 25h-7.585l2.292 2.293a1 1 0 0 1 0 1.414Z" clip-rule="evenodd"/>
</svg>
