<svg xmlns="http://www.w3.org/2000/svg" width="24" height="24" fill="none" viewBox="0 0 24 24">
  <path fill="#141414" fill-rule="evenodd" d="M10.03 2.47a.75.75 0 1 0-1.06 1.06l1.72 1.72H5A2.75 2.75 0 0 0 2.25 8v8A2.75 2.75 0 0 0 5 18.75h2.5a.75.75 0 0 0 0-1.5H5c-.69 0-1.25-.56-1.25-1.25V8c0-.69.56-1.25 1.25-1.25h5.69L8.97 8.47a.75.75 0 0 0 1.06 1.06l3-3a.75.75 0 0 0 0-1.06l-3-3Zm5 19.06a.75.75 0 0 1-1.06 0l-3-3a.75.75 0 0 1 0-1.06l3-3a.75.75 0 1 1 1.06 1.06l-1.72 1.72H19c.69 0 1.25-.56 1.25-1.25V8c0-.69-.56-1.25-1.25-1.25h-2.5a.75.75 0 0 1 0-1.5H19A2.75 2.75 0 0 1 21.75 8v8A2.75 2.75 0 0 1 19 18.75h-5.69l1.72 1.72a.75.75 0 0 1 0 1.06Z" clip-rule="evenodd"/>
</svg>
