<svg xmlns="http://www.w3.org/2000/svg" width="16" height="16" fill="none" viewBox="0 0 16 16">
  <path fill="#141414" fill-rule="evenodd" d="M4 7.5a.5.5 0 0 1 .5-.5H6a.5.5 0 0 1 .5.5V11H9a.5.5 0 0 1 .5.5v1A2.5 2.5 0 0 1 7 15H6a.5.5 0 0 1 0-1h1a1.5 1.5 0 0 0 1.5-1.5V12H6a.5.5 0 0 1-.5-.5V8h-1a.5.5 0 0 1-.5-.5Z" clip-rule="evenodd"/>
  <path fill="#141414" fill-rule="evenodd" d="M8 5a.5.5 0 0 1 .5.5v3A.5.5 0 0 0 9 9h1a1.5 1.5 0 0 1 1.5 1.5v4a.5.5 0 0 1-1 0v-4a.5.5 0 0 0-.5-.5H9a1.5 1.5 0 0 1-1.5-1.5v-3A.5.5 0 0 1 8 5Z" clip-rule="evenodd"/>
  <path fill="#141414" d="M9.5 2.5a1.5 1.5 0 1 1-3 0 1.5 1.5 0 0 1 3 0Z"/>
</svg>
