<svg xmlns="http://www.w3.org/2000/svg" width="32" height="32" fill="none" viewBox="0 0 32 32">
  <path fill="#141414" fill-rule="evenodd" d="M15.666 6a1.333 1.333 0 1 0 2.667 0 1.333 1.333 0 0 0-2.667 0Zm1.333-3.333a3.333 3.333 0 1 0 0 6.667 3.333 3.333 0 0 0 0-6.667Zm0 7.667a1 1 0 0 1 1 1v6c0 .184.15.333.334.333h1.333a3.667 3.667 0 0 1 3.667 3.667V28a1 1 0 1 1-2 0v-6.666c0-.92-.746-1.667-1.667-1.667h-1.333a2.333 2.333 0 0 1-2.334-2.333v-6a1 1 0 0 1 1-1Zm-7.333 4a1 1 0 0 0 0 2h2.333v5a2.333 2.333 0 0 0 2.334 2.333h2.666c.184 0 .334.15.334.333a3 3 0 0 1-3 3h-1.334a1 1 0 0 0 0 2h1.334a5 5 0 0 0 5-5 2.333 2.333 0 0 0-2.334-2.333h-2.666a.333.333 0 0 1-.334-.333v-7H9.666Z" clip-rule="evenodd"/>
</svg>
