<svg xmlns="http://www.w3.org/2000/svg" width="24" height="24" fill="none" viewBox="0 0 24 24">
  <path fill="#141414" fill-rule="evenodd" d="M11.75 4.5a1 1 0 1 0 2 0 1 1 0 0 0-2 0Zm1-2.5a2.5 2.5 0 1 0 0 5 2.5 2.5 0 0 0 0-5Zm0 5.75a.75.75 0 0 1 .75.75V13c0 .138.112.25.25.25h1A2.75 2.75 0 0 1 17.5 16v5a.75.75 0 0 1-1.5 0v-5c0-.69-.56-1.25-1.25-1.25h-1A1.75 1.75 0 0 1 12 13V8.5a.75.75 0 0 1 .75-.75Zm-5.5 3a.75.75 0 0 0 0 1.5H9V16c0 .966.784 1.75 1.75 1.75h2A.25.25 0 0 1 13 18a2.25 2.25 0 0 1-2.25 2.25h-1a.75.75 0 0 0 0 1.5h1A3.75 3.75 0 0 0 14.5 18a1.75 1.75 0 0 0-1.75-1.75h-2a.25.25 0 0 1-.25-.25v-5.25H7.25Z" clip-rule="evenodd"/>
</svg>
