<svg xmlns="http://www.w3.org/2000/svg" width="32" height="32" fill="none" viewBox="0 0 32 32">
  <path fill="#141414" fill-rule="evenodd" d="M27.333 16c0 6.26-5.074 11.334-11.334 11.334C9.74 27.334 4.666 22.26 4.666 16c0-6.259 5.074-11.333 11.333-11.333 6.26 0 11.334 5.074 11.334 11.333Zm2 0c0 7.364-5.97 13.334-13.334 13.334-7.363 0-13.333-5.97-13.333-13.334 0-7.363 5.97-13.333 13.333-13.333 7.364 0 13.334 5.97 13.334 13.333Zm-13-6a1 1 0 0 0-2 0v6.667a1 1 0 0 0 1 1h5.333a1 1 0 1 0 0-2h-4.333V10Z" clip-rule="evenodd"/>
</svg>
