<svg width="12" height="12" viewBox="0 0 12 12" fill="none" xmlns="http://www.w3.org/2000/svg">
<path d="M9.5 1C10.3284 1 11 1.67157 11 2.5V9.5C11 10.3284 10.3284 11 9.5 11H2.5C1.67157 11 1 10.3284 1 9.5V2.5C1 1.67157 1.67157 1 2.5 1H9.5ZM2.5 2C2.22386 2 2 2.22386 2 2.5V9.5C2 9.77614 2.22386 10 2.5 10H9.5C9.77614 10 10 9.77614 10 9.5V2.5C10 2.22386 9.77614 2 9.5 2H2.5ZM5.5459 3.00195C5.76616 3.02225 5.94685 3.18543 5.99023 3.40234L6.66016 6.75293L7.03613 5.81445L7.06934 5.74609C7.15822 5.59524 7.3212 5.5 7.5 5.5H8.5C8.77614 5.5 9 5.72386 9 6C8.99995 6.2761 8.77611 6.5 8.5 6.5H7.83789L6.96387 8.68555C6.88167 8.89094 6.67441 9.01827 6.4541 8.99805C6.23387 8.97775 6.05318 8.81453 6.00977 8.59766L5.33887 5.24609L4.96387 6.18555C4.88792 6.37533 4.70442 6.5 4.5 6.5H3.5C3.22389 6.5 3.00005 6.2761 3 6C3 5.72386 3.22386 5.5 3.5 5.5H4.16211L5.03613 3.31445L5.07227 3.24121C5.17002 3.0795 5.35307 2.98425 5.5459 3.00195Z" fill="#141414"/>
</svg>
