<svg width="16" height="16" viewBox="0 0 16 16" fill="none" xmlns="http://www.w3.org/2000/svg">
<path d="M12.667 1.5C13.6793 1.50018 14.4998 2.32074 14.5 3.33301V12.667C14.4998 13.6793 13.6793 14.4998 12.667 14.5H3.33301C2.32074 14.4998 1.50018 13.6793 1.5 12.667V3.33301C1.50018 2.32074 2.32074 1.50018 3.33301 1.5H12.667ZM3.33301 2.5C2.87303 2.50018 2.50018 2.87303 2.5 3.33301V12.667C2.50018 13.127 2.87303 13.4998 3.33301 13.5H12.667C13.127 13.4998 13.4998 13.127 13.5 12.667V3.33301C13.4998 2.87303 13.127 2.50018 12.667 2.5H3.33301ZM7.37891 4.16895C7.59901 4.18938 7.78086 4.35254 7.82422 4.56934L8.82715 9.58594L9.53613 7.81445L9.56934 7.74707C9.65809 7.59594 9.82108 7.50012 10 7.5H11.334C11.6096 7.50044 11.8338 7.72428 11.834 8C11.8338 8.2757 11.6096 8.49956 11.334 8.5H10.3389L9.13086 11.5195C9.04863 11.7246 8.84108 11.852 8.62109 11.832C8.40097 11.8118 8.22031 11.6483 8.17676 11.4316L7.17285 6.41309L6.46484 8.18555C6.38893 8.37514 6.2042 8.4998 6 8.5H4.66699C4.39098 8.5 4.1672 8.27597 4.16699 8C4.16717 7.72401 4.39096 7.5 4.66699 7.5H5.66211L6.86914 4.48145C6.95126 4.27615 7.15874 4.14894 7.37891 4.16895Z" fill="#141414"/>
</svg>
