<svg width="24" height="24" viewBox="0 0 24 24" fill="none" xmlns="http://www.w3.org/2000/svg">
<path d="M19 2.25C20.5188 2.25 21.75 3.48122 21.75 5V19C21.75 20.5188 20.5188 21.75 19 21.75H5C3.48122 21.75 2.25 20.5188 2.25 19V5C2.25 3.48122 3.48122 2.25 5 2.25H19ZM5 3.75C4.30964 3.75 3.75 4.30964 3.75 5V19C3.75 19.6904 4.30964 20.25 5 20.25H19C19.6904 20.25 20.25 19.6904 20.25 19V5C20.25 4.30964 19.6904 3.75 19 3.75H5ZM11.0684 6.25293C11.3987 6.28326 11.6701 6.52727 11.7354 6.85254L13.2402 14.3789L14.3037 11.7217L14.3535 11.6191C14.4868 11.3927 14.7317 11.25 15 11.25H17C17.4142 11.25 17.75 11.5858 17.75 12C17.75 12.4142 17.4142 12.75 17 12.75H15.5078L13.6963 17.2783C13.573 17.5864 13.2621 17.7773 12.9316 17.7471C12.6013 17.7167 12.3299 17.4727 12.2646 17.1475L10.7588 9.62012L9.69629 12.2783C9.58238 12.563 9.30667 12.75 9 12.75H7C6.5858 12.75 6.25002 12.4142 6.25 12C6.25 11.5858 6.58579 11.25 7 11.25H8.49219L10.3037 6.72168L10.3584 6.61133C10.505 6.36904 10.7793 6.22648 11.0684 6.25293Z" fill="#141414"/>
</svg>
