<svg width="32" height="32" viewBox="0 0 32 32" fill="none" xmlns="http://www.w3.org/2000/svg">
<path d="M25.333 3C27.3581 3 29 4.64195 29 6.66699V25.333C29 27.3581 27.3581 29 25.333 29H6.66699C4.64195 29 3 27.3581 3 25.333V6.66699C3 4.64195 4.64195 3 6.66699 3H25.333ZM6.66699 5C5.74652 5 5 5.74652 5 6.66699V25.333C5 26.2535 5.74652 27 6.66699 27H25.333C26.2535 27 27 26.2535 27 25.333V6.66699C27 5.74652 26.2535 5 25.333 5H6.66699ZM14.7588 8.33691C15.1991 8.37755 15.5605 8.70316 15.6475 9.13672L17.6543 19.1709L19.0723 15.6279L19.1387 15.4922C19.3164 15.1904 19.6433 15 20.001 15H22.667C23.219 15.0003 23.6668 15.448 23.667 16C23.6668 16.552 23.2189 16.9997 22.667 17H20.6768L18.2627 23.0381C18.0983 23.4487 17.6826 23.7023 17.2422 23.6621C16.8017 23.6215 16.4403 23.2961 16.3535 22.8623L14.3457 12.8271L12.9287 16.3711C12.7769 16.7504 12.4095 16.9997 12.001 17H9.33398C8.78181 17 8.33416 16.5521 8.33398 16C8.33415 15.4479 8.7818 15 9.33398 15H11.3232L13.7393 8.96191L13.8115 8.81543C14.0071 8.49218 14.3732 8.30152 14.7588 8.33691Z" fill="#141414"/>
</svg>
