<svg width="32" height="32" viewBox="0 0 32 32" fill="none" xmlns="http://www.w3.org/2000/svg">
<path fill-rule="evenodd" clip-rule="evenodd" d="M7.00285 10.6713C7.00285 10.1188 7.45075 9.67085 8.00327 9.67085H18.0075C22.6118 9.67085 26.3444 13.4034 26.3444 18.0077C26.3444 22.6121 22.6119 26.3446 18.0075 26.3446H6.66937C6.11685 26.3446 5.66895 25.8967 5.66895 25.3442C5.66895 24.7917 6.11685 24.3437 6.66937 24.3437H18.0075C21.5068 24.3437 24.3435 21.507 24.3435 18.0077C24.3435 14.5084 21.5068 11.6717 18.0075 11.6717H8.00327C7.45075 11.6717 7.00285 11.2238 7.00285 10.6713Z" fill="#141414"/>
<path fill-rule="evenodd" clip-rule="evenodd" d="M12.0454 5.29521C12.4361 5.68591 12.4361 6.31934 12.0454 6.71003L8.08418 10.6713L12.0454 14.6325C12.4361 15.0232 12.4361 15.6566 12.0454 16.0473C11.6547 16.438 11.0213 16.438 10.6306 16.0473L5.96196 11.3787C5.57127 10.988 5.57127 10.3546 5.96196 9.96387L10.6306 5.29521C11.0213 4.90452 11.6547 4.90452 12.0454 5.29521Z" fill="#141414"/>
</svg>
