<svg width="24" height="24" viewBox="0 0 24 24" fill="none" xmlns="http://www.w3.org/2000/svg">
<path d="M9.03033 5.03033C9.32322 4.73744 9.32322 4.26256 9.03033 3.96967C8.73744 3.67678 8.26256 3.67678 7.96967 3.96967L4.46967 7.46967C4.17678 7.76256 4.17678 8.23744 4.46967 8.53033L7.96967 12.0303C8.26256 12.3232 8.73744 12.3232 9.03033 12.0303C9.32322 11.7374 9.32322 11.2626 9.03033 10.9697L6.81066 8.75H13.5C16.1234 8.75 18.25 10.8766 18.25 13.5C18.25 16.1234 16.1234 18.25 13.5 18.25H5C4.58579 18.25 4.25 18.5858 4.25 19C4.25 19.4142 4.58579 19.75 5 19.75H13.5C16.9518 19.75 19.75 16.9518 19.75 13.5C19.75 10.0482 16.9518 7.25 13.5 7.25H6.81066L9.03033 5.03033Z" fill="#141414"/>
</svg>
