<svg width="12" height="12" viewBox="0 0 12 12" fill="none" xmlns="http://www.w3.org/2000/svg">
<path d="M4.51517 2.51517C4.66161 2.36872 4.66161 2.13128 4.51517 1.98483C4.36872 1.83839 4.13128 1.83839 3.98483 1.98483L2.23483 3.73483C2.08839 3.88128 2.08839 4.11872 2.23483 4.26517L3.98483 6.01516C4.13128 6.16161 4.36872 6.16161 4.51517 6.01516C4.66161 5.86872 4.66161 5.63128 4.51517 5.48483L3.40533 4.375H6.75C8.06168 4.375 9.125 5.43832 9.125 6.75C9.125 8.06168 8.06168 9.125 6.75 9.125H2.5C2.29289 9.125 2.125 9.29289 2.125 9.5C2.125 9.70711 2.29289 9.875 2.5 9.875H6.75C8.47589 9.875 9.875 8.47589 9.875 6.75C9.875 5.02411 8.47589 3.625 6.75 3.625H3.40533L4.51517 2.51517Z" fill="#141414"/>
</svg>
