<svg width="16" height="16" viewBox="0 0 16 16" fill="none" xmlns="http://www.w3.org/2000/svg">
<path d="M6.02038 3.35355C6.21564 3.15829 6.21564 2.84171 6.02038 2.64645C5.82512 2.45118 5.50854 2.45118 5.31328 2.64645L2.97994 4.97978C2.78468 5.17504 2.78468 5.49162 2.97994 5.68689L5.31328 8.02022C5.50854 8.21548 5.82512 8.21548 6.02038 8.02022C6.21564 7.82496 6.21564 7.50838 6.02038 7.31311L4.54058 5.83331H9.00016C10.7491 5.83331 12.1668 7.25108 12.1668 8.99998C12.1668 10.7489 10.7491 12.1666 9.00016 12.1666H3.3335C3.05735 12.1666 2.8335 12.3905 2.8335 12.6666C2.8335 12.9428 3.05735 13.1666 3.3335 13.1666H9.00016C11.3013 13.1666 13.1668 11.3012 13.1668 8.99998C13.1668 6.69879 11.3013 4.83331 9.00016 4.83331H4.54062L6.02038 3.35355Z" fill="#141414"/>
</svg>
