<svg width="32" height="32" viewBox="0 0 32 32" fill="none" xmlns="http://www.w3.org/2000/svg">
<path d="M14.2927 7.9594C14.6833 7.56887 15.3164 7.56887 15.7069 7.9594C16.0975 8.34992 16.0975 8.98309 15.7069 9.37361L9.08072 15.9998L15.7069 22.6261C16.0975 23.0166 16.0975 23.6498 15.7069 24.0403C15.3164 24.4308 14.6833 24.4308 14.2927 24.0403L6.9594 16.7069C6.56887 16.3164 6.56887 15.6833 6.9594 15.2927L14.2927 7.9594Z" fill="#141414"/>
<path d="M23.6262 7.9594C24.0168 7.56887 24.6499 7.56887 25.0404 7.9594C25.431 8.34992 25.431 8.98309 25.0404 9.37361L18.4142 15.9998L25.0404 22.6261C25.431 23.0166 25.431 23.6498 25.0404 24.0403C24.6499 24.4308 24.0168 24.4308 23.6262 24.0403L16.2929 16.7069C15.9024 16.3164 15.9024 15.6833 16.2929 15.2927L23.6262 7.9594Z" fill="#141414"/>
</svg>
