<svg width="12" height="12" viewBox="0 0 12 12" fill="none" xmlns="http://www.w3.org/2000/svg">
<path d="M6.35355 2.35355C6.54882 2.15829 6.54882 1.84171 6.35355 1.64645C6.15829 1.45118 5.84171 1.45118 5.64645 1.64645L1.64645 5.64645C1.45118 5.84171 1.45118 6.15829 1.64645 6.35355L5.64645 10.3536C5.84171 10.5488 6.15829 10.5488 6.35355 10.3536C6.54882 10.1583 6.54882 9.84171 6.35355 9.64645L2.70711 6L6.35355 2.35355Z" fill="#141414"/>
<path d="M10.3536 2.35355C10.5488 2.15829 10.5488 1.84171 10.3536 1.64645C10.1583 1.45118 9.84171 1.45118 9.64645 1.64645L5.64645 5.64645C5.45118 5.84171 5.45118 6.15829 5.64645 6.35355L9.64645 10.3536C9.84171 10.5488 10.1583 10.5488 10.3536 10.3536C10.5488 10.1583 10.5488 9.84171 10.3536 9.64645L6.70711 6L10.3536 2.35355Z" fill="#141414"/>
</svg>
