<svg width="16" height="16" viewBox="0 0 16 16" fill="none" xmlns="http://www.w3.org/2000/svg">
<path d="M7.64645 2.64645C7.84171 2.45118 8.15829 2.45118 8.35355 2.64645C8.54882 2.84171 8.54882 3.15829 8.35355 3.35355L3.70711 8L8.35355 12.6464C8.54882 12.8417 8.54882 13.1583 8.35355 13.3536C8.15829 13.5488 7.84171 13.5488 7.64645 13.3536L2.64645 8.35355C2.45118 8.15829 2.45118 7.84171 2.64645 7.64645L7.64645 2.64645Z" fill="#141414"/>
<path d="M12.6464 2.64645C12.8417 2.45118 13.1583 2.45118 13.3536 2.64645C13.5488 2.84171 13.5488 3.15829 13.3536 3.35355L8.70711 8L13.3536 12.6464C13.5488 12.8417 13.5488 13.1583 13.3536 13.3536C13.1583 13.5488 12.8417 13.5488 12.6464 13.3536L7.64645 8.35355C7.45118 8.15829 7.45118 7.84171 7.64645 7.64645L12.6464 2.64645Z" fill="#141414"/>
</svg>
