<svg width="24" height="24" viewBox="0 0 24 24" fill="none" xmlns="http://www.w3.org/2000/svg">
<path d="M11.2197 5.96967C11.5126 5.67678 11.9874 5.67678 12.2803 5.96967C12.5732 6.26256 12.5732 6.73744 12.2803 7.03033L7.31066 12L12.2803 16.9697C12.5732 17.2626 12.5732 17.7374 12.2803 18.0303C11.9874 18.3232 11.5126 18.3232 11.2197 18.0303L5.71967 12.5303C5.42678 12.2374 5.42678 11.7626 5.71967 11.4697L11.2197 5.96967Z" fill="#141414"/>
<path d="M17.2197 5.96967C17.5126 5.67678 17.9874 5.67678 18.2803 5.96967C18.5732 6.26256 18.5732 6.73744 18.2803 7.03033L13.3107 12L18.2803 16.9697C18.5732 17.2626 18.5732 17.7374 18.2803 18.0303C17.9874 18.3232 17.5126 18.3232 17.2197 18.0303L11.7197 12.5303C11.4268 12.2374 11.4268 11.7626 11.7197 11.4697L17.2197 5.96967Z" fill="#141414"/>
</svg>
