<svg xmlns="http://www.w3.org/2000/svg" width="32" height="32" fill="none" viewBox="0 0 32 32">
  <path fill="#141414" fill-rule="evenodd" d="M4.333 6.667A3.667 3.667 0 0 1 8 3h5.334a1 1 0 1 1 0 2H8c-.92 0-1.667.746-1.667 1.667v18.666C6.333 26.253 7.08 27 8 27h5.334a1 1 0 1 1 0 2H8a3.667 3.667 0 0 1-3.667-3.667V6.667ZM13.668 16a1 1 0 0 1 1-1h9.586l-3.627-3.626a1 1 0 0 1 1.415-1.414l5.333 5.333a1 1 0 0 1 0 1.414L22.04 22.04a1 1 0 1 1-1.415-1.414L24.253 17h-9.586a1 1 0 0 1-1-1Z" clip-rule="evenodd"/>
</svg>
