<svg xmlns="http://www.w3.org/2000/svg" width="16" height="16" fill="none" viewBox="0 0 16 16">
  <path fill="#141414" fill-rule="evenodd" d="M12.854 7.646a.5.5 0 0 1 0 .708l-3 3a.5.5 0 0 1-.708-.708L11.793 8 9.146 5.354a.5.5 0 1 1 .708-.708l3 3Z" clip-rule="evenodd"/>
  <path fill="#141414" fill-rule="evenodd" d="M12.5 8a.5.5 0 0 1-.5.5H6.5a.5.5 0 0 1 0-1H12a.5.5 0 0 1 .5.5Z" clip-rule="evenodd"/>
  <path fill="#141414" fill-rule="evenodd" d="M3 2.5A1.5 1.5 0 0 1 4.5 1h6a.5.5 0 0 1 0 1h-6a.5.5 0 0 0-.5.5v11a.5.5 0 0 0 .5.5h6a.5.5 0 0 1 0 1h-6A1.5 1.5 0 0 1 3 13.5v-11Z" clip-rule="evenodd"/>
</svg>
