<svg xmlns="http://www.w3.org/2000/svg" width="32" height="32" fill="none" viewBox="0 0 32 32">
  <path fill="#141414" fill-rule="evenodd" d="M10.666 2.333a1 1 0 1 0 0 2h4.333V6.71C9.21 7.216 4.666 12.077 4.666 18c0 6.259 5.074 11.333 11.333 11.333 6.26 0 11.334-5.074 11.334-11.333 0-5.923-4.543-10.784-10.334-11.29V4.333h4.334a1 1 0 1 0 0-2H10.666ZM6.666 18a9.333 9.333 0 0 1 9.33-9.334h.006A9.333 9.333 0 1 1 6.666 18Zm10.333-6a1 1 0 1 0-2 0v6.666a1 1 0 0 0 1 1h5.334a1 1 0 1 0 0-2h-4.334V12Z" clip-rule="evenodd"/>
</svg>
