<svg xmlns="http://www.w3.org/2000/svg" width="16" height="16" fill="none" viewBox="0 0 16 16">
  <path fill="#141414" fill-rule="evenodd" d="M11 2H5a1 1 0 0 0-1 1v10a1 1 0 0 0 1 1h6a1 1 0 0 0 1-1V3a1 1 0 0 0-1-1ZM5 1a2 2 0 0 0-2 2v10a2 2 0 0 0 2 2h6a2 2 0 0 0 2-2V3a2 2 0 0 0-2-2H5Z" clip-rule="evenodd"/>
  <path fill="#141414" fill-rule="evenodd" d="M5 8a.5.5 0 0 1 .5-.5h5a.5.5 0 0 1 0 1h-5A.5.5 0 0 1 5 8Zm0 3a.5.5 0 0 1 .5-.5h5a.5.5 0 0 1 0 1h-5A.5.5 0 0 1 5 11Zm0-6a.5.5 0 0 1 .5-.5h5a.5.5 0 0 1 0 1h-5A.5.5 0 0 1 5 5Z" clip-rule="evenodd"/>
</svg>
