<svg xmlns="http://www.w3.org/2000/svg" width="24" height="24" fill="none" viewBox="0 0 24 24">
  <path fill="#141414" fill-rule="evenodd" d="M6 3.5h12a.5.5 0 0 1 .5.5v16a.5.5 0 0 1-.5.5H6a.5.5 0 0 1-.5-.5V4a.5.5 0 0 1 .5-.5ZM4 4a2 2 0 0 1 2-2h12a2 2 0 0 1 2 2v16a2 2 0 0 1-2 2H6a2 2 0 0 1-2-2V4Zm4.5 3.25a.75.75 0 0 0 0 1.5h7a.75.75 0 0 0 0-1.5h-7ZM7.75 12a.75.75 0 0 1 .75-.75h7a.75.75 0 0 1 0 1.5h-7a.75.75 0 0 1-.75-.75Zm.75 3.25a.75.75 0 0 0 0 1.5h7a.75.75 0 0 0 0-1.5h-7Z" clip-rule="evenodd"/>
</svg>
