<svg xmlns="http://www.w3.org/2000/svg" width="7" height="10" viewBox="0 0 7 10" fill="none">
  <path fill-rule="evenodd" clip-rule="evenodd" d="M5.6 0.714286H1.4C1.0134 0.714286 0.7 1.03408 0.7 1.42857V8.57143C0.7 8.96592 1.0134 9.28571 1.4 9.28571H5.6C5.9866 9.28571 6.3 8.96592 6.3 8.57143V1.42857C6.3 1.03408 5.9866 0.714286 5.6 0.714286ZM1.4 0C0.626801 0 0 0.639593 0 1.42857V8.57143C0 9.36041 0.626801 10 1.4 10H5.6C6.3732 10 7 9.36041 7 8.57143V1.42857C7 0.639593 6.3732 0 5.6 0H1.4Z" fill="#141414"/>
  <path fill-rule="evenodd" clip-rule="evenodd" d="M1.4 5C1.4 4.80276 1.5567 4.64286 1.75 4.64286H5.25C5.4433 4.64286 5.6 4.80276 5.6 5C5.6 5.19724 5.4433 5.35714 5.25 5.35714H1.75C1.5567 5.35714 1.4 5.19724 1.4 5Z" fill="#141414"/>
  <path fill-rule="evenodd" clip-rule="evenodd" d="M1.4 7.14286C1.4 6.94561 1.5567 6.78571 1.75 6.78571H5.25C5.4433 6.78571 5.6 6.94561 5.6 7.14286C5.6 7.3401 5.4433 7.5 5.25 7.5H1.75C1.5567 7.5 1.4 7.3401 1.4 7.14286Z" fill="#141414"/>
  <path fill-rule="evenodd" clip-rule="evenodd" d="M1.4 2.85714C1.4 2.6599 1.5567 2.5 1.75 2.5H5.25C5.4433 2.5 5.6 2.6599 5.6 2.85714C5.6 3.05439 5.4433 3.21429 5.25 3.21429H1.75C1.5567 3.21429 1.4 3.05439 1.4 2.85714Z" fill="#141414"/>
</svg>