<svg xmlns="http://www.w3.org/2000/svg" width="32" height="32" fill="none" viewBox="0 0 32 32">
  <path fill="#141414" fill-rule="evenodd" d="M8 4.667h16c.368 0 .667.298.667.666v21.334a.667.667 0 0 1-.667.666H8a.667.667 0 0 1-.667-.666V5.332c0-.368.299-.667.667-.667Zm-2.667.666A2.667 2.667 0 0 1 8 2.666h16a2.667 2.667 0 0 1 2.667 2.667v21.334A2.667 2.667 0 0 1 24 29.332H8a2.667 2.667 0 0 1-2.667-2.666V5.332Zm6 4.333a1 1 0 1 0 0 2h9.334a1 1 0 1 0 0-2h-9.334Zm-1 6.334a1 1 0 0 1 1-1h9.334a1 1 0 0 1 0 2h-9.334a1 1 0 0 1-1-1Zm1 4.333a1 1 0 1 0 0 2h9.334a1 1 0 1 0 0-2h-9.334Z" clip-rule="evenodd"/>
</svg>
