<svg width="12" height="12" viewBox="0 0 12 12" fill="none" xmlns="http://www.w3.org/2000/svg">
<path d="M2.35355 5.64645C2.15829 5.45118 1.84171 5.45118 1.64645 5.64645C1.45118 5.84171 1.45118 6.15829 1.64645 6.35355L5.64645 10.3536C5.84171 10.5488 6.15829 10.5488 6.35355 10.3536L10.3536 6.35355C10.5488 6.15829 10.5488 5.84171 10.3536 5.64645C10.1583 5.45119 9.84171 5.45119 9.64645 5.64645L6 9.29289L2.35355 5.64645Z" fill="#141414"/>
<path d="M2.35355 1.64645C2.15829 1.45118 1.84171 1.45118 1.64645 1.64645C1.45118 1.84171 1.45118 2.15829 1.64645 2.35355L5.64645 6.35355C5.84171 6.54882 6.15829 6.54882 6.35355 6.35355L10.3536 2.35355C10.5488 2.15829 10.5488 1.84171 10.3536 1.64645C10.1583 1.45119 9.84171 1.45119 9.64645 1.64645L6 5.29289L2.35355 1.64645Z" fill="#141414"/>
</svg>
