<svg width="24" height="24" viewBox="0 0 24 24" fill="none" xmlns="http://www.w3.org/2000/svg">
<path d="M5.96967 12.7803C5.67678 12.4874 5.67678 12.0126 5.96967 11.7197C6.26256 11.4268 6.73744 11.4268 7.03033 11.7197L12 16.6893L16.9697 11.7197C17.2626 11.4268 17.7374 11.4268 18.0303 11.7197C18.3232 12.0126 18.3232 12.4874 18.0303 12.7803L12.5303 18.2803C12.2374 18.5732 11.7626 18.5732 11.4697 18.2803L5.96967 12.7803Z" fill="#141414"/>
<path d="M5.96967 6.78033C5.67678 6.48744 5.67678 6.01256 5.96967 5.71967C6.26256 5.42678 6.73744 5.42678 7.03033 5.71967L12 10.6893L16.9697 5.71967C17.2626 5.42678 17.7374 5.42678 18.0303 5.71967C18.3232 6.01256 18.3232 6.48744 18.0303 6.78033L12.5303 12.2803C12.2374 12.5732 11.7626 12.5732 11.4697 12.2803L5.96967 6.78033Z" fill="#141414"/>
</svg>
