<svg width="16" height="16" viewBox="0 0 16 16" fill="none" xmlns="http://www.w3.org/2000/svg">
<path d="M2.64645 8.35355C2.45118 8.15829 2.45118 7.84171 2.64645 7.64645C2.84171 7.45118 3.15829 7.45118 3.35355 7.64645L8 12.2929L12.6464 7.64645C12.8417 7.45118 13.1583 7.45118 13.3536 7.64645C13.5488 7.84171 13.5488 8.15829 13.3536 8.35355L8.35355 13.3536C8.15829 13.5488 7.84171 13.5488 7.64645 13.3536L2.64645 8.35355Z" fill="#141414"/>
<path d="M2.64645 3.35355C2.45118 3.15829 2.45118 2.84171 2.64645 2.64645C2.84171 2.45118 3.15829 2.45118 3.35355 2.64645L8 7.29289L12.6464 2.64645C12.8417 2.45118 13.1583 2.45118 13.3536 2.64645C13.5488 2.84171 13.5488 3.15829 13.3536 3.35355L8.35355 8.35355C8.15829 8.54882 7.84171 8.54882 7.64645 8.35355L2.64645 3.35355Z" fill="#141414"/>
</svg>
