<svg xmlns="http://www.w3.org/2000/svg" width="32" height="32" fill="none" viewBox="0 0 32 32">
  <path fill="#141414" fill-rule="evenodd" d="M6.667 3A3.667 3.667 0 0 0 3 6.667v18.666A3.667 3.667 0 0 0 6.667 29h18.666A3.667 3.667 0 0 0 29 25.333V16a1 1 0 1 0-2 0v9.333c0 .92-.746 1.667-1.667 1.667H6.667C5.747 27 5 26.254 5 25.333V6.667C5 5.747 5.746 5 6.667 5H20a1 1 0 1 0 0-2H6.667Zm18.04 7.707a1 1 0 0 0-1.414-1.414l-8.626 8.626-3.293-3.293A1 1 0 0 0 9.96 16.04l4 4a1 1 0 0 0 1.414 0l9.333-9.333Z" clip-rule="evenodd"/>
</svg>
