<svg xmlns="http://www.w3.org/2000/svg" width="32" height="32" fill="none" viewBox="0 0 32 32">
  <path fill="#141414" fill-rule="evenodd" d="M27.333 16c0 6.26-5.074 11.333-11.333 11.333-2.77 0-5.307-.993-7.276-2.643L24.69 8.724A11.287 11.287 0 0 1 27.333 16ZM7.31 23.276 23.276 7.31A11.288 11.288 0 0 0 16 4.667C9.74 4.667 4.666 9.74 4.666 16c0 2.77.994 5.307 2.644 7.276ZM29.333 16c0 7.364-5.97 13.333-13.333 13.333-7.364 0-13.334-5.97-13.334-13.333C2.666 8.636 8.636 2.666 16 2.666S29.333 8.636 29.333 16Z" clip-rule="evenodd"/>
</svg>
