<svg xmlns="http://www.w3.org/2000/svg" width="16" height="16" fill="none" viewBox="0 0 16 16">
  <path fill="#141414" fill-rule="evenodd" d="M5.5 5a1.5 1.5 0 1 0 0-3 1.5 1.5 0 0 0 0 3Zm0 1a2.5 2.5 0 1 0 0-5 2.5 2.5 0 0 0 0 5ZM10 8.5a1.5 1.5 0 1 0 0-3 1.5 1.5 0 0 0 0 3Zm0 1a2.5 2.5 0 1 0 0-5 2.5 2.5 0 0 0 0 5Zm-1.5 2A2.5 2.5 0 0 0 6 14v1H5v-1a3.5 3.5 0 0 1 3.5-3.5h3A3.5 3.5 0 0 1 15 14v1h-1v-1a2.5 2.5 0 0 0-2.5-2.5h-3ZM4.5 8A2.5 2.5 0 0 0 2 10.5v1H1v-1A3.5 3.5 0 0 1 4.5 7h2v1h-2Z" clip-rule="evenodd"/>
</svg>
