<svg xmlns="http://www.w3.org/2000/svg" width="24" height="24" fill="none" viewBox="0 0 24 24">
  <path fill="#141414" fill-rule="evenodd" d="M10.5 5a1.5 1.5 0 1 1-3 0 1.5 1.5 0 0 1 3 0ZM12 5a3 3 0 1 1-6 0 3 3 0 0 1 6 0Zm3 7.5a1.5 1.5 0 1 0 0-3 1.5 1.5 0 0 0 0 3Zm0 1.5a3 3 0 1 0 0-6 3 3 0 0 0 0 6Zm-11.25-.5A2.25 2.25 0 0 1 6 11.25h3a.75.75 0 0 0 0-1.5H6a3.75 3.75 0 0 0-3.75 3.75V15a.75.75 0 0 0 1.5 0v-1.5Zm6 6A2.25 2.25 0 0 1 12 17.25h6a2.25 2.25 0 0 1 2.25 2.25V21a.75.75 0 0 0 1.5 0v-1.5A3.75 3.75 0 0 0 18 15.75h-6a3.75 3.75 0 0 0-3.75 3.75V21a.75.75 0 0 0 1.5 0v-1.5Z" clip-rule="evenodd"/>
</svg>
