<svg xmlns="http://www.w3.org/2000/svg" width="32" height="32" fill="none" viewBox="0 0 32 32">
  <path fill="#141414" fill-rule="evenodd" d="M6.667 6H12c.368 0 .667.298.667.667V12a.667.667 0 0 1-.667.667H6.667A.667.667 0 0 1 6 12V6.667C6 6.298 6.298 6 6.667 6ZM4 6.667A2.667 2.667 0 0 1 6.667 4H12a2.667 2.667 0 0 1 2.667 2.667V12A2.667 2.667 0 0 1 12 14.667H6.667A2.667 2.667 0 0 1 4 12V6.667Zm2.667 12.666H12c.368 0 .667.299.667.667v5.333A.667.667 0 0 1 12 26H6.667A.667.667 0 0 1 6 25.333V20c0-.368.298-.667.667-.667ZM4 20a2.667 2.667 0 0 1 2.667-2.667H12A2.667 2.667 0 0 1 14.667 20v5.333A2.667 2.667 0 0 1 12 28H6.667A2.667 2.667 0 0 1 4 25.333V20ZM25.333 6H20a.667.667 0 0 0-.667.667V12c0 .368.299.667.667.667h5.333A.667.667 0 0 0 26 12V6.667A.667.667 0 0 0 25.333 6ZM20 4a2.667 2.667 0 0 0-2.667 2.667V12A2.667 2.667 0 0 0 20 14.667h5.333A2.667 2.667 0 0 0 28 12V6.667A2.667 2.667 0 0 0 25.333 4H20Zm0 15.333h5.333c.369 0 .667.299.667.667v5.333a.667.667 0 0 1-.667.667H20a.667.667 0 0 1-.667-.667V20c0-.368.299-.667.667-.667ZM17.333 20A2.667 2.667 0 0 1 20 17.333h5.333A2.667 2.667 0 0 1 28 20v5.333A2.667 2.667 0 0 1 25.333 28H20a2.667 2.667 0 0 1-2.667-2.667V20Z" clip-rule="evenodd"/>
</svg>
