<svg xmlns="http://www.w3.org/2000/svg" width="16" height="16" fill="none" viewBox="0 0 16 16">
  <path fill="#141414" d="M9.837 9.597a4.378 4.378 0 0 0-3.434-3.434c-.67-.134-.67-1.092 0-1.226a4.378 4.378 0 0 0 3.434-3.434c.134-.67 1.092-.67 1.226 0a4.378 4.378 0 0 0 3.434 3.434c.67.134.67 1.092 0 1.226a4.378 4.378 0 0 0-3.434 3.434c-.134.67-1.092.67-1.226 0Zm-6.112 5.055a3.03 3.03 0 0 0-2.377-2.377c-.464-.093-.464-.757 0-.85a3.03 3.03 0 0 0 2.377-2.377c.093-.464.757-.464.85 0a3.03 3.03 0 0 0 2.377 2.377c.464.093.464.757 0 .85a3.03 3.03 0 0 0-2.377 2.377c-.093.464-.757.464-.85 0Zm-.908-9.684a2.02 2.02 0 0 0-1.585-1.585c-.31-.062-.31-.504 0-.566a2.02 2.02 0 0 0 1.585-1.585c.062-.31.504-.31.566 0 .16.8.785 1.425 1.585 1.585.31.062.31.504 0 .566a2.02 2.02 0 0 0-1.585 1.585c-.062.31-.504.31-.566 0Z"/>
</svg>
