<svg xmlns="http://www.w3.org/2000/svg" width="32" height="32" fill="none" viewBox="0 0 32 32">
  <path fill="#141414" d="M19.499 19.042a8.338 8.338 0 0 0-6.541-6.54c-1.277-.256-1.277-2.082 0-2.337 3.3-.66 5.88-3.24 6.54-6.54.256-1.278 2.082-1.278 2.337 0 .66 3.3 3.24 5.88 6.541 6.54 1.277.256 1.277 2.08 0 2.336a8.34 8.34 0 0 0-6.541 6.541c-.255 1.277-2.08 1.277-2.336 0ZM7.858 28.67a5.773 5.773 0 0 0-4.528-4.528c-.884-.177-.884-1.44 0-1.617a5.773 5.773 0 0 0 4.528-4.529c.177-.884 1.44-.884 1.618 0a5.772 5.772 0 0 0 4.528 4.529c.884.176.884 1.44 0 1.617a5.773 5.773 0 0 0-4.528 4.528c-.177.884-1.44.884-1.618 0Zm-1.73-18.445a3.848 3.848 0 0 0-3.019-3.02c-.59-.117-.59-.96 0-1.078a3.848 3.848 0 0 0 3.019-3.019c.118-.589.96-.589 1.078 0a3.848 3.848 0 0 0 3.019 3.02c.59.117.59.96 0 1.078a3.848 3.848 0 0 0-3.019 3.019c-.118.589-.96.589-1.078 0Z"/>
</svg>
