<svg xmlns="http://www.w3.org/2000/svg" width="24" height="24" fill="none" viewBox="0 0 24 24">
  <path fill="#141414" d="M14.624 14.282a6.254 6.254 0 0 0-4.906-4.906c-.957-.191-.957-1.56 0-1.752a6.254 6.254 0 0 0 4.906-4.906c.191-.957 1.56-.957 1.752 0a6.254 6.254 0 0 0 4.906 4.906c.957.191.957 1.56 0 1.752a6.254 6.254 0 0 0-4.906 4.906c-.192.957-1.56.957-1.752 0Zm-8.73 7.221a4.33 4.33 0 0 0-3.397-3.396c-.663-.133-.663-1.08 0-1.213a4.33 4.33 0 0 0 3.397-3.397c.132-.663 1.08-.663 1.212 0a4.33 4.33 0 0 0 3.397 3.396c.663.133.663 1.08 0 1.213a4.33 4.33 0 0 0-3.397 3.397c-.132.663-1.08.663-1.212 0ZM4.596 7.669A2.886 2.886 0 0 0 2.33 5.404c-.441-.088-.441-.72 0-.808A2.886 2.886 0 0 0 4.596 2.33c.088-.441.72-.441.808 0A2.886 2.886 0 0 0 7.67 4.596c.441.088.441.72 0 .808A2.886 2.886 0 0 0 5.404 7.67c-.088.441-.72.441-.808 0Z"/>
</svg>
