<svg width="32" height="32" viewBox="0 0 32 32" fill="none" xmlns="http://www.w3.org/2000/svg">
<path d="M19.5 5C20.0523 5 20.5 4.55228 20.5 4C20.5 3.44772 20.0523 3 19.5 3C18.9477 3 18.5 3.44772 18.5 4C18.5 4.55228 18.9477 5 19.5 5Z" fill="#141414"/>
<path d="M21 8.5C21 9.32843 20.3284 10 19.5 10C18.6716 10 18 9.32843 18 8.5C18 7.67157 18.6716 7 19.5 7C20.3284 7 21 7.67157 21 8.5Z" fill="#141414"/>
<path d="M20.0002 16C20.0002 18.2091 18.2093 20 16.0002 20C13.791 20 12.0002 18.2091 12.0002 16C12.0002 13.7909 13.791 12 16.0002 12C18.2093 12 20.0002 13.7909 20.0002 16Z" fill="#141414"/>
<path d="M8.77419 28H23.2258C23.6534 28 24 27.6642 24 27.25V26.75C24 24.1266 21.8048 22 19.0968 22H12.9032C10.1952 22 8 24.1266 8 26.75V27.25C8 27.6642 8.34662 28 8.77419 28Z" fill="#141414"/>
<path d="M26 20.5C26 21.3284 25.3284 22 24.5 22C23.6716 22 23 21.3284 23 20.5C23 19.6716 23.6716 19 24.5 19C25.3284 19 26 19.6716 26 20.5Z" fill="#141414"/>
<path d="M24.5 16C25.3284 16 26 15.3284 26 14.5C26 13.6716 25.3284 13 24.5 13C23.6716 13 23 13.6716 23 14.5C23 15.3284 23.6716 16 24.5 16Z" fill="#141414"/>
<path d="M30 14.5C30 15.0523 29.5523 15.5 29 15.5C28.4477 15.5 28 15.0523 28 14.5C28 13.9477 28.4477 13.5 29 13.5C29.5523 13.5 30 13.9477 30 14.5Z" fill="#141414"/>
<path d="M29 21.5C29.5523 21.5 30 21.0523 30 20.5C30 19.9477 29.5523 19.5 29 19.5C28.4477 19.5 28 19.9477 28 20.5C28 21.0523 28.4477 21.5 29 21.5Z" fill="#141414"/>
<path d="M24 10C24.5523 10 25 9.55228 25 9C25 8.44772 24.5523 8 24 8C23.4477 8 23 8.44772 23 9C23 9.55228 23.4477 10 24 10Z" fill="#141414"/>
<path d="M29 9C29 9.55228 28.5523 10 28 10C27.4477 10 27 9.55228 27 9C27 8.44772 27.4477 8 28 8C28.5523 8 29 8.44772 29 9Z" fill="#141414"/>
<path d="M6 20.5C6 21.3284 6.67157 22 7.5 22C8.32843 22 9 21.3284 9 20.5C9 19.6716 8.32843 19 7.5 19C6.67157 19 6 19.6716 6 20.5Z" fill="#141414"/>
<path d="M7.5 16C6.67157 16 6 15.3284 6 14.5C6 13.6716 6.67157 13 7.5 13C8.32843 13 9 13.6716 9 14.5C9 15.3284 8.32843 16 7.5 16Z" fill="#141414"/>
<path d="M2 14.5C2 15.0523 2.44772 15.5 3 15.5C3.55228 15.5 4 15.0523 4 14.5C4 13.9477 3.55228 13.5 3 13.5C2.44772 13.5 2 13.9477 2 14.5Z" fill="#141414"/>
<path d="M3 21.5C2.44772 21.5 2 21.0523 2 20.5C2 19.9477 2.44772 19.5 3 19.5C3.55228 19.5 4 19.9477 4 20.5C4 21.0523 3.55228 21.5 3 21.5Z" fill="#141414"/>
<path d="M11 8.5C11 9.32843 11.6716 10 12.5 10C13.3284 10 14 9.32843 14 8.5C14 7.67157 13.3284 7 12.5 7C11.6716 7 11 7.67157 11 8.5Z" fill="#141414"/>
<path d="M8 10C7.44772 10 7 9.55228 7 9C7 8.44772 7.44772 8 8 8C8.55228 8 9 8.44772 9 9C9 9.55228 8.55228 10 8 10Z" fill="#141414"/>
<path d="M7 5C7 5.55228 7.44772 6 8 6C8.55228 6 9 5.55228 9 5C9 4.44772 8.55228 4 8 4C7.44772 4 7 4.44772 7 5Z" fill="#141414"/>
<path d="M24 6C23.4477 6 23 5.55228 23 5C23 4.44772 23.4477 4 24 4C24.5523 4 25 4.44772 25 5C25 5.55228 24.5523 6 24 6Z" fill="#141414"/>
<path d="M3 9C3 9.55228 3.44772 10 4 10C4.55228 10 5 9.55228 5 9C5 8.44772 4.55228 8 4 8C3.44772 8 3 8.44772 3 9Z" fill="#141414"/>
<path d="M12.5 5C11.9477 5 11.5 4.55228 11.5 4C11.5 3.44772 11.9477 3 12.5 3C13.0523 3 13.5 3.44772 13.5 4C13.5 4.55228 13.0523 5 12.5 5Z" fill="#141414"/>
</svg>
