<svg width="32" height="32" viewBox="0 0 32 32" fill="none" xmlns="http://www.w3.org/2000/svg">
<path d="M15.8138 27.2267C8.81379 27.2267 3.13379 22.16 3.13379 15.9333C3.13379 9.70667 8.81379 4.65333 15.8138 4.65333C19.1205 4.65333 22.5338 6 25.1605 8.36C27.8138 10.7333 29.3338 13.8133 29.3338 16.8267C29.3338 19.84 27.8271 22.5333 25.0805 24.48C22.6005 26.24 19.2271 27.24 15.8138 27.24V27.2267ZM15.8138 6.6C9.89379 6.6 5.08046 10.7867 5.08046 15.9467C5.08046 21.1067 9.89379 25.2933 15.8138 25.2933C18.8271 25.2933 21.7871 24.4133 23.9471 22.8933C25.5205 21.7867 27.3871 19.8267 27.3871 16.8267C27.3871 14.3733 26.1071 11.8267 23.8671 9.81333C21.5871 7.77333 18.6538 6.6 15.8138 6.6Z" fill="url(#paint0_linear_alice)"/>
<path d="M15.8138 27.2267C8.81379 27.2267 3.13379 22.16 3.13379 15.9333C3.13379 9.70667 8.81379 4.65333 15.8138 4.65333C19.1205 4.65333 22.5338 6 25.1605 8.36C27.8138 10.7333 29.3338 13.8133 29.3338 16.8267C29.3338 19.84 27.8271 22.5333 25.0805 24.48C22.6005 26.24 19.2271 27.24 15.8138 27.24V27.2267ZM15.8138 6.6C9.89379 6.6 5.08046 10.7867 5.08046 15.9467C5.08046 21.1067 9.89379 25.2933 15.8138 25.2933C18.8271 25.2933 21.7871 24.4133 23.9471 22.8933C25.5205 21.7867 27.3871 19.8267 27.3871 16.8267C27.3871 14.3733 26.1071 11.8267 23.8671 9.81333C21.5871 7.77333 18.6538 6.6 15.8138 6.6Z" fill="url(#paint1_linear_alice)"/>
<path d="M15.4 28.48C11.32 28.48 7.26671 26.8933 4.84004 23.84C2.81337 21.3067 2.17337 18.0267 3.05337 14.6133C3.85337 11.48 5.9067 8.4 8.69337 6.18667C14.36 1.66667 22.4267 2.34667 26.6934 7.69333C28.76 10.2933 29.64 13.5867 29.16 16.9733C28.68 20.3467 26.9067 23.4 24.1734 25.5867C21.72 27.5467 18.56 28.4933 15.4134 28.4933L15.4 28.48ZM5.85337 23.04C7.68004 25.3333 10.6934 26.8133 14.1067 27.1333C17.5467 27.44 20.92 26.5067 23.3467 24.5733C25.8267 22.6 27.4267 19.8267 27.8667 16.7867C28.2934 13.76 27.52 10.8133 25.68 8.50667C21.8534 3.72 14.6 3.13333 9.49337 7.2C6.93337 9.25333 5.04004 12.0667 4.3067 14.9333C3.53337 17.9467 4.09337 20.8267 5.85337 23.04Z" fill="url(#paint2_linear_alice)"/>
<g opacity="0.3">
<path d="M15.4 28.48C11.32 28.48 7.26671 26.8933 4.84004 23.84C2.81337 21.3067 2.17337 18.0267 3.05337 14.6133C3.85337 11.48 5.9067 8.4 8.69337 6.18667C14.36 1.66667 22.4267 2.34667 26.6934 7.69333C28.76 10.2933 29.64 13.5867 29.16 16.9733C28.68 20.3467 26.9067 23.4 24.1734 25.5867C21.72 27.5467 18.56 28.4933 15.4134 28.4933L15.4 28.48ZM5.85337 23.04C7.68004 25.3333 10.6934 26.8133 14.1067 27.1333C17.5467 27.44 20.92 26.5067 23.3467 24.5733C25.8267 22.6 27.4267 19.8267 27.8667 16.7867C28.2934 13.76 27.52 10.8133 25.68 8.50667C21.8534 3.72 14.6 3.13333 9.49337 7.2C6.93337 9.25333 5.04004 12.0667 4.3067 14.9333C3.53337 17.9467 4.09337 20.8267 5.85337 23.04Z" fill="white"/>
</g>
<path d="M18.2134 29.1067C17.84 29.1067 17.4534 29.0933 17.0534 29.0533C13.88 28.76 10.52 27.24 7.85337 24.8933C2.44004 20.12 1.56004 12.2267 5.90671 7.29333C10.2534 2.36 18.1867 2.24 23.6 7.01333C29 11.7733 29.96 20.96 25.5867 25.9333C23.76 28 21.1734 29.1067 18.2 29.1067H18.2134ZM14.56 4.49333C11.5467 4.49333 8.66671 5.65333 6.64004 7.94667C2.65338 12.4667 3.49338 19.7467 8.50671 24.16C11.0267 26.3733 14.1734 27.8 17.1467 28.08C17.5067 28.1067 17.8534 28.1333 18.2 28.1333C20.8934 28.1333 23.2267 27.1467 24.8534 25.28C26.76 23.12 27.64 19.92 27.28 16.4933C26.92 13.04 25.3334 9.85333 22.9467 7.74667C20.48 5.57333 17.4534 4.49333 14.5467 4.49333H14.56Z" fill="url(#paint3_linear_alice)"/>
<g opacity="0.2">
<path d="M18.2134 29.1067C17.84 29.1067 17.4534 29.0933 17.0534 29.0533C13.88 28.76 10.52 27.24 7.85337 24.8933C2.44004 20.12 1.56004 12.2267 5.90671 7.29333C10.2534 2.36 18.1867 2.24 23.6 7.01333C29 11.7733 29.96 20.96 25.5867 25.9333C23.76 28 21.1734 29.1067 18.2 29.1067H18.2134ZM14.56 4.49333C11.5467 4.49333 8.66671 5.65333 6.64004 7.94667C2.65338 12.4667 3.49338 19.7467 8.50671 24.16C11.0267 26.3733 14.1734 27.8 17.1467 28.08C17.5067 28.1067 17.8534 28.1333 18.2 28.1333C20.8934 28.1333 23.2267 27.1467 24.8534 25.28C26.76 23.12 27.64 19.92 27.28 16.4933C26.92 13.04 25.3334 9.85333 22.9467 7.74667C20.48 5.57333 17.4534 4.49333 14.5467 4.49333H14.56Z" fill="url(#paint4_linear_alice)"/>
</g>
<defs>
<linearGradient id="paint0_linear_alice" x1="4.45379" y1="7.6" x2="41.8938" y2="35.2533" gradientUnits="userSpaceOnUse">
<stop stop-color="#BE0380"/>
<stop offset="1" stop-color="#FF00BC"/>
</linearGradient>
<linearGradient id="paint1_linear_alice" x1="7.04046" y1="12.1733" x2="26.7071" y2="20.72" gradientUnits="userSpaceOnUse">
<stop offset="0.01" stop-color="#FFF0FA" stop-opacity="0.33"/>
<stop offset="1" stop-color="white" stop-opacity="0.15"/>
</linearGradient>
<linearGradient id="paint2_linear_alice" x1="23.4134" y1="25.3467" x2="8.74671" y2="6.97333" gradientUnits="userSpaceOnUse">
<stop offset="0.46" stop-color="#FF43C1"/>
<stop offset="1" stop-color="#5B0043"/>
</linearGradient>
<linearGradient id="paint3_linear_alice" x1="20.56" y1="2.18667" x2="11.1734" y2="30.1733" gradientUnits="userSpaceOnUse">
<stop offset="0.46" stop-color="#FF74D1"/>
<stop offset="1" stop-color="#5B0043"/>
</linearGradient>
<linearGradient id="paint4_linear_alice" x1="11.2134" y1="6.66667" x2="21.2667" y2="27.56" gradientUnits="userSpaceOnUse">
<stop stop-color="#FFF0FA" stop-opacity="0.33"/>
<stop offset="1" stop-color="white" stop-opacity="0.53"/>
</linearGradient>
</defs>
</svg>
