<svg width="20" height="20" viewBox="0 0 20 20" fill="none" xmlns="http://www.w3.org/2000/svg">
  <path d="M4.16667 4.58333C4.16667 3.80979 4.47396 3.06792 5.02094 2.52094C5.56792 1.97396 6.30979 1.66667 7.08333 1.66667H10V7.5H7.08333C6.30979 7.5 5.56792 7.19271 5.02094 6.64573C4.47396 6.09875 4.16667 5.35688 4.16667 4.58333Z" stroke="currentColor" stroke-linecap="round" stroke-linejoin="round"/>
  <path d="M10 1.66667H12.9167C13.2997 1.66667 13.679 1.74211 14.0328 1.88868C14.3867 2.03526 14.7082 2.2501 14.9791 2.52094C15.2499 2.79178 15.4647 3.11331 15.6113 3.46717C15.7579 3.82104 15.8333 4.20031 15.8333 4.58333C15.8333 4.96636 15.7579 5.34563 15.6113 5.69949C15.4647 6.05336 15.2499 6.37489 14.9791 6.64573C14.7082 6.91657 14.3867 7.13141 14.0328 7.27798C13.679 7.42456 13.2997 7.5 12.9167 7.5H10V1.66667Z" stroke="currentColor" stroke-linecap="round" stroke-linejoin="round"/>
  <path d="M10 10.4167C10 10.0336 10.0754 9.65437 10.222 9.30051C10.3686 8.94664 10.5834 8.62511 10.8543 8.35427C11.1251 8.08343 11.4466 7.86859 11.8005 7.72202C12.1544 7.57544 12.5336 7.5 12.9167 7.5C13.2997 7.5 13.679 7.57544 14.0328 7.72202C14.3867 7.86859 14.7082 8.08343 14.9791 8.35427C15.2499 8.62511 15.4647 8.94664 15.6113 9.30051C15.7579 9.65437 15.8333 10.0336 15.8333 10.4167C15.8333 10.7997 15.7579 11.179 15.6113 11.5328C15.4647 11.8867 15.2499 12.2082 14.9791 12.4791C14.7082 12.7499 14.3867 12.9647 14.0328 13.1113C13.679 13.2579 13.2997 13.3333 12.9167 13.3333C12.5336 13.3333 12.1544 13.2579 11.8005 13.1113C11.4466 12.9647 11.1251 12.7499 10.8543 12.4791C10.5834 12.2082 10.3686 11.8867 10.222 11.5328C10.0754 11.179 10 10.7997 10 10.4167Z" stroke="currentColor" stroke-linecap="round" stroke-linejoin="round"/>
  <path d="M4.16667 16.25C4.16667 15.4765 4.47396 14.7346 5.02094 14.1876C5.56792 13.6406 6.30979 13.3333 7.08333 13.3333H10V16.25C10 17.0235 9.69271 17.7654 9.14573 18.3124C8.59875 18.8594 7.85688 19.1667 7.08333 19.1667C6.30979 19.1667 5.56792 18.8594 5.02094 18.3124C4.47396 17.7654 4.16667 17.0235 4.16667 16.25Z" stroke="currentColor" stroke-linecap="round" stroke-linejoin="round"/>
  <path d="M4.16667 10.4167C4.16667 9.64312 4.47396 8.90125 5.02094 8.35427C5.56792 7.80729 6.30979 7.5 7.08333 7.5H10V13.3333H7.08333C6.30979 13.3333 5.56792 13.026 5.02094 12.4791C4.47396 11.9321 4.16667 11.1902 4.16667 10.4167Z" stroke="currentColor" stroke-linecap="round" stroke-linejoin="round"/>
</svg>
