<svg width="16" height="16" viewBox="0 0 16 16" fill="none" xmlns="http://www.w3.org/2000/svg">
<path fill-rule="evenodd" clip-rule="evenodd" d="M7.5 2.90687V8C7.5 8.27614 7.27614 8.5 7 8.5C6.72386 8.5 6.5 8.27614 6.5 8V4.40687L6.49961 4.40089C6.49883 4.39103 6.49696 4.37327 6.49273 4.35042C6.48389 4.30264 6.46703 4.24521 6.43792 4.19282C6.41042 4.14332 6.37392 4.1012 6.32088 4.06937C6.26858 4.03799 6.17262 4 6 4C5.82738 4 5.73142 4.03799 5.67912 4.06937C5.62608 4.1012 5.58958 4.14332 5.56208 4.19282C5.53297 4.24521 5.51611 4.30264 5.50727 4.35042C5.50304 4.37327 5.50117 4.39103 5.50039 4.40089L5.5 4.40687L5.5 8.59945L5.5 9.8C5.5 10.0761 5.27614 10.3 5 10.3C4.72386 10.3 4.5 10.0761 4.5 9.8V8.60782L4.49961 8.60089C4.49883 8.59103 4.49696 8.57327 4.49273 8.55042C4.48389 8.50264 4.46703 8.44521 4.43792 8.39282C4.41042 8.34332 4.37392 8.3012 4.32088 8.26937C4.26858 8.23799 4.17262 8.2 4 8.2C3.82738 8.2 3.73142 8.23799 3.67912 8.26937C3.62608 8.3012 3.58958 8.34332 3.56208 8.39282C3.53297 8.44521 3.51611 8.50264 3.50727 8.55042C3.50304 8.57327 3.50117 8.59103 3.50039 8.60089L3.5 8.60687V10.1124C3.5 10.7266 3.7607 11.3119 4.21724 11.7228L5.57387 12.9438C5.97173 13.3019 6.48804 13.5 7.0233 13.5H8.9767C9.51196 13.5 10.0283 13.3019 10.4261 12.9438L11.7828 11.7228C12.2393 11.3119 12.5 10.7266 12.5 10.1124V6.05686L12.4996 6.05089C12.4988 6.04103 12.497 6.02327 12.4927 6.00042C12.4839 5.95264 12.467 5.89521 12.4379 5.84282C12.4104 5.79332 12.3739 5.7512 12.3209 5.71937C12.2686 5.68799 12.1726 5.65 12 5.65C11.8274 5.65 11.7314 5.68799 11.6791 5.71937C11.6261 5.7512 11.5896 5.79332 11.5621 5.84282C11.533 5.89521 11.5161 5.95264 11.5073 6.00042C11.503 6.02327 11.5012 6.04103 11.5004 6.05089L11.5 6.05688V8.6C11.5 8.87614 11.2761 9.1 11 9.1C10.7239 9.1 10.5 8.87614 10.5 8.6V4.10687L10.4996 4.10089C10.4988 4.09103 10.497 4.07327 10.4927 4.05042C10.4839 4.00264 10.467 3.94521 10.4379 3.89282C10.4104 3.84332 10.3739 3.8012 10.3209 3.76937C10.2686 3.73799 10.1726 3.7 10 3.7C9.82738 3.7 9.73142 3.73799 9.67912 3.76937C9.62608 3.8012 9.58958 3.84332 9.56208 3.89282C9.53297 3.94521 9.51611 4.00264 9.50727 4.05042C9.50304 4.07327 9.50117 4.09103 9.50039 4.10089L9.5 4.10688V8C9.5 8.27614 9.27614 8.5 9 8.5C8.72386 8.5 8.5 8.27614 8.5 8V2.90687L8.49961 2.90089C8.49883 2.89103 8.49696 2.87327 8.49273 2.85042C8.48389 2.80264 8.46703 2.74521 8.43792 2.69282C8.41042 2.64332 8.37392 2.6012 8.32088 2.56937C8.26858 2.53799 8.17262 2.5 8 2.5C7.82738 2.5 7.73142 2.53799 7.67912 2.56937C7.62608 2.6012 7.58958 2.64332 7.56208 2.69282C7.53297 2.74521 7.51611 2.80264 7.50727 2.85042C7.50304 2.87327 7.50117 2.89103 7.50039 2.90089L7.5 2.90687ZM9.49131 2.76937C9.48783 2.73961 9.48292 2.70562 9.47602 2.66833C9.45361 2.54736 9.40797 2.37979 9.31208 2.20718C9.21458 2.03168 9.06358 1.8488 8.83537 1.71188C8.60642 1.57451 8.32738 1.5 8 1.5C7.67262 1.5 7.39358 1.57451 7.16463 1.71188C6.93642 1.8488 6.78542 2.03168 6.68792 2.20718C6.59203 2.37979 6.54639 2.54736 6.52398 2.66833C6.51259 2.72986 6.50664 2.7824 6.50352 2.82177C6.50195 2.84154 6.50107 2.85824 6.50059 2.87139L6.50011 2.88846L6.50002 2.89494L6.50001 2.89765L6.5 2.89887L6.5 2.9V3.06683C6.34842 3.02294 6.18165 3 6 3C5.67262 3 5.39358 3.07451 5.16463 3.21188C4.93642 3.3488 4.78542 3.53168 4.68792 3.70718C4.59203 3.87979 4.54639 4.04736 4.52398 4.16833C4.51259 4.22986 4.50664 4.2824 4.50352 4.32177C4.50195 4.34154 4.50107 4.35824 4.50059 4.37139L4.50011 4.38846L4.50002 4.39494L4.50001 4.39765L4.5 4.39887L4.5 4.4V7.26683C4.34842 7.22294 4.18165 7.2 4 7.2C3.67262 7.2 3.39358 7.27451 3.16463 7.41188C2.93642 7.5488 2.78542 7.73168 2.68792 7.90718C2.59203 8.07979 2.54639 8.24736 2.52398 8.36833C2.51259 8.42986 2.50664 8.4824 2.50352 8.52177C2.50195 8.54154 2.50107 8.55825 2.50059 8.57139L2.50011 8.58846L2.50002 8.59494L2.50001 8.59765L2.5 8.59887L2.5 8.6V10.1124C2.5 11.0101 2.88102 11.8656 3.54828 12.4661L4.90491 13.6871C5.48639 14.2104 6.241 14.5 7.0233 14.5H8.9767C9.759 14.5 10.5136 14.2104 11.0951 13.6871L12.4517 12.4661C13.119 11.8656 13.5 11.0101 13.5 10.1124C13.5 10.1124 13.5 7.63645 13.5 6.05L13.5 6.04887L13.5 6.04765L13.5 6.04494L13.4999 6.03846C13.4993 6.0162 13.4982 5.99398 13.4965 5.97177C13.4934 5.9324 13.4874 5.87986 13.476 5.81833C13.4536 5.69736 13.408 5.52979 13.3121 5.35718C13.2146 5.18168 13.0636 4.9988 12.8354 4.86188C12.6064 4.72451 12.3274 4.65 12 4.65C11.8184 4.65 11.6516 4.67294 11.5 4.71683V4.1L11.5 4.09887L11.5 4.09765L11.5 4.09494L11.4999 4.08846L11.4994 4.07139C11.4989 4.05824 11.498 4.04154 11.4965 4.02177C11.4934 3.9824 11.4874 3.92986 11.476 3.86833C11.4536 3.74736 11.408 3.57979 11.3121 3.40718C11.2146 3.23168 11.0636 3.0488 10.8354 2.91188C10.6064 2.77451 10.3274 2.7 10 2.7C9.81487 2.7 9.64521 2.72382 9.49131 2.76937Z" fill="#141414"/>
</svg>
