<svg width="24" height="24" viewBox="0 0 24 24" fill="none" xmlns="http://www.w3.org/2000/svg">
<path fill-rule="evenodd" clip-rule="evenodd" d="M11.25 3.50677V12C11.25 12.4142 10.9142 12.75 10.5 12.75C10.0858 12.75 9.75 12.4142 9.75 12V6.00677C9.74988 6.00378 9.7496 5.99772 9.74898 5.98898C9.74747 5.96791 9.7441 5.9329 9.73677 5.88892C9.72152 5.79742 9.69241 5.68687 9.64168 5.58541C9.59242 5.48688 9.5303 5.41117 9.45116 5.35841C9.37672 5.30879 9.24376 5.25 9 5.25C8.75624 5.25 8.62328 5.30879 8.54884 5.35841C8.4697 5.41117 8.40758 5.48688 8.35832 5.58541C8.30759 5.68687 8.27848 5.79742 8.26323 5.88892C8.2559 5.9329 8.25253 5.96791 8.25102 5.98898C8.2504 5.99772 8.25012 6.00378 8.25 6.00677V15C8.25 15.4142 7.91421 15.75 7.5 15.75C7.08579 15.75 6.75 15.4142 6.75 15V13.0068C6.74988 13.0038 6.7496 12.9977 6.74898 12.989C6.74747 12.9679 6.7441 12.9329 6.73677 12.8889C6.72152 12.7974 6.69241 12.6869 6.64168 12.5854C6.59242 12.4869 6.5303 12.4112 6.45116 12.3584C6.37672 12.3088 6.24376 12.25 6 12.25C5.75624 12.25 5.62328 12.3088 5.54884 12.3584C5.4697 12.4112 5.40758 12.4869 5.35832 12.5854C5.30759 12.6869 5.27848 12.7974 5.26323 12.8889C5.2559 12.9329 5.25253 12.9679 5.25102 12.989C5.2504 12.9977 5.25012 13.0038 5.25 13.0068V15.8431C5.25 16.7051 5.59241 17.5317 6.2019 18.1412L8.35876 20.2981C8.96825 20.9076 9.7949 21.25 10.6569 21.25H13.3431C14.2051 21.25 15.0317 20.9076 15.6412 20.2981L17.7981 18.1412C18.4076 17.5317 18.75 16.7051 18.75 15.8431V8.75676C18.7499 8.75377 18.7496 8.74771 18.749 8.73898C18.7475 8.71791 18.7441 8.6829 18.7368 8.63892C18.7215 8.54742 18.6924 8.43687 18.6417 8.33541C18.5924 8.23688 18.5303 8.16117 18.4512 8.10841C18.3767 8.05879 18.2438 8 18 8C17.7562 8 17.6233 8.05879 17.5488 8.10841C17.4697 8.16117 17.4076 8.23688 17.3583 8.33541C17.3076 8.43687 17.2785 8.54742 17.2632 8.63892C17.2559 8.6829 17.2525 8.71791 17.251 8.73898C17.2504 8.74771 17.2501 8.75377 17.25 8.75676V13C17.25 13.4142 16.9142 13.75 16.5 13.75C16.0858 13.75 15.75 13.4142 15.75 13V5.50676C15.7499 5.50377 15.7496 5.49771 15.749 5.48898C15.7475 5.46791 15.7441 5.4329 15.7368 5.38892C15.7215 5.29742 15.6924 5.18687 15.6417 5.08541C15.5924 4.98688 15.5303 4.91117 15.4512 4.85841C15.3767 4.80879 15.2438 4.75 15 4.75C14.7562 4.75 14.6233 4.80879 14.5488 4.85841C14.4697 4.91117 14.4076 4.98688 14.3583 5.08541C14.3076 5.18687 14.2785 5.29742 14.2632 5.38892C14.2559 5.4329 14.2525 5.46791 14.251 5.48898C14.2504 5.49771 14.2501 5.50377 14.25 5.50676V12C14.25 12.4142 13.9142 12.75 13.5 12.75C13.0858 12.75 12.75 12.4142 12.75 12V3.50676C12.7499 3.50377 12.7496 3.49771 12.749 3.48898C12.7475 3.46791 12.7441 3.4329 12.7368 3.38892C12.7215 3.29742 12.6924 3.18687 12.6417 3.08541C12.5924 2.98688 12.5303 2.91117 12.4512 2.85841C12.3767 2.80879 12.2438 2.75 12 2.75C11.7562 2.75 11.6233 2.80879 11.5488 2.85841C11.4697 2.91117 11.4076 2.98688 11.3583 3.08541C11.3076 3.18687 11.2785 3.29742 11.2632 3.38892C11.2559 3.4329 11.2525 3.46791 11.251 3.48898C11.2504 3.49772 11.2501 3.50378 11.25 3.50677ZM14.2435 3.35991C14.2388 3.30177 14.2306 3.22769 14.2164 3.14233C14.1847 2.95258 14.1201 2.68813 13.9833 2.41459C13.8451 2.13812 13.626 1.83883 13.2832 1.61034C12.9358 1.37871 12.5062 1.25 12 1.25C11.4938 1.25 11.0642 1.37871 10.7168 1.61034C10.374 1.83883 10.1549 2.13812 10.0167 2.41459C9.87991 2.68813 9.81527 2.95258 9.78364 3.14233C9.76753 3.23898 9.75919 3.32116 9.75484 3.38211C9.75265 3.41272 9.75144 3.43834 9.75078 3.45817L9.75014 3.4836L9.75003 3.49296L9.75001 3.49677L9.75 3.49846C9.75 3.50069 9.75 3.5 9.75 3.5V3.85786C9.52279 3.7873 9.27251 3.75 9 3.75C8.49376 3.75 8.06422 3.87871 7.71679 4.11034C7.37405 4.33883 7.15492 4.63812 7.01668 4.91459C6.87991 5.18813 6.81527 5.45258 6.78364 5.64233C6.76753 5.73898 6.75919 5.82116 6.75484 5.88211C6.75265 5.91272 6.75144 5.93834 6.75078 5.95817L6.75014 5.9836L6.75003 5.99296L6.75001 5.99677L6.75 5.99846C6.75 6.00059 6.75 6 6.75 6V10.8579C6.52279 10.7873 6.27251 10.75 6 10.75C5.49376 10.75 5.06422 10.8787 4.71679 11.1103C4.37405 11.3388 4.15492 11.6381 4.01668 11.9146C3.87991 12.1881 3.81527 12.4526 3.78364 12.6423C3.76753 12.739 3.75919 12.8212 3.75484 12.8821C3.75265 12.9127 3.75144 12.9383 3.75078 12.9582L3.75014 12.9836L3.75003 12.993L3.75001 12.9968L3.75 12.9985C3.75 13.0006 3.75 13 3.75 13V15.8431C3.75 17.1029 4.25044 18.3111 5.14124 19.2019L7.2981 21.3588C8.18889 22.2496 9.39708 22.75 10.6569 22.75H13.3431C14.6029 22.75 15.8111 22.2496 16.7019 21.3588L18.8588 19.2019C19.7496 18.3111 20.25 17.1029 20.25 15.8431V8.75L20.25 8.74677L20.25 8.74296L20.2499 8.7336L20.2492 8.70817C20.2486 8.68834 20.2473 8.66272 20.2452 8.63211C20.2408 8.57116 20.2325 8.48898 20.2164 8.39233C20.1847 8.20258 20.1201 7.93813 19.9833 7.66459C19.8451 7.38812 19.626 7.08883 19.2832 6.86034C18.9358 6.62871 18.5062 6.5 18 6.5C17.7275 6.5 17.4772 6.5373 17.25 6.60786V5.5L17.25 5.49677L17.25 5.49296L17.2499 5.4836L17.2492 5.45817C17.2486 5.43834 17.2474 5.41272 17.2452 5.38211C17.2408 5.32116 17.2325 5.23898 17.2164 5.14233C17.1847 4.95258 17.1201 4.68813 16.9833 4.41459C16.8451 4.13812 16.626 3.83883 16.2832 3.61034C15.9358 3.37871 15.5062 3.25 15 3.25C14.7249 3.25 14.4724 3.28802 14.2435 3.35991Z" fill="#141414"/>
</svg>
