<svg width="32" height="32" viewBox="0 0 32 32" fill="none" xmlns="http://www.w3.org/2000/svg">
<path fill-rule="evenodd" clip-rule="evenodd" d="M15 4.95982V16C15 16.5523 14.5523 17 14 17C13.4477 17 13 16.5523 13 16V8.20981C12.9998 8.20611 12.9995 8.19914 12.9988 8.18927C12.9969 8.16322 12.9925 8.11927 12.983 8.06381C12.9633 7.94826 12.9256 7.80894 12.8602 7.68132C12.797 7.55813 12.7166 7.46162 12.6113 7.39313C12.5109 7.32792 12.3301 7.25 12 7.25C11.6699 7.25 11.4891 7.32792 11.3887 7.39313C11.2834 7.46162 11.203 7.55813 11.1398 7.68132C11.0744 7.80894 11.0367 7.94826 11.017 8.06381C11.0075 8.11927 11.0031 8.16322 11.0012 8.18927C11.0005 8.19915 11.0002 8.20613 11 8.20983V17.3V19.9C11 20.4523 10.5523 20.9 10 20.9C9.44772 20.9 9 20.4523 9 19.9V17.3098C8.99984 17.3061 8.99949 17.2991 8.99877 17.2893C8.99686 17.2632 8.99253 17.2193 8.98305 17.1638C8.9633 17.0483 8.92563 16.9089 8.86018 16.7813C8.79701 16.6581 8.71663 16.5616 8.61126 16.4931C8.51093 16.4279 8.33012 16.35 8 16.35C7.66988 16.35 7.48907 16.4279 7.38874 16.4931C7.28337 16.5616 7.20299 16.6581 7.13982 16.7813C7.07437 16.9089 7.0367 17.0483 7.01695 17.1638C7.00747 17.2193 7.00314 17.2632 7.00123 17.2893C7.00051 17.2991 7.00016 17.3061 7 17.3098V20.9012C7 22.0695 7.47174 23.1883 8.30823 24.0039L11.1446 26.7693C11.9539 27.5584 13.0394 28 14.1697 28H17.8303C18.9606 28 20.0461 27.5584 20.8554 26.7693L23.6918 24.0039C24.5283 23.1883 25 22.0695 25 20.9012V11.7848C25 11.7848 24.9999 11.7818 24.9997 11.7796C24.9995 11.7758 24.9992 11.7706 24.9988 11.7643C24.9969 11.7382 24.9925 11.6943 24.983 11.6388C24.9633 11.5233 24.9256 11.3839 24.8602 11.2563C24.797 11.1331 24.7166 11.0366 24.6113 10.9681C24.5109 10.9029 24.3301 10.825 24 10.825C23.6699 10.825 23.4891 10.9029 23.3887 10.9681C23.2834 11.0366 23.203 11.1331 23.1398 11.2563C23.0744 11.3839 23.0367 11.5233 23.017 11.6388C23.0075 11.6943 23.0031 11.7382 23.0012 11.7643C23.0005 11.7741 23.0002 11.7811 23 11.7848V17.3C23 17.8523 22.5523 18.3 22 18.3C21.4477 18.3 21 17.8523 21 17.3V7.55981C20.9998 7.55611 20.9995 7.54913 20.9988 7.53928C20.9969 7.51322 20.9925 7.46927 20.983 7.41381C20.9633 7.29826 20.9256 7.15894 20.8602 7.03132C20.797 6.90813 20.7166 6.81162 20.6113 6.74313C20.5109 6.67791 20.3301 6.6 20 6.6C19.6699 6.6 19.4891 6.67791 19.3887 6.74313C19.2834 6.81162 19.203 6.90813 19.1398 7.03132C19.0744 7.15894 19.0367 7.29826 19.017 7.41381C19.0075 7.46927 19.0031 7.51322 19.0012 7.53928C19.0005 7.54915 19.0002 7.55613 19 7.55983V16C19 16.5523 18.5523 17 18 17C17.4477 17 17 16.5523 17 16V4.95981C16.9998 4.95611 16.9995 4.94913 16.9988 4.93928C16.9969 4.91322 16.9925 4.86927 16.983 4.81381C16.9633 4.69826 16.9256 4.55894 16.8602 4.43132C16.797 4.30813 16.7166 4.21162 16.6113 4.14313C16.5109 4.07792 16.3301 4 16 4C15.6699 4 15.4891 4.07792 15.3887 4.14313C15.2834 4.21162 15.203 4.30813 15.1398 4.43132C15.0744 4.55894 15.0367 4.69826 15.017 4.81381C15.0075 4.86927 15.0031 4.91322 15.0012 4.93928C15.0005 4.94915 15.0002 4.95612 15 4.95982ZM18.9895 4.74457C18.9829 4.67094 18.9721 4.58012 18.9545 4.47682C18.9117 4.22674 18.8244 3.87856 18.6398 3.51868C18.453 3.15437 18.1584 2.76338 17.7012 2.46624C17.2391 2.16583 16.6699 2 16 2C15.3301 2 14.7609 2.16583 14.2988 2.46624C13.8416 2.76338 13.547 3.15437 13.3602 3.51868C13.1756 3.87856 13.0883 4.22674 13.0455 4.47682C13.0238 4.60417 13.0125 4.71256 13.0066 4.79315C13.0036 4.83361 13.002 4.86756 13.0011 4.89393C13.0006 4.90714 13.0004 4.91849 13.0002 4.92787L13 4.94045L13 4.94561L13 4.9479L13 4.94897L13 4.95V5.39133C12.697 5.29877 12.3633 5.25 12 5.25C11.3301 5.25 10.7609 5.41583 10.2988 5.71624C9.84163 6.01338 9.54701 6.40437 9.36018 6.76868C9.17563 7.12856 9.0883 7.47674 9.04555 7.72682C9.02378 7.85417 9.01248 7.96256 9.00658 8.04315C9.00362 8.08361 9.00197 8.11756 9.00107 8.14393C9.00062 8.15714 9.00035 8.16849 9.0002 8.17787L9.00004 8.19045L9.00001 8.19561L9 8.1979L9 8.19897L9 8.2V14.4913C8.69695 14.3988 8.36328 14.35 8 14.35C7.33012 14.35 6.76093 14.5158 6.29876 14.8162C5.84163 15.1134 5.54701 15.5044 5.36018 15.8687C5.17563 16.2286 5.0883 16.5767 5.04555 16.8268C5.02378 16.9542 5.01248 17.0626 5.00658 17.1431C5.00361 17.1836 5.00197 17.2176 5.00107 17.2439C5.00062 17.2571 5.00035 17.2685 5.0002 17.2779L5.00004 17.2904L5.00001 17.2956L5 17.2979L5 17.299L5 17.3V20.9012C5 22.6087 5.68946 24.2439 6.91203 25.4359L9.7484 28.2013C10.9312 29.3546 12.5178 30 14.1697 30H17.8303C19.4822 30 21.0688 29.3546 22.2516 28.2013L25.088 25.4359C26.3105 24.2439 27 22.6087 27 20.9012V11.775V11.774L27 11.7706L27 11.7654L26.9998 11.7529C26.9996 11.7435 26.9994 11.7321 26.9989 11.7189C26.998 11.6926 26.9964 11.6586 26.9934 11.6181C26.9875 11.5376 26.9762 11.4292 26.9545 11.3018C26.9117 11.0517 26.8244 10.7036 26.6398 10.3437C26.453 9.97937 26.1584 9.58838 25.7012 9.29124C25.2391 8.99083 24.6699 8.825 24 8.825C23.6367 8.825 23.303 8.87377 23 8.96633V7.55V7.54897L23 7.5479L23 7.54561L23 7.54045L22.9998 7.52787C22.9996 7.51849 22.9994 7.50714 22.9989 7.49393C22.998 7.46756 22.9964 7.43361 22.9934 7.39315C22.9875 7.31256 22.9762 7.20417 22.9545 7.07682C22.9117 6.82674 22.8244 6.47855 22.6398 6.11868C22.453 5.75437 22.1584 5.36338 21.7012 5.06624C21.2391 4.76583 20.6699 4.6 20 4.6C19.6325 4.6 19.2953 4.64991 18.9895 4.74457Z" fill="#141414"/>
</svg>
