<svg width="12" height="12" viewBox="0 0 12 12" fill="none" xmlns="http://www.w3.org/2000/svg">
<path d="M2.35355 6.35355C2.15829 6.54882 1.84171 6.54882 1.64645 6.35355C1.45118 6.15829 1.45118 5.84171 1.64645 5.64645L5.64645 1.64645C5.84171 1.45118 6.15829 1.45118 6.35355 1.64645L10.3536 5.64645C10.5488 5.84171 10.5488 6.15829 10.3536 6.35355C10.1583 6.54881 9.84171 6.54881 9.64645 6.35355L6 2.70711L2.35355 6.35355Z" fill="#141414"/>
<path d="M2.35355 10.3536C2.15829 10.5488 1.84171 10.5488 1.64645 10.3536C1.45118 10.1583 1.45118 9.84171 1.64645 9.64645L5.64645 5.64645C5.84171 5.45118 6.15829 5.45118 6.35355 5.64645L10.3536 9.64645C10.5488 9.84171 10.5488 10.1583 10.3536 10.3536C10.1583 10.5488 9.84171 10.5488 9.64645 10.3536L6 6.70711L2.35355 10.3536Z" fill="#141414"/>
</svg>
