<svg width="32" height="32" viewBox="0 0 32 32" fill="none" xmlns="http://www.w3.org/2000/svg">
<path d="M16.7071 7.29289C16.3166 6.90237 15.6834 6.90237 15.2929 7.29289L8.29289 14.2929C7.90237 14.6834 7.90237 15.3166 8.29289 15.7071C8.68342 16.0976 9.31658 16.0976 9.70711 15.7071L16 9.41421L22.2929 15.7071C22.6834 16.0976 23.3166 16.0976 23.7071 15.7071C24.0976 15.3166 24.0976 14.6834 23.7071 14.2929L16.7071 7.29289Z" fill="#141414"/>
<path d="M23.7071 23.2929L16.7071 16.2929C16.3166 15.9024 15.6834 15.9024 15.2929 16.2929L8.29289 23.2929C7.90237 23.6834 7.90237 24.3166 8.29289 24.7071C8.68342 25.0976 9.31658 25.0976 9.70711 24.7071L16 18.4142L22.2929 24.7071C22.6834 25.0976 23.3166 25.0976 23.7071 24.7071C24.0976 24.3166 24.0976 23.6834 23.7071 23.2929Z" fill="#141414"/>
</svg>
