<svg width="16" height="16" viewBox="0 0 16 16" fill="none" xmlns="http://www.w3.org/2000/svg">
<path d="M2.64645 7.64645C2.45118 7.84171 2.45118 8.15829 2.64645 8.35355C2.84171 8.54882 3.15829 8.54882 3.35355 8.35355L8 3.70711L12.6464 8.35355C12.8417 8.54882 13.1583 8.54882 13.3536 8.35355C13.5488 8.15829 13.5488 7.84171 13.3536 7.64645L8.35355 2.64645C8.15829 2.45118 7.84171 2.45118 7.64645 2.64645L2.64645 7.64645Z" fill="#141414"/>
<path d="M2.64645 12.6464C2.45118 12.8417 2.45118 13.1583 2.64645 13.3536C2.84171 13.5488 3.15829 13.5488 3.35355 13.3536L8 8.70711L12.6464 13.3536C12.8417 13.5488 13.1583 13.5488 13.3536 13.3536C13.5488 13.1583 13.5488 12.8417 13.3536 12.6464L8.35355 7.64645C8.15829 7.45118 7.84171 7.45118 7.64645 7.64645L2.64645 12.6464Z" fill="#141414"/>
</svg>
