<svg width="24" height="24" viewBox="0 0 24 24" fill="none" xmlns="http://www.w3.org/2000/svg">
<path d="M5.96967 11.2197C5.67678 11.5126 5.67678 11.9874 5.96967 12.2803C6.26256 12.5732 6.73744 12.5732 7.03033 12.2803L12 7.31066L16.9697 12.2803C17.2626 12.5732 17.7374 12.5732 18.0303 12.2803C18.3232 11.9874 18.3232 11.5126 18.0303 11.2197L12.5303 5.71967C12.2374 5.42678 11.7626 5.42678 11.4697 5.71967L5.96967 11.2197Z" fill="#141414"/>
<path d="M5.96967 17.2197C5.67678 17.5126 5.67678 17.9874 5.96967 18.2803C6.26256 18.5732 6.73744 18.5732 7.03033 18.2803L12 13.3107L16.9697 18.2803C17.2626 18.5732 17.7374 18.5732 18.0303 18.2803C18.3232 17.9874 18.3232 17.5126 18.0303 17.2197L12.5303 11.7197C12.2374 11.4268 11.7626 11.4268 11.4697 11.7197L5.96967 17.2197Z" fill="#141414"/>
</svg>
