<svg xmlns="http://www.w3.org/2000/svg" width="16" height="16" fill="none" viewBox="0 0 16 16">
  <path fill="#141414" fill-rule="evenodd" d="M2 7.5A1.5 1.5 0 0 1 3.5 6h2a.5.5 0 0 1 0 1h-2a.5.5 0 0 0-.5.5v6a.5.5 0 0 0 .5.5h9a.5.5 0 0 0 .5-.5v-6a.5.5 0 0 0-.5-.5h-2a.5.5 0 0 1 0-1h2A1.5 1.5 0 0 1 14 7.5v6a1.5 1.5 0 0 1-1.5 1.5h-9A1.5 1.5 0 0 1 2 13.5v-6Zm5.646-6.354a.5.5 0 0 1 .708 0l3 3a.5.5 0 0 1-.708.708L8 2.207 5.354 4.854a.5.5 0 1 1-.708-.708l3-3Z" clip-rule="evenodd"/>
  <path fill="#141414" fill-rule="evenodd" d="M8 1.5a.5.5 0 0 1 .5.5v5.5a.5.5 0 0 1-1 0V2a.5.5 0 0 1 .5-.5Z" clip-rule="evenodd"/>
</svg>
