<svg xmlns="http://www.w3.org/2000/svg" width="24" height="24" fill="none" viewBox="0 0 24 24">
  <path fill="#141414" fill-rule="evenodd" d="M11.25 5.31 9.53 7.03a.75.75 0 0 1-1.06-1.06l2.293-2.293a1.75 1.75 0 0 1 2.474 0L15.53 5.97a.75.75 0 0 1-1.06 1.06l-1.72-1.72v7.19a.75.75 0 0 1-1.5 0V5.31Zm-7 5.19c0-.966.784-1.75 1.75-1.75h2a.75.75 0 0 1 0 1.5H6a.25.25 0 0 0-.25.25v9c0 .138.112.25.25.25h12a.25.25 0 0 0 .25-.25v-9a.25.25 0 0 0-.25-.25h-2a.75.75 0 0 1 0-1.5h2c.966 0 1.75.784 1.75 1.75v9A1.75 1.75 0 0 1 18 21.25H6a1.75 1.75 0 0 1-1.75-1.75v-9Z" clip-rule="evenodd"/>
</svg>
