<svg xmlns="http://www.w3.org/2000/svg" width="32" height="32" fill="none" viewBox="0 0 32 32">
  <path fill="#141414" fill-rule="evenodd" d="m15 7.08-2.293 2.294a1 1 0 1 1-1.414-1.415l3.057-3.057a2.333 2.333 0 0 1 3.3 0l3.057 3.057a1 1 0 1 1-1.414 1.415L17 7.08v9.586a1 1 0 1 1-2 0V7.08ZM5.666 14A2.333 2.333 0 0 1 8 11.667h2.666a1 1 0 1 1 0 2H8a.333.333 0 0 0-.333.333v12c0 .184.149.333.333.333h16a.333.333 0 0 0 .333-.333V14a.333.333 0 0 0-.333-.333h-2.667a1 1 0 1 1 0-2H24A2.333 2.333 0 0 1 26.333 14v12A2.333 2.333 0 0 1 24 28.333H8A2.333 2.333 0 0 1 5.667 26V14Z" clip-rule="evenodd"/>
</svg>
