<svg xmlns="http://www.w3.org/2000/svg" width="32" height="32" fill="none" viewBox="0 0 32 32">
  <path fill="#141414" fill-rule="evenodd" d="M5.333 8.667h21.333c.368 0 .667.298.667.667v13.333a.667.667 0 0 1-.667.667H5.333a.667.667 0 0 1-.667-.667V9.334c0-.369.298-.667.667-.667Zm-2.667.667a2.667 2.667 0 0 1 2.667-2.667h21.333a2.667 2.667 0 0 1 2.667 2.667v13.333a2.667 2.667 0 0 1-2.667 2.667H5.333a2.667 2.667 0 0 1-2.667-2.667V9.334Zm6.667 3.333h2.666c.368 0 .667.299.667.667V16a.667.667 0 0 1-.667.667H9.333A.667.667 0 0 1 8.666 16v-2.666c0-.368.298-.667.667-.667Zm-2.667.667a2.667 2.667 0 0 1 2.667-2.667h2.666a2.667 2.667 0 0 1 2.667 2.667V16a2.667 2.667 0 0 1-2.667 2.667H9.333A2.667 2.667 0 0 1 6.666 16v-2.666Z" clip-rule="evenodd"/>
</svg>
