<svg xmlns="http://www.w3.org/2000/svg" width="32" height="32" fill="none" viewBox="0 0 32 32">
  <path fill="#141414" d="M11 14a1 1 0 1 0 0 2 1 1 0 0 0 0-2Zm-1 5.666a1 1 0 1 1 2 0 1 1 0 0 1-2 0Zm1 3.667a1 1 0 1 0 0 2 1 1 0 0 0 0-2ZM20 15a1 1 0 1 1 2 0 1 1 0 0 1-2 0Zm1 3.666a1 1 0 0 0-1 1v4.667a1 1 0 1 0 2 0v-4.666a1 1 0 0 0-1-1ZM16 14a1 1 0 1 0 0 2 1 1 0 0 0 0-2Zm-1 5.666a1 1 0 1 1 2 0 1 1 0 0 1-2 0Zm1 3.667a1 1 0 1 0 0 2 1 1 0 0 0 0-2Z"/>
  <path fill="#141414" fill-rule="evenodd" d="M5.333 5.333A2.667 2.667 0 0 1 8 2.666h16a2.667 2.667 0 0 1 2.667 2.667v21.334A2.667 2.667 0 0 1 24 29.332H8a2.667 2.667 0 0 1-2.667-2.666V5.332ZM8 4.666h16c.368 0 .667.299.667.667v4H7.333v-4c0-.368.299-.667.667-.667Zm-.667 6.667h17.334v15.333a.667.667 0 0 1-.667.667H8a.667.667 0 0 1-.667-.666V11.332Z" clip-rule="evenodd"/>
</svg>
