<svg xmlns="http://www.w3.org/2000/svg" width="24" height="24" fill="none" viewBox="0 0 24 24">
  <path fill="#141414" d="M8.25 10.5a.75.75 0 1 0 0 1.5.75.75 0 0 0 0-1.5Zm-.75 4.25a.75.75 0 1 1 1.5 0 .75.75 0 0 1-1.5 0Zm.75 2.75a.75.75 0 1 0 0 1.5.75.75 0 0 0 0-1.5ZM15 11.25a.75.75 0 1 1 1.5 0 .75.75 0 0 1-1.5 0Zm.75 2.75a.75.75 0 0 0-.75.75v3.5a.75.75 0 0 0 1.5 0v-3.5a.75.75 0 0 0-.75-.75ZM12 10.5a.75.75 0 1 0 0 1.5.75.75 0 0 0 0-1.5Zm-.75 4.25a.75.75 0 1 1 1.5 0 .75.75 0 0 1-1.5 0ZM12 17.5a.75.75 0 1 0 0 1.5.75.75 0 0 0 0-1.5Z"/>
  <path fill="#141414" fill-rule="evenodd" d="M4 4a2 2 0 0 1 2-2h12a2 2 0 0 1 2 2v16a2 2 0 0 1-2 2H6a2 2 0 0 1-2-2V4Zm2-.5h12a.5.5 0 0 1 .5.5v3h-13V4a.5.5 0 0 1 .5-.5Zm-.5 5h13V20a.5.5 0 0 1-.5.5H6a.5.5 0 0 1-.5-.5V8.5Z" clip-rule="evenodd"/>
</svg>
