<svg xmlns="http://www.w3.org/2000/svg" width="16" height="16" fill="none" viewBox="0 0 16 16">
  <path fill="#141414" d="M7.5 8.5a.5.5 0 1 1 1 0 .5.5 0 0 1-1 0ZM8 10a.5.5 0 1 0 0 1 .5.5 0 0 0 0-1Zm-.5 2.5a.5.5 0 1 1 1 0 .5.5 0 0 1-1 0ZM5 8a.5.5 0 1 0 0 1 .5.5 0 0 0 0-1Zm-.5 2.5a.5.5 0 1 1 1 0 .5.5 0 0 1-1 0ZM5 12a.5.5 0 1 0 0 1 .5.5 0 0 0 0-1Zm5.5-3.5a.5.5 0 1 1 1 0 .5.5 0 0 1-1 0ZM11 10a.5.5 0 0 0-.5.5v2a.5.5 0 0 0 1 0v-2a.5.5 0 0 0-.5-.5Z"/>
  <path fill="#141414" fill-rule="evenodd" d="M2.5 3a2 2 0 0 1 2-2h7a2 2 0 0 1 2 2v10a2 2 0 0 1-2 2h-7a2 2 0 0 1-2-2V3Zm2-1h7a1 1 0 0 1 1 1v3h-9V3a1 1 0 0 1 1-1Zm-1 5v6a1 1 0 0 0 1 1h7a1 1 0 0 0 1-1V7h-9Z" clip-rule="evenodd"/>
</svg>
