<svg xmlns="http://www.w3.org/2000/svg" width="32" height="32" fill="none" viewBox="0 0 32 32">
  <path fill="#141414" fill-rule="evenodd" d="M24 6H8a3.333 3.333 0 0 0-3.333 3.333v13.334A3.333 3.333 0 0 0 8 26h16a3.333 3.333 0 0 0 3.333-3.333V9.333A3.333 3.333 0 0 0 24 6ZM8 4a5.333 5.333 0 0 0-5.333 5.333v13.334A5.333 5.333 0 0 0 8 28h16a5.333 5.333 0 0 0 5.333-5.333V9.333A5.333 5.333 0 0 0 24 4H8ZM6.667 14.667A2.667 2.667 0 0 1 9.332 12h13.333a2.667 2.667 0 0 1 2.667 2.667v6.666A2.667 2.667 0 0 1 22.667 24H9.332a2.667 2.667 0 0 1-2.667-2.667v-6.666Zm5-6.667a1 1 0 1 0 0 2h8.666a1 1 0 1 0 0-2h-8.666Z" clip-rule="evenodd"/>
</svg>
