<svg xmlns="http://www.w3.org/2000/svg" width="32" height="32" fill="none" viewBox="0 0 32 32">
  <path fill="#141414" fill-rule="evenodd" d="M26.04 7.374 7.374 26.04a1 1 0 0 1-1.414-1.414L24.626 5.96a1 1 0 1 1 1.414 1.415ZM16 8.667c-4.608 0-8.61 2.418-10.727 5.983a2.647 2.647 0 0 0 0 2.7 11.969 11.969 0 0 0 2.278 2.774 1 1 0 1 1-1.34 1.485 13.964 13.964 0 0 1-2.658-3.237 4.647 4.647 0 0 1 0-4.744C6.03 9.46 10.683 6.667 16 6.667c1.336 0 2.63.176 3.86.507a1 1 0 1 1-.52 1.931A12.846 12.846 0 0 0 16 8.667Zm8.366 1.789a1 1 0 0 1 1.412-.074 13.97 13.97 0 0 1 2.668 3.246 4.647 4.647 0 0 1 0 4.743c-2.476 4.169-7.13 6.962-12.447 6.962-1.338 0-2.636-.177-3.868-.51a1 1 0 1 1 .52-1.93c1.064.286 2.187.44 3.348.44 4.608 0 8.61-2.419 10.727-5.983a2.647 2.647 0 0 0 0-2.7 11.967 11.967 0 0 0-2.286-2.782 1 1 0 0 1-.075-1.412Zm-12.314 6.193a4 4 0 0 1 4.597-4.597l-4.597 4.597Zm7.896-1.296-4.595 4.595a4 4 0 0 0 4.595-4.595Z" clip-rule="evenodd"/>
</svg>
