<svg xmlns="http://www.w3.org/2000/svg" width="16" height="16" fill="none" viewBox="0 0 16 16">
  <path fill="#141414" fill-rule="evenodd" d="M8 4.5c-2.177 0-4.085.948-5.245 2.377a1.786 1.786 0 0 0 0 2.246C3.915 10.553 5.823 11.5 8 11.5c2.176 0 4.084-.948 5.245-2.377.53-.653.53-1.593 0-2.246C12.084 5.447 10.174 4.5 8 4.5ZM1.978 6.247C3.338 4.573 5.536 3.5 8 3.5c2.463 0 4.662 1.073 6.02 2.747a2.785 2.785 0 0 1 0 3.506C12.663 11.427 10.464 12.5 8 12.5c-2.464 0-4.663-1.073-6.021-2.747a2.786 2.786 0 0 1 0-3.506Z" clip-rule="evenodd"/>
  <path fill="#141414" fill-rule="evenodd" d="M8 6a2 2 0 0 0-1.415 3.414l2.829-2.828A1.994 1.994 0 0 0 8 6Z" clip-rule="evenodd"/>
  <path fill="#141414" fill-rule="evenodd" d="M13.353 2.646a.5.5 0 0 1 0 .708l-10 10a.5.5 0 0 1-.707-.708l10-10a.5.5 0 0 1 .707 0Z" clip-rule="evenodd"/>
</svg>
