<svg xmlns="http://www.w3.org/2000/svg" width="24" height="24" fill="none" viewBox="0 0 24 24">
  <path fill="#141414" fill-rule="evenodd" d="M19.53 4.47a.75.75 0 0 1 0 1.06l-14 14a.75.75 0 0 1-1.06-1.06l14-14a.75.75 0 0 1 1.06 0ZM12 6.5c-3.456 0-6.458 1.814-8.045 4.487a1.985 1.985 0 0 0 0 2.026 8.974 8.974 0 0 0 1.708 2.08.75.75 0 0 1-1.004 1.114 10.475 10.475 0 0 1-1.994-2.428 3.485 3.485 0 0 1 0-3.558C4.52 7.095 8.013 5 12 5c1.002 0 1.973.132 2.895.38a.75.75 0 1 1-.39 1.449A9.633 9.633 0 0 0 12 6.5Zm6.274 1.342a.75.75 0 0 1 1.06-.056 10.478 10.478 0 0 1 2 2.435 3.485 3.485 0 0 1 0 3.558C19.478 16.905 15.987 19 12 19a11.14 11.14 0 0 1-2.902-.382.75.75 0 1 1 .39-1.448c.798.215 1.64.33 2.512.33 3.455 0 6.457-1.814 8.045-4.487.37-.624.37-1.402 0-2.026a8.975 8.975 0 0 0-1.715-2.086.75.75 0 0 1-.056-1.059ZM9.04 12.487a3 3 0 0 1 3.448-3.448L9.04 12.487Zm5.922-.972-3.446 3.446a3 3 0 0 0 3.446-3.446Z" clip-rule="evenodd"/>
</svg>
