<svg xmlns="http://www.w3.org/2000/svg" width="16" height="16" fill="none" viewBox="0 0 16 16">
  <path fill="#141414" fill-rule="evenodd" d="m13.295 2.705-.239.007a9.372 9.372 0 0 0-8.657 6.481l2.408 2.408a9.372 9.372 0 0 0 6.481-8.657l.007-.239Zm1.009-.313a.678.678 0 0 0-.696-.696l-.58.016a10.372 10.372 0 0 0-9.624 7.31.786.786 0 0 0 .196.786L6.19 12.4a.786.786 0 0 0 .788.195 10.372 10.372 0 0 0 7.309-9.623l.016-.58Z" clip-rule="evenodd"/>
  <path fill="#141414" fill-rule="evenodd" d="M10.17 12.43V9.807h1v2.828a.5.5 0 0 1-.146.354L9.61 14.404a.5.5 0 0 1-.801-.13l-1.414-2.828.894-.447 1.104 2.208.777-.778Zm-6.6-6.6h2.622v-1H3.363a.5.5 0 0 0-.353.146L1.596 6.39a.5.5 0 0 0 .13.801l2.828 1.414.447-.894-2.208-1.104.778-.777Zm6.629-.029a.5.5 0 1 0-.707.707.5.5 0 0 0 .707-.707Zm-1.414-.707a1.5 1.5 0 1 1 2.12 2.121 1.5 1.5 0 0 1-2.12-2.121ZM4.2 13.099a.96.96 0 1 0-1.299-1.3.964.964 0 0 0-.106.35l-.129 1.184 1.184-.128a.964.964 0 0 0 .35-.106Z" clip-rule="evenodd"/>
</svg>
