<svg xmlns="http://www.w3.org/2000/svg" width="32" height="32" fill="none" viewBox="0 0 32 32">
  <path fill="#141414" fill-rule="evenodd" d="m26.588 5.41-.477.014A18.744 18.744 0 0 0 8.796 18.387l4.816 4.816A18.744 18.744 0 0 0 26.575 5.888l.014-.477Zm2.019-.625a1.355 1.355 0 0 0-1.393-1.392l-1.158.032A20.744 20.744 0 0 0 6.808 18.043a1.571 1.571 0 0 0 .39 1.574l5.184 5.184a1.572 1.572 0 0 0 1.575.39A20.744 20.744 0 0 0 28.575 5.944l.032-1.16Z" clip-rule="evenodd"/>
  <path fill="#141414" fill-rule="evenodd" d="M20.34 24.86v-5.244h2v5.657a1 1 0 0 1-.293.707l-2.829 2.829a1 1 0 0 1-1.601-.26l-2.829-5.657 1.789-.894 2.208 4.416 1.554-1.555Zm-13.2-13.2h5.243v-2H6.726a1 1 0 0 0-.707.293L3.19 12.78a1 1 0 0 0 .26 1.602l5.657 2.828.895-1.789-4.416-2.208L7.14 11.66Zm13.257-.057a1 1 0 1 0-1.415 1.414 1 1 0 0 0 1.415-1.414Zm-2.829-1.415a3 3 0 1 1 4.243 4.243 3 3 0 0 1-4.243-4.243ZM7.699 26.411c1.6-.173 2.286-2.121 1.148-3.259-1.137-1.137-3.086-.451-3.259 1.148l-.256 2.367 2.367-.256Zm-.206-1.904.009.081-.01-.081Z" clip-rule="evenodd"/>
</svg>
