<svg xmlns="http://www.w3.org/2000/svg" width="24" height="24" fill="none" viewBox="0 0 24 24">
  <path fill="#141414" fill-rule="evenodd" d="m19.941 4.058-.358.01A14.058 14.058 0 0 0 6.597 13.79l3.612 3.612A14.058 14.058 0 0 0 19.93 4.416l.01-.358Zm1.514-.47a1.016 1.016 0 0 0-1.044-1.044l-.87.024A15.558 15.558 0 0 0 5.106 13.532c-.13.417-.017.872.292 1.18l3.888 3.889c.31.309.764.421 1.181.292A15.558 15.558 0 0 0 21.431 4.458l.024-.87Z" clip-rule="evenodd"/>
  <path fill="#141414" fill-rule="evenodd" d="M15.254 18.644v-3.932h1.5v4.243a.75.75 0 0 1-.22.53l-2.12 2.122a.75.75 0 0 1-1.202-.195l-2.121-4.243 1.341-.67 1.656 3.311 1.166-1.166ZM5.355 8.745h3.932v-1.5H5.044a.75.75 0 0 0-.53.22l-2.121 2.12a.75.75 0 0 0 .194 1.202l4.243 2.121.67-1.341L4.19 9.91l1.166-1.166Zm9.942-.043a.75.75 0 1 0-1.06 1.06.75.75 0 0 0 1.06-1.06Zm-2.121-1.06a2.25 2.25 0 1 1 3.182 3.181 2.25 2.25 0 0 1-3.182-3.182ZM5.774 19.808c1.2-.13 1.714-1.59.861-2.444-.853-.853-2.314-.338-2.444.861L3.999 20l1.775-.192Zm-.155-1.428.007.061-.007-.061Z" clip-rule="evenodd"/>
</svg>
