<svg xmlns="http://www.w3.org/2000/svg" width="24" height="24" fill="none" viewBox="0 0 24 24">
  <path fill="#141414" fill-rule="evenodd" d="m7.87 16.75 3.069 3.068a1.5 1.5 0 0 0 2.121 0l3.068-3.068H16a2.75 2.75 0 0 1-2.2-1.1l-1.8-2.4-1.8 2.4a2.75 2.75 0 0 1-2.2 1.1h-.128Zm-1.49-1.49a.755.755 0 0 1 .12-.01H8a1.25 1.25 0 0 0 1-.5L11.062 12 9 9.25a1.25 1.25 0 0 0-1-.5H6.5a.755.755 0 0 1-.12-.01l-2.198 2.2a1.5 1.5 0 0 0 0 2.12l2.198 2.2ZM12.937 12 15 14.75c.236.315.606.5 1 .5h1.5c.04 0 .08.003.119.01l2.199-2.2a1.5 1.5 0 0 0 0-2.12l-2.2-2.2a.755.755 0 0 1-.118.01H16a1.25 1.25 0 0 0-1 .5L12.936 12Zm3.191-4.75H16a2.75 2.75 0 0 0-2.2 1.1l-1.8 2.4-1.8-2.4A2.75 2.75 0 0 0 8 7.25h-.128l3.068-3.068a1.5 1.5 0 0 1 2.121 0l3.068 3.068ZM3.121 14.121l6.757 6.758a3 3 0 0 0 4.243 0l6.757-6.758a3 3 0 0 0 0-4.242L14.121 3.12a3 3 0 0 0-4.243 0L3.121 9.88a3 3 0 0 0 0 4.242Z" clip-rule="evenodd"/>
</svg>
