<svg xmlns="http://www.w3.org/2000/svg" width="32" height="32" fill="none" viewBox="0 0 32 32">
  <path fill="#141414" fill-rule="evenodd" d="m10.495 22.333 4.09 4.091a2 2 0 0 0 2.83 0l4.09-4.09h-.171a3.666 3.666 0 0 1-2.933-1.467l-2.4-3.2-2.4 3.2a3.667 3.667 0 0 1-2.934 1.466h-.172Zm-1.987-1.987-2.932-2.932a2 2 0 0 1 0-2.828l2.932-2.932c.052.008.105.013.16.013h2c.524 0 1.018.247 1.333.666L14.75 16 12 19.667c-.315.42-.81.666-1.334.666h-2c-.054 0-.107.005-.16.013ZM16 14.333l-2.4-3.2a3.667 3.667 0 0 0-2.934-1.466h-.172l4.09-4.091a2 2 0 0 1 2.83 0l4.09 4.09h-.171c-1.154 0-2.24.544-2.933 1.467l-2.4 3.2ZM17.25 16 20 19.667c.314.42.808.666 1.333.666h2c.054 0 .107.005.159.013l2.931-2.932a2 2 0 0 0 0-2.828l-2.932-2.932a1.009 1.009 0 0 1-.158.013h-2c-.525 0-1.019.247-1.333.666L17.25 16ZM4.16 18.828l9.01 9.01a4 4 0 0 0 5.657 0l9.01-9.01a4 4 0 0 0 0-5.656l-9.01-9.01a4 4 0 0 0-5.656 0l-9.01 9.01a4 4 0 0 0 0 5.656Z" clip-rule="evenodd"/>
</svg>
