<svg xmlns="http://www.w3.org/2000/svg" width="16" height="16" fill="none" viewBox="0 0 16 16">
  <path fill="#141414" fill-rule="evenodd" d="m5.236 11.155 2.057 2.057a1 1 0 0 0 1.414 0l2.057-2.056A2.5 2.5 0 0 1 9 10.165L8 8.834l-1 1.334a2.5 2.5 0 0 1-1.764.989Zm-.982-.982L2.788 8.707a1 1 0 0 1 0-1.414l1.466-1.466a.504.504 0 0 0 .08.006H5a1.5 1.5 0 0 1 1.2.6L7.375 8 6.2 9.567a1.5 1.5 0 0 1-1.2.6h-.667a.51.51 0 0 0-.08.006ZM8 7.167 7 5.833a2.5 2.5 0 0 0-1.764-.989l2.057-2.056a1 1 0 0 1 1.414 0l2.057 2.056A2.5 2.5 0 0 0 9 5.834L8 7.166ZM8.625 8 9.8 9.567a1.5 1.5 0 0 0 1.2.6h.667c.027 0 .053.002.08.006l1.465-1.466a1 1 0 0 0 0-1.414l-1.466-1.466a.502.502 0 0 1-.08.006H11a1.5 1.5 0 0 0-1.2.6L8.625 8ZM2.081 9.414l4.505 4.505a2 2 0 0 0 2.828 0l4.505-4.505a2 2 0 0 0 0-2.828L9.414 2.08a2 2 0 0 0-2.828 0L2.08 6.586a2 2 0 0 0 0 2.828Z" clip-rule="evenodd"/>
</svg>
