<svg xmlns="http://www.w3.org/2000/svg" width="32" height="32" fill="none" viewBox="0 0 32 32">
  <path fill="#141414" fill-rule="evenodd" d="M21 6.667a2 2 0 0 1-2 2h-2v-2a2 2 0 0 1 4 0Zm-8 4h2v2.667H5.332a.667.667 0 0 1-.667-.667v-1.333c0-.368.298-.667.667-.667h7.666Zm2 4.667H7.332v11.333c0 .368.298.667.666.667h7v-12Zm2 12v-12h7.666v11.333a.667.667 0 0 1-.667.667h-7Zm0-14v-2.667h9.666c.368 0 .667.299.667.667v1.333a.667.667 0 0 1-.667.667h-9.667ZM9 6.667c0 .729.194 1.412.534 2H5.333a2.667 2.667 0 0 0-2.667 2.667v1.333a2.667 2.667 0 0 0 2.667 2.667v11.333a2.667 2.667 0 0 0 2.666 2.667h16a2.667 2.667 0 0 0 2.667-2.667V15.334a2.667 2.667 0 0 0 2.667-2.667v-1.333a2.667 2.667 0 0 0-2.667-2.667h-4.202A4 4 0 0 0 16 4.021a4 4 0 0 0-7 2.646Zm2 0a2 2 0 0 0 2 2h2v-2a2 2 0 1 0-4 0Z" clip-rule="evenodd"/>
</svg>
