<svg xmlns="http://www.w3.org/2000/svg" width="16" height="16" fill="none" viewBox="0 0 16 16">
  <path fill="#141414" fill-rule="evenodd" d="M10.5 3a1 1 0 0 1-1 1h-1V3a1 1 0 0 1 2 0Zm-2 2v2h5a.5.5 0 0 0 .5-.5v-1a.5.5 0 0 0-.5-.5h-5Zm-1 2V5h-5a.5.5 0 0 0-.5.5v1a.5.5 0 0 0 .5.5h5Zm0 1v6H3.25V8H7.5Zm1 6V8h4.25v6H8.5Zm-6-10h2.268A2 2 0 0 1 8 1.677 2 2 0 0 1 11.232 4H13.5A1.5 1.5 0 0 1 15 5.5v1a1.5 1.5 0 0 1-1.25 1.48V14a1 1 0 0 1-1 1h-9.5a1 1 0 0 1-1-1V7.98A1.5 1.5 0 0 1 1 6.5v-1A1.5 1.5 0 0 1 2.5 4Zm5 0h-1a1 1 0 1 1 1-1v1Z" clip-rule="evenodd"/>
</svg>
