<svg xmlns="http://www.w3.org/2000/svg" width="24" height="24" fill="none" viewBox="0 0 24 24">
  <path fill="#141414" fill-rule="evenodd" d="M15.75 5a1.5 1.5 0 0 1-1.5 1.5h-1.5V5a1.5 1.5 0 0 1 3 0Zm-6 3h1.5v2H4a.5.5 0 0 1-.5-.5v-1A.5.5 0 0 1 4 8h5.75Zm1.5 3.5H5.5V20a.5.5 0 0 0 .5.5h5.25v-9Zm1.5 9v-9h5.75V20a.5.5 0 0 1-.5.5h-5.25Zm0-10.5V8H20a.5.5 0 0 1 .5.5v1a.5.5 0 0 1-.5.5h-7.25Zm-6-5c0 .546.146 1.059.401 1.5H4a2 2 0 0 0-2 2v1a2 2 0 0 0 2 2V20a2 2 0 0 0 2 2h12a2 2 0 0 0 2-2v-8.5a2 2 0 0 0 2-2v-1a2 2 0 0 0-2-2h-3.151A3 3 0 0 0 12 3.016 3 3 0 0 0 6.75 5Zm1.5 0a1.5 1.5 0 0 0 1.5 1.5h1.5V5a1.5 1.5 0 0 0-3 0Z" clip-rule="evenodd"/>
</svg>
