<svg xmlns="http://www.w3.org/2000/svg" width="24" height="24" fill="none" viewBox="0 0 24 24">
  <path fill="#141414" fill-rule="evenodd" d="M3.32 2.276c-.334-.333-.838-.37-1.126-.082-.288.288-.251.792.082 1.125l.871.871A2 2 0 0 0 2 6v12a2 2 0 0 0 2 2h12a2 2 0 0 0 1.81-1.147l2.87 2.871c.334.333.837.37 1.126.082.288-.289.251-.792-.082-1.125L18 16.957v-.002l-1.5-1.5v.002L6.543 5.5h.002L5.045 4h-.002L3.32 2.276ZM4.456 5.5H4a.5.5 0 0 0-.5.5v12a.5.5 0 0 0 .5.5h12a.5.5 0 0 0 .5-.5v-.457L4.457 5.5ZM16.5 9.7v3.668l2.564 2.564 1.594.58a1 1 0 0 0 1.342-.94V8.428a1 1 0 0 0-1.342-.94L18 8.454V6a2 2 0 0 0-2-2H7.132l1.5 1.5H16a.5.5 0 0 1 .5.5v3.7Zm1.5 4.25 2.5.908V9.141l-2.5.91v3.898Z" clip-rule="evenodd"/>
</svg>
