<svg xmlns="http://www.w3.org/2000/svg" width="16" height="16" fill="none" viewBox="0 0 16 16">
  <path fill="#141414" fill-rule="evenodd" d="M1.927 2.285a.542.542 0 0 0-.766.766l.48.48A1.995 1.995 0 0 0 1 5v6a2 2 0 0 0 2 2h6c.58 0 1.101-.247 1.466-.64l1.262 1.262a.542.542 0 1 0 .766-.766L1.927 2.285Zm7.831 9.367L2.35 4.24A.998.998 0 0 0 2 5v6a1 1 0 0 0 1 1h6a.998.998 0 0 0 .758-.348ZM10 8.84l1.399 1.4 2.98.745A.5.5 0 0 0 15 10.5v-5a.5.5 0 0 0-.621-.485L11 5.859V5a2 2 0 0 0-2-2H4.161l1 1H9a1 1 0 0 1 1 1v3.842Zm4 1.02-3-.75V6.89l3-.75v3.72Z" clip-rule="evenodd"/>
</svg>
