<svg xmlns="http://www.w3.org/2000/svg" width="32" height="32" fill="none" viewBox="0 0 32 32">
  <path fill="#141414" fill-rule="evenodd" d="M4.426 3.035c-.445-.444-1.116-.493-1.5-.109-.384.384-.336 1.056.108 1.5l1.162 1.161A2.667 2.667 0 0 0 2.666 8v16a2.667 2.667 0 0 0 2.667 2.667h16a2.667 2.667 0 0 0 2.413-1.53l3.828 3.829c.444.444 1.116.493 1.5.108.384-.384.336-1.055-.108-1.5l-4.967-4.966-2-2L8.724 7.333h.001l-2-2-2.3-2.298Zm1.516 4.298h-.61A.667.667 0 0 0 4.667 8v16c0 .368.298.667.667.667h16A.667.667 0 0 0 22 24v-.61L5.942 7.334Zm16.057 5.6v4.892l3.419 3.418 2.126.773a1.333 1.333 0 0 0 1.789-1.253v-9.526c0-.925-.92-1.57-1.79-1.253L24 11.273V8a2.667 2.667 0 0 0-2.666-2.667H9.508l2 2h9.825c.368 0 .666.299.666.667v4.934Zm2 5.666 3.334 1.212V12.19l-3.334 1.21v5.198Z" clip-rule="evenodd"/>
</svg>
