<svg xmlns="http://www.w3.org/2000/svg" width="16" height="16" fill="none" viewBox="0 0 16 16">
  <path fill="#141414" fill-rule="evenodd" d="M10.872 9.941 9.557 8.364a2 2 0 0 1-.404-1.766l.649-2.594L5.358 2.6 3.774 8.407l4.223 4.75c.287.325.7.51 1.133.51H12a1.667 1.667 0 1 0 0-3.333h-.291a1.09 1.09 0 0 1-.837-.393Zm-.77-6.89L5.66 1.646a1 1 0 0 0-1.266.69L2.809 8.144a1 1 0 0 0 .218.928l4.222 4.75a2.517 2.517 0 0 0 1.881.845H12a2.667 2.667 0 0 0 0-5.333h-.291a.09.09 0 0 1-.07-.033l-1.314-1.577a1 1 0 0 1-.202-.883l.649-2.595a1 1 0 0 0-.67-1.196Z" clip-rule="evenodd"/>
  <path fill="#141414" fill-rule="evenodd" d="M1.5 14.167a.5.5 0 0 1 .5-.5h9.333a.5.5 0 1 1 0 1H2a.5.5 0 0 1-.5-.5ZM2.833 11.5a.5.5 0 0 1 .5-.5H6v1H3.333a.5.5 0 0 1-.5-.5Z" clip-rule="evenodd"/>
</svg>
