<svg xmlns="http://www.w3.org/2000/svg" width="24" height="24" fill="none" viewBox="0 0 24 24">
  <path fill="#141414" fill-rule="evenodd" d="M8.037 3.9 5.66 12.61l6.334 7.127c.43.483 1.044.76 1.69.763H18a2.5 2.5 0 0 0 0-5h-.437c-.485 0-.945-.215-1.256-.588l-2.134-2.562a2.5 2.5 0 0 1-.505-2.206l1.035-4.139L8.037 3.9ZM8.444 18l2.223 2.5H3A.75.75 0 0 0 3 22h15a4 4 0 1 0 0-8h-.437a.134.134 0 0 1-.103-.048l-2.135-2.562a1 1 0 0 1-.202-.883l1.149-4.594a1 1 0 0 0-.67-1.196l-7.61-2.404a1 1 0 0 0-1.266.69l-2.583 9.474a1 1 0 0 0 .217.928L7.11 16.5H5A.75.75 0 0 0 5 18h3.444Z" clip-rule="evenodd"/>
</svg>
