<svg xmlns="http://www.w3.org/2000/svg" width="32" height="32" fill="none" viewBox="0 0 32 32">
  <path fill="#141414" fill-rule="evenodd" d="M10.715 5.2 7.548 16.814l8.445 9.501a3.033 3.033 0 0 0 2.254 1.018H24a3.333 3.333 0 1 0 0-6.666h-.583a2.18 2.18 0 0 1-1.674-.785l-2.846-3.415a3.333 3.333 0 0 1-.673-2.942l1.38-5.518-8.89-2.807ZM11.26 24l2.963 3.333H4a1 1 0 1 0 0 2h20a5.333 5.333 0 1 0 0-10.666h-.583a.18.18 0 0 1-.137-.065l-2.847-3.415a1.333 1.333 0 0 1-.269-1.177l1.532-6.126a1.333 1.333 0 0 0-.892-1.595L10.656 3.084a1.333 1.333 0 0 0-1.688.92L5.523 16.637c-.118.435-.01.9.29 1.237L9.481 22H6.667a1 1 0 1 0 0 2h4.592Z" clip-rule="evenodd"/>
</svg>
