<svg xmlns="http://www.w3.org/2000/svg" width="24" height="24" fill="none" viewBox="0 0 24 24">
  <path fill="#141414" fill-rule="evenodd" d="M12.25 2a.75.75 0 0 0-.75.75v12.5a.75.75 0 0 0 1.5 0V2.75a.75.75 0 0 0-.75-.75ZM10.5 14.616a3.263 3.263 0 0 0-1.448 1.513.75.75 0 1 1-1.36-.633 4.764 4.764 0 0 1 2.808-2.504v1.624Zm3.5.322c.384.3.7.686.918 1.129a.75.75 0 0 0 1.345-.663A4.77 4.77 0 0 0 14 13.191v1.747Zm0-4.409a7.262 7.262 0 0 1 3.934 2.804.75.75 0 1 0 1.227-.863A8.76 8.76 0 0 0 14 8.98v1.55Zm0-4.102a11.242 11.242 0 0 1 6.783 4.042.75.75 0 0 0 1.17-.938A12.74 12.74 0 0 0 14 4.906v1.521Zm-3.5-1.59V6.35a11.235 11.235 0 0 0-7.283 4.12.75.75 0 0 1-1.17-.938A12.735 12.735 0 0 1 10.5 4.837Zm0 4.041v1.527a7.254 7.254 0 0 0-4.433 2.928.75.75 0 0 1-1.227-.863 8.752 8.752 0 0 1 5.66-3.592ZM14.25 20a2 2 0 1 1-4 0 2 2 0 0 1 4 0Z" clip-rule="evenodd"/>
</svg>
