<svg xmlns="http://www.w3.org/2000/svg" width="16" height="16" fill="none" viewBox="0 0 16 16">
  <path fill="#141414" d="M7.5 2.5a.5.5 0 0 1 1 0v8a.5.5 0 0 1-1 0v-8Zm-1 7.436a2.173 2.173 0 0 0-.465.65.5.5 0 0 1-.907-.422A3.18 3.18 0 0 1 6.5 8.71v1.226Zm3 .001c.182.174.333.38.445.608a.5.5 0 0 0 .897-.442A3.18 3.18 0 0 0 9.5 8.71v1.226Zm0-3.033a4.844 4.844 0 0 1 2.456 1.818.5.5 0 1 0 .818-.575A5.842 5.842 0 0 0 9.5 5.86v1.043Zm0-2.754a7.497 7.497 0 0 1 4.355 2.663.5.5 0 0 0 .78-.626A8.496 8.496 0 0 0 9.5 3.132V4.15Zm-3-1.018V4.15a7.497 7.497 0 0 0-4.355 2.663.5.5 0 1 1-.78-.626A8.496 8.496 0 0 1 6.5 3.132Zm0 2.729v1.043a4.844 4.844 0 0 0-2.456 1.818.5.5 0 1 1-.817-.575A5.842 5.842 0 0 1 6.5 5.86ZM9 13a1 1 0 1 1-2 0 1 1 0 0 1 2 0Z"/>
</svg>
