<svg xmlns="http://www.w3.org/2000/svg" width="32" height="32" fill="none" viewBox="0 0 32 32">
  <path fill="#141414" fill-rule="evenodd" d="M16.334 2.667a1 1 0 0 0-1 1v16.666a1 1 0 1 0 2 0V3.667a1 1 0 0 0-1-1ZM14 19.486a4.35 4.35 0 0 0-1.93 2.019 1 1 0 1 1-1.813-.845A6.352 6.352 0 0 1 14 17.322v2.166Zm4.667.43c.512.401.933.915 1.223 1.505a1 1 0 0 0 1.795-.883 6.359 6.359 0 0 0-3.018-2.952v2.33Zm0-5.878a9.682 9.682 0 0 1 5.245 3.738 1 1 0 0 0 1.636-1.15 11.678 11.678 0 0 0-6.881-4.654v2.066Zm0-5.47a14.99 14.99 0 0 1 9.044 5.39 1 1 0 1 0 1.56-1.251A16.987 16.987 0 0 0 18.667 6.54v2.03ZM14 6.45v2.016a14.98 14.98 0 0 0-9.71 5.494 1 1 0 1 1-1.56-1.251A16.98 16.98 0 0 1 14 6.45Zm0 5.389v2.036a9.672 9.672 0 0 0-5.911 3.903 1 1 0 0 1-1.636-1.15A11.67 11.67 0 0 1 14 11.836Zm5 14.829a2.667 2.667 0 1 1-5.333 0 2.667 2.667 0 0 1 5.333 0Z" clip-rule="evenodd"/>
</svg>
