<svg xmlns="http://www.w3.org/2000/svg" width="16" height="16" fill="none" viewBox="0 0 16 16">
  <path fill="#141414" fill-rule="evenodd" d="M9.572 1.615a.5.5 0 0 1 .708 0l3.77 3.771a.5.5 0 1 1-.706.708L9.572 2.322a.5.5 0 0 1 0-.707ZM1.835 13.126l2.667-2.667.707.707-2.667 2.667a.5.5 0 1 1-.707-.707Z" clip-rule="evenodd"/>
  <path fill="#141414" fill-rule="evenodd" d="M12.165 3.502a.5.5 0 0 1 0 .707l-2 2-.707-.707 2-2a.5.5 0 0 1 .707 0Z" clip-rule="evenodd"/>
  <path fill="#141414" fill-rule="evenodd" d="m10.162 6.448-.943-.943a1 1 0 0 0-1.414 0l-3.3 3.3a1 1 0 0 0 0 1.415l.943.942a1 1 0 0 0 1.414 0l3.3-3.3a1 1 0 0 0 0-1.414Zm-.236-1.65a2 2 0 0 0-2.829 0l-3.3 3.3a2 2 0 0 0 0 2.829l.943.942a2 2 0 0 0 2.829 0l3.3-3.3a2 2 0 0 0 0-2.828l-.943-.943Z" clip-rule="evenodd"/>
  <path fill="#141414" fill-rule="evenodd" d="M6.273 8.687a.5.5 0 0 1 .707 0L8.394 10.1a.5.5 0 1 1-.707.707L6.273 9.394a.5.5 0 0 1 0-.707Zm1.414-1.414a.5.5 0 0 1 .707 0l1.414 1.414a.5.5 0 0 1-.707.707L7.687 7.98a.5.5 0 0 1 0-.707Z" clip-rule="evenodd"/>
</svg>
