<svg xmlns="http://www.w3.org/2000/svg" width="32" height="32" fill="none" viewBox="0 0 32 32">
  <path fill="#141414" fill-rule="evenodd" d="M20.559 3.23a1 1 0 1 0-1.414 1.415L22.21 7.71l-2.123 2.122-1.178-1.178a2.667 2.667 0 0 0-3.771 0l-8.485 8.485a2.667 2.667 0 0 0 0 3.771l1.178 1.18-4.161 4.16a1 1 0 0 0 1.415 1.414l4.162-4.162 1.178 1.179a2.667 2.667 0 0 0 3.771 0l8.485-8.486a2.667 2.667 0 0 0 0-3.77l-1.178-1.18 2.122-2.122 3.063 3.063a1 1 0 0 0 1.414-1.414L20.56 3.23Zm-3.064 6.838 3.771 3.771c.26.26.26.683 0 .943l-2.12 2.121-2.358-2.357a1 1 0 0 0-1.414 1.414l2.357 2.357-1.414 1.414-2.357-2.357a1 1 0 1 0-1.414 1.414l2.357 2.357-2.122 2.122a.667.667 0 0 1-.943 0l-3.771-3.77a.667.667 0 0 1 0-.944l8.485-8.485c.26-.26.683-.26.943 0Z" clip-rule="evenodd"/>
</svg>
