<svg xmlns="http://www.w3.org/2000/svg" width="24" height="24" fill="none" viewBox="0 0 24 24">
  <path fill="#141414" fill-rule="evenodd" d="M15.419 2.423a.75.75 0 0 0-1.06 1.06l2.298 2.3-1.592 1.591-.883-.884a2 2 0 0 0-2.829 0L4.99 12.854a2 2 0 0 0 0 2.829l.884.884-3.121 3.121a.75.75 0 1 0 1.06 1.061l3.122-3.121.884.883a2 2 0 0 0 2.828 0l6.364-6.364a2 2 0 0 0 0-2.828l-.884-.884 1.592-1.592 2.297 2.297a.75.75 0 0 0 1.06-1.06L15.42 2.423ZM13.121 7.55l2.829 2.829a.5.5 0 0 1 0 .707l-1.591 1.59-1.768-1.768a.75.75 0 0 0-1.06 1.06l1.767 1.769-1.06 1.06-1.768-1.768a.75.75 0 1 0-1.06 1.061l1.767 1.768-1.591 1.592a.5.5 0 0 1-.708 0L6.05 14.622a.5.5 0 0 1 0-.707l6.364-6.364a.5.5 0 0 1 .707 0Z" clip-rule="evenodd"/>
</svg>
