<svg xmlns="http://www.w3.org/2000/svg" width="16" height="16" fill="none" viewBox="0 0 16 16">
  <path fill="#141414" fill-rule="evenodd" d="M5.5 2a.5.5 0 0 0-.5.5v12a.5.5 0 0 1-1 0v-12A1.5 1.5 0 0 1 5.5 1h5A1.5 1.5 0 0 1 12 2.5v12a.5.5 0 0 1-1 0v-12a.5.5 0 0 0-.5-.5h-5Z" clip-rule="evenodd"/>
  <path fill="#141414" fill-rule="evenodd" d="M2 6.5A1.5 1.5 0 0 1 3.5 5h1a.5.5 0 0 1 0 1h-1a.5.5 0 0 0-.5.5v8a.5.5 0 0 1-1 0v-8Zm12 0A1.5 1.5 0 0 0 12.5 5h-1a.5.5 0 0 0 0 1h1a.5.5 0 0 1 .5.5v8a.5.5 0 0 0 1 0v-8Zm-8-1a.5.5 0 0 1 .5-.5h3a.5.5 0 0 1 0 1h-3a.5.5 0 0 1-.5-.5Z" clip-rule="evenodd"/>
  <path fill="#141414" fill-rule="evenodd" d="M8 7.5a.5.5 0 0 1-.5-.5V4a.5.5 0 0 1 1 0v3a.5.5 0 0 1-.5.5Z" clip-rule="evenodd"/>
</svg>
