<svg xmlns="http://www.w3.org/2000/svg" width="24" height="24" fill="none" viewBox="0 0 24 24">
  <path fill="#141414" fill-rule="evenodd" d="M8 3.75a.25.25 0 0 0-.25.25v17a.75.75 0 0 1-1.5 0V9.75H4a.25.25 0 0 0-.25.25v11a.75.75 0 0 1-1.5 0V10c0-.966.784-1.75 1.75-1.75h2.25V4c0-.966.784-1.75 1.75-1.75h8c.966 0 1.75.784 1.75 1.75v4.25H20c.966 0 1.75.784 1.75 1.75v11a.75.75 0 0 1-1.5 0V10a.25.25 0 0 0-.25-.25h-2.25V21a.75.75 0 0 1-1.5 0V4a.25.25 0 0 0-.25-.25H8Zm4 2.5a.75.75 0 0 1 .75.75v1.25H14a.75.75 0 0 1 0 1.5h-1.25V11a.75.75 0 0 1-1.5 0V9.75H10a.75.75 0 0 1 0-1.5h1.25V7a.75.75 0 0 1 .75-.75Z" clip-rule="evenodd"/>
</svg>
