<svg xmlns="http://www.w3.org/2000/svg" width="32" height="32" fill="none" viewBox="0 0 32 32">
  <path fill="#141414" fill-rule="evenodd" d="M10.667 5a.333.333 0 0 0-.334.333V28a1 1 0 1 1-2 0V13h-3a.333.333 0 0 0-.333.333V28a1 1 0 1 1-2 0V13.333A2.333 2.333 0 0 1 5.333 11h3V5.333A2.333 2.333 0 0 1 10.667 3h10.666a2.333 2.333 0 0 1 2.334 2.333V11h3A2.333 2.333 0 0 1 29 13.333V28a1 1 0 1 1-2 0V13.333a.333.333 0 0 0-.333-.333h-3v15a1 1 0 1 1-2 0V5.333A.333.333 0 0 0 21.333 5H10.667ZM16 8.333a1 1 0 0 1 1 1V11h1.667a1 1 0 1 1 0 2H17v1.667a1 1 0 1 1-2 0V13h-1.667a1 1 0 1 1 0-2H15V9.333a1 1 0 0 1 1-1Z" clip-rule="evenodd"/>
</svg>
