<svg xmlns="http://www.w3.org/2000/svg" width="24" height="24" fill="none" viewBox="0 0 24 24">
  <path fill="#141414" fill-rule="evenodd" d="M10.75 4a1.25 1.25 0 1 1 2.5 0 1.25 1.25 0 0 1-2.5 0ZM12 1.25a2.75 2.75 0 1 0 0 5.5 2.75 2.75 0 0 0 0-5.5Zm-6.75 6.5a2 2 0 1 0 0 4h2.5v9a2 2 0 1 0 4 0v-4h.5v4a2 2 0 1 0 4 0v-9h2.5a2 2 0 1 0 0-4H5.25Zm-.5 2a.5.5 0 0 1 .5-.5h13.5a.5.5 0 0 1 0 1H15.5a.75.75 0 0 0-.75.75v9.75a.5.5 0 0 1-1 0V16a.75.75 0 0 0-.75-.75h-2a.75.75 0 0 0-.75.75v4.75a.5.5 0 0 1-1 0V11a.75.75 0 0 0-.75-.75H5.25a.5.5 0 0 1-.5-.5Z" clip-rule="evenodd"/>
</svg>
