<svg xmlns="http://www.w3.org/2000/svg" width="16" height="16" fill="none" viewBox="0 0 16 16">
  <path fill="#141414" fill-rule="evenodd" d="M8 5a2 2 0 1 0 0-4 2 2 0 0 0 0 4Zm1-2a1 1 0 1 1-2 0 1 1 0 0 1 2 0ZM3.74 5.5a1.24 1.24 0 0 0 0 2.481h1.572v5.738a1.281 1.281 0 0 0 2.563 0v-1.775h.25v1.775a1.281 1.281 0 0 0 2.563 0V7.98h1.571a1.24 1.24 0 0 0 0-2.481H3.741ZM3.5 6.74a.24.24 0 0 1 .24-.24h8.52a.24.24 0 0 1 0 .481h-2.072a.5.5 0 0 0-.5.5v6.238a.281.281 0 0 1-.563 0v-2.275a.5.5 0 0 0-.5-.5h-1.25a.5.5 0 0 0-.5.5v2.275a.281.281 0 0 1-.563 0V7.48a.5.5 0 0 0-.5-.5H3.741a.24.24 0 0 1-.241-.24Z" clip-rule="evenodd"/>
</svg>
