<svg xmlns="http://www.w3.org/2000/svg" width="32" height="32" fill="none" viewBox="0 0 32 32">
  <path fill="#141414" fill-rule="evenodd" d="M14.334 5.333a1.667 1.667 0 1 1 3.333 0 1.667 1.667 0 0 1-3.334 0ZM16 1.666A3.667 3.667 0 1 0 16 9a3.667 3.667 0 0 0 0-7.333Zm-9 8.667a2.667 2.667 0 1 0 0 5.333h3.334v12a2.667 2.667 0 1 0 5.333 0v-5.333h.667v5.334a2.667 2.667 0 1 0 5.333 0v-12H25a2.667 2.667 0 0 0 0-5.334H7ZM6.333 13c0-.368.299-.667.667-.667h18a.667.667 0 1 1 0 1.333h-4.333a1 1 0 0 0-1 1v13a.667.667 0 1 1-1.334 0v-6.333a1 1 0 0 0-1-1h-2.666a1 1 0 0 0-1 1v6.334a.667.667 0 1 1-1.333 0v-13a1 1 0 0 0-1-1H7A.667.667 0 0 1 6.333 13Z" clip-rule="evenodd"/>
</svg>
