<svg xmlns="http://www.w3.org/2000/svg" width="32" height="32" fill="none" viewBox="0 0 32 32">
  <path fill="#141414" fill-rule="evenodd" d="M16 5C9.925 5 5 9.925 5 16s4.925 11 11 11c2.263 0 4.363-.682 6.11-1.852a1 1 0 1 1 1.113 1.662A12.944 12.944 0 0 1 16 29C8.82 29 3 23.18 3 16S8.82 3 16 3c6.871 0 12.497 5.33 12.968 12.082.02.08.032.164.032.251V18a4.333 4.333 0 0 1-8.144 2.066 6.333 6.333 0 1 1-.523-8.684v-.715a1 1 0 1 1 2 0V18A2.333 2.333 0 0 0 27 18v-2c0-6.075-4.925-11-11-11Zm4.333 11a4.333 4.333 0 1 0-8.666 0 4.333 4.333 0 0 0 8.666 0Z" clip-rule="evenodd"/>
</svg>
