<svg xmlns="http://www.w3.org/2000/svg" width="24" height="24" fill="none" viewBox="0 0 24 24">
  <path fill="#141414" fill-rule="evenodd" d="M12 3.75a8.25 8.25 0 1 0 4.583 15.111.75.75 0 0 1 .834 1.247A9.708 9.708 0 0 1 12 21.75c-5.385 0-9.75-4.365-9.75-9.75S6.615 2.25 12 2.25c5.153 0 9.373 3.998 9.726 9.061.016.06.024.124.024.189v2a3.25 3.25 0 0 1-6.108 1.55 4.75 4.75 0 1 1-.392-6.513V8a.75.75 0 0 1 1.5 0v5.5a1.75 1.75 0 1 0 3.5 0V12A8.25 8.25 0 0 0 12 3.75ZM15.25 12a3.25 3.25 0 1 0-6.5 0 3.25 3.25 0 0 0 6.5 0Z" clip-rule="evenodd"/>
</svg>
