<svg xmlns="http://www.w3.org/2000/svg" width="24" height="24" fill="none" viewBox="0 0 24 24">
  <path fill="#141414" fill-rule="evenodd" d="M15 3.5H9a.5.5 0 0 0-.5.5v2h7V4a.5.5 0 0 0-.5-.5ZM9 2a2 2 0 0 0-2 2v3.5h10V4a2 2 0 0 0-2-2H9Zm6.5 12.75h-7V20a.5.5 0 0 0 .5.5h6a.5.5 0 0 0 .5-.5v-5.25ZM7 13.25V20a2 2 0 0 0 2 2h6a2 2 0 0 0 2-2v-6.75H7Z" clip-rule="evenodd"/>
  <path fill="#141414" fill-rule="evenodd" d="M1.75 8.75A2.75 2.75 0 0 1 4.5 6h15a2.75 2.75 0 0 1 2.75 2.75v6a2.75 2.75 0 0 1-2.75 2.75h-2.75a.75.75 0 0 1 0-1.5h2.75c.69 0 1.25-.56 1.25-1.25v-6c0-.69-.56-1.25-1.25-1.25h-15c-.69 0-1.25.56-1.25 1.25v6c0 .69.56 1.25 1.25 1.25h2.75a.75.75 0 0 1 0 1.5H4.5a2.75 2.75 0 0 1-2.75-2.75v-6Z" clip-rule="evenodd"/>
  <path fill="#141414" fill-rule="evenodd" d="M5.25 14a.75.75 0 0 1 .75-.75h12a.75.75 0 0 1 0 1.5H6a.75.75 0 0 1-.75-.75Zm0-4A.75.75 0 0 1 6 9.25h2a.75.75 0 0 1 0 1.5H6a.75.75 0 0 1-.75-.75Z" clip-rule="evenodd"/>
</svg>
