<svg xmlns="http://www.w3.org/2000/svg" width="32" height="32" fill="none" viewBox="0 0 32 32">
  <path fill="#141414" fill-rule="evenodd" d="M20 4.667h-8a.667.667 0 0 0-.666.666V8h9.333V5.333A.667.667 0 0 0 20 4.666Zm-8-2a2.667 2.667 0 0 0-2.666 2.666V10h13.333V5.333A2.667 2.667 0 0 0 20 2.666h-8Zm8.667 16.999h-9.334v7c0 .369.299.667.667.667h8a.667.667 0 0 0 .667-.666v-7Zm-11.334-2v9A2.667 2.667 0 0 0 12 29.334h8a2.667 2.667 0 0 0 2.667-2.666v-9H9.333Z" clip-rule="evenodd"/>
  <path fill="#141414" fill-rule="evenodd" d="M2.333 11.666A3.667 3.667 0 0 1 6 8h20a3.667 3.667 0 0 1 3.667 3.666v8A3.667 3.667 0 0 1 26 23.334h-3.666a1 1 0 1 1 0-2H26c.92 0 1.667-.746 1.667-1.666v-8C27.667 10.745 26.92 10 26 10H6c-.92 0-1.667.746-1.667 1.666v8c0 .921.747 1.667 1.667 1.667h3.667a1 1 0 0 1 0 2H6a3.667 3.667 0 0 1-3.667-3.666v-8Z" clip-rule="evenodd"/>
  <path fill="#141414" fill-rule="evenodd" d="M7 18.666a1 1 0 0 1 1-1h16a1 1 0 0 1 0 2H8a1 1 0 0 1-1-1Zm0-5.333a1 1 0 0 1 1-1h2.667a1 1 0 1 1 0 2H8a1 1 0 0 1-1-1Z" clip-rule="evenodd"/>
</svg>
