<svg xmlns="http://www.w3.org/2000/svg" width="16" height="16" fill="none" viewBox="0 0 16 16">
  <path fill="#141414" fill-rule="evenodd" d="M2.5 5a.5.5 0 0 0-.5.5v6a.5.5 0 0 0 .5.5H4v1H2.5A1.5 1.5 0 0 1 1 11.5v-6A1.5 1.5 0 0 1 2.5 4h11A1.5 1.5 0 0 1 15 5.5v6a1.5 1.5 0 0 1-1.5 1.5H12v-1h1.5a.5.5 0 0 0 .5-.5v-6a.5.5 0 0 0-.5-.5h-11Z" clip-rule="evenodd"/>
  <path fill="#141414" fill-rule="evenodd" d="M5 10a.5.5 0 0 0-.5.5v3a.5.5 0 0 0 .5.5h6a.5.5 0 0 0 .5-.5v-3a.5.5 0 0 0-.5-.5H5Zm-1.5.5A1.5 1.5 0 0 1 5 9h6a1.5 1.5 0 0 1 1.5 1.5v3A1.5 1.5 0 0 1 11 15H5a1.5 1.5 0 0 1-1.5-1.5v-3ZM5 2a.5.5 0 0 0-.5.5v2h-1v-2A1.5 1.5 0 0 1 5 1h6a1.5 1.5 0 0 1 1.5 1.5v2h-1v-2A.5.5 0 0 0 11 2H5Z" clip-rule="evenodd"/>
  <path fill="#141414" d="M6 11.5a.5.5 0 0 1 .5-.5h3a.5.5 0 0 1 0 1h-3a.5.5 0 0 1-.5-.5Z"/>
</svg>
