<svg width="24" height="24" viewBox="0 0 24 24" fill="none" xmlns="http://www.w3.org/2000/svg">
<path fill-rule="evenodd" clip-rule="evenodd" d="M15.2713 16.75L15.2737 16.7453C15.3222 16.6521 15.371 16.5583 15.4299 16.4463L15.6407 16.0454L21.9127 17.4844L21.9685 17.8861C21.9902 18.0421 22 18.1975 22 18.3529C22 20.3649 20.3649 22 18.3529 22C9.3351 22 2 14.6637 2 5.64706C2 3.63513 3.63513 2 5.64706 2C5.80089 2 5.95276 2.00991 6.10603 2.02941L6.51323 2.08124L7.95514 8.36126L7.55148 8.57125C7.39789 8.65115 7.23453 8.73659 7.07458 8.82025L7.03172 8.84266C6.20082 9.27722 5.85485 10.2857 6.244 11.1388C7.57787 14.0629 9.968 16.448 12.864 17.7602C13.7158 18.1462 14.7209 17.8006 15.1552 16.9724C15.1959 16.8947 15.234 16.8216 15.2713 16.75Z" fill="#141414"/>
</svg>
