<svg width="16" height="16" viewBox="0 0 16 16" fill="none" xmlns="http://www.w3.org/2000/svg">
<path fill-rule="evenodd" clip-rule="evenodd" d="M10.181 11.1668L10.1826 11.1637C10.215 11.1016 10.2475 11.039 10.2868 10.9643L10.4273 10.6971L14.6086 11.6564L14.6458 11.9243C14.6603 12.0282 14.6668 12.1318 14.6668 12.2355C14.6668 13.5767 13.5767 14.6668 12.2355 14.6668C6.22356 14.6668 1.3335 9.77594 1.3335 3.76487C1.3335 2.42358 2.42358 1.3335 3.76487 1.3335C3.86742 1.3335 3.96867 1.3401 4.07085 1.3531L4.34231 1.38765L5.30359 5.57433L5.03448 5.71433C4.93209 5.7676 4.82319 5.82456 4.71655 5.88033L4.68797 5.89527C4.13404 6.18498 3.90339 6.8573 4.16283 7.42604C5.05207 9.37543 6.6455 10.9655 8.57614 11.8403C9.14404 12.0976 9.81407 11.8673 10.1036 11.3151C10.1308 11.2633 10.1561 11.2146 10.181 11.1668Z" fill="#141414"/>
</svg>
