<svg width="32" height="32" viewBox="0 0 32 32" fill="none" xmlns="http://www.w3.org/2000/svg">
<path fill-rule="evenodd" clip-rule="evenodd" d="M20.3615 22.3331L20.3648 22.3269C20.4294 22.2026 20.4945 22.0776 20.5731 21.9282L20.8541 21.3937L29.2168 23.3124L29.2912 23.848C29.3201 24.056 29.3332 24.2631 29.3332 24.4704C29.3332 27.153 27.153 29.3332 24.4704 29.3332C12.4466 29.3332 2.6665 19.5514 2.6665 7.52925C2.6665 4.84667 4.84667 2.6665 7.52925 2.6665C7.73436 2.6665 7.93685 2.67971 8.14121 2.70572L8.68414 2.77482L10.6067 11.1482L10.0685 11.4282C9.86369 11.5347 9.64588 11.6486 9.43261 11.7602L9.37546 11.7901C8.26759 12.3695 7.8063 13.7141 8.32517 14.8516C10.1037 18.7504 13.2905 21.9305 17.1518 23.6801C18.2876 24.1948 19.6277 23.734 20.2067 22.6297C20.2611 22.5261 20.3118 22.4286 20.3615 22.3331Z" fill="#141414"/>
</svg>
