<svg xmlns="http://www.w3.org/2000/svg" width="24" height="24" fill="none" viewBox="0 0 24 24">
  <path fill="#141414" fill-rule="evenodd" d="M13.546 4.318c-.657-1.241-2.436-1.241-3.093 0L3.114 18.181a1.75 1.75 0 0 0 1.547 2.569h14.678a1.75 1.75 0 0 0 1.546-2.569L13.546 4.318Zm-1.767.702a.25.25 0 0 1 .442 0l7.339 13.863a.25.25 0 0 1-.221.367H4.66a.25.25 0 0 1-.221-.367l7.34-13.863ZM12 9.25a.75.75 0 0 1 .75.75v4a.75.75 0 0 1-1.5 0v-4a.75.75 0 0 1 .75-.75ZM13 17a1 1 0 1 1-2 0 1 1 0 0 1 2 0Z" clip-rule="evenodd"/>
</svg>
