<svg xmlns="http://www.w3.org/2000/svg" width="32" height="32" fill="none" viewBox="0 0 32 32">
  <path fill="#141414" fill-rule="evenodd" d="M18.062 5.758c-.877-1.656-3.248-1.656-4.125 0L4.152 24.24c-.823 1.554.304 3.425 2.062 3.425h19.57c1.76 0 2.886-1.87 2.063-3.425L18.062 5.758Zm-2.357.935a.333.333 0 0 1 .589 0l9.785 18.484a.333.333 0 0 1-.294.49H6.214a.333.333 0 0 1-.295-.49l9.786-18.484Zm.295 5.64a1 1 0 0 1 1 1v5.333a1 1 0 1 1-2 0v-5.333a1 1 0 0 1 1-1Zm1.333 10.333a1.333 1.333 0 1 1-2.666 0 1.333 1.333 0 0 1 2.666 0Z" clip-rule="evenodd"/>
</svg>
