<svg xmlns="http://www.w3.org/2000/svg" width="16" height="16" fill="none" viewBox="0 0 16 16">
  <path fill="#141414" fill-rule="evenodd" d="M15 8A7 7 0 1 1 1 8a7 7 0 0 1 14 0Zm-6.923 6H8a6 6 0 0 1-5.616-8.116l3.823 3.823a1 1 0 0 1 .293.707v.836c0 .414.336.75.75.75a.75.75 0 0 1 .75.75v.862c0 .14.027.27.077.387Zm4.819-2.53a1 1 0 0 0-.19-.263l-.413-.414a1 1 0 0 0-.707-.293H11.5a1 1 0 0 1-1-1V9a1 1 0 0 0-1-1H6.75a.75.75 0 0 1 0-1.5H7a1 1 0 0 0 1-1 1 1 0 0 1 1-1h.5a1 1 0 0 0 1-1v-.727a.98.98 0 0 0-.03-.243 6.001 6.001 0 0 1 2.426 8.94Z" clip-rule="evenodd"/>
</svg>
