<svg xmlns="http://www.w3.org/2000/svg" width="24" height="24" fill="none" viewBox="0 0 24 24">
  <path fill="#141414" fill-rule="evenodd" d="M12 20.5v-1.786a1 1 0 0 0-1-1h-.143a1 1 0 0 1-1-1v-1.442a1 1 0 0 0-.293-.708L4.032 9.033A8.5 8.5 0 0 0 12 20.5Zm3.57-16.216A8.501 8.501 0 0 1 20.5 12a8.462 8.462 0 0 1-1.525 4.86 1.008 1.008 0 0 0-.125-.153l-.843-.843a1 1 0 0 0-.707-.292h-.729a1 1 0 0 1-1-1V13a1 1 0 0 0-1-1h-4.428a1 1 0 0 1-1-1v-.143a1 1 0 0 1 1-1H11a1 1 0 0 0 1-1V8a1 1 0 0 1 1-1h1.571a1 1 0 0 0 1-1V4.284ZM22 12c0 5.523-4.477 10-10 10S2 17.523 2 12 6.477 2 12 2s10 4.477 10 10Z" clip-rule="evenodd"/>
</svg>
