<svg xmlns="http://www.w3.org/2000/svg" width="32" height="32" fill="none" viewBox="0 0 32 32">
  <path fill="#141414" fill-rule="evenodd" d="M16 27.334C9.74 27.334 4.665 22.26 4.665 16c0-1.392.25-2.725.71-3.957l7.376 7.377c.25.25.39.589.39.942v1.924c0 .737.597 1.334 1.334 1.334h.19c.737 0 1.333.596 1.333 1.333v2.38Zm9.3-4.854a1.328 1.328 0 0 0-.167-.203l-1.124-1.124c-.25-.25-.59-.39-.943-.39h-.971a1.333 1.333 0 0 1-1.334-1.334v-2.095c0-.736-.596-1.334-1.333-1.334h-5.905a1.333 1.333 0 0 1-1.333-1.333v-.19c0-.737.597-1.334 1.333-1.334h1.143c.737 0 1.333-.597 1.333-1.333v-1.143c0-.736.597-1.333 1.334-1.333h2.095c.736 0 1.333-.597 1.333-1.333V5.713A11.335 11.335 0 0 1 27.333 16c0 2.41-.752 4.643-2.034 6.48ZM29.332 16c0 7.364-5.97 13.334-13.334 13.334-7.363 0-13.333-5.97-13.333-13.334 0-7.363 5.97-13.333 13.333-13.333 7.364 0 13.334 5.97 13.334 13.333Z" clip-rule="evenodd"/>
</svg>
