<svg xmlns="http://www.w3.org/2000/svg" width="32" height="32" fill="none" viewBox="0 0 32 32">
  <path fill="#141414" d="M21.922 15.937c2.454-.956 4.09-3.203 4.09-6.281 0-4.202-2.904-6.99-7.77-6.99H8c-.737 0-1.333.597-1.333 1.334v24c0 .736.596 1.333 1.333 1.333h10.323c5.072 0 8.343-2.413 8.343-7.155 0-3.037-1.595-5.45-4.744-6.24Zm-4.949-8.694c2.209 0 3.681 1.33 3.681 3.453 0 2.038-1.472 3.37-3.803 3.37h-3.657a1.333 1.333 0 0 1-1.333-1.334V8.576c0-.736.597-1.333 1.333-1.333h3.78Zm.655 17.514h-4.434a1.333 1.333 0 0 1-1.333-1.333V19.35c0-.736.597-1.334 1.333-1.334h4.393c2.29 0 3.844 1.165 3.844 3.454 0 1.955-1.309 3.286-3.803 3.286Z"/>
</svg>
