<svg xmlns="http://www.w3.org/2000/svg" width="24" height="24" fill="none" viewBox="0 0 24 24">
  <path fill="#141414" d="M16.442 11.953c1.84-.717 3.067-2.402 3.067-4.711C19.51 4.09 17.331 2 13.681 2H6a1 1 0 0 0-1 1v18a1 1 0 0 0 1 1h7.742C17.546 22 20 20.19 20 16.633c0-2.277-1.196-4.087-3.558-4.68Zm-3.712-6.52c1.656 0 2.76.998 2.76 2.589 0 1.529-1.104 2.527-2.852 2.527H9.896a1 1 0 0 1-1-1V6.432a1 1 0 0 1 1-1h2.834Zm.49 13.135H9.897a1 1 0 0 1-1-1v-3.055a1 1 0 0 1 1-1h3.294c1.718 0 2.884.874 2.884 2.59 0 1.466-.982 2.465-2.853 2.465Z"/>
</svg>
