<svg xmlns="http://www.w3.org/2000/svg" width="16" height="16" fill="none" viewBox="0 0 16 16">
  <path fill="#141414" d="M10.961 7.97c1.227-.479 2.045-1.602 2.045-3.141 0-2.101-1.452-3.495-3.885-3.495H4a.667.667 0 0 0-.668.667v12c0 .368.299.666.667.666h5.162c2.535 0 4.171-1.206 4.171-3.577 0-1.519-.797-2.725-2.372-3.12ZM8.487 3.621c1.104 0 1.84.666 1.84 1.727 0 1.019-.736 1.684-1.901 1.684H6.597a.667.667 0 0 1-.666-.666V4.289c0-.368.298-.667.666-.667h1.89Zm.327 8.757H6.597a.667.667 0 0 1-.666-.666V9.676c0-.368.298-.667.666-.667h2.197c1.145 0 1.922.583 1.922 1.727 0 .978-.654 1.643-1.902 1.643Z"/>
</svg>
