<svg xmlns="http://www.w3.org/2000/svg" width="24" height="24" fill="none" viewBox="0 0 24 24">
  <path fill="#141414" fill-rule="evenodd" d="M15.575 3.951a.25.25 0 0 1 .245-.201H18a.75.75 0 1 0 0-1.5h-2.18a1.75 1.75 0 0 0-1.716 1.407l-.136.681A21.686 21.686 0 0 0 12 4.25c-2.275 0-4.369.345-5.92.926-.773.29-1.451.654-1.949 1.095-.497.44-.881 1.023-.881 1.729v10c0 .706.384 1.288.881 1.729.498.441 1.176.805 1.949 1.095 1.551.581 3.645.926 5.92.926s4.369-.345 5.92-.926c.773-.29 1.451-.654 1.949-1.095.497-.44.881-1.023.881-1.729V8c0-.706-.384-1.288-.881-1.729-.498-.441-1.176-.805-1.949-1.095a13.68 13.68 0 0 0-2.462-.643l.117-.582Zm-1.903 1.867A20.282 20.282 0 0 0 12 5.75c-2.143 0-4.05.327-5.394.83-.674.254-1.168.537-1.48.813-.312.278-.376.484-.376.607s.064.33.376.607c.312.276.806.56 1.48.812 1.344.504 3.251.831 5.394.831.267 0 .53-.005.788-.015l.884-4.417Zm.67 4.296.822-4.11c.845.143 1.6.34 2.23.577.674.253 1.168.536 1.48.812.312.278.376.484.376.607s-.064.33-.376.607c-.312.276-.806.56-1.48.812-.83.31-1.872.554-3.052.695Zm-1.856 1.63a22.38 22.38 0 0 1-.486.006c-2.275 0-4.369-.345-5.92-.926a7.568 7.568 0 0 1-1.33-.639V13c0 .123.064.33.376.607.312.276.806.56 1.48.812 1.3.487 3.124.809 5.18.83l.7-3.504Zm.837 3.464.71-3.552c1.477-.14 2.812-.43 3.887-.832a7.568 7.568 0 0 0 1.33-.639V13c0 .123-.064.33-.376.607-.312.276-.806.56-1.48.812-1.06.397-2.47.685-4.07.789Zm-1.837 1.536-.221 1.109a.75.75 0 0 0 1.47.294l.285-1.42c1.877-.087 3.584-.41 4.9-.903a7.568 7.568 0 0 0 1.33-.639V18c0 .123-.064.33-.376.607-.312.276-.806.56-1.48.812-1.344.504-3.251.831-5.394.831-2.143 0-4.05-.327-5.394-.83-.674-.254-1.168-.537-1.48-.814-.312-.277-.376-.483-.376-.606v-2.815a7.6 7.6 0 0 0 1.33.639c1.434.537 3.33.873 5.406.92Z" clip-rule="evenodd"/>
</svg>
