<svg xmlns="http://www.w3.org/2000/svg" width="12" height="12" fill="none" viewBox="0 0 12 12">
  <path fill="#141414" fill-rule="evenodd" d="M7.964 2.294A.5.5 0 0 1 8.42 2h.78a.5.5 0 0 0 0-1h-.78a1.5 1.5 0 0 0-1.457 1.144A10.34 10.34 0 0 0 6 2.1c-1.152 0-2.218.185-3.014.504-.397.159-.752.36-1.015.61-.265.25-.471.583-.471.986V9c0 .403.206.736.47.986s.62.45 1.016.61c.796.318 1.862.504 3.014.504 1.152 0 2.218-.186 3.014-.504.397-.16.752-.36 1.015-.61.265-.25.47-.583.471-.986V4.2c0-.403-.206-.736-.47-.986s-.62-.451-1.016-.61a6.39 6.39 0 0 0-1.05-.31Zm-1.2.836A9.398 9.398 0 0 0 6 3.1c-1.057 0-1.991.172-2.643.432-.327.131-.558.275-.7.408-.14.133-.157.22-.157.26 0 .039.018.127.158.26.141.133.372.276.7.407.65.26 1.585.433 2.642.433.112 0 .222-.002.331-.006l.433-2.164Zm.606 2.068.386-1.926c.332.07.631.158.887.26.327.131.558.275.7.408.14.133.157.22.157.26 0 .039-.018.127-.158.26-.141.133-.372.276-.7.407a5.86 5.86 0 0 1-1.272.33Zm-1.24 1.1L6 6.3c-1.152 0-2.218-.186-3.014-.505a4.168 4.168 0 0 1-.486-.23V6.8c0 .013.005.085.146.21.14.124.372.259.701.382.62.233 1.493.39 2.484.406l.3-1.5Zm.727 1.466.306-1.53c.698-.08 1.332-.231 1.851-.439.171-.068.334-.145.486-.23V6.8c0 .013-.005.085-.146.21-.14.124-.372.259-.701.382-.472.177-1.09.31-1.796.372Zm-1.226 1.03-.121.608a.5.5 0 1 0 .98.196l.164-.817c.894-.053 1.71-.212 2.35-.452.175-.066.341-.14.496-.221V9c0 .04-.018.127-.158.26-.141.133-.372.276-.7.407-.65.26-1.585.433-2.642.433s-1.991-.172-2.643-.433c-.327-.13-.558-.274-.7-.407-.14-.133-.157-.22-.157-.26v-.892c.155.082.321.155.496.22.708.266 1.63.433 2.635.466Z" clip-rule="evenodd"/>
</svg>
