<svg xmlns="http://www.w3.org/2000/svg" width="16" height="16" fill="none" viewBox="0 0 16 16">
  <path fill="#141414" fill-rule="evenodd" d="M10.33 3.402A.5.5 0 0 1 10.82 3H12a.5.5 0 0 0 0-1h-1.18a1.5 1.5 0 0 0-1.471 1.206l-.071.357A12.75 12.75 0 0 0 8 3.5c-1.428 0-2.744.23-3.721.622-.487.194-.915.439-1.23.736C2.734 5.156 2.5 5.542 2.5 6v6c0 .458.234.844.55 1.142.314.297.742.542 1.229.737.977.39 2.293.621 3.721.621s2.744-.23 3.721-.621c.488-.195.915-.44 1.23-.737.315-.298.549-.684.549-1.142V6c0-.458-.234-.844-.55-1.142-.314-.297-.741-.542-1.229-.736a8.062 8.062 0 0 0-1.453-.415l.062-.305ZM9.08 4.549A11.805 11.805 0 0 0 8 4.5c-1.333 0-2.518.217-3.35.55-.417.167-.722.353-.914.535-.19.18-.236.32-.236.415 0 .094.046.235.236.415.192.182.497.368.914.535.832.333 2.017.55 3.35.55.167 0 .33-.003.492-.01l.588-2.941ZM9.53 7.4l.542-2.712c.482.093.914.216 1.278.362.417.167.722.353.914.535.19.18.236.32.236.415 0 .094-.046.235-.236.415-.192.182-.497.368-.914.535a7.767 7.767 0 0 1-1.82.45ZM8.29 8.497c-.096.002-.193.003-.29.003-1.428 0-2.744-.23-3.721-.622a4.756 4.756 0 0 1-.779-.39V9.25c0 .065.033.186.225.356.19.169.495.344.915.502.807.302 1.944.503 3.225.516l.426-2.127Zm.601 2.097.433-2.162c.908-.095 1.731-.287 2.397-.554.283-.113.547-.243.779-.39V9.25c0 .065-.033.186-.225.356-.19.169-.495.344-.915.502-.644.241-1.499.418-2.469.486Zm-1.225 1.027-.156.78a.5.5 0 0 0 .98.197l.198-.99c1.157-.058 2.208-.258 3.023-.564.287-.108.554-.232.789-.373V12c0 .094-.046.235-.236.415-.192.182-.497.368-.914.535-.832.333-2.017.55-3.35.55-1.333 0-2.518-.217-3.35-.55-.417-.167-.722-.353-.914-.535-.19-.18-.236-.32-.236-.415v-1.329c.235.141.502.265.789.373.897.336 2.082.546 3.377.577Z" clip-rule="evenodd"/>
</svg>
