<svg xmlns="http://www.w3.org/2000/svg" width="32" height="32" fill="none" viewBox="0 0 32 32">
  <path fill="#141414" fill-rule="evenodd" d="M20.767 5.268A.333.333 0 0 1 21.094 5H24a1 1 0 1 0 0-2h-2.907c-1.112 0-2.07.785-2.288 1.876l-.182.908A28.913 28.913 0 0 0 16 5.667c-3.034 0-5.825.46-7.894 1.235-1.03.386-1.934.87-2.598 1.46-.663.587-1.175 1.364-1.175 2.305V24c0 .941.512 1.718 1.175 2.305.664.589 1.567 1.073 2.598 1.46C10.175 28.541 12.966 29 16 29c3.033 0 5.824-.46 7.893-1.235 1.031-.387 1.935-.871 2.599-1.46.662-.587 1.174-1.364 1.174-2.305V10.667c0-.941-.512-1.718-1.175-2.306-.663-.588-1.567-1.073-2.598-1.46-.955-.357-2.065-.648-3.282-.858l.155-.775Zm-2.537 2.49A26.7 26.7 0 0 0 16 7.667c-2.857 0-5.399.436-7.19 1.108-.9.337-1.559.714-1.974 1.083-.417.37-.502.645-.502.809 0 .163.085.439.502.808.415.369 1.074.746 1.973 1.084 1.792.672 4.334 1.108 7.192 1.108.355 0 .706-.007 1.05-.02l1.179-5.89Zm.893 5.728 1.097-5.48c1.126.19 2.131.453 2.972.769.9.337 1.558.714 1.974 1.083.416.37.501.645.501.809 0 .163-.085.439-.501.808-.416.369-1.075.746-1.974 1.084-1.105.414-2.495.739-4.069.927ZM16.65 15.66c-.215.004-.43.007-.648.007-3.034 0-5.825-.46-7.894-1.236a10.083 10.083 0 0 1-1.773-.851v3.753c0 .164.085.44.502.81.415.368 1.074.745 1.973 1.082 1.732.65 4.165 1.079 6.906 1.107l.934-4.672Zm1.116 4.617.947-4.736c1.968-.186 3.749-.572 5.182-1.11a10.08 10.08 0 0 0 1.773-.851v3.753c0 .164-.085.44-.501.81-.416.368-1.075.745-1.974 1.082-1.413.53-3.293.914-5.427 1.052Zm-2.45 2.049-.295 1.478a1 1 0 0 0 1.961.392l.38-1.894c2.502-.115 4.778-.546 6.533-1.204a10.073 10.073 0 0 0 1.773-.851V24c0 .164-.085.44-.501.809-.416.368-1.075.746-1.974 1.083C21.4 26.564 18.858 27 16.001 27c-2.858 0-5.4-.436-7.192-1.108-.9-.337-1.558-.715-1.973-1.083-.417-.37-.502-.645-.502-.809v-3.753c.521.324 1.122.607 1.773.851 1.912.717 4.442 1.164 7.209 1.228Z" clip-rule="evenodd"/>
</svg>
