<svg xmlns="http://www.w3.org/2000/svg" width="24" height="24" fill="none" viewBox="0 0 24 24">
  <g clip-path="url(#a)">
    <path fill="#141414" fill-rule="evenodd" d="M13.09 6.52a4.75 4.75 0 1 1 6.718 6.718l-5.657 5.657a6.75 6.75 0 0 1-9.546-9.546l3.536-3.536a.75.75 0 1 1 1.06 1.06L5.667 10.41a5.25 5.25 0 1 0 7.425 7.425l5.657-5.657a3.25 3.25 0 1 0-4.597-4.596l-5.303 5.303a1.25 1.25 0 1 0 1.768 1.768l5.657-5.657a.75.75 0 0 1 1.06 1.06l-5.656 5.658a2.75 2.75 0 0 1-3.89-3.89l5.304-5.303Z" clip-rule="evenodd"/>
  </g>
  <defs>
    <clipPath id="a">
      <path fill="#fff" d="M0 0h24v24H0z"/>
    </clipPath>
  </defs>
</svg>
