<svg xmlns="http://www.w3.org/2000/svg" width="32" height="32" fill="none" viewBox="0 0 32 32">
  <path fill="#141414" fill-rule="evenodd" d="M16 5a1 1 0 0 1 1 1v20a1 1 0 1 1-2 0V6a1 1 0 0 1 1-1Zm7.293 6.293a1 1 0 0 1 1.414 0l4 4a1 1 0 0 1 0 1.414l-4 4a1 1 0 0 1-1.414-1.414L25.586 17h-4.92a1 1 0 1 1 0-2h4.92l-2.293-2.293a1 1 0 0 1 0-1.414Zm-16.667 0a1 1 0 0 1 1.414 0l4 4a1 1 0 0 1 0 1.414l-4 4a1 1 0 0 1-1.414-1.414L8.92 17H4a1 1 0 1 1 0-2h4.92l-2.294-2.293a1 1 0 0 1 0-1.414Z" clip-rule="evenodd"/>
</svg>
