<svg xmlns="http://www.w3.org/2000/svg" width="24" height="24" fill="none" viewBox="0 0 24 24">
  <path fill="#141414" fill-rule="evenodd" d="M12 3.75a.75.75 0 0 1 .75.75v15a.75.75 0 0 1-1.5 0v-15a.75.75 0 0 1 .75-.75Zm5.47 4.72a.75.75 0 0 1 1.06 0l3 3a.75.75 0 0 1 0 1.06l-3 3a.75.75 0 1 1-1.06-1.06l1.72-1.72H15.5a.75.75 0 0 1 0-1.5h3.69l-1.72-1.72a.75.75 0 0 1 0-1.06Zm-12.5 0a.75.75 0 0 1 1.06 0l3 3a.75.75 0 0 1 0 1.06l-3 3a.75.75 0 0 1-1.06-1.06l1.72-1.72H3a.75.75 0 0 1 0-1.5h3.69L4.97 9.53a.75.75 0 0 1 0-1.06Z" clip-rule="evenodd"/>
</svg>
