<svg xmlns="http://www.w3.org/2000/svg" width="16" height="16" fill="none" viewBox="0 0 16 16">
  <path fill="#141414" fill-rule="evenodd" d="M8 2.5a.5.5 0 0 1 .5.5v10a.5.5 0 0 1-1 0V3a.5.5 0 0 1 .5-.5ZM3.646 5.646a.5.5 0 0 1 .708 0l2 2a.5.5 0 0 1 0 .708l-2 2a.5.5 0 0 1-.708-.708L5.293 8 3.646 6.354a.5.5 0 0 1 0-.708Z" clip-rule="evenodd"/>
  <path fill="#141414" fill-rule="evenodd" d="M1 8a.5.5 0 0 1 .5-.5H6v1H1.5A.5.5 0 0 1 1 8Zm11.146-2.354a.5.5 0 0 1 .708 0l2 2a.5.5 0 0 1 0 .708l-2 2a.5.5 0 0 1-.708-.708L13.793 8l-1.647-1.646a.5.5 0 0 1 0-.708Z" clip-rule="evenodd"/>
  <path fill="#141414" fill-rule="evenodd" d="M9.5 8a.5.5 0 0 1 .5-.5h4.5v1H10a.5.5 0 0 1-.5-.5Z" clip-rule="evenodd"/>
</svg>
