<svg width="32" height="32" viewBox="0 0 32 32" fill="none" xmlns="http://www.w3.org/2000/svg">
<path d="M7 6C7 4.89543 7.89543 4 9 4H14C14.5523 4 15 3.55228 15 3C15 2.44772 14.5523 2 14 2H9C6.79086 2 5 3.79086 5 6V26C5 28.2091 6.79086 30 9 30H23C25.2091 30 27 28.2091 27 26V15C27 14.4477 26.5523 14 26 14C25.4477 14 25 14.4477 25 15V26C25 27.1046 24.1046 28 23 28H9C7.89543 28 7 27.1046 7 26V6Z" fill="#141414"/>
<path d="M23 3C23 2.44772 22.5523 2 22 2C21.4477 2 21 2.44772 21 3V6L18 6C17.4477 6 17 6.44771 17 7C17 7.55228 17.4477 8 18 8L21 8V11C21 11.5523 21.4477 12 22 12C22.5523 12 23 11.5523 23 11V8L26 8C26.5523 8 27 7.55228 27 7C27 6.44772 26.5523 6 26 6L23 6V3Z" fill="#141414"/>
<path d="M11 21C10.4477 21 10 21.4477 10 22C10 22.5523 10.4477 23 11 23H21C21.5523 23 22 22.5523 22 22C22 21.4477 21.5523 21 21 21H11Z" fill="#141414"/>
<path d="M10 16C10 15.4477 10.4477 15 11 15H21C21.5523 15 22 15.4477 22 16C22 16.5523 21.5523 17 21 17H11C10.4477 17 10 16.5523 10 16Z" fill="#141414"/>
<path d="M11 9C10.4477 9 10 9.44772 10 10C10 10.5523 10.4477 11 11 11H14C14.5523 11 15 10.5523 15 10C15 9.44772 14.5523 9 14 9H11Z" fill="#141414"/>
</svg>
