<svg width="16" height="16" viewBox="0 0 16 16" fill="none" xmlns="http://www.w3.org/2000/svg">
<path d="M3.5 3C3.5 2.44772 3.94772 2 4.5 2H7C7.27614 2 7.5 1.77614 7.5 1.5C7.5 1.22386 7.27614 1 7 1H4.5C3.39543 1 2.5 1.89543 2.5 3V13C2.5 14.1046 3.39543 15 4.5 15H11.5C12.6046 15 13.5 14.1046 13.5 13V7.5C13.5 7.22386 13.2761 7 13 7C12.7239 7 12.5 7.22386 12.5 7.5V13C12.5 13.5523 12.0523 14 11.5 14H4.5C3.94772 14 3.5 13.5523 3.5 13V3Z" fill="#141414"/>
<path d="M11.5 1.5C11.5 1.22386 11.2761 1 11 1C10.7239 1 10.5 1.22386 10.5 1.5V3L9 3C8.72386 3 8.5 3.22386 8.5 3.5C8.5 3.77614 8.72386 4 9 4L10.5 4V5.5C10.5 5.77614 10.7239 6 11 6C11.2761 6 11.5 5.77614 11.5 5.5V4L13 4C13.2761 4 13.5 3.77614 13.5 3.5C13.5 3.22386 13.2761 3 13 3L11.5 3V1.5Z" fill="#141414"/>
<path d="M5.5 10.5C5.22386 10.5 5 10.7239 5 11C5 11.2761 5.22386 11.5 5.5 11.5H10.5C10.7761 11.5 11 11.2761 11 11C11 10.7239 10.7761 10.5 10.5 10.5H5.5Z" fill="#141414"/>
<path d="M5 8C5 7.72386 5.22386 7.5 5.5 7.5H10.5C10.7761 7.5 11 7.72386 11 8C11 8.27614 10.7761 8.5 10.5 8.5H5.5C5.22386 8.5 5 8.27614 5 8Z" fill="#141414"/>
<path d="M5.5 4.5C5.22386 4.5 5 4.72386 5 5C5 5.27614 5.22386 5.5 5.5 5.5H7C7.27614 5.5 7.5 5.27614 7.5 5C7.5 4.72386 7.27614 4.5 7 4.5H5.5Z" fill="#141414"/>
</svg>
