<svg width="24" height="24" viewBox="0 0 24 24" fill="none" xmlns="http://www.w3.org/2000/svg">
<path d="M5.25 4.5C5.25 3.67157 5.92157 3 6.75 3H10.5C10.9142 3 11.25 2.66421 11.25 2.25C11.25 1.83579 10.9142 1.5 10.5 1.5H6.75C5.09315 1.5 3.75 2.84315 3.75 4.5V19.5C3.75 21.1569 5.09315 22.5 6.75 22.5H17.25C18.9069 22.5 20.25 21.1569 20.25 19.5V11.25C20.25 10.8358 19.9142 10.5 19.5 10.5C19.0858 10.5 18.75 10.8358 18.75 11.25V19.5C18.75 20.3284 18.0784 21 17.25 21H6.75C5.92157 21 5.25 20.3284 5.25 19.5V4.5Z" fill="#141414"/>
<path d="M17.25 2.25C17.25 1.83579 16.9142 1.5 16.5 1.5C16.0858 1.5 15.75 1.83579 15.75 2.25V4.5L13.5 4.5C13.0858 4.5 12.75 4.83579 12.75 5.25C12.75 5.66421 13.0858 6 13.5 6H15.75V8.25C15.75 8.66421 16.0858 9 16.5 9C16.9142 9 17.25 8.66421 17.25 8.25V6H19.5C19.9142 6 20.25 5.66421 20.25 5.25C20.25 4.83579 19.9142 4.5 19.5 4.5L17.25 4.5V2.25Z" fill="#141414"/>
<path d="M8.25 15.75C7.83579 15.75 7.5 16.0858 7.5 16.5C7.5 16.9142 7.83579 17.25 8.25 17.25H15.75C16.1642 17.25 16.5 16.9142 16.5 16.5C16.5 16.0858 16.1642 15.75 15.75 15.75H8.25Z" fill="#141414"/>
<path d="M7.5 12C7.5 11.5858 7.83579 11.25 8.25 11.25H15.75C16.1642 11.25 16.5 11.5858 16.5 12C16.5 12.4142 16.1642 12.75 15.75 12.75H8.25C7.83579 12.75 7.5 12.4142 7.5 12Z" fill="#141414"/>
<path d="M8.25 6.75C7.83579 6.75 7.5 7.08579 7.5 7.5C7.5 7.91421 7.83579 8.25 8.25 8.25H10.5C10.9142 8.25 11.25 7.91421 11.25 7.5C11.25 7.08579 10.9142 6.75 10.5 6.75H8.25Z" fill="#141414"/>
</svg>
