<svg xmlns="http://www.w3.org/2000/svg" width="24" height="24" fill="none" viewBox="0 0 24 24">
  <path fill="#141414" fill-rule="evenodd" d="M11.586 5.532a.75.75 0 0 1-.117 1.054l-5 4A.75.75 0 0 1 6 10.75H4a.25.25 0 0 0-.25.25v2c0 .138.112.25.25.25h2a.75.75 0 0 1 .469.164l5 4a.75.75 0 1 1-.938 1.172L5.737 14.75H4A1.75 1.75 0 0 1 2.25 13v-2c0-.966.784-1.75 1.75-1.75h1.737l4.794-3.836a.75.75 0 0 1 1.055.118ZM13.47 8.97a.75.75 0 0 1 1.06 0l1.97 1.97 1.97-1.97a.75.75 0 1 1 1.06 1.06L17.56 12l1.97 1.97a.75.75 0 1 1-1.06 1.06l-1.97-1.97-1.97 1.97a.75.75 0 1 1-1.06-1.06L15.44 12l-1.97-1.97a.75.75 0 0 1 0-1.06Z" clip-rule="evenodd"/>
</svg>
