<svg xmlns="http://www.w3.org/2000/svg" width="16" height="16" fill="none" viewBox="0 0 16 16">
  <path fill="#141414" fill-rule="evenodd" d="M7.724 3.688a.5.5 0 0 1-.078.702L4.312 7.057a.5.5 0 0 1-.312.11H3a.5.5 0 0 0-.5.5v.666a.5.5 0 0 0 .5.5h1a.5.5 0 0 1 .312.11l3.334 2.667a.5.5 0 0 1-.625.78L3.825 9.833H3a1.5 1.5 0 0 1-1.5-1.5v-.666a1.5 1.5 0 0 1 1.5-1.5h.825L7.02 3.61a.5.5 0 0 1 .703.078Zm6.63 1.958a.5.5 0 0 1 0 .708l-4 4a.5.5 0 0 1-.708-.708l4-4a.5.5 0 0 1 .708 0Z" clip-rule="evenodd"/>
  <path fill="#141414" fill-rule="evenodd" d="M9.646 5.646a.5.5 0 0 0 0 .708l4 4a.5.5 0 0 0 .708-.708l-4-4a.5.5 0 0 0-.708 0Z" clip-rule="evenodd"/>
</svg>
