<svg xmlns="http://www.w3.org/2000/svg" width="32" height="32" fill="none" viewBox="0 0 32 32">
  <path fill="#141414" fill-rule="evenodd" d="M15.447 7.375a1 1 0 0 1-.156 1.406l-6.666 5.333a1 1 0 0 1-.625.22H5.333a.333.333 0 0 0-.333.333v2.666c0 .184.15.334.333.334H8a1 1 0 0 1 .625.219l6.666 5.333a1 1 0 0 1-1.249 1.562l-6.393-5.114H5.333A2.333 2.333 0 0 1 3 17.333v-2.666a2.333 2.333 0 0 1 2.333-2.334H7.65l6.393-5.114a1 1 0 0 1 1.405.156Zm2.513 4.585a1 1 0 0 1 1.414 0L22 14.586l2.626-2.626a1 1 0 1 1 1.414 1.414L23.414 16l2.626 2.626a1 1 0 1 1-1.414 1.414L22 17.414l-2.626 2.626a1 1 0 1 1-1.414-1.414L20.586 16l-2.626-2.626a1 1 0 0 1 0-1.414Z" clip-rule="evenodd"/>
</svg>
