<svg xmlns="http://www.w3.org/2000/svg" width="24" height="24" fill="none" viewBox="0 0 24 24">
  <path fill="#141414" fill-rule="evenodd" d="M11 2.75a.75.75 0 0 0-.75.75v5.25h-4.5V6.5A.75.75 0 0 0 5 5.75H3a.75.75 0 0 0 0 1.5h1.25v5.25c0 1.3.522 2.478 1.369 3.336a3 3 0 1 0 4.109 1.414h6.544a3 3 0 1 0 4.11-1.414A4.735 4.735 0 0 0 21.75 12.5v-5A4.75 4.75 0 0 0 17 2.75h-6Zm-5.25 7.5v2.25A3.25 3.25 0 0 0 9 15.75h8a3.25 3.25 0 0 0 3.25-3.25v-2.25H5.75Zm6-1.5h8.5V7.5A3.25 3.25 0 0 0 17 4.25h-5.25v4.5ZM7 20a1.5 1.5 0 1 0 0-3 1.5 1.5 0 0 0 0 3Zm13.5-1.5a1.5 1.5 0 1 1-3 0 1.5 1.5 0 0 1 3 0Z" clip-rule="evenodd"/>
</svg>
