<svg xmlns="http://www.w3.org/2000/svg" width="32" height="32" fill="none" viewBox="0 0 32 32">
  <path fill="#141414" fill-rule="evenodd" d="M14.667 3.667a1 1 0 0 0-1 1v7h-6v-3a1 1 0 0 0-1-1H4a1 1 0 0 0 0 2h1.667v7c0 1.733.696 3.304 1.825 4.448A4 4 0 1 0 12.97 23h8.725a4 4 0 1 0 5.479-1.885A6.313 6.313 0 0 0 29 16.666V10a6.333 6.333 0 0 0-6.333-6.333h-8Zm-7 10v3A4.333 4.333 0 0 0 12 21h10.667A4.333 4.333 0 0 0 27 16.666v-3H7.667Zm19.333-2V10a4.333 4.333 0 0 0-4.333-4.333h-7v6H27Zm-17.667 15a2 2 0 1 0 0-4 2 2 0 0 0 0 4Zm18-2a2 2 0 1 1-4 0 2 2 0 0 1 4 0Z" clip-rule="evenodd"/>
</svg>
