<svg xmlns="http://www.w3.org/2000/svg" width="16" height="16" fill="none" viewBox="0 0 16 16">
  <path fill="#141414" fill-rule="evenodd" d="M3 13a1 1 0 1 0 2 0 1 1 0 0 0-2 0Zm1-2a2 2 0 1 0 0 4 2 2 0 0 0 0-4Zm8 2a1 1 0 1 0 2 0 1 1 0 0 0-2 0Zm1-2a2 2 0 1 0 0 4 2 2 0 0 0 0-4Z" clip-rule="evenodd"/>
  <path fill="#141414" fill-rule="evenodd" d="M7.5 3.5A2.5 2.5 0 0 1 10 1h2.5A2.5 2.5 0 0 1 15 3.5v5a3.5 3.5 0 0 1-3.5 3.5h-6A3.5 3.5 0 0 1 2 8.5v-5h-.5a.5.5 0 0 1 0-1h1A.5.5 0 0 1 3 3v5.5A2.5 2.5 0 0 0 5.5 11h6A2.5 2.5 0 0 0 14 8.5v-5A1.5 1.5 0 0 0 12.5 2H10a1.5 1.5 0 0 0-1.5 1.5v2a.5.5 0 0 1-1 0v-2Z" clip-rule="evenodd"/>
  <path fill="#141414" fill-rule="evenodd" d="M2 5.5a.5.5 0 0 1 .5-.5h12a.5.5 0 0 1 0 1h-12a.5.5 0 0 1-.5-.5Z" clip-rule="evenodd"/>
</svg>
