<svg xmlns="http://www.w3.org/2000/svg" width="32" height="32" fill="none" viewBox="0 0 32 32">
  <path fill="#141414" fill-rule="evenodd" d="M13.333 5.667H20a1 1 0 1 1 0 2h-.334v6.772a3 3 0 0 0 .285 1.277l4.058 8.624c.729 1.547-.4 3.326-2.11 3.326H10.1c-1.71 0-2.84-1.779-2.11-3.326l4.057-8.624a3 3 0 0 0 .286-1.277V7.667H12a1 1 0 0 1 0-2h1.333Zm1 2v6.772a5 5 0 0 1-.476 2.129l-4.058 8.623a.333.333 0 0 0 .301.476h11.798a.333.333 0 0 0 .302-.476l-4.058-8.623a5 5 0 0 1-.476-2.129V7.667h-3.333Z" clip-rule="evenodd"/>
</svg>
