<svg xmlns="http://www.w3.org/2000/svg" width="24" height="24" fill="none" viewBox="0 0 24 24">
  <path fill="#141414" fill-rule="evenodd" d="M9.25 5.75H9a.75.75 0 0 1 0-1.5h6a.75.75 0 0 1 0 1.5h-.25v5.08c0 .33.073.658.214.957l3.043 6.468a1.75 1.75 0 0 1-1.583 2.495H7.575a1.75 1.75 0 0 1-1.583-2.495l3.043-6.468c.141-.3.215-.626.215-.958V5.75Zm1.5 0v5.08a3.75 3.75 0 0 1-.357 1.596l-3.044 6.467a.25.25 0 0 0 .226.357h8.849a.25.25 0 0 0 .226-.356l-3.043-6.468a3.75 3.75 0 0 1-.357-1.597V5.75h-2.5Z" clip-rule="evenodd"/>
</svg>
