<svg xmlns="http://www.w3.org/2000/svg" width="16" height="16" fill="none" viewBox="0 0 16 16">
  <path fill="#141414" fill-rule="evenodd" d="M5.5 1a.5.5 0 0 1 .5.5v4.82a5.5 5.5 0 0 1-.58 2.46l-2.25 4.496a.5.5 0 0 0 .448.724h8.764a.5.5 0 0 0 .447-.724L10.581 8.78A5.5 5.5 0 0 1 10 6.32V1.5a.5.5 0 0 1 1 0v4.82a4.5 4.5 0 0 0 .474 2.012l2.249 4.497A1.5 1.5 0 0 1 12.382 15H3.618a1.5 1.5 0 0 1-1.341-2.17l2.248-4.498A4.5 4.5 0 0 0 5 6.32V1.5a.5.5 0 0 1 .5-.5Z" clip-rule="evenodd"/>
  <path fill="#141414" d="M4 1.5a.5.5 0 0 1 .5-.5h7a.5.5 0 1 1 0 1h-7a.5.5 0 0 1-.5-.5Z"/>
</svg>
