<svg xmlns="http://www.w3.org/2000/svg" width="16" height="16" fill="none" viewBox="0 0 16 16">
  <path fill="#141414" fill-rule="evenodd" d="M13.5 13h-11a.5.5 0 0 0 0 1h11a.5.5 0 0 0 0-1Zm-11-1a1.5 1.5 0 0 0 0 3h11a1.5 1.5 0 0 0 0-3h-11Z" clip-rule="evenodd"/>
  <path fill="#141414" d="M9 10a1 1 0 1 1-2 0 1 1 0 0 1 2 0Z"/>
  <path fill="#141414" fill-rule="evenodd" d="M8 3a.5.5 0 0 1 .5.5v4a.5.5 0 0 1-1 0v-4A.5.5 0 0 1 8 3Z" clip-rule="evenodd"/>
  <path fill="#141414" fill-rule="evenodd" d="M8 2a4 4 0 0 0-4 4v6.5a.5.5 0 0 1-1 0V6a5 5 0 0 1 10 0v6.5a.5.5 0 0 1-1 0V6a4 4 0 0 0-4-4Z" clip-rule="evenodd"/>
</svg>
