<svg xmlns="http://www.w3.org/2000/svg" width="24" height="24" fill="none" viewBox="0 0 24 24">
  <path fill="#141414" fill-rule="evenodd" d="M6.75 9a5.25 5.25 0 1 1 10.5 0v7.25H6.75V9Zm-1.5 7.354V9a6.75 6.75 0 0 1 13.5 0v7.354A2.751 2.751 0 0 1 18 21.75H6a2.75 2.75 0 0 1-.75-5.396ZM4.75 19c0-.69.56-1.25 1.25-1.25h12a1.25 1.25 0 1 1 0 2.5H6c-.69 0-1.25-.56-1.25-1.25ZM12 6.25a.75.75 0 0 1 .75.75v3a.75.75 0 0 1-1.5 0V7a.75.75 0 0 1 .75-.75ZM12 14a1 1 0 1 0 0-2 1 1 0 0 0 0 2Z" clip-rule="evenodd"/>
</svg>
