<svg xmlns="http://www.w3.org/2000/svg" width="32" height="32" fill="none" viewBox="0 0 32 32">
  <path fill="#141414" fill-rule="evenodd" d="M9 12a7 7 0 0 1 14 0v9.667H9V12Zm-2 9.805V12a9 9 0 0 1 18 0v9.805A3.668 3.668 0 0 1 24 29H8a3.667 3.667 0 0 1-1-7.195Zm-.667 3.528c0-.92.747-1.666 1.667-1.666h16A1.667 1.667 0 0 1 24 27H8c-.92 0-1.667-.746-1.667-1.667Zm9.667-17a1 1 0 0 1 1 1v4a1 1 0 0 1-2 0v-4a1 1 0 0 1 1-1Zm0 10.334A1.333 1.333 0 1 0 16 16a1.333 1.333 0 0 0 0 2.667Z" clip-rule="evenodd"/>
</svg>
