<svg width="16" height="16" viewBox="0 0 16 16" fill="none" xmlns="http://www.w3.org/2000/svg">
<path fill-rule="evenodd" clip-rule="evenodd" d="M7.5 4.06256V6.94118C7.5 7.21732 7.27614 7.44118 7 7.44118C6.72386 7.44118 6.5 7.21732 6.5 6.94118V5.12138C6.49993 5.11913 6.49972 5.11379 6.49918 5.1058C6.49807 5.08941 6.49565 5.06294 6.49046 5.02995C6.47968 4.96151 6.45908 4.8784 6.42288 4.80174C6.38728 4.72636 6.34304 4.67034 6.28978 4.63275C6.2411 4.59838 6.15643 4.55882 6 4.55882C5.84357 4.55882 5.7589 4.59838 5.71022 4.63275C5.65696 4.67034 5.61272 4.72636 5.57712 4.80174C5.54092 4.8784 5.52032 4.96151 5.50954 5.02995C5.50435 5.06294 5.50193 5.08941 5.50082 5.1058C5.50028 5.11379 5.50007 5.11913 5.5 5.12138V9.05882C5.5 9.33497 5.27614 9.55882 5 9.55882C4.72386 9.55882 4.5 9.33497 4.5 9.05882V8.35704C4.49993 8.35478 4.49972 8.34908 4.49918 8.3411C4.49807 8.32471 4.49565 8.29823 4.49046 8.26525C4.47968 8.19681 4.45908 8.1137 4.42288 8.03703C4.38728 7.96165 4.34304 7.90564 4.28978 7.86804C4.2411 7.83368 4.15643 7.79412 4 7.79412C3.84357 7.79412 3.7589 7.83368 3.71022 7.86804C3.65696 7.90564 3.61272 7.96165 3.57712 8.03703C3.54092 8.1137 3.52032 8.19681 3.50954 8.26525C3.50435 8.29823 3.50193 8.32471 3.50082 8.3411C3.50028 8.34908 3.50007 8.35442 3.5 8.35667V9.76332C3.5 10.3165 3.71162 10.8488 4.09147 11.251L5.57426 12.821C5.98357 13.2544 6.55335 13.5 7.14946 13.5H8.85054C9.44665 13.5 10.0164 13.2544 10.4257 12.821L11.9085 11.251C12.2884 10.8488 12.5 10.3165 12.5 9.76332V6.56255C12.4999 6.56029 12.4997 6.55495 12.4992 6.54698C12.4981 6.53059 12.4956 6.50411 12.4905 6.47113C12.4797 6.40269 12.4229 6.24291 12.4229 6.24291C12.4229 6.24291 12.343 6.11152 12.2898 6.07393C12.2411 6.03956 12.1564 6 12 6C11.8436 6 11.7589 6.03956 11.7102 6.07393C11.657 6.11152 11.6127 6.16754 11.5771 6.24291C11.5409 6.31958 11.5203 6.40269 11.5095 6.47113C11.5044 6.50411 11.5019 6.53059 11.5008 6.54698C11.5003 6.55495 11.5001 6.56029 11.5 6.56255V7.64706C11.5 7.9232 11.2761 8.14706 11 8.14706C10.7239 8.14706 10.5 7.9232 10.5 7.64706V4.76844C10.4999 4.76619 10.4997 4.76085 10.4992 4.75286C10.4981 4.73647 10.4956 4.71 10.4905 4.67701C10.4797 4.60857 10.4591 4.52546 10.4229 4.4488C10.3873 4.37342 10.343 4.3174 10.2898 4.27981C10.2411 4.24544 10.1564 4.20588 10 4.20588C9.84357 4.20588 9.7589 4.24544 9.71022 4.27981C9.65696 4.3174 9.61272 4.37342 9.57712 4.4488C9.54092 4.52546 9.52032 4.60857 9.50954 4.67701C9.50435 4.71 9.50192 4.73647 9.50082 4.75286C9.50028 4.76085 9.50007 4.76619 9.5 4.76844V6.94118C9.5 7.21732 9.27614 7.44118 9 7.44118C8.72386 7.44118 8.5 7.21732 8.5 6.94118V4.06256C8.49993 4.06031 8.49972 4.05497 8.49918 4.04698C8.49808 4.03059 8.49565 4.00411 8.49046 3.97113C8.47968 3.90269 8.45908 3.81958 8.42288 3.74291C8.38728 3.66754 8.34304 3.61152 8.28978 3.57393C8.2411 3.53956 8.15643 3.5 8 3.5C7.84357 3.5 7.7589 3.53956 7.71022 3.57393C7.65696 3.61152 7.61272 3.66754 7.57712 3.74291C7.54092 3.81958 7.52032 3.90269 7.50954 3.97113C7.50435 4.00411 7.50192 4.03059 7.50082 4.04698C7.50028 4.05497 7.50007 4.06031 7.5 4.06256ZM9.3398 3.3434C9.33568 3.33425 9.33146 3.32509 9.32712 3.31591C9.23772 3.12658 9.09446 2.91789 8.86647 2.75696C8.6339 2.59279 8.34357 2.5 8 2.5C7.65643 2.5 7.3661 2.59279 7.13353 2.75696C6.90554 2.91789 6.76228 3.12658 6.67288 3.31591C6.61693 3.43439 6.5796 3.55031 6.55451 3.6524C6.38906 3.59151 6.20391 3.55882 6 3.55882C5.65643 3.55882 5.3661 3.65162 5.13353 3.81578C4.90554 3.97672 4.76228 4.18541 4.67288 4.37473C4.58408 4.56277 4.54218 4.74437 4.52171 4.87446C4.51127 4.94074 4.50589 4.99699 4.50309 5.0385C4.50168 5.05934 4.50091 5.0767 4.50049 5.09002L4.50009 5.10699L4.50002 5.11313L4.5 5.1156L4.5 5.11667L4.5 6.86889C4.34869 6.8201 4.1818 6.79412 4 6.79412C3.65643 6.79412 3.3661 6.88691 3.13353 7.05107C2.90554 7.21201 2.76228 7.4207 2.67288 7.61003C2.58408 7.79807 2.54218 7.97966 2.52171 8.10975C2.51127 8.17603 2.50589 8.23228 2.50309 8.27379C2.50168 8.29463 2.50091 8.31199 2.50049 8.32532L2.50009 8.34229L2.50002 8.34843L2.5 8.35089L2.5 8.35197L2.5 9.76332C2.5 10.5719 2.80929 11.3498 3.36446 11.9376L4.84725 13.5076C5.44546 14.141 6.27822 14.5 7.14946 14.5H8.85054C9.72178 14.5 10.5545 14.141 11.1528 13.5076L12.6355 11.9376C13.1907 11.3498 13.5 10.5719 13.5 9.76332V6.55882L13.5 6.55677L13.5 6.55431L13.4999 6.54817L13.4995 6.5312C13.4991 6.51787 13.4983 6.50051 13.4969 6.47967C13.4941 6.43816 13.4887 6.38192 13.4783 6.31564C13.4578 6.18555 13.4159 6.00395 13.3271 5.81591C13.2377 5.62658 13.0945 5.41789 12.8665 5.25696C12.6339 5.09279 12.3436 5 12 5C11.8182 5 11.6513 5.02598 11.5 5.07477V4.76471L11.5 4.76265L11.5 4.76019L11.4999 4.75405L11.4995 4.73708C11.4991 4.72376 11.4983 4.70639 11.4969 4.68556C11.4941 4.64404 11.4887 4.5878 11.4783 4.52152C11.4578 4.39143 11.4159 4.20983 11.3271 4.02179C11.2377 3.83246 11.0945 3.62378 10.8665 3.46284C10.6339 3.29867 10.3436 3.20588 10 3.20588C9.75151 3.20588 9.53087 3.25442 9.3398 3.3434Z" fill="#141414"/>
</svg>
