<svg width="32" height="32" viewBox="0 0 32 32" fill="none" xmlns="http://www.w3.org/2000/svg">
<path fill-rule="evenodd" clip-rule="evenodd" d="M15 8.75871L15 10.7785L15 10.7796V15.4707C15 16.023 14.5523 16.4707 14 16.4707C13.4477 16.4707 13 16.023 13 15.4707V10.7888C12.9998 10.7847 12.9995 10.7753 12.9986 10.7625C12.9965 10.7333 12.9919 10.685 12.982 10.6245C12.9613 10.4987 12.9219 10.3466 12.853 10.2068C12.7859 10.0706 12.7016 9.96698 12.5959 9.89549C12.4972 9.82873 12.322 9.75011 12 9.75011C11.678 9.75011 11.5028 9.82873 11.4041 9.89549C11.2984 9.96698 11.2141 10.0706 11.147 10.2068C11.0781 10.3466 11.0387 10.4987 11.018 10.6245C11.0081 10.685 11.0035 10.7333 11.0014 10.7625C11.0005 10.7753 11.0002 10.784 11 10.7881V19.5295C11 20.0818 10.5523 20.5295 10 20.5295C9.44772 20.5295 9 20.0818 9 19.5295V18.1854C8.99985 18.1813 8.99946 18.1723 8.99856 18.1596C8.9965 18.1303 8.99191 18.082 8.98197 18.0216C8.96131 17.8958 8.92187 17.7437 8.85299 17.6039C8.78587 17.4677 8.70162 17.364 8.59594 17.2925C8.49724 17.2258 8.32199 17.1472 8 17.1472C7.67801 17.1472 7.50276 17.2258 7.40406 17.2925C7.29838 17.364 7.21413 17.4677 7.14701 17.6039C7.07813 17.7437 7.03869 17.8958 7.01803 18.0216C7.00809 18.082 7.0035 18.1303 7.00144 18.1596C7.00054 18.1723 7.00015 18.181 7 18.1852V20.7255C7 21.8638 7.44791 22.9564 8.24692 23.7672L11.1456 26.7084C11.96 27.5348 13.0717 28.0001 14.232 28.0001H17.768C18.9283 28.0001 20.04 27.5348 20.8544 26.7084L23.7531 23.7672C24.5521 22.9564 25 21.8638 25 20.7255V14.5087C24.9998 14.5046 24.9995 14.4958 24.9986 14.4831C24.9965 14.4538 24.9919 14.4056 24.982 14.3451C24.9613 14.2193 24.9219 14.0672 24.853 13.9274C24.7859 13.7912 24.7016 13.6876 24.5959 13.6161C24.4972 13.5493 24.322 13.4707 24 13.4707C23.678 13.4707 23.5028 13.5493 23.4041 13.6161C23.2984 13.6876 23.2141 13.7912 23.147 13.9274C23.0781 14.0672 23.0387 14.2193 23.018 14.3451C23.0081 14.4056 23.0035 14.4538 23.0014 14.4831C23.0005 14.4958 23.0002 14.5046 23 14.5087V16.8236C23 17.3759 22.5523 17.8236 22 17.8236C21.4477 17.8236 21 17.3759 21 16.8236V10.1117C20.9998 10.1075 20.9995 10.0988 20.9986 10.0861C20.9965 10.0568 20.9919 10.0085 20.982 9.94804C20.9613 9.82227 20.9219 9.67015 20.853 9.53036C20.7859 9.39415 20.7016 9.29051 20.5959 9.21902C20.4972 9.15226 20.322 9.07364 20 9.07364C19.678 9.07364 19.5028 9.15226 19.4041 9.21902C19.2984 9.29051 19.2141 9.39415 19.147 9.53036C19.0781 9.67015 19.0387 9.82227 19.018 9.94804C19.0081 10.0085 19.0035 10.0568 19.0014 10.0861C19.0005 10.0988 19.0002 10.1075 19 10.1117V15.4707C19 16.023 18.5523 16.4707 18 16.4707C17.4477 16.4707 17 16.023 17 15.4707V10.1034V8.75871C16.9998 8.75458 16.9995 8.74585 16.9986 8.73313C16.9965 8.70384 16.9919 8.65558 16.982 8.5951C16.9613 8.46933 16.9219 8.31721 16.853 8.17741C16.7859 8.04121 16.7016 7.93757 16.5959 7.86608C16.4972 7.79932 16.322 7.7207 16 7.7207C15.678 7.7207 15.5028 7.79932 15.4041 7.86608C15.2984 7.93757 15.2141 8.04121 15.147 8.17741C15.0781 8.31721 15.0387 8.46933 15.018 8.5951C15.0081 8.65558 15.0035 8.70384 15.0014 8.73313C15.0005 8.74585 15.0002 8.75458 15 8.75871ZM18.6717 7.34462C18.6637 7.32758 18.6554 7.3105 18.647 7.2934C18.4641 6.92225 18.1734 6.51854 17.7166 6.20952C17.2528 5.89577 16.678 5.7207 16 5.7207C15.322 5.7207 14.7472 5.89577 14.2834 6.20952C13.8266 6.51854 13.5359 6.92225 13.353 7.2934C13.2421 7.51845 13.167 7.73887 13.1159 7.93443C12.7829 7.81424 12.4104 7.75011 12 7.75011C11.322 7.75011 10.7472 7.92518 10.2834 8.23893C9.82662 8.54795 9.53587 8.95166 9.35299 9.32281C9.17187 9.69037 9.08631 10.0456 9.04447 10.3004C9.02316 10.4301 9.01213 10.5404 9.00637 10.6221C9.00349 10.6631 9.0019 10.6974 9.00103 10.7239C9.00059 10.7372 9.00033 10.7485 9.00019 10.7578L9.00004 10.7702L9.00001 10.7753L9 10.7775L9 10.7785L9 15.2924C8.69712 15.1974 8.36339 15.1472 8 15.1472C7.32199 15.1472 6.74724 15.3222 6.28344 15.636C5.82662 15.945 5.53587 16.3487 5.35299 16.7199C5.17187 17.0874 5.08631 17.4426 5.04447 17.6974C5.02316 17.8272 5.01213 17.9375 5.00637 18.0191C5.00349 18.0602 5.0019 18.0945 5.00103 18.1209C5.00059 18.1342 5.00034 18.1456 5.00019 18.1549L5.00004 18.1673L5.00001 18.1723L5 18.1745L5 18.1756L5 20.7255C5 22.3892 5.65463 23.9861 6.82242 25.171L9.72107 28.1123C10.9113 29.3201 12.5362 30.0001 14.232 30.0001H17.768C19.4638 30.0001 21.0887 29.3201 22.2789 28.1123L25.1776 25.171C26.3454 23.9861 27 22.3892 27 20.7255C27 20.7255 27 16.9313 27 14.5001L27 14.4959L27 14.4908L26.9998 14.4784C26.9997 14.4691 26.9994 14.4577 26.999 14.4445C26.9981 14.418 26.9965 14.3837 26.9936 14.3427C26.9879 14.261 26.9768 14.1507 26.9555 14.0209C26.9137 13.7662 26.8281 13.411 26.647 13.0434C26.4641 12.6723 26.1734 12.2685 25.7166 11.9595C25.2528 11.6458 24.678 11.4707 24 11.4707C23.6366 11.4707 23.3029 11.521 23 11.616V10.1031L23 10.0988L23 10.0938L22.9998 10.0813C22.9997 10.072 22.9994 10.0607 22.999 10.0474C22.9981 10.0209 22.9965 9.98665 22.9936 9.94563C22.9879 9.86394 22.9768 9.75365 22.9555 9.62388C22.9137 9.36913 22.8281 9.0139 22.647 8.64634C22.4641 8.27519 22.1734 7.87148 21.7166 7.56246C21.2528 7.24871 20.678 7.07364 20 7.07364C19.5001 7.07364 19.0563 7.16883 18.6717 7.34462Z" fill="#141414"/>
</svg>
