<svg width="24" height="24" viewBox="0 0 24 24" fill="none" xmlns="http://www.w3.org/2000/svg">
<path fill-rule="evenodd" clip-rule="evenodd" d="M11.25 7.00677V12C11.25 12.4142 10.9142 12.75 10.5 12.75C10.0858 12.75 9.75 12.4142 9.75 12V8.50677C9.74988 8.50378 9.7496 8.49772 9.74898 8.48898C9.74747 8.46791 9.7441 8.4329 9.73677 8.38892C9.72152 8.29742 9.69241 8.18687 9.64168 8.08541C9.59242 7.98688 9.5303 7.91117 9.45116 7.85841C9.37672 7.80879 9.24376 7.75 9 7.75C8.75624 7.75 8.62328 7.80879 8.54884 7.85841C8.4697 7.91117 8.40758 7.98688 8.35832 8.08541C8.30759 8.18687 8.27848 8.29742 8.26323 8.38892C8.2559 8.4329 8.25253 8.46791 8.25102 8.48898C8.2504 8.49772 8.25012 8.50378 8.25 8.50677V15C8.25 15.4142 7.91421 15.75 7.5 15.75C7.08579 15.75 6.75 15.4142 6.75 15V14.0074C6.74988 14.0044 6.7496 13.9977 6.74898 13.989C6.74747 13.9679 6.7441 13.9329 6.73677 13.8889C6.72152 13.7974 6.69241 13.6869 6.64168 13.5854C6.59242 13.4869 6.5303 13.4112 6.45116 13.3584C6.37672 13.3088 6.24376 13.25 6 13.25C5.75624 13.25 5.62328 13.3088 5.54884 13.3584C5.4697 13.4112 5.40758 13.4869 5.35832 13.5854C5.30759 13.6869 5.27848 13.7974 5.26323 13.8889C5.2559 13.9329 5.25253 13.9679 5.25102 13.989C5.2504 13.9977 5.25012 14.0038 5.25 14.0068V15.8431C5.25 16.7051 5.59241 17.5317 6.2019 18.1412L8.35876 20.2981C8.96825 20.9076 9.7949 21.25 10.6569 21.25H13.3431C14.2051 21.25 15.0317 20.9076 15.6412 20.2981L17.7981 18.1412C18.4076 17.5317 18.75 16.7051 18.75 15.8431V11.2568C18.7499 11.2538 18.7496 11.2477 18.749 11.239C18.7475 11.2179 18.7441 11.1829 18.7368 11.1389C18.7215 11.0474 18.6924 10.9369 18.6417 10.8354C18.5924 10.7369 18.5303 10.6612 18.4512 10.6084C18.3767 10.5588 18.2438 10.5 18 10.5C17.7562 10.5 17.6233 10.5588 17.5488 10.6084C17.4697 10.6612 17.4076 10.7369 17.3583 10.8354C17.3076 10.9369 17.2785 11.0474 17.2632 11.1389C17.2559 11.1829 17.2525 11.2179 17.251 11.239C17.2504 11.2477 17.2501 11.2538 17.25 11.2568V13.5C17.25 13.9142 16.9142 14.25 16.5 14.25C16.0858 14.25 15.75 13.9142 15.75 13.5V8.00676C15.7499 8.00377 15.7496 7.99771 15.749 7.98898C15.7475 7.96791 15.7441 7.9329 15.7368 7.88892C15.7215 7.79742 15.6924 7.68687 15.6417 7.58541C15.5924 7.48688 15.5303 7.41117 15.4512 7.35841C15.3767 7.30879 15.2438 7.25 15 7.25C14.7562 7.25 14.6233 7.30879 14.5488 7.35841C14.4697 7.41117 14.4076 7.48688 14.3583 7.58541C14.3076 7.68687 14.2785 7.79742 14.2632 7.88892C14.2559 7.9329 14.2525 7.96791 14.251 7.98898C14.2504 7.99771 14.2501 8.00377 14.25 8.00676V12C14.25 12.4142 13.9142 12.75 13.5 12.75C13.0858 12.75 12.75 12.4142 12.75 12V7.00676C12.7499 7.00377 12.7496 6.99771 12.749 6.98898C12.7475 6.96791 12.7441 6.9329 12.7368 6.88892C12.7215 6.79742 12.6924 6.68687 12.6417 6.58541C12.5924 6.48688 12.5303 6.41117 12.4512 6.35841C12.3767 6.30879 12.2438 6.25 12 6.25C11.7562 6.25 11.6233 6.30879 11.5488 6.35841C11.4697 6.41117 11.4076 6.48688 11.3583 6.58541C11.3076 6.68687 11.2785 6.79742 11.2632 6.88892C11.2559 6.9329 11.2525 6.96791 11.251 6.98898C11.2504 6.99772 11.2501 7.00378 11.25 7.00677ZM14.0017 5.95219C13.9957 5.93968 13.9896 5.92715 13.9833 5.91459C13.8451 5.63812 13.626 5.33883 13.2832 5.11034C12.9358 4.87871 12.5062 4.75 12 4.75C11.4938 4.75 11.0642 4.87871 10.7168 5.11034C10.374 5.33883 10.1549 5.63812 10.0167 5.91459C9.93375 6.08045 9.87734 6.24297 9.83872 6.38752C9.58844 6.29779 9.30846 6.25 9 6.25C8.49376 6.25 8.06422 6.37871 7.71679 6.61034C7.37405 6.83883 7.15492 7.13812 7.01668 7.41459C6.87991 7.68813 6.81527 7.95258 6.78364 8.14233C6.76753 8.23898 6.75919 8.32116 6.75484 8.38211C6.75265 8.41272 6.75144 8.43834 6.75078 8.45817L6.75014 8.4836L6.75003 8.49296L6.75001 8.49677L6.75 8.49846C6.75 8.50059 6.75 8.5 6.75 8.5V11.8579C6.52279 11.7873 6.27251 11.75 6 11.75C5.49376 11.75 5.06422 11.8787 4.71679 12.1103C4.37405 12.3388 4.15492 12.6381 4.01668 12.9146C3.87991 13.1881 3.81527 13.4526 3.78364 13.6423C3.76753 13.739 3.75919 13.8212 3.75484 13.8821C3.75265 13.9127 3.75144 13.9383 3.75078 13.9582L3.75014 13.9836L3.75003 13.993L3.75001 13.9968L3.75 13.9985C3.75 14.0008 3.75 14 3.75 14V15.8431C3.75 17.1029 4.25044 18.3111 5.14124 19.2019L7.2981 21.3588C8.18889 22.2496 9.39708 22.75 10.6569 22.75H13.3431C14.6029 22.75 15.8111 22.2496 16.7019 21.3588L18.8588 19.2019C19.7496 18.3111 20.25 17.1029 20.25 15.8431V11.25L20.25 11.2468L20.25 11.243L20.2499 11.2336L20.2492 11.2082C20.2486 11.1883 20.2473 11.1627 20.2452 11.1321C20.2408 11.0712 20.2325 10.989 20.2164 10.8923C20.1847 10.7026 20.1201 10.4381 19.9833 10.1646C19.8451 9.88812 19.626 9.58883 19.2832 9.36034C18.9358 9.12871 18.5062 9 18 9C17.7275 9 17.4772 9.0373 17.25 9.10786V8L17.25 7.99677L17.25 7.99296L17.2499 7.9836L17.2492 7.95817C17.2486 7.93834 17.2474 7.91272 17.2452 7.88211C17.2408 7.82116 17.2325 7.73898 17.2164 7.64233C17.1847 7.45258 17.1201 7.18813 16.9833 6.91459C16.8451 6.63812 16.626 6.33883 16.2832 6.11034C15.9358 5.87871 15.5062 5.75 15 5.75C14.6242 5.75 14.2907 5.82092 14.0017 5.95219Z" fill="#141414"/>
</svg>
