<svg xmlns="http://www.w3.org/2000/svg" width="32" height="32" fill="none" viewBox="0 0 32 32">
  <path fill="#141414" fill-rule="evenodd" d="M8.592 10.381a2 2 0 0 0 2-2v-.38c0-.369.299-.667.667-.667h9.482c.368 0 .666.298.666.666v.381a2 2 0 0 0 2 2h3.26c.368 0 .666.299.666.667V24a.667.667 0 0 1-.666.667H5.332A.667.667 0 0 1 4.666 24V11.048c0-.368.299-.667.667-.667h3.26Zm-5.926.667A2.667 2.667 0 0 1 5.333 8.38h3.26V8a2.667 2.667 0 0 1 2.666-2.667h9.482A2.667 2.667 0 0 1 23.407 8v.381h3.26a2.667 2.667 0 0 1 2.666 2.667V24a2.667 2.667 0 0 1-2.666 2.667H5.332A2.667 2.667 0 0 1 2.666 24V11.048ZM16 11.334a.667.667 0 0 0 0 1.333 4 4 0 0 1 2.82 6.836v-1.041a.667.667 0 0 0-1.333 0v3.18h3.18a.667.667 0 0 0 0-1.334h-.77A5.333 5.333 0 0 0 16 11.334Zm-4 5.333c0-1.108.45-2.112 1.18-2.837v1.042a.667.667 0 0 0 1.333 0v-3.18h-3.18a.667.667 0 0 0 0 1.334h.77A5.333 5.333 0 0 0 16 22a.667.667 0 0 0 0-1.333 4 4 0 0 1-4-4Z" clip-rule="evenodd"/>
</svg>
