<svg xmlns="http://www.w3.org/2000/svg" width="16" height="16" fill="none" viewBox="0 0 16 16">
  <path fill="#141414" fill-rule="evenodd" d="M4.296 5.19a1 1 0 0 0 1-1V4c0-.184.15-.333.334-.333h4.74c.185 0 .334.15.334.333v.19a1 1 0 0 0 1 1h1.63c.184 0 .333.15.333.334V12c0 .184-.15.334-.333.334H2.667A.333.333 0 0 1 2.334 12V5.524c0-.184.149-.333.333-.333h1.63Zm-2.963.334c0-.736.597-1.333 1.334-1.333h1.63V4c0-.737.596-1.334 1.333-1.334h4.74c.737 0 1.334.597 1.334 1.333v.19h1.63c.736 0 1.333.598 1.333 1.334V12c0 .737-.597 1.334-1.333 1.334H2.667A1.333 1.333 0 0 1 1.334 12V5.524ZM8 5.667a.333.333 0 0 0 0 .667 2 2 0 0 1 1.41 3.418v-.52a.333.333 0 1 0-.666 0v1.589h1.59a.333.333 0 1 0 0-.667h-.385A2.667 2.667 0 0 0 8 5.667ZM6 8.334c0-.554.225-1.056.59-1.419v.521a.333.333 0 1 0 .667 0v-1.59h-1.59a.333.333 0 1 0 0 .667h.385A2.667 2.667 0 0 0 8 11a.333.333 0 1 0 0-.666 2 2 0 0 1-2-2Z" clip-rule="evenodd"/>
</svg>
