<svg xmlns="http://www.w3.org/2000/svg" width="24" height="24" fill="none" viewBox="0 0 24 24">
  <path fill="#141414" fill-rule="evenodd" d="M6.444 7.786a1.5 1.5 0 0 0 1.5-1.5V6a.5.5 0 0 1 .5-.5h7.112a.5.5 0 0 1 .5.5v.286a1.5 1.5 0 0 0 1.5 1.5H20a.5.5 0 0 1 .5.5V18a.5.5 0 0 1-.5.5H4a.5.5 0 0 1-.5-.5V8.286a.5.5 0 0 1 .5-.5h2.444ZM2 8.286a2 2 0 0 1 2-2h2.444V6a2 2 0 0 1 2-2h7.112a2 2 0 0 1 2 2v.286H20a2 2 0 0 1 2 2V18a2 2 0 0 1-2 2H4a2 2 0 0 1-2-2V8.286ZM12 8.5a.5.5 0 0 0 0 1 3 3 0 0 1 2.115 5.127v-.78a.5.5 0 0 0-1 0v2.384H15.5a.5.5 0 1 0 0-1h-.577A4 4 0 0 0 12 8.5Zm-3 4c0-.831.338-1.584.885-2.127v.78a.5.5 0 0 0 1 0V8.77H8.5a.5.5 0 0 0 0 1h.577A4 4 0 0 0 12 16.5a.5.5 0 0 0 0-.999 3 3 0 0 1-3-3Z" clip-rule="evenodd"/>
</svg>
